<mxfile host="app.diagrams.net" modified="2023-07-04T12:23:25.732Z" agent="Mozilla/5.0 (Windows NT 10.0; Win64; x64) AppleWebKit/537.36 (KHTML, like Gecko) Chrome/114.0.0.0 Safari/537.36" etag="JK8Dd6EgmHrRleXdr16B" version="21.5.2" type="github">
  <diagram id="prtHgNgQTEPvFCAcTncT" name="Page-1">
    <mxGraphModel dx="1720" dy="644" grid="1" gridSize="10" guides="1" tooltips="1" connect="1" arrows="1" fold="1" page="1" pageScale="1" pageWidth="827" pageHeight="1169" math="0" shadow="0">
      <root>
        <mxCell id="0" />
        <mxCell id="1" parent="0" />
        <mxCell id="h-uWqXhC26z4cYvZZrTg-1" value="Annual cost" style="rounded=0;whiteSpace=wrap;html=1;fillColor=#f8cecc;strokeColor=#b85450;" vertex="1" parent="1">
          <mxGeometry x="60" y="60" width="120" height="60" as="geometry" />
        </mxCell>
        <mxCell id="h-uWqXhC26z4cYvZZrTg-2" value="Investment cost" style="rounded=0;whiteSpace=wrap;html=1;fillColor=#f8cecc;strokeColor=#b85450;" vertex="1" parent="1">
          <mxGeometry x="60" y="150" width="120" height="60" as="geometry" />
        </mxCell>
        <mxCell id="h-uWqXhC26z4cYvZZrTg-3" value="Profit margin" style="rounded=0;whiteSpace=wrap;html=1;fillColor=#d5e8d4;strokeColor=#82b366;" vertex="1" parent="1">
          <mxGeometry x="60" y="240" width="120" height="60" as="geometry" />
        </mxCell>
        <mxCell id="h-uWqXhC26z4cYvZZrTg-4" value="Annual cost" style="rounded=0;whiteSpace=wrap;html=1;fillColor=#f8cecc;strokeColor=#b85450;" vertex="1" parent="1">
          <mxGeometry x="60" y="330" width="120" height="60" as="geometry" />
        </mxCell>
        <mxCell id="h-uWqXhC26z4cYvZZrTg-5" value="Investment cost" style="rounded=0;whiteSpace=wrap;html=1;fillColor=#f8cecc;strokeColor=#b85450;" vertex="1" parent="1">
          <mxGeometry x="60" y="420" width="120" height="60" as="geometry" />
        </mxCell>
        <mxCell id="h-uWqXhC26z4cYvZZrTg-6" value="Profit margin" style="rounded=0;whiteSpace=wrap;html=1;fillColor=#d5e8d4;strokeColor=#82b366;" vertex="1" parent="1">
          <mxGeometry x="60" y="510" width="120" height="60" as="geometry" />
        </mxCell>
        <mxCell id="h-uWqXhC26z4cYvZZrTg-7" value="" style="endArrow=classic;html=1;rounded=0;" edge="1" parent="1">
          <mxGeometry width="50" height="50" relative="1" as="geometry">
            <mxPoint x="200" y="540" as="sourcePoint" />
            <mxPoint x="280" y="540" as="targetPoint" />
          </mxGeometry>
        </mxCell>
        <mxCell id="h-uWqXhC26z4cYvZZrTg-8" value="" style="endArrow=classic;html=1;rounded=0;" edge="1" parent="1">
          <mxGeometry width="50" height="50" relative="1" as="geometry">
            <mxPoint x="200" y="269.5" as="sourcePoint" />
            <mxPoint x="280" y="269.5" as="targetPoint" />
          </mxGeometry>
        </mxCell>
        <mxCell id="h-uWqXhC26z4cYvZZrTg-9" value="" style="endArrow=classic;html=1;rounded=0;" edge="1" parent="1">
          <mxGeometry width="50" height="50" relative="1" as="geometry">
            <mxPoint x="200" y="360" as="sourcePoint" />
            <mxPoint x="280" y="400" as="targetPoint" />
          </mxGeometry>
        </mxCell>
        <mxCell id="h-uWqXhC26z4cYvZZrTg-10" value="" style="endArrow=classic;html=1;rounded=0;" edge="1" parent="1">
          <mxGeometry width="50" height="50" relative="1" as="geometry">
            <mxPoint x="200" y="80" as="sourcePoint" />
            <mxPoint x="280" y="120" as="targetPoint" />
          </mxGeometry>
        </mxCell>
        <mxCell id="h-uWqXhC26z4cYvZZrTg-11" value="" style="endArrow=classic;html=1;rounded=0;" edge="1" parent="1">
          <mxGeometry width="50" height="50" relative="1" as="geometry">
            <mxPoint x="200" y="185" as="sourcePoint" />
            <mxPoint x="280" y="120" as="targetPoint" />
          </mxGeometry>
        </mxCell>
        <mxCell id="h-uWqXhC26z4cYvZZrTg-12" value="" style="endArrow=classic;html=1;rounded=0;" edge="1" parent="1">
          <mxGeometry width="50" height="50" relative="1" as="geometry">
            <mxPoint x="200" y="465" as="sourcePoint" />
            <mxPoint x="280" y="400" as="targetPoint" />
          </mxGeometry>
        </mxCell>
        <mxCell id="h-uWqXhC26z4cYvZZrTg-13" value="Total costs" style="ellipse;whiteSpace=wrap;html=1;fillColor=#f8cecc;strokeColor=#b85450;" vertex="1" parent="1">
          <mxGeometry x="294" y="80" width="120" height="80" as="geometry" />
        </mxCell>
        <mxCell id="h-uWqXhC26z4cYvZZrTg-14" value="Income" style="ellipse;whiteSpace=wrap;html=1;fillColor=#d5e8d4;strokeColor=#82b366;" vertex="1" parent="1">
          <mxGeometry x="294" y="230" width="120" height="80" as="geometry" />
        </mxCell>
        <mxCell id="h-uWqXhC26z4cYvZZrTg-15" value="Total costs" style="ellipse;whiteSpace=wrap;html=1;fillColor=#f8cecc;strokeColor=#b85450;" vertex="1" parent="1">
          <mxGeometry x="294" y="360" width="120" height="80" as="geometry" />
        </mxCell>
        <mxCell id="h-uWqXhC26z4cYvZZrTg-16" value="Income" style="ellipse;whiteSpace=wrap;html=1;fillColor=#d5e8d4;strokeColor=#82b366;" vertex="1" parent="1">
          <mxGeometry x="294" y="500" width="120" height="80" as="geometry" />
        </mxCell>
        <mxCell id="h-uWqXhC26z4cYvZZrTg-18" value="Net present value&amp;nbsp;&lt;br&gt;Agroforestry" style="ellipse;whiteSpace=wrap;html=1;gradientColor=#55d70f;fillColor=#FF6666;strokeWidth=2;" vertex="1" parent="1">
          <mxGeometry x="490" y="430" width="120" height="80" as="geometry" />
        </mxCell>
        <mxCell id="h-uWqXhC26z4cYvZZrTg-20" value="Net present value&lt;br&gt;Agrivoltaics" style="ellipse;whiteSpace=wrap;html=1;gradientColor=#55d70f;fillColor=#FF6666;strokeWidth=2;" vertex="1" parent="1">
          <mxGeometry x="490" y="150" width="120" height="80" as="geometry" />
        </mxCell>
        <mxCell id="h-uWqXhC26z4cYvZZrTg-21" value="" style="shape=flexArrow;endArrow=classic;html=1;rounded=0;fillColor=#d5e8d4;strokeColor=#82b366;" edge="1" parent="1">
          <mxGeometry width="50" height="50" relative="1" as="geometry">
            <mxPoint x="430" y="540" as="sourcePoint" />
            <mxPoint x="490" y="490" as="targetPoint" />
          </mxGeometry>
        </mxCell>
        <mxCell id="h-uWqXhC26z4cYvZZrTg-22" value="" style="shape=flexArrow;endArrow=classic;html=1;rounded=0;fillColor=#d5e8d4;strokeColor=#82b366;" edge="1" parent="1">
          <mxGeometry width="50" height="50" relative="1" as="geometry">
            <mxPoint x="430" y="260" as="sourcePoint" />
            <mxPoint x="490" y="210" as="targetPoint" />
          </mxGeometry>
        </mxCell>
        <mxCell id="h-uWqXhC26z4cYvZZrTg-23" value="" style="shape=flexArrow;endArrow=classic;html=1;rounded=0;fillColor=#f8cecc;strokeColor=#b85450;" edge="1" parent="1">
          <mxGeometry width="50" height="50" relative="1" as="geometry">
            <mxPoint x="420" y="410" as="sourcePoint" />
            <mxPoint x="490" y="450" as="targetPoint" />
          </mxGeometry>
        </mxCell>
        <mxCell id="h-uWqXhC26z4cYvZZrTg-24" value="" style="shape=flexArrow;endArrow=classic;html=1;rounded=0;fillColor=#f8cecc;strokeColor=#b85450;" edge="1" parent="1">
          <mxGeometry width="50" height="50" relative="1" as="geometry">
            <mxPoint x="420" y="130" as="sourcePoint" />
            <mxPoint x="490" y="170" as="targetPoint" />
          </mxGeometry>
        </mxCell>
        <mxCell id="h-uWqXhC26z4cYvZZrTg-25" value="" style="shape=curlyBracket;whiteSpace=wrap;html=1;rounded=1;flipH=1;labelPosition=right;verticalLabelPosition=middle;align=left;verticalAlign=middle;" vertex="1" parent="1">
          <mxGeometry x="630" y="170" width="20" height="310" as="geometry" />
        </mxCell>
        <mxCell id="h-uWqXhC26z4cYvZZrTg-26" value="" style="shape=image;verticalLabelPosition=bottom;labelBackgroundColor=default;verticalAlign=top;aspect=fixed;imageAspect=0;image=data:image/png,iVBORw0KGgoAAAANSUhEUgAAAs0AAAIfCAYAAACLueGlAAAAAXNSR0IArs4c6QAAAARnQU1BAACxjwv8YQUAAAAJcEhZcwAAFxEAABcRAcom8z8AAP+lSURBVHhe7N0HuC5VlSf8+cJM93RPz9eGVhvbHNqsbSQnMecsCgICKkEwgSigSFJAUYKCgIgoiIKYEEVRwCyIAQxgxIja5k4z0z1T3/lt7rpuitq79nvue+4951L/51nPe07Vqh2rav9r7bXX/k/dhAkTJkyYcCPG//k//6f7j//4j+7f//3f06//h+D4//7f/3u1Xgn06BD6JUS+tTwhz7NWNudb8xzTg8h3LL2xskFLHSD0SEnP8Zb0HI+0xuoQbVJKC/I8a+k5R2esbJFnTQ8i39Y60Cull5etll7kSVrKJr0S+mUrIdcby7MlvdCrlW1WTKR5woQJEybcaDHrgE7mNfDTobumenmerXrzqGuUbSw952ZJj16tDq16LWXL61pKCyLPsfTmXYeWsoVeS13H8oSWsgE9OmN5Rtn8lhB6rXmSWr6terNiIs0TJkyYMOFGCwNqK3lpJSUtejGgjxGEWctWS6+1DqHntwRpOE9q6bXUAeapl9ehVrZZ9CLPmp5zdGplg3mWDVr0WstGL+raojdWtjy9EqKuY3k6Jy3SqjdWvlkxkeYJEyZMmHCjRAtBcDwGdFJC6EV6JeTplfIE55aqbGPpteiN6cA89Ryfpb9Cr4TQIzVileuV8oTFlK2mJ73It4TQa6nrWJ7QUgdwbtayldKLtOi15indEqLdpFfTWywm0jxhwoQJE250MAgbWEkJrQN1pNWiN0t6xN9DcFwadPzW9OQX5ZuHXpStVAc6UbZaXXM9UstTOiG19CIteiXk6ZXSgjy9Mb2WskVd6fl/CKHXUjY6LXUNnVp6UTZSQ+iNlS3SailbS3qt+cpvrK5rgok0T5gwYcKEGx0MqgZXA+0QYqAeG4BnGfhbBnTnIr1S2SD0anUA58f0omyz6JXqQGeWOvyv//W/qnkCPTp+W8s2phfplUCvtQ50anWIPFvLFnol0It8x9KjQ0o6EHq1OkCUrVVvHnWF0Kvl6VxL2dYUE2meMGHChAk3OhhYa4OrgdwAXBvQXd8y8Od6Y3nGwF9LL9LyW0svL1tLvjU956Q3VrZIK9IrIfTG6pDnW9Jz3PmxPOnRQdTH9MbSoxN6tbJBXtcaQm9NywatepEnGatDtFtNb5ayzbsfxvKdBybSvAJQu0Fz0HPT/M//+T+7f/mXf+n++Mc/dr///e+73/zmN90//uM/JvnVr36VxN+O//a3v006//RP/9T967/+a7qJ48YjtbxbyzVhwoQJKwnefQbh2gDcOlDnerV3pjTojOlFWn5LenmefksIPTJWhyhbTS/qUCsb5GWr6UkvyteS3lgdIq2xOsya3lgdZqlrTSfyjPRKiLRa8mwpm3Nj7QEtZcvrUEsv6tCaHhkr3zwwkeYVADeFm8FvLn049s///M/dL37xi+7b3/5294UvfKG78MILuw9/+MPdOeec05155pndO9/5zu5d73pXd9ZZZ3Uf+MAHuvPPP7+75JJLussvv7z77ne/2/3yl79MafyP//E/0k3Yz8f/eVkmTJgwYX1BvN/GBmB6dAzotfdg6A29S3PIS1o1IpHnWUtvMXqtda3pteQJUdd56EXZSEsdZsmzlp5zY+lFnq11HcszT49eKT3nWuvQ4hoT+ZIS8rLV0svTGstTWlHXEvJ8S3p0annNiok0rxC4IUjcJG521mEk93vf+14ivRdddFH3vve9rzv55JO7ww8/vNt333273Xbbrdtpp526Zz3rWd1TnvKU7olPfGL3pCc9qXv605/ebb/99t0uu+zS7b333t0BBxzQveENb+je9ra3pTQ+/vGPJ9L9rW99q/vZz37W/eEPf0gW7PzGjBtxnjfkhAkTJqwLxLu1ZaAOctCqV3tHSmMsvbxsY+nleiXk6bXUYUwvr0NrXUt6jrfo0WmtQ+jVytaK1rpGnjU9x6MeLXVo0Ys8a3qtdWjRi7LRa6kDvVqeoUfG6tCiFzrzwkSalzncQHHj/tu//VtyuQiijNS+5z3v6Y444ohu9913757whCd0m2yySXfve9+7u+Md79jd5ja36TbYYIPuVre6VXfLW96yu8UtbtHd/OY3T+Jvx//2b/+2u/Wtb93d9ra37e5617t2973vfbvNNtuse/zjH9/tuuuu3Wte85ruHe94R/epT30qEeif//zniUBz5UCiWx68CRMmTFjOyAf02gBLj06LL2bLuzHe7fRK6eVlo1NKz/E8vRL66ZVAj86YXp6na0rlm7Vskd4QWstWQ5THOGZs5dJIzLKOpVurp+OuVf7Wuo7VoUUv0iM1PeekVSsbtNQBnG8t27z0omw1veiHlrrOgok0L1Po8BCd7qFGlr/2ta91H/rQh7o3vvGN3Yte9KLuyU9+crfxxht3d77znRMZ/vM///Pu//6//+/uP/2n/7Qoce1f/MVfpLTucIc7dA94wAO6Rz/60d1zn/vc7qCDDupOO+20ZNHmyvHrX/969QtGOaPcEyZMmLBS4J0Vg6vf0jssdMb0IHRrOs4ZzEkpPccirbE8cxJR04v06Jf0QifSK8G5qENLnqSlDmNlCz1/19JDiH/3u9+lscr4ec0113Tf+MY3ui9+8YvJdfEjH/lIclN873vfm1wWzz777O79739/cls0zl166aXd1Vdf3f30pz9N11sLZIa3lKfjLWVr1YNoO78lOCe9aLdSepEWac2zpOd46EW+Q3A86lrLs69X0u3nWdKLtIhr5oWJNC9TxA2ELHtQPbif+MQnuuOOO657/vOfnyzKrMP/7b/9t+4//+f/nMjukPxf/9f/tZoM147H/37zY//P//P/dH/2Z3/W3eQmN+nufve7d495zGO6l73sZd3b3/727uKLL+6+//3vp8WELM+1B2zChAkTliO8t7xra++veB/HADymR2rvQudaBv4o21h6zufpDcHxWfVqeYZeLS1oyRNa9CJPetpmCMYiLoUMTMivmdI3v/nN3ZFHHtm9+tWv7l760pd2L3jBC7rnPOc53TOe8YzVbotmav0+9alP7bbddtvk1rjHHnt0L3/5y7uDDz64e/3rX9+dcMIJiVx/+tOf7r7zne8kMq4sOVrqquxRh9a6jum15jkPvchz1rqWEOm1pNWi53xL2RaDiTQvE+jYXHQ4Vwyk1BcxyzJr76abbtrd6U536m52s5t1//W//tdEanOS25chIhzH41z/WF+cQ8wRdO4cyPPWW2+dXjzHH39898lPfjK5i4jCEdOW/fpMmDBhwnJDDMLxzhqC4zEIjw38dFoJwpheS9kgT6ulDn5LepFna9lqaQG9sTyhRS+vQ1+HcYkV+Utf+lJa8P7KV75yNSk2G4sQP+5xj0tGnxAzqCQ/9tjHPjZJfiz0XC+dINXWCx199NHJWv31r389WaKVrYaoA6m1L0Rda3qt6c3SD5FWTS/KVksv0hpLz/FIi14J9CK9Wtmk0VLXxWIizesYOpXkN5gvZdZlX8q+avfbb7/ukY98ZCLLXCdyoktyQlwivbXzLZJfKy0E+u///u+T7/P+++/fvfvd7+6+/OUvpy980TdiVW7tYZkwYcKEdYV459YGajAAk5qed5y0ZtGrvRelEQN/DfTiXVtD5Om3lK/jdMbqEGUjtTrk6bXotZQtLxfXwGuvvTZZfLlVPO95z7sB2fUbRDiXoeNIcS6hl0vo5v/7RaZf9apXJZeOH/zgB2n2dahP8n6oIdq41g/apCW9aDtSal8IPWnV9KJsNb08z5Y6jK0RAHqktU1qdVgTTKR5HUPHxk0Y8ZV/9KMfdZ/5zGdSNAtRLpDTv/qrv0rW3pzIrktBov/Lf/kv3U1vetPunve8Z/qityDxYx/7WPJ39tJoWVAxYcKECesC3kutA3CLHqkN1PGeH9OLPOeh53jkO1YHOmN6kRaplW1WvbE6xHn6fJSvuuqqtLaH28SOO+6Y3CqQ5Ec96lHXI8t9IhxkOJchHTKm51jkSfzP1YMF2gwsFw5juXEwoPykhKhrS5tE+9bSi/YlpbSAnvxqaUGUrbUOY3pRtnmkFzp+a3VdU0ykeR1D57oREGabjXgZCPl24IEHpgfSAr+//Mu/HCSuy0FYnRH6u9zlLt3DH/7wbp999ulOP/30ZHUWL9oLYylv4AkTJkyYN/KBuvb+Cr2xgdo7PghCSS/Ps5ZeX6+G0FubpCT0SE1PXnTH0gswKF1xxRXdW9/61u4lL3lJCqOKvAZpzS3BfYJL4lwuQ3pkVh1ivA4R1pU7Jevzueeem6JOGeNr6PdDqU3iXhprt9Br6YdIr4YoWy3fvA5jeYaev0vI0yvp0cnrUMt3HphI8zpE3tm+nq+88srkjyV83AMf+MDkt7ycrMtDwuJM/t//9//t/r//7//r/uEf/iF9+Z944onJv8zug6ZelvpGnjBhwoR5wLvKO5nU3lutA3Xo1dJzfF4kAnI9vyVIw3lSSy9Pq6WutTxdn+c7lh5hUDrllFPSInjWXKQ1CGpOlkmf3IbQ6wv9/Dck0o1z/bTzY7nEubjW/2ZhLZ4/77wPp3U/Q4j+IrV+yNu3pgfRdmOgU+sDkN8s91wtvVn0oq41PWUaK9s8MZHmdYi4KSz4s5Dg1FNPTYsX7nOf+6RoFQjzmvghL7UoG0tz/v9//+//vbvHPe6RFkqI9IE4888ee0AmTJgwYV0jBuCxQdi7zGDeOqDX9CKtyLNVr4RWvShbq15rXf2O1SGklp60fvKTn6SZVxtwWdAXRDknqLkEqc3PBYENccxaHC4d0kTCLe7zy0Ic4jy9SKeUVp5nLs4pq/VILOHPfvaz06ZjZmFZzQOz9tdYuznHUGWW1y8Lt7/95uJY6NQQZfNbQmsd6NFpqav0SEt69Ept4ngtjVmxXpJmjRQNReJ/kiM6xg1k9a0FeBaxETd1/O143FzRiXlaefp9ydE/p7OFrPnKV76SLLPbbbdd2mCEuwPLLUKak9LlKH1SH+4a/LB9Yb/pTW/qPv/5z6eVxdqw3wZkwoQJE9Y1vNdbBnTvrBjQa++vSG9sQHc+8mzRG8s31yuhta6tdWjRg1Y9G2jZlfZ1r3tdIpuPeMQjVvsN56Q0l/x4kNpw3UCARXuy14C1QnyOTzrppLQDrvCpwtIRfxPHjckMP0LVWey+8847JxIdaQZ5z/POy5BLlMU56TCQWfsTfRRtUsJYuznHHfKrX/1q2ojM2qIPf/jDKQa1jw4LJW2EJh61v88555zkNsIvXDtbQyV+NYt+DnnJs1a2XGfsXmrVUx9Sukccz9Mr6UHozQsrjjRrnJAS8gb1G38jvdEZCJwg5W4S/kbC1QjvZiWumMjE30KpWQ3Lod9KXfquQ7KR7SDSkWeULfLNEefivBcDwiyGpAV/omMII4eIhhV3uZPmIVFm9eCP7Yv9mGOOuZ7FOe8XbTFhwoQJ6xLeQ/m7qQR6dOiO6UV6pXdcntZS6JVAjw4p1YGOc2NpQeiRWtny9Ep6YLzlioFcikqBbObEtE9I82OIrLU1jrFOC9VqjQ1yeNlll6VxnsugcZxLJHcJ47BfEseIxez0kFEE97Of/WwimieffHIi83bMRYYR+tzqHGUJiXKTKJ/xHhEXTpZhroZou35fqYtoHUiwD4DDDjss1Zkv9Q477JBmrX1wEP7fZn+Jv4nj22+/fYpHLfIIFxIfCD4Y1POSSy5Jlv4alE1/kn75coRe7R4B5+JeKqWXp+W3hrjnamWbFes1aSbRwKzFHgA7+yDC/IdjVyA3CF9iX5puGA8Fia/Qd77znSn0mwdPTGLbV3OnkA4izb0ivxn6+QfiOCjPN7/5zZTP0572tGRhFk4uJ8lBnnNCuhIkymx3Qtt5q58PAyH0tJWPDX1C8vaZMGHChLUN76CxgRpCz3urRY/UII14D9bgfORbwqx1GNNzLvRcUwK93HA0BMcjvZoeXH755WkRPHcJbg1IZk46SZ+UBnGlu8suuyQrMoKL6CK8xpwxF4QWKLtxG6GW7re+9a3VETzMqiLDUeYoW7/sIT4ElBtpxQGkV0LeXvRscsZabkdgBFnejFPyk65yaA9lycWxXPrnlZslncsKci1tCy4ZvUQCwZ/6iHtz7J6jN9b3s9xzY3qOt95zs2K9Is1xXGN5SLhYuMFZkr/97W93n/vc59JN7svTtMuhhx6aoj34ynLzulF8AfJtIsieG9IXmcVtFujtu+++3SGHHNIde+yx3bve9a40DcJa7KuPq4WvRlbs6Kz8ZlI2x1ipWbWRcTcmC7O4x7FRyUokyiVhcfZBoH3POOOM9CLzZT/UPhMmTJiwNuH94z3kfVR7F3l302nRa0nPuXgHuqaEPK0WPb8lzFK20KvlGXVo1ZNmSc+YyWq61157JeKHxA2RzZwo00HyWE1f8YpXJIsrYxZrcStaygb0SB+uYY1lSBPVww6CeEOQ0FL5ifMPfehDE+G12yCO0gcDE6LM7YJLB+s0KzLSa4OxIMjaTHq5xbuU79B54lppKLs0H/awh6U8/O9jRCQQnMfHgjYeao8+tM/YPUenRQ+ca+0vOn5reovBekeaNRLCjCz/8Ic/TFMyiDL/JFtoiqHopnYzPPjBD06L1u5whzt0f/d3f9dtsMEGace7W93qVkn87Zhzt7nNbRK5FZPYdW7WZz7zmelrz5QGAsxqzYLtJkeelaN/A3gIEGz725t+suhPSDmEeaValseExfle97pXeiHqCy8Z7aBt+u0zYcKECWsDxgsD8NhATc8AHINwCc61DvyR3tA4FqA3NIb0Een5LaUXOvMkJfPSM17aHIsBCVFD3vqELoie37CS0mcFveCCC9Ksb16vlroqD71Z6lBDuFvyIUYwGdvCopzXIxfH1MUvQmz2O8rMsPbBD34wuYJwu/CBgLeof1w7lF5fFqMT4pzy4zvy5i5jG/Jo9x//+MeprEOI9p1XP0RaY3rRX7U81wQreiFgv+G8YHwBudksPuP0ftRRR3V77rlnWgiwySabdPe+97272972tt1f//VfJyuoBXezEFX63ChufvObJ7J9//vfPz3orNT2qDc1dN5556WHBzlk7dZ5yuqXP5X98PkPuVaYtlj0tz4S5hDtrf29TEydDU31TJgwYcLagvfx2ADsXMuA7pyBmpT0HI88SQmRZxCEEkKP1AhCXraaXl62Uh2AXpRtTfXsIHvCCSekGV7jaBC1IUIXrgfIaLgM9N0aIs+1WVfH87zwECSegQgRZr2Nj4GoS7+eYSVmhLNgj1HtNa95TbIqI9XqPUa+h6RFr68TMqSnD6KfGP1EA0HsLfTPoU2ifVv6oaW/xvoBIj2yVFjxpFkjuUn5GiGpFpyZQnDDcXA3/cE6fMtb3jKFQ+MGwfI55AoRlt4aeXXOdcLBId0iRfzN3/xNIuIPeMAD0o1tlS6y7mbit8xtA3lG6H1JWsGLQLouSPtYvitdtBfrvfbh32yKR//VHoAJEyZMWCqMvX+cCwI2phcDdWngD50gB7X0Qq828OfpjemFTqls4NxYWpDrlergOD06NT1WSgv1uELm1tO+GDOc98s9ktHJIr0+FlPXUtmgta5Rz36ejgkowB2UCyjyS2r1REr5FJsN9zcpEdhc8uPSibTkp+1CogzEeWQ9CDsZSjNPO8Q1UT4z7sgzbmMGOTDUJjlqbZdjlv4aS2seWLGkWeMR/sGst8Kl+DqzlbOvsy222CKFPUNMkdshIpdLkOGQnMiWyGwc94v8IuTcObh8uEG5I/iK5raBJHIVQRhNsyDxtqHup7m+ijZSXwsD9Y9wOKKQ+ODRj2706NOQCRMmTFgX8P6ZZUAnJURaMfCXQC/Sq+lBnl7pXel4lK2kA3meY3WlM5Zn6NAv6bEwW8yGgBkrg4z1iVqQOgYw4UuNo0Po51tCax3ozdIPtbqCSBRmWVnU1RdB7deV5IR0qD1CJ28vv0gwa7RfaZtZ9zFiTVZEyhBNw9oi4n9klw4+Ik/XsyJHf9TyjfN+lZXrBr9nbjY+FPCyGlr6a5Z+iH4tpTVPrFjSrIGQLn7LF198cfJZ5oaxzTbbpC2db3rTm17PopyTtyES7NispHlIF3mWL6uq3fH4APk6FhLGV7Wb9W53u1sikK4dSnd9k2gb9eXaol0spuT/zQ8MPCB9mTBhwoS1De+eGNBr76EY0ElJL9IKYlVCrlfL1/HIdyy9KFtJL9KKuvp7KN88z1rZoKUOwrceffTRaQEckhfkq0/QkDGEzvjJf9Y6pSFE2Yg8S/lGXUv1DNAJKek53pqec/SE0hOhy7qqsNLm9e1L3h59vSC5sVAPEebaccABB6QAB7iGqByifonVzEj10Y9+NAUuYKl3DMHFS3y8iABiMSVDH44iTbP04RYyVi5C13np6K/Sgsy8v0ptF22W9+sQHG/ph9LxxWBFkmYNIIzMVVddlcLF+YLzxYSMWbyHmIXbwxCJG5IgdiFDOn2p6SLF/Hi5bTzkIQ9JUy5uvrvf/e7Jj3mWfFa6qGf+gXGLW9wi9ZcXSB4HUr/mMmHChAlrE947YwM1xEAdg3UJMfDXBnSYp57juV4JoePXNaX0+nolyGtMj++r2VbjYc2iiYAxOHFzvOKKK4rpRZ5jdW0pG0Rd6bfq1RD5Rlp4i/VW++23X+IDYVHOpd8eIfSRWYZBpFlEL0T5ta99bfKf5goqyICwutqZQcpM7hCUR8QSHyJ0XeNabY1TifksbdbpyNNvqXxRduVSTjMDon2YUcghX+0x1nbRvi39FVLSc3ysn2bBsibNKpsLqLybgTuGLyVxBH1tWZTHZ5lleYi4jUmQ2JAhnVkFSUTelUv0jVvf+tarI2UM6a+voj2DNPv/z/7sz5K1XQg/Puj80QP9/p4wYcKEtQHvnBisa4NsEKGWAX1Mr59ni14tPWnk6ZUQOqSUFsxS15CSnnU9xmyL5hEw5GqIfCGSfHpZS/sLzHJEm4SLXwnOtdZBWn5LiDyjfUvphV5IH8LLWdukzkFGQ/ptEmQZIWVssgAPqbXzn4WQuR8x1OoYiPtkSNcx7hWINIuxqGNIsLyD6Od9l5c9JKzoruWuob3AL6mVcZZ7bqwfoNQHi8WytzRrkFx8qYlMYccgvrHCv3GFQEYtNlss4c0J82LTyCVPC0lGFElYW4euubGI9jAbsNFGG6VFEqbr4qb3GzJhwoQJawPeN/kgXIJzSzHw1wb1vGw1vbxsrXVo0RurQ4seYsc1YLvttls9jR+kKydfiKFxXQhXY30J8ow2qdUh2m4edYDI028JkeeYnplyVmJuKmFx7rdHHPehIdQb6y3+M+QzHPnW2gNa6xrnfOx8+ctfTpzrxS9+cfKFDj9o5Fn5conyO+9/14iYxZ0Wannm/Tqm19IPLXqzYlmSZpWNChN/+wK0YlaQb4vrfPnc9773TVP98yCjOcldbDq1NMLSOpHm69pCG9z+9rdP/k9CB7mxIR762gMzYcKECfOCd80sAzXxdwmRlt9aeq16kW8tT9e3lC3SGssT6LbojKXnnMgKz3/+84tT/I4hiFwOhIoNgjWE1rrSk/dYXZ2POtQQdW3Jc6xNwDmbfdnYxA6ISGa0BzLqfxZ3rhzahMW2b1UO5P1QQmvZHB9KyzEz/PykX/nKV6ZFjfpziPCHBHHmKy0Ub23L8JZ7CeZZ18Vg2ZJmDZMLp3KEmXO7zuIbHLvoDRGzWSUnu4slta4rEWP/KytZbPrrg0Q7+Jtvt5eDxQhcbvKbPEc8AMTHE18s4gXif9e4R2aFdEMCQ8cmTJiwfsJzHu+W2jPv/eI9Q2p60hkbqB2P9OiVEGUbe7/Ri7KN6Ulv7F1Jx7uVRJqlukDtHCB74hUjTzkxDHGc9Zn/7DnnnLN6cfgQot3G6uqcepBS+RyP9GppQejWkKc3lm/eD/x++Xlzf0BAiXYR2ODMM89M+06UyDJIJ0+vBDqtZaNX0jH2IvtC+wqlp7xBjof6Ns4xdIpBPTSD0FI2iPat1TXqEFJLbzFYEaTZ9AAnd4TZKlFxly2yQ077pGyxgszlMqQzJnFtnzTH8aFzN0aJ+nOnERbQtJNg8L5CPRDx8BAPqIfsH//xH1cvVqDrofUy8f+1116bPqr4RsdD0vKg5PdZIK5tuX7ChAkrF577WQZqUtJzXDot6TnvYz9/7wwhT68E+UTZWtKj4xq/iBiLrpCt3qPcBWxDbUtoEak++clPdh//+MfT35deemlaJIYAc6eLhWbcBGrls9CMUQQhHCLMBOkSIs3CcO1SQl7XWvtGfynXmF6t7IHQq6XlHJ2xfog60M31xKy285824q4hAsaVV16xMP7VQ7flda2hRa+1DkDP2Ox+EKNZ//WJs79Dwhda+Dv7V+QW57xsY/01VrZZ6rBYLGv3DBXXuAhSbLMpBvJNbnKTRLhyItaXnKguRobS7MvQda0ylN6NUXz8eOCs/vUAiqYhFqeXtNiWwuTYlpTvs739jzvuuLRARMgiu0L5QufnZfqK7mc+85k0IyEtZNqg4D7KEfcX8WDlD1d+bsKECesvPPcG2Nrg6tzYgO54y0Ddqgd5viW0lA2cR14Rs+985zvd1772tRSC7Mgjj0zWTOMqtwiWXj7HQo7xoUVw4tdx5wld4lqxkz/xiU+kaXtGDGQ6rKJ+LVajW7JEIlPe/wxital79Wup6yz9FTquYZgJo0wuwsQx0hDhbeO4BXiMeYHI128JoVPSM+4J/3bGGWek/lK+GqSR16OE0FuTsgXytgvocxZxcZr1J8kJc/S7X/cBPfdf9PdYHSLP1rKFXq1N1gTLdiGgSrMcupE/8pGPpPAnQspZ8FeLcTxEUBcjQ2n3Zei6WWUo3RuT6Es7KQobaGpOX/NZ5+vs4eLrJTTRZptt1j3oQQ9K9wBf9hDX2l2RDrcduzHaDdJLmJXEi4iV2r0UD1MuHqylergmTJiwfDH27Hs/eGfUBnQIvXifDMHx1oG/Jb3QqaXnnYfI2lzLIi7RGizKMqWOCAvp5r1pQ4tcuEo4zl+V+Js4HjpCkDmG8Jr95a/8spe9LG0uxufVwjFWa+/1IMc5WQ4C5XpE8ec///mqUt8QUdeWfqBTa7fohxD5ap+3vOUtadzgq0uMP4Q/MYnjRCxkC/gsVrz88stXk79SP0Beh5IeKzsyXopvnCPSG6trnm8JeZuUygbOlfS0gbVJ2iz6NifMeb8TsarNYMQHVqkOIL/afQ5RhzG9eWDZWprdQCyFvlTdpBtuuGGyMCPLNReHPildrAyl3Zeh62aVoXRvTKIN7I648cYbJ4LMsuHl/MAHPjBtUiNM381vfvMUtk/EDbs72jwmxDHnbnazm3V/93d/l9w9xMU2FcQqwvWDRcULjuWatYD1OR4s91rtgZ0wYcKND94JBmBSej84nhOJml4M6H5LmEUvyjZEELzfEBIxjvfZZ59kSfZujYgHQYiHLIIkJzl9spPr+JVeEGt/I+Le4XvssUcKByvf0M/Tkrd3NBLK9bKEvK6l9oVoO+1R0gudaFvuJsYGlnBxo7VPlC0Xx3JRB7qiSCB/PkhqpD/Pt1aHvC+H+jXgXMs94nzotbRJrWwtes6ZyTAL7D5wP+T9HhLtysBlRrmGWetaa7d5YdmQZhUPUXFTH27qY489Nj1ciFOQ5RrZjPNrKkNp92XoulllKN0bm8QW5HZxRH4tEDSjICoKN5xYPFkS9wUd6bBcu5bbhy3Ub3e72yWLtIfVzlLcPPjsIc+mwHLfwvweJBMmTLjxIR+oS+8Bx0NvbKCOAb114G/V6+fLyGS2LuLqInjGToTWbxDAIC85EQyJc7m06BDpyycs1EiTY309aTgvtBy/aXUZgro6R0r9AHk/1PSi3YA7CWOc8uXtQ5Q7JI71JerpWgSR2yArcR/RX6R2n7TWIfRa75EWvbGy0ZMWqZUtwOcdb/PBpK2G+l/baruXv/zliWj3IZ/WuuZttzawLEmzBhBejo+qqR+76iFQCBaS1Cdd85A+ERvS6Uv/mpIMXTvJdaJ9gvT6HdJZE5Eua7SPrrve9a7JlYMFWpifiy66qPvNb36T7re4Bz14HtL8fuzLhAkT1k/EAExqz3o+oJf0HHd+TA9CT7q19Pplc501P+9///sTWeaiFi4UQfqGiG4Q4Fz6OkN6LTokyOWQrnIhnG9729uKfszxHo42GYI2IPTG2jf6i86vf/3r5F4RxLdfvpD8eC65jjpyVXnGM56R+iCPnxxlq9UBomx5vw4h2sRvTS/yrLWJ45HnWNnG6iCtSC/y41aLOMdOyHmbhbgP/FqXZDFqQBotdXU8r2sJkd68sKxIs4ppAE75rMzM/PxYWQ8jTNlSyWKIbv+akgxdm0tfZ+y6OI9khsSx/nVDx+J4XNc/tzYlysFKvDbK4z7iDrLFFlskP3kLTC+77LLVC1jiQfRbkgkTJqx/iPGnRhDA+2FsQAfnYyarphcDfy1P50IvgCyfffbZiSxzFWC5IzlJGSN9JT3HgvhGen2dkDydkJKOtJBVZWaR7EM7qWtLP0SbkJb2jbRFb0ByuQGGS0Zf+uUPKekh3+pk4SDIK8pWqwO9qGutDtEm0qsh6uq3lF60G71S2VwbdchnY4dQSg9x5iseFue4j6Ld/CLODKMWBorGAdKolQ2ibGN1DT0yLywr0qxiFi9Y5WsFqcUKG2ywQSI7S02mpL9UMpRfLrnO2LWIZbgi9MXx/jX0SX4sjofrQxzr5702JQgzycu5FKKt+EFz3dhqq63SQg8LEMPfOR/oSjJhwoT1BzFQtwzAoVdCrtc68Nf0omyh4x1l8Rp/YOQPGUHagpAEKRkS54K4hnsBq/RDH/rQ9C5kTPDrWJBw5xzfcsst0zn/x2JB6eQW7aG843jky3XEZidD0CbRvmNtQoe09FekZQb7kEMOSWXJy9yXfh3yegzpaEu+4yKJRLnIWB2irqU6wGLqWtOjQ2p5RnpkrA61snEZEu1Ke+n7obZz/zBgcZmBSK+EKFtLXSOtWh1mxbIjzfxMrbq1CvNe97pXWvg1RHzmLTmBm7cM5ZdLroPEDpHcXOgHGc5lKK9SGRzr5xW6y0Hysi6l8H++3/3ulyJ1iLgRq6HjYSzJhAkT1g941oO8lOCZj4Hab+kd0NeroUUv0gPlFA0j9itAWoMsIx9BSPqkJIgJXWTX36JWMErtuuuuacGeyBHCx0nbomkzcMJ4smT72zEhP83+sqja4Q355Q4i/SDgiBEymucdZXKcZffEE09M43wfUVdSal/QDi16zvfbV/vxo9UGeXvlog7xwUC0WUhcl9ePOM4V4e1vf3sy/CkjKSHuOTJWVzq1tGCorn1E+46ll/dDax1qemZE+I9rt/69QRxz/wghy3VmDC1la63rYrCsSDMLnzi9rH4exoiWMUR25i1DxG1eMpRfLqHjN6zIQYT9zSIsUgSCx0KqXSyay8UCOr8W0f3VX/1V+tiIhXRhhS4R65Ao73KQofIthWgX7XqHO9whPcBWU1soaFEH/7R4ofn18JE4NmHChJUNz3OQjdLgmg/AfkvPf1+vBnnRaUkPhCETQvPAAw9M7ykELiceOekLUuc3yKwNMyy8E9XCZhRmci+44ILuc5/7XLLwif4Q0+M1WKBvjP7KV76S1oRwdUC0kSKh7MRzlm9OMEOQIxEThKPr1znqSmrv2NZ2K+l9+9vfTqHxSqTZx4Q1L2JQh2iz3XffPdWPZT9v95Agg9wRwk+7VoexewlyvRKirq33JqFfQuhJr6bnXJ7eUL6ORXpf+tKXUlsOfXT43z1qy3D3UylfaTk3VrbIM8o2b6xz0hwNq3IeWpY+cRs32mij5Ms8RHSWQoaI27xkKL8Q54PMBklGkEWTiAgQQqnd+c537u5973uncGqbb755mibbeuutV4v/xTJ+8IMf3N3nPvfp7nSnO60O1yadiEYh/VLZ8uPrWvJyLaXIS7trc+2lLVlezj///OST5UMuv09DJkyYsLJhzDGwGoRLz7VjoUO/9uyHnt+SnuPSaRn4Iw2+v7YsRuaQC8QjJxy55CQEcRX+DUlE5viNcovwXish2qRWhz6M26yJ4vTaiIrhQSg2BNQiOcQdqfQ/KzMXiRzRHmNtHGWr6ThOx3vbbx9IszCkYRHP2045uVjYqMM6F+TerzYTGk0YP64ddjcMkhwSZFA755ue9JHXtda+oTdUh0DUdRa9Wp653lg/RJ4lnTwt0CYIsbbTztFuefu7V8wC2Eimj37ZSgg9UtNbEywb0qySfLXOO++8NFXO8re2ydNSyVB+Ic6zBkeotFvc4haJICO/8fVlGsx0GB+2ww47LEV+4CdkOi3EtJm4nB5qri2+jlkW3KRuxoh7bBGcfOQXBLpfnuUgeZmWUvI8tYePDCHqhKcz48EC4wXsHp0wYcL6A4NqjRzEuDRGIqBFrzU95wI2Z/K+t9Avt9LlZCMXYwbhviFChIgO4iAjqkFgSoiy+W2tax+Oi4TAsig6BsLOym0MstMgo1gOabiGyLPWJvKttRuM1WGINAeB46vtvW9NVQnvec97Ul+4Pu+H6Bsbc3HPGELUdax951VXcDz0xvLM0yrpht5YekNlM1uifXw8ab9ouxDH8BWuQP1ZD+mQWps4Hnr+rpVvTbBsSLPIBSIY8JtiSeWGsK7I07yllB8Lp3BoiCyijNi6cUwDIb9iCptC8wLysNu+82c/+1lyrh8SBM/UmRW8pty4GXzsYx9L6ZiS8/XvQbeLno8SBFH+XBTycuZlz4/3pa83TxnKbylFnvrDx4R7T1/48GBxjqnLuFeX6mGcMGHC2sPYsxwEoWWgzhcPl0CvTyT6iOPSs911ELzcupyTNeJckBCEjquE937MkoGy1RB1HStb1GGsrgFWcpt/MPoYg+zOGsjTq6XVWrZcrwTjqJlE7dW3FiPNDE7GUpBm1DX+Fweb9d71eT8EaWZJH3JzaakDtOpFu421CZ28DkOgF+nV8szTq+nV6sB1xcJ71uZoMxJtqV19uFx55ZWrrvhTXWt1gJayzQNrjTSrSEk0hjBzvqpt9ckiyuo3RG6WSvqkbU1kKN38mLrxOUZa7373uyfLgG1IWQYQXC88RFnQb7612saDGDdEtFlf4pybjL7FFl4Aps5ML1nZa5rv0EMPTQtArJC+5z3vmcqhPMhzv9z9sueS68xbhvJbaom8tYM2sUuhl6j+0I55++cyYcKE9Qvep96jpATPfsuAnuv5Lb0z4n3CUvmZz3wmRRRA7PrkLogGQTwIX2IzkdwjxJ4PjNUBlH2sbBB1qNUV+nn62wK8q6++evW2ydG+rW1HWso2psfqbivx+MjI2zVIc+zuF+kFlNPCyCDN/X7wyz1jyNLcUrZoE78lvWiPsfRyvZb2bdUjNT3namVznDeBWfChPnDMhx+LfszwRnol0Il8a2WbF5YFadYgrMy2zGZltahtiNQspeSEbU2llG5YMtXPh4EQPnyouFYgZizEERw92ibgbzeEtgpxk+TiWH4NRDpx3AONjMuP7zjyrBws3RYYchXJ66DMJK9TSF63ectQfkslQ/lrB64yiLPV4vza/vCHP1yvPXOZMGHC+oGxgT8Q72C/Jbi+VQ8YOxg39t5770QiaoSZsUU0CpZTZI5VN0iD9Frq0FJXx3O9Eug5T6IcQ4iykTG9SK9UNmipQ4BhTnsFyc3b1noWVlCztdKRbp6e/4M0s5RGP+T9EmMFv1zkm8tprY6BvA41OD9WV8dDr5Z36JEWPemV8oS8DjW9n/3sp91hhx2a2m3o/tY3ormYWZcmKaXnuPNjdZgnlo2lWQNZ0Stsi+nxIXKzlDJEnGaRWnr5tP8d73jH9HBylbATDvLKlYIlM0KdBfI2cjN6odJheUbgSP9vpNjXfNxEIZGOrze6Hmj5cv84/vjjU3ksJlQ+5czJ81D94vhSyVB+SyVD+bM2W4xpEaZtUrWRDXfycHTaOF4QZMKECSsXnmHPdjzXNTgfBKGG0JNuCfHuoMuljiElJ2Q5oSC59ZnLA+tpWHBBXvIktfdS6Mm3pOd4ax1mybMlvci3Vra8DmOgL5wtC36JNFuIhjQPQV590pxfT6xB2nnnndPMMYv2SSedlMYNPuUWww3VubUOoTeURiDajZTaDaQR7TuWHp2aXr8favk6515lbbawlWW534baVjhE/vg15PnW6uDcWNvOgmVBmlWar5GFbCJARGzmkoVzKWSIOM0iQ+khXlwxkK/b3OY2KfKFG+V1r3td96EPfSh99XqY4kbTufGL3CJozltYYcWzr1dE96tf/WpaUGF1b4j/+cB5gdLz4LPeux6ZZsGOmyvPz3nlsLKae4gFJBYhIosWDIa/81A98+PzljyfpZah/N17PhxEHLnb3e6WFmOKV2qaUb9oQxJ9RiZMmLAy4fn1PLcM/M57P3v2a4j0anrxHiYslEKyDRG6PmE2jpx11llpcVUO6UQdSog8x+rqOJ2WOrTWNdIr5QktZYPIc0wPSdNOZlhPPfXUNMZp47x9SViarRsagnKJXc19oESao4+k75fBRZg6IevM7F5yySXJ5ZJxK9pBurV2g9b2nVWv1m7SiPatpZfr1UAvdPCOgw8+ePX9nLeh/7mOisJSKl9rXSPPsbLNgmVBmr2AkD4rbYVLY5VFZoKw9UnOUkifNM0qQ+mph5jJFt1ZPax+vlQRXw+xh1n9AzpYW3ig3FTcNcTDFMrnox/9aHpgPfT8piJihgfRr/8dF1ydngVsrkOwkWgE2peum6efp3Lwf/ZF7FqLT9y0t7/97W9AnPt1XCrJ81lqGctf7GsfPBYoiJUa/s3aLr+PJ0yYsPLg2Y0BuP9+zLEYvdqATo/QE9psn332GfTzDMKMiIU7hvdQP7SZvFrLFlLTi/TG6jCWFrSUDejNUraanplZY5+xULSp3XZ7QdrSOW/bvH3NtOY+zX3IL6JnIM39dEKCCBL9SdcvAs1KbXwV8IAbjjF+yAc6R17XErTBWLvBLP1Aj/h7CK39APTo5Gnxv2dRjraMfiD4krjOjIB95HUtlQ0iz1odFoNlQZqRts9//vPJv5Z7AJKGrKwUS/NQGuL+/u3f/m2KwuDLFrn1omOp5OeU11+HenBYlC3aswjQ9IWpHVE0TCeZsjP148XphrKtKat8iP8tZHBe2BaWUdNDrveAipEoXS8Ru+6wPMs3RDm4bSifcnrJCBH0D//wDylWNKur/sjruJSS981Sy1j+6s7y7mH2ceJDhPXewzhhwoSVC++9fGD1/xD6eiW06jlHD7zzhRJFiPtWtyAR3uuIF59ZBNuYGcjz9NtSh1a9lrrW0gJpjOUJ0SY1vdaymZk1MyiSiEWSEeas/1ES7UvGSDODFut+HnKuL3l6JD+uDxFEv7HZzKte9aruHe94RxpTkPwceV1rbTJr+461Xd4PJb3WskGUr58WvrP//vsn33z3fd5u2sjzwC0yvy7ybc2zVofFYtmQZlZRJA05CdK8NmWIOLVKnoayB2G2iMx0m5A7XCiE20FWo8N1KrJstTMy+9nPfjZ9yXJTQXiRZOH3bCd+29veNpFX/sax219f5MuybWdA+jZDcb10EG/peuh9oMhPvqwVXgbKpDzKp5zKi7T7kOGuIW959Ou7VBJ5rA0Zy9//2lV7mmbjWuOlHDMFIRMmTFg58MzGe682CPf1SjA4t+rRAe9g71kkClEYImCOIxX8l7kY9NOWXrzDW+uwpnUNvVpa4NxYnhBt4rekF3nWysaYwbLMao/cakcEVxtqy6H2DeGeMUSa5Uu0cR6nOU+vn1Z+LhfH9SXyHBZWux8bV8wUc5UMyLOlv1ra1zk6Y3rRD0uhNwTRvGLDk37bxex8hCmcdx0Wi3VOmgH5sNsO359b3epWa9XCHNInTbNIng7iusEGG6SvVtP5nNm96DzM8UIg/kaYkS8kVkBvW6R6IDfZZJPurne9a2oLrgFI8tBGJDWJsHZ2A5SO9JB4bezrmxuHsEY//OEPUzncZFEuNxt3DQ8wdw0EftNNN03xpPNQgP12mKfkdVlqacmfq41oGtxWzBqw9sTK6PxenjBhwspAvOtICZ5r52sDP9Cj06onb/KBD3wgkaa+5TLIA7LHSsoSzdDRhzQi39I7yPHQU7aaXmtdQ0+6JcyqR2ply+vQh/PGq2OPPTYZ31gvEbG+5T5v276ET3NOmqNsIG+kmRHKOBBk3G/8nVtMW/Kl71pl9eHEyGZTGH3dd7/pI8o2j/YF56J9x9ILvVJ6jtf6KyAes/0QzJJHm0R72dFSNDUGPIj0WspGSmVbU6w10hxQkVwAabaPPX8jxCQszUPkZamkT5papJ8GwszC64ESM9MLMcLIRUf79TDwizUlI1g6FwoLOxBT/s+Ick5O5yHSY6Xmp4w8I+emhrwELCD0ogif5yinBW9ia/LD9uXupeKDICzOSylDdVgqacnfPane97jHPVKkEf5Y2syUWn4vT5gwYWXAMzs2AHsfjg38IJ3WAT10zK4iBcaLIXIV1lF7F1gHkyPKPkYQcr0xkhN1HatDi55zs6TXmqffPhh4LGQXpo/fMLI1RJZDon3paGOEFcnm4shdwEI9iHwjT2W0kM8CNuMhMYPLShzukwiw/INEyyfPM6RfJuIa5FEdGNy4lwgjOIR59xc9OjU9Os5FP/h/CLleLU9gTLTgb+gDxzE+zziKtCLdElrKNg+sc9KsosiZ0GsaimsBgoK4hA9tn8AsheSEqSZD1xJ+rwizh89Ljk+yr0XWSJ2onn797zi/YRZLD1tOlhHvpbK0Sxfxk4+yWtzG95mfbu5vHTedG5CfM+LMJYGF2pQJFxqW16X0cR4q/1LJUP5kSIfV3svQ4ktfyV7Y+jbu5wkTJqwfiEE4nu8hOO59Ge/4EuL9Lz0ww8c/GTEYIlZBuJAnRg3X5oiykdp7J/TinV5ClK1Wh1nqGmVrTW+sDiX3E6FqLY5ndDI2IZ7Rnn3J29c47WOF3ywXRHGBhYC1VwQ+AkN1tYCfIcyYaJGahfpmil1n3dBpp52WSCACH6HpkOjoz5ayxTUIo43IzMJry0C0W6196bToQeiRfvvmkIa0WvTojOVJpHfuueem2QH1zttEm5llMdYKjFBCnhaplW0eWGekOaBxfdmdeeaZ6UuP7yirKOIc5DknL0slQYrGZOhaRJTrggeR9TY2KonQZFFnBFSECl+QvlI9tNwmYlORobRr+a6JhOX57//+79MXnmkprhgsGsoZfaT8iLSXvA8BX+JeTsijeksrb595Sb+8SylD+ZMhXdFELI5kYbD6WXiieDn07+0JEyasTHjvtZKNIBIlBNmIAd3MI19OrnJIXp84eR8bS8xoGS/6ZfD/mA8zRL6tev18cjgnnbG0nGvNsyU956NsfT2EGUHl1oBwaTftlxOvEOfCkmvG1CI8C+Q/+clPJuL74x//OFk9tWtr2cD5EOXk6ojPINTWKCHSjGjKwGXT2JlboEn0ey5RXrpiPhtron/kQ2plc66lDq11pVfqhxy5Xgn9sgm16F7vz7hoA4KbWCxbQmsd5oUlI80KX6pANFosOvOlZsrDQitELEhzibgshfQJU0n61ynrrW9967Tgjk8yYokwxwMIbiILPvjmeFD7i+ukkafd/3so3zUVabIU/8Vf/EUqP5cNN65FKcqpvPFg+vUBwELO4myxBOu4xY79skfaayp5ekstQ/nnkuvGjAJXIlYF8cX1c9zvpXt+woQJyx8xNnnn+S2hr1d67h2nE+9SsMGGdSKIMYKUEyckAQFE6owlfQQpydMbQuiNlc150kJypDcLGSphlrKFXh9I1BFHHJHaDNmK9stJV7RrkE8fKTYvMcYhtAjuEFrrEHpjYHCytum4445LC9tYoJVLP+cW6Fyi/MpOz/3Cui0/ec+rv+i06o3VtaVNhsrmA0P9ctKsDeLDQeg5HzZDiDylN9Zf88KSk2aiwPn/Ksia6WYy9fD6178+TZOwXoaFealcFEoyRJaGJL9GGVmJEUixF/lVhYtDWAIAAf3c5z6XwrhZ9OHjwAK9sC7naffz6f8/b1EHLiG29r7f/e6Xysddg7+d0HT6jugzHwKIs+kU008bbbRRqj/inKcZZV4TydNbahnKP5e+LvcWfW41uw8+HxTx0JIJEyasPHh2YwBuGfhDSs+849IiMWgbF0444YTkt4ow5SSBIAnewYidcSQgLWmM5QktekNlGwK9SKtVbx5lcz76IdfzN5LFnQKpig+PkGhPon21p5Bz1g1Zm2NRfilfZRvKs49Z9OgErH9hZEGguWZaAIf3IIt98pzXI+4Jka/ye2IIyiNPMtZfUYeSHp1Z6zqWJx3p5XrWBtlYLSzL6qwNon8ZGe2U2Udetlq+UbZ5YUlIs8bJG1iBLTITlw+p9NVguuH0009P1lmNJD4z8lYiK0steb4tElZaBNiKV87qvn5jMZ36W+CIeCJWvor559zpTndKOwQuJk/SL/eaijTVhXDXuPOd75ymu9zEomvYFCUWu7lBPbRXXXVVml50M9/znvdMLjV52fLyLlbyMi61DOXfl1yfP7cFgS984QuT5d19nYefmzBhwsqC5zYG9NoAm+sthiB4p1pHEla1nCghToiCtSPGyRx52UrvGMdzIlHSCxLRWodaWhB5Rnq1fFvqEHkO6THaiCSivVhg8/YLkhnn/M0n3KJtrhzyLqGlbDCLXtRhCMYMhrQTTzwxzfDqewQRiY56hDjnOOJf2uIblCfKJv8Soo3pluqQ6/htqWtrnn09Yyf3XB8G/T7VJmZd+Izn1/m7pa6hV9OZFUtGmhXUVzUSyceHr6xd7dwkiLJVw0ikxWi2mEZAEbecnKxNGSJKJQnrrHJbMctyoH4WhcUNpv5cT7wkEWYvQ5ErEGaW9MXkS/Iyz0OkGaSZ5RsB9gHjQfVy4vOV74CnfuppilFcSTEW1Sv8myPNNZW8jEstQ/n3JdfXf1w0TPfl4YH0e+3lMmHChOWH2oCeo69XetZjoO4P6GbqEGKLvHJiEIJI2wjLouwceXqlPPOyjenRGatDnl5JB6JsoVfSpSe9Wtkg8szbLcAAZbOLflzfnGAaZ7Uv9zkz2HzCuYHW0FqHVkRd/dbScs4s5aWXXprGWmUOS2tI1NF4vMsuu6TF50OQVt52pXz7eiWETrRJCdF2LXmGDOm55y3m7M8c6GcLIs1uI9cQebaWrZTnYjFX0qxg0UBIhEVS4tmaFnED801BlPnPWoDGl5abQk641pUMEaUhocsdQWg8U/R8sbmYcMEIH2bwgPuSRJhNxYUlvfZhMJTfkAxd2yJDafg7SHOIxW45cRZmJ1w19K8b0QeBequ/BZzaI+qW57NYifKtDRnKvyT01fPmN795WlCif4UO9CExYcKElYUYr7y7Wwb+MYKQD+j+zsEAgRgMkWZT8H6POeaYNHYGIr2xgT/K1qpXqwNEvv065HA9HdKS1ljZanpmO/EIoVIRK+RSe+UEM47tvPPOab1JvilGCfKUHxmC8shbn3Ap9eHDF9ox54YgTVLLN/ohdLiqWiuU+/WS/P4QYWLIt1ca/fSGMI9+yBF6tbrmZfNbAndQ/ZaTZvVXbx8T1oJpe5hnXReDuZNmLx8E0hS+hQxIxY477pgWyiHKFo9xA2DVRD6CiKxr6ZOjmiCV97nPfVIn+wJyw6t33CAeqssvvzz5MJtWEU7ONa4dyjukn09Jhq5tkaF0/OqH8CP3v79ZxFlT3bz8rxBDLw43I3hpqLf6c9PgpmIzlTz9NZF+2ZdShvIvCX3txCIvioaVvT4q4gU9YcKElYMYgGcZ+Fv04j0ZYHQIA0oQ5FwQ6Ze85CVpsVegdeBvKZu08rKN1YH065Cjn14JeXpjeZbq4H/vWOFZtV2NMFtrc+GFF652KRyraw6WTMQYf7HpmDHPh479FkS8sgHZGWeckaJMiYrhnHFeLGX9Kyya69WhBHkO1dVspbHEfRB1intD3Yh40PmOgZCnV6on5Hq1/hoq2xCcJ2Pt25qeCBrcXOODMtqA4c4z87rXvS61caRZq4NzUc9anovF3Eizwplq4HPjZrJSVCP4cuL3KiQbosHaijAHAVku0idHJeHPKk4xMsx67qHxsERH+hpyY5u292XoQyE+EiKNofxJnk9Nhq5tkaG0QhDBEKRZeRHnu93tbqke9sf3Qg8riLp6QXixxMeBjU+0z1D6s8pQ+ZdKhvIfE7Mj/L/d4x/5yEfSYobagzxhwoTlhRhcvbtriIG/9nxHWiU961q8K0w390kfIsjVCxkL5GWrDfwtennZanUNQlKqQyBPb0xPemN1iDxLeowzQnxqJyQqbzvif+cQZuSaO4Z0Qmpg7DJ+W6BnIT+LpjB2QseaGTczwNJpfIt+Q+Ic42trMZ+NzKwBMktgrY8ZZrPsuEA//7yuAUY217GiR/1yCeKoXLHxCkg70mvphxa9Wj8Ecr0S8rLV0ovjPBKsEWJpzvs2Phi0cYyxtbJFvrWyrSlmJs0K1RcVMT3N34bTvQrq7Lvf/e5pGpuVFRELwhEWzSECs5xFmRH/+9///ilaBrLki9RXrTYI66tpJM79rNH0w4o7lGYu0T5D5+YhkX5NcuLMDUWkCBZVN7RVv+obD4EXDn9ne/0LpaNduNtIZzF559K/fillMflrIx+CwgexQuh3L4gJEyasDHhnkxK842IAHtPz7JMhPeOCdwRiHNPPOTFwzNQ8ayPk6ZUQ4y6deB+XUCtbIOpKr5ZW5NmqN1a2XG8IFp5ztXjyk5+82kKft53/fYhYI8UvVlrSrNUVjF2ILQMfwms23Poki+ARZOkGYUNaSfw/JMqC2PK3NiYg09b8INAW/clPmfpt4TirtQgf/UVwRLrqLU164dcb/TVL+66N/gLX06Pjt4SoAzC++TDqk2ZtoF2cqy2ChJY854E1Is0Kp9MRZr42J598cnJW33DDDZO/ssV9iFefMLaQkuUo6sG9REda/MeizNoaD6ovVvEfLfbYbLPN0gcD8jmU1pC0EraSjF0b6dckSHNI+G9zr7GDlWmUmIIiXmpCAFng6WVjcaTrFpN3Lv3rl1IWm78PCvcC64R7YWzByYQJE1YOvN9aCEK8C0uDtQ9qU+/IVd9S6n9k7e1vf/vqcGLyJNIuQV5Rtppe1KFGJKIO89Jzjl6tbHlafkuwkI8FOSenuWg/1mAuGdKRd61sSKeNTC666KL0oYIkSyfSH5K8v3JxPHSGiLXxEIlWfq6qrNm4UpRPeZF2nCn35c0l7hebiuWuO9F2tb6ftV9JLT1pjKUFLXp5nqCfuScNWZodY/VnsCsh8hyrwzywRqRZIU0XmHoyRW964V73uleK+WuafohorFRBpLgriGXsq8euf3yfwsrsYUQeTznllPQg3u52t1u9wHGIRA7JLIRtMRLpzyp8lZFhX/vcTvirq7cbVL2FpRMZRYDyBzzgAaut62tShqFrl0oWm7+PQosBuen4aDTojb1QJkyYsLxhbGsZ+FsGajoWTHNx6/trkrCi2VAqxtRaennZxvKlM1YH10unlhbkedbSc24svchzrA7ep9wWfFQgj3m7EYTKOb7GsUhM/qX0EFYklesFy63rWXH95v0ShDUkz7NVxzFllj4RTm2vvfZKW34zPCHQymKzFfkHOc4ljtsRkDFOe8Es/VDrf+3k3Fg/QOjV8sz7lV4pvdDL8xR9zOx9TpqjDTw3Zu5Lluah9JYSiybNGoZl1Q1gMwyEio/nug4dt1TC4srK7CbmuyTkGsIYN4kHEnG0PTZijWBHO8xKmolrfHjwh5avRXmI65jQIyz9N73pTRNxl1ae9qyi7rF9tBv7ggsuSPU1y6D+/JxNr/Bjd7PLO/Kt1bEm/euWUhabP/98EVTEz/Qc/O53v6u+VCZMmLC8EQPwGEEIEjGmx7hgJoohBXkKQhCkwHjio9sUPtQG/igbaSElY2XL0yulBVHXFr2x9FrLBiyriGaf1EbbOW6L6rDA1tJj2NEPrLquD9/yPM1IN5f++VYdEuflIz99jTwjgMZRC+hFE+sT5rjeNcrLT9t9BGPtC7P2Q2t6tfaN9EJvLN9+nrmlOW+LaDvuodxp+mgtW+38rFgUaVZIVla7tBx11FGp04UoQ6xaCeJKkJxA+RiwoNENb0MLUzxII+GuYGMTZNrNbnvsVuKVS+SnDREyCw7tle8BswjAClLCByv+zsVxesQXrKkhm6lIK/cpb5G8TEgzQYbVT6xM9fV1717QBqZOWN9No/DlRvZdM5Rei4T+2pDF5u/DQJxx7jhebFb3ao8JEyasPMTYFkSiBAMwnRbiZ2wwPW/gzwkRMW4yNlkDIx2SE4k+Il9lK+k53lK20KulBa16UbaxOkT71soG//Ef/95ddNGn0seGdsrbLdqOHzJrrfRqMFZzj+Fz7Lohskz6ZI3kx/Lj/fNj6YVE/v2/c3Et8sgabo1Y1C/abh79sBi9Elzf0q/06Azp9beWD9E+PjZxIOunckTZxu5N58m8MDNpljmLmqgRLMxWkbJsIsxI0hC5WMmCwBJWW3694hZHxAxkkbUZYeQjZZqNNRbBHkprTHLShugKVefBEebG9L8by2JLv77M/B3i/6997Wur/0ZglVVMbL63omH086hJXq5YyCgdi/3c3OprNWvckAYHeSPvXBb4QedhBWeVPP+llsXmjzQ/6EEPSr5xdixiLZrnwzlhwoS1g3zg91sahGsDfx90bFzhHZ5PO4eILGUBdYQRq+XZQhAcz+tQQuiRMZITeqU8oUXP8bwOY/j5z3+2eqtskrcbMqU9jTV9IpVDnj/4wQ+SEQnxGnKPifSCoBFklr6/WYJ92HADYSXGdxijHEPCXU+fRDp5mvmxofyGzktLHscee+zqUKbabOyeU9+xewRa+qG1v+i1lq2mh9+wJkcfhUS72hAvZmMg0iO1fFvqMCuqpFnBcgHhUTzkfHN8BbJkciMIcjlELlayqBPy58PAgyP0GpKMLOuQ8GW2kMODxEWiH3ZtKN0hya+R561udav08Pja9HLg42WxmT7wm4tjQv4ReizB/ME8mCzf4WOe51GTftkIksja7EWi/90HcTO6Mfm32xrdIBGbucxq4Q4Zyn+pZLH5T6R5woSVjxiAWwZ+OjU9OnHOu9gCae/LIdcMm0JxaTOG1CA95SMxDvcR+bbUIdJq0WtNb0wnytZSB/CxYTw1fvXbzTFjcSz+K+Haa3+R2hdP6aeTpxfkDBHXTxYWImlmjgU34DMt+gmx3TMjlmPWL0n/0EMPTTPQ+hnpC1cM6dbyDMnPKScxe2kMh2i7sTamQ8badxa9WvvSi3tkTE96dEp16MdpjnbRjtqVCxNjLUhPnmPtkZfN//PCqKVZwUL41QjkbTpJBcUgXqxVdblLECekjxXdAkdfQsKrsTJrD53BRcHUvMUFpuq5JfStq/20S5JfI1/h21htuUPE4rsa3Bhxs/DhEqLGi0dotHmQZse1BaLopaLeBgZtIV9+zsLwsbjz6w4L92KszUP5L5UsNv+cNLO8swpo+wkTJqwcxODqPVaCc3RqevlADd6H3g0IQE7a4n+W5jw2cx/Si3zjHTuEPN9aHeiN1QEiz5qetCI9ebeUraYHUUfjnE2zwtob7Ub8j5SK5DTk4xqQxnnnfTgZcOjnaYToB6TMGIuYGcMZmrzLhf/zPkfUjPG5MEr51b9c8nAiJF9IVn7TXCNFzuBa2SfP/u5Lfs49YSbXbLK2iL5o6YcxvUhrrL/yPFv0WvqflMoGuITNa3L3DG3iHmDdF4BAu0tvljrU9BaLQdIsk8goKuxrmCWRDxH/IATxJje5yXpjXR4iTgTp45oRC774cXtgdAr3DC4K73nPe5J/Fas7/X56/bxaRLuKWmGnPYshIlpH3BB9iX6Kv+ki+KaUWKwRPOnm5apJvzwhysVtxA1+zjnnJAu4F5R8EWiRVPhWb7nllslFQ77rO2kWl9wKeS9Q7TBhwoTlD+9S78ogCCU4R6dVT5rgfWCxV25lDkLAomb9B5e6EvL0SgN/ax3ozVqHUp4wq57fmp50CCCrdqFFkIM8RdshodrTonvploDIvuhFeyfdPI08LWSaUYkBSHquGTNM1YAjIdIIt5jR6oAXKIO8oj4h/fIgzBEpA6Jvx/qLzrz7tZYWRH/RG0rPMedaykbXxjIizPQ/cPzvuPPBM0p5BpxvqetiUSXNUWnkEFHkK/vmN785dT4iuT75MA8RJ8JCy1LrxhebWaiY2E6aSwQLsDZx04ty4Zp+ev28WgXZlKavVl9aFjTEDdiX/Ob0t68yRM5UE5cRrhLSzMtVk35ZQpzTHspk6tHKZXnJ103NZcOUlhueK4d812fSHAsB7Z3vQ0U7TJgwYfnDsxqDawmhE+/WEvK0YvwURutZz3rWaiKQEyZWSO9PY8gQ+ukNwfH8vV9C6NXSgryuY3pj6Tke6dXKBn2973//+2lWt08y/Y8077zzzqtdF4ZgPGLICv2chEU/sGgitNwMr7nmmlVX3hBRNnWtIeqbw0fTZz7zmbT2CxnmA+1jSd7KFeVzDL8wey8yVbR/az+MtXFeh5b0anV1feiM5Umnpe1wS5zBB0y/v7TVTjvtlLjMWHtAa13XBE2kmc8sP15RI/juiCLBfWCISKxUGSJOBDFC/vhQnXXWWSlWYHzxWPzGF8eCBQvufEi4pp9eP69ZRMxj1kzTUWJ5hpW7L3GDxg3jq9eUkf3q73KXuyS3Cunl5apJvxwhznEbsXkLX64vfelLq8miPLUPC7SY3be//e1ntnCH9PNdSlls/j4IzEBoB/cBK4N2mDBhwvJHvDtLg6vjLQOwNPp63oXWophaDiIQ5M//iLTzfcS4O5av4/HOr71zQm+WOtTSc24svciTsc1vCfQivTxP45wd8pDKfrs5ZmFfvigsEGlEqDpENCdgkZbjQrl94AMfSONpCdKLNikhb18y1CbGR+4HfKSVy86QyqEu7g9lMYbQiY+osX7Ny1bqB5hFj04tz6jrWNnyNqFXytdx4iMJv9Ev2iXvL8+J2Ro7K0qvhDxPUspzHhglzRooomVwxo5p91ZisVKkT5qifizN3BF87ZjCiagZ2ke7+DIUUuhud7tb8u+O6/rpzCL5dYgZtw9fxfy8kNK4aXNxozgeD4hjZgbEjb7vfe+b/IvzMo1Jv0y5cBvh4833yjQU/+nI39e1BRpu9Lve9a4z+1KH9PNcSpk1/zgvFrcpNZYEPmjcU5byYZ0wYcL8UHtWnYv3aU3PezbeuTkYVGz4xVcW2QviR/zPqmaXuBzyifeo31K+uZ78Swi9WlqQ12FMbyy9vGwteiSvg7+NqYjlEGn2a1tt1uQcrot0uDcwcsX1IZEGooowmzEuIa9rCXld8zoMgS731ssuuyzlLXCAhYQs4shyzCKDNEvtBnnZxvRm6ddaHVwf6dX08jzH9KJcXJR8TBhL8/7Sf/rLGinjawnSkFZetlp91xSjpNkXsw7l5I4IsR4GEVqfpE+aghghwve4xz1Sp/ra8SUYnY0gshYgtGIq5+3ST2cWya/jAiP6RZAzU35Iu77JJW6auGGB64jg77Y1t0tjXqYx6ZcpF2VyH5gmQ+T5dSuDNvEiYn0WVxFZj4WiQ3nUpJ/nUkpr/v3zZhYMilxnWDc8KxMmTFjZ8C6Ld6m/S8j1+oM0v9yDDz44ubENkebtt98+RdzJUUsvEONylK2mF2NCSQecG8sTZs2TXgk1PeOrQAOILdLUbzdkCtE0+x2IOvj1DsZVtLtrchLmemky/rH+lhB1jXG0hKiD37E2GUsL5FtLC/KytehFuwzB8dDzW0tPfqFXguvzPEvp5XkCF5bnPe95yU2l31/60HOEY5QQZRtrk3mhSpoVgvVMDD1TIlaZsq71ycT6IDkhyoWFlnsEv1W73mkTnU0sghOCTli4m9/85tdzWcnTyPOZVVzPtcKGIREf2ZRS3HQhyhXif7AgweYz+o0fcpQvL1tJ+uXIxXmLC1kDrDb2USVfQOjFazbdstFGG81s4Q4ZyneppDX//Ly23GCDDdLgZwW8RSTRBhMmTFiZ8O7MB/4SQs8zP6RnbBCNIR/8g8SZhuY2x+oYiPT8lvJ1PMo2ppenV0I/vRLytEp5graYtWx9PWObsKURJi7ajfgfGWapDQNFpEXATPBb3vKW67U38bd+sDCeK10JkV6pXwMtennZ/F1DtN2a5gmh57ek5/isevItgV7UgX4JzuV19b8Qfvold6eJ/vI37vWd73xnVQrXR162sTrMC0XSDG5MvkPcEnwJ3P3ud0/uAjVisVIlJ0QhFrCxJvLftVGIRW7RAdrmhz/8YXpAda5Qc64ZSquf16wiIgdLtiknNxiC5otcOUoC9Cw2cePxy8536BuToXLkol28wITYsSgjXmJuXhZugee32mqr1X7es8pQnkslrfnHOfcFC7rngWsOFxVTb9HuEyZMWHnwbp9l4K8N1AwJ+++//+rBPydw/DT33XffFN8fpNcy8Odlq+lF+Uo6EHmSMb2xukKUrabXL9uQnnUhZu4smstJs3bzv+PcWuQF/bIJQ3f44YevvtZ1fv1PLMgrTfWPlQ0cp9NS19Ar6cAsenTG9FrKBi396nhLeo7nbVeCc/20uHb6uIz4zNFfeZ8xzh199NGJVwRc31o258m8UCXNiJkddfjfeNC5CUTcXTJELFaq5IQphDWRBdlKZ+FjYsWuDjA9ZEpeZzrPz7eUTj+vWSXIO39ylmOWfz5zoK9ycfMS8AIRhN2ivNvd7nZzJc0+EtwTdi0SUUR7RP4s3FxJPAizuoWEDOW5VDJL/s65L/THJptsksIQWnDJv139J0yYsPIQg75BON6fQ3CuhZRY3IQYx+AfhJl4b5qJowMxqJfSc7ylbKFHxvSk1VLXsbJBS9mgpWzeoyIpcHvTbkGkiP8dtxeAGU3ol82aH+/kuLZPwIT54+LYhzK1tm/oldqkr1fCvPWcGysbSIvU9Pp5julFeiU4N6THRcls7TbbbHO9/grJ+53FOSfOykZa6uB3XhgkzQHEjEsCq6Htk/sxd4dIxUqVqFMuyFHuTxwvOZ3ug0IHIrHIbC2kWz+vWUU5RNGwRbeFfSyb/KnBjTEkYIpQJAuLGCOG9FD5hmSoHLkoD1KsXVjgcx8zH1p2SjLdov2G0h+ToTyXSmbN38cHy78pRGEI3QcReD3afsKECSsDntkYgMcG/rGBOmA62RbZBn6DfhA/IoyWmUszgWBAr6XXUjbXB0GopdWqF3UdKxu9WGNTQ55eDdwrLJAL0py3W5Anm3bFeNMvmxk/PsvR7kG+/E1EqsBpcrSWLdqtVte8fcf0It8xPTpkrB/ojNWhRW+WOrToRZ6kD/GX7flgNobkfZb3fczW2DiGUU6apNQmedn81tpuVhQtzTJiOkfQrF60LXIrqViJktctJEizryAroUukmRvCUliaXesjBUmLBYl84bw09A3oqyGBcK3ZY4890u6NPnr6ZSvJUHlyGSLNkTfSzALNosJSP5T+mAzluVQyS/7OaUeuGeJqWghqkUJe/wkTJqwMeF5jQG8d+Gt60nPeLCTSbMDvEwDvzde+9vBkFY1rSpiFvJB51MG5SK9UtqintGp60FK2uJ6l2eyo6CL9dkOo/DIElSJf8Ik2M+7aPgHzv3SFzlVuiLrWygZ0xurqeOiN1XUp9GplA2nMK89Iq0WvVjbjpoWANpixNoyhLfq5L4gzl1DBDcK1aQj9OtTaZDEokmZfj3x2LfQyvW8h2RCJWF+kT5pIkGYL6Xy9hjO6DtHZ3DXCPaMWJaKf15i4BlkWjQMZl7bYyKJRiOLh66yFNFshbNMN04Ria88SM7lfpr6U3DNI7p6xEknzkE6IflF3cbnF59a+XtTuiQkTJqwczDLw06k94957zhN/GxvMChrsc/LnbzOXRxxxRHftteWIAJHeWNn6+ZaQ12GsrmPptZYNQq9WtkgPGKNEv7B+J283EtZG63oEKBiCtOyem0ctydseIRPZyUcNKH9rHVrbpFbXaN+xtsv1annSGysbhF4tz7wO9Gr50iO19JwbqwPQwRnM2tr9r99v0XfEObMNdh0e2ka9tQ5rgtWkWeIyCUGCWBCRH5ZWPpxBGlrIxUqTnDSFIM18cjfffPPUScghaB8fFXYSshugryNEqpRWnk9NQjcsy+Jh3/a2t03h3Wyn7UsMSbf61xc56LeSWFQhvjZyh3DXXEj6kpdrSJB4N7Mb3cdEbPjihvVCiqgdK20h4ND5XHzI6BMhkewm5YvXIkh1j3afMGHC8ke8r/yWkA/ANTif65mV7JPmIG2MCVweS2G0Iq2xfL1rlI/U3jut6Tk3ll7kKa3WfFvqQC/+/+QnP5kMdWFxzAmTYxYKxpqeIVhj4nr6rs9FOhYT8nsO4lxCv64lhN5Ye+TpjfUDnZpev2y1fKVBp6UfQq+UXpStJc9WvcgPpzELYAYXp4rnJvotvw9wIS6g4aYKrXVYU1yPNEeGKutLju+PBQtCrgUpRCQJ8twnFCtZcuIUoo7IoTjH2sFmIToj2sj0GuJkymdNQ87l+qzLts9mzfRV5atb9BJh/7jLRPQMfTYkcSPys+VCwkr+wAc+MBHxPJ+hvPvnhsR5hF65BJo3QARx9DGBSHop2S1vJYScq0m/LOpj62wDope7r133Qt7+EyZMWP4Ye169z1oHfu89eoE+ac4FaRbhwS67Q4jxRbolKE+rXmsd6PhtaZN5lW1ID++wOAxBztvN/0Tb8V3uI9JgzBK5pE+8oi+QLpZo6eQLy/pYkzr0QY9OtHEJztEbSy/0pFfrr5aywax1qOXZWrZcL8D49olPfCLtPJ33fV/0oTVFZh1iV8fWuq4pbkCaZeoFoCAsmi95yUvSbndiBSMQrKDI4XIiNvOQIGu5OC4u9f3ud7/kgM5qG52sYyy0e/e7352mFIR0Y4WM6/rpjAk9JJ0gZnxmbSbDl9pqYn5cX/jCF9KL1ixA3JBDomzO8/sS+og1WKQHfsiRV16u+D+XODck+t9CuOc85zkp0Lw8YtBQNi89Ly0fW/08W6Wf57qSKItf9b7NbW6TrMxC+XnhsnjE/RDtP2HChJWNfECvPdOhR3I96zqMGYhan/xZCMgvk/tjjnhvS8vfJciHXrx3Ssj1xuoQaZX0Iq1okxpa9GrpaTvrqIIk523nfwvb+z6tyh7tZiziJyv2L/2cMIcg1CzOwp2J4GAzmhyRXksdCP0S8rqW2hekMZae6/OyldILvUivhH56JdCLtEplg5ayQU2PAY5BSqQTz0p+D0RfEu6hO+ywQ9pBMtxDa3WYF27gniFTlUEG+GuycCJIpvYRuvXRykxywhbiOKuvRXQW09nukgU+OtuDZjrB4jw6CHa0TT+dFqHretZt7hgWkkgfCfX1bCrCl5i+6ou+y0X5WKOV0cIKLjY3uclNBssUx3LJz+finDZB6rWJmJmmGb2otAuXEC8svte22p7FJSSXfr7rSqI8Io/4mDHr4IPA17D+8IBra20efTFhwoSVC8/y2MAf71x6pK/HkPDKV74yDfSsYjHoE4M9Qh3ufuD6SEu6JdCLMXqeemM6eV1LCD3pkRLy9Ib0rMU55phjUrvlbRfE1zF+z7E3QF42aYOpfmFiXdMn3pEW4szijISbxb344otX7xQoTWlFen04Pkv7tuhFe7Tkmde1D8ejTVrL5reE0CMtdaiVDUJPeiU9fWsjN9xKP+UfPyH60TkzOrbirqFWnllxPdIcokJuOmzfNInFcGFFReqWE6mZlwQ5ysVx9RbjWDvEAjzEVYdrIw8aEvXgBz84+e+Gi0Y/nRahq31ZZ+9yl7ukKQqRMryA3UT6xU2b91WI4yRubL+u8fEjwoOXA5eKoVmCvKwh+flcnEPq7fZnxasPCVE6kGbtgkAj0rYWjzB3cd0s0s93XUmUx4cCKzNXHD51/djUeV9MmDBhZcKzHAN/DfRidm3omfce9H40sAfxi8HeQM/gkO8IKJ14v5cgH3rxji+BXtSh9j6KupbqEJhFr6VsdGp1dZ6xSDtpu5woRfu94hWvSOMiDPWDtBEpu+hGOjlhDkHGWDONj8LRCQXI8uzdXkJLHSD0+mXrwzlpjaXn3Fg/OB56flv1SqAXdSjp0SFRh1KeIJ2oQwlxfRDnmo9z3B9mfhnshiC9Wh1nRZE0++Ji9rYbCwtbHuN3iFysdIm65eK4evMv5lvMYstXjQVXp/MZ9mByoWA9sLX0PEizKBc+VPi++Vo2FRU3Y0mG4Ljr9OO2226bSF9scNLPty/5+VycE0nFzcoawM/bx4MXl3axKFDEFS4MkV9cN4v0812Xojw+ZEQg8eVrdTYLfjyILX0xYcKE5Y0gEd7ttee4RY8hwQJsA3qf+PmfaxtCANKTVm1gl488yZietMbq0KrnfOQ5pjeWFuTp1fDlL395sO0IsoTknn/++dWyIV1mBFmSEeOhtEKcM94iZ+IGW6hpu+6hnV5b6tDSvo6H3lh6ztGppQehV0sLZqlDTY+Oc6HXUrbWOoA+tJmNPokZA/0VpJnoW/yGkbePqAOZF1aT5oBMFBhpRg4s9kKag/ysr9InbSHqHbsCilyBJHPR0LEsqxblcUb3Erzzne98g1jIQ3nVBGkm3Bruete7pq9fsZa5AsSNpI+IMkQ5EFfWDeXhE0b4zBF+1yyk3Gxa+rFWbh8RLMgsydL1tR8fEXyo+X1HuDnken0izXz7vYD5cQsp5aMpXhQtMmHChOWJGKjjeR6C40EOxgZ+m3QwePCb7ZM1A73V/2bkIk35lxA6Y3lKI8rXoteSXtS1hkivllbUQXq1usY564UOPvjg1cSo337cDX2UxAYxJVibZabVe9uYVCLh8YuYCQko8hODIcuzce5LX/pSKhPj0BiiPcbqGm1Cxtqk5Z6LfOeRZ2t/zdKvkW+pDnnZcj0WZLG3GeKGXG0IfsZNI4+I0lq2WVElzWFp5gt7YybNIoc84AEPSPGOTd0gqHETaKcLL7wwuWiIqsB1IVxYyFBeNYlrWayR9diN0H75EdA9vxlisZ9Fm/y83vGOd6SFgyeddFLaWYkot4WA/QgfJSmV27Xh12vqUVu4oeMG94LyZW/qjLtKtIVroz1apZ/3upIoj48Y7i3aUZzPs846K80A+JjxIlX/MZkwYcLyg/dXSGlw9fzGOzfedzUwrCBbyPEQaWbRtLgbamlFvmN5KreyjRGE0GtNr6bXWrbQi/RKCD2/dFniGXuG2s8x3MSYx2g0BOkQ4xIDID9ypMuscD+9XOK4PmLF1IfcaXwE6TMEmqFoCFF2UuuHqOuYXms/0KPTkme4s5QQemPpRZ6kVDaIOvit1UE6Udc+fByJdqJPwlUj7y+/7gluGoxZEOnV6rAYJNKswLnIzJcyAsTsLVbxkG9qn2CsZMnrlQuiyHpsR0RRMrwIfXHGjeLh4aIQW3/m1lzX9/NpFdciahbcWYyZTxXJ180QhBlp90DzgfYiEYolxEtHnGl+2RFybii/koR+lCf367WHv+mTeCiU78wzz0wrWvlkxyLAuH4WievWhgzl35e4D7jq8Od+/vOfn8INmkb0EaX+Q89SLhMmTFg+8EzGuyve5yXEAFzTi/QIPbOS4gUPkTSWsbe+9a1F8gXSaylb6BF5lxDlaqkDnVpa9OiM5ZnrjeXrfK5j8TvrYWlaXrvyWb7yyiuTfg5lyssmXftO2D/AOM1S3SdfJO+nyI8eK7W/ReQwziJn3AH6EVCUfZZ+GNMbazdoSStvX3ql9Pp6JbSWLderwfmx9PAN7pH6fWjGQB/pG1HG5DtWh8VikDTLiAWRJREBMs3eXwhIhgjISpWoU1+cU2dWWlM2HjoPaXzN6Ghh4LSVMDks0qbyh9KZRVwjX9ZNL1j5egnLN25EVk6B3PkWc6OxgYmNUBD3XPhHCxnYYmXuS5RfWViOxXtmaWUF8PEQ94uveZZX5WQdz10z8nRaJS/DUstQ/iXxHPiIFIbQs+HlySWFj7MveG3Rf55CJkyYsHwQ79F5DPyuzwd+8H7eeeedE+mKgT3ImQFehCEGlyHk6dXKluspZwlRh3g/DWGoDkNozbM1PWkMpWcx3rnnnpuIKpIUbRcSZNpMrLYORF2H8mTYOf300xO54jqjH5Aw6eQErN9fkZ9y0DfGMR6ZceVmY+wz61yrJ0TZSKkfoFaHHKGXt9sQhtq3j9Z+zcvWWod51NV5C0QZcvNnKkT/8HW34Ryj71LhP6lMX1QCCRI6jEXNDmjhq4t4xZT7+iR9ctQ/h3QKoSZ2oAUINrXQTjpSW9kGUmeF77D20lZr2l6sw2FtNhVlQxV5usmQdU7yYmkjs4g9/dh62y+Jsgyl3yLKH1FETFWxkFgQGVuZagftwZ1H+yDvPhzyevfbd0zy/JdahvIviTppT5FS3A/bbbdd6ndTdjlxDsmfqwkTJiwf5M9oCc6PkQiId7LfSE/kov322+96xCsnYKb++dv24XrpkFq+9ORJ/F2qhzQirZIODNWhD8fzso3pjbVdlC3y7KfHR5VbhTbLiXMQJeSJr6tNtsz4gTTH8jRDeOyxxya3CzOySPAQeY78+seJPnSdcrGAMqB89rOfTWPhUPSNqGtLm7T0Q+j5bdUrIfRK/RCItEhJB0KvVgfI0yshyubXR4/dmUtrBTxTe++9dzJkLRUGSTNBiPjJmv4QgxgJQzBujKSZcE/ZYIMNUucgSazNEXoOUfLAWrDnAf+Hf/iH1RFHtNWatBdrLWuz6SRWXDeDKT1uEfx8zj777LQJikWD+ijyC8JOhurTItEWyoAEI+b8o5Hj3CVBWVhM3vKWt6Qvvf5GL3larZKXY6llKP+aaN/wdRdRA3HmRy6etnYJH+d40CdMmLD8EGNdCUFwxgb+kp73NAMDd4C+K4BxZMstt0wbT+WEwfX+J7U8c7Lh7xKcU67WOoy9syLfmg60pNdSNi6IjEWIMUI0RF4df9aznpWIs9nPGuQTebEMC/unj1j9WbQRZxJW7H6f9cVxukG4GbeOOOKI1aFitUFgrK4Q7TamF/0w1l+R3phe9EVLni16dOaRnuPO0wN/+zDRzvERFf1APGcMlxYO4iVLgaKl2QM/tI32mpLA5Sp9YjR0HnE0Le9LJiJaIM7aSweJ3auzvCT5/oZ1fk3ay/WsxT5cTPWZrvJi8DJhdfZCMdXEGh0uGLnIe6g+YxLlJnyTWc99kfPd5hvmSzoejoi0wj3l/ve//+pNXvJ8/T2L5GVZahnKvyT5derontD2ool4aWsbMw/aJp6nCRMmrCy0DOgQA/qQnjSQMn7N4RMbYqBnpbRo2ixlINJzbQnyiTxres7RGSpbjjzPkp7jkdZY2Vr0WssGokLhIchp37oYhAlptZ4HAWaNLEF+/fbFdVi0RUVi9EKekS9k3G8Q6KF8c6EXos+5bpiVjrVIY4iyjbVJtJs0W/urVa+EXK+UFkhjLE+gM1bXyDP0AgxTZgmQ4/7HKGFgtDFc/lzNE0VLMzKIBCqcm8fUP6KwJkRsOUuNHIWwHCPDSLGpGH5MQZB0qul5vr58flllfWgE8RxKr1XC2uwlG9ZmPjvIM7IqP2Q+XCKUP/Lt14sM5ZELHdfqa3lzRVAfN6L6qWe8eJB3RDEsKlw4WJkjncVKv0xLKUP51yS/VhuFr7dZGT5XFofER8XYy2PChAnLC55Z7zdSQ+jVBn7jAytmWC9z0oUAWovC8BHvinivliCfIBK190pL2SDXqyHyrOnlZavVIfJs0ZOeX/H/GWW0Wd6OOVnCUxBe1ntW3n7aka80S22C4L73ve9NuzkK98rCbfZUvnneeb4kypOf0+fGxEMPPTTN2tf8bFvKBrleDaHXb4Mcrf2V67WWrUWvll6e51B6n//851Ps5qGPUUTaR4vnailQXAhoitn0v9BaYhCbckcYgjTnxGF9kBoxClFvRJg1FUGyQyDiGp2vzcTvNVXvZYhgh4vGUHqtos3Dt9mD7KHWN3Yn5Hdu/3xh4JC3KHu/PrNKkGZWZosLvYxEzPD1xqruRibK4GsaceeWsiZh5nLJ67/UMpR/TfrXaycfFhaKHnLIIalPcv/mCRMmrAy0DuitBIEVk4HFLJ3BvE+uELHXv/716T0KtbScCyJRe6/kerX0QmesDlHX1jxrepHWLHogfdG8zKqGNTcnSyFBalmMLZL30RJQvlqe4DxhDLLwXuhWVm6zvCyb0keG9VvkmfdpLnTDUs2Fj2GJW2fu76xe8mst21i75f1Q69fW/sr1SmlBlK2WJ7TotZTNegFjrbaNvsjbPuJ4R8CGWh1nxSBpjkJ7kIVVYWG0cUeJNKwPkpOiWh2RYB8QOkmYN/GTdYw20zHI0qc//enugAMOWO3Wsqak2fXyFZEiiJmFZ9wzTP/ZvWiLLbZI8bTjmn59Fit8s8VcRsyRQS4p6un+UG8vAdE7OObz+Q6XlDWVvP5LLUP512QoDdZ1m75YKMlFx3SfAdN9MWHChOWNGPNaBvR84C+BHmFgMIYKV8oSmg/sxhAEjLsfgldDnmeNAMS7eZY6lPQg0qrl6Xo6QXJK6eV51tILPZKnZbyxhkfUorDcB3HNSRMS5dciP7vT2uiLAaOGqAPJEW6Qxj6k16J7biA5Ic7zDsnLpTyE1ZpxiYtl/pHU0g/RJrV2izqEXim9vK5j/ZCnV0Jehxpa02opG3iuGHQR5H77m5VnYOT/DGNpzYLVm5sobF98pVngZSc8xIlvLQJXIg4rWVqIUQif3fvc5z5pAZ5wM6JYRKcgSqaGbLnt4WKlDSI5lFaruJ7PsvjHES8aYRW70MJEDyUXjsgn6rEmgqhzt2Bltush67aXiHvDS0i9WZlFzGBlVr6hdBYj/fovpQzlP4tIw3PhA0NEDVYOsbN9QI29SCZMmLDu4f3dMvDnet6DQ3A8Bn5/c9eKKBpIVk6qEC8f2mbxwirWhzTkSUp5grLl+Q4hytZKXsbynDU9UtMba19tZO2IMclHSLRnX6Ktg6hecsklaewaQl62Ul2dY900BkqLEcn4Li/55OQ5+jYkL49fIdO4bBi7pTuGaJPW/hrTq7VvYKwfAi1lg9AjpfSiDoR+TY9YSyWON0Ni9HuI58rMgL0U5o0iaQbTCL6yEDS+OTZ24OOak4X1RXISNFY/ZFJb6CwxIk3jsChoNzeFh/Nzn/tcerA23njj5LJgCn8orRaJskhDWlwxTD2IDc3v3C6AXiIW6+mfuGZNRF6s5PKy2yEfIi+scM1QRwtF+bx7Gchbu8wjbxJ1XxsylP+sgjRrezGcPaz86iZr84QJyx8tBMFx51v0ghwEkbA+yKZPSBYLaZCoEH6ZSDW/3T4ivVqeIC86NbIBUYco2xBcP08951rr0KKHvLL6as+hqfkQ4xLyRIehSVQLY1aESg201CGgXPT4Jxv3jzvuuOS64cNHOXICPVQu55SHn/SLX/yi7uKLL1q4P8pRHlrLNks/tOqN9YNzLXot6TneUoc8T8BNcR/93G9nzxqeNO+YzVXSzJoow9i4g3WV1TSIRp98rGTpk6CQki6rO6uvKSDhZX71q18lQqlDtRvrgtW4QuFEnOuhtFokLw9iynptWkKQdg8uv3MPLheaCPW2JiJPvszcULyYTHGpj/oRH1NWNNulUP3dF/kixHlIXv+llqH8Z5Wou/uCz7vnhZuO5yce8AkTJiwfGOdaCYLzISU9x50fGvgZUex5kE/pB6lyzMCPAORpt5aNHh2/tbK1pBd6kV4J9Ep1zRFp1fKElrJBnOMmaHw17vWJc7RtiPMIFBdCs6J8zBmBpDGWH9TqYBM4RNxHkRlGlu28j6NM/bIpEzF+fvjD56V0csgnz7eE0BvrB3qRVk2vVtccLXp52cb0nJ+lDpEW1xvuwz48+31vJuIFL3hBWoQ5T6wmzQGFCVEJFkXTCCyKbgZT0AjCEPlYydInQSFDusQ5Vl8dw9qsjdz4CLNO5dryla98JS0i4Nqi3YbSaZW8PPLlw3zwwQenDxovj/io4SIR/RPXzCKuJfyj7W7INzsWVLgfkGYhX7wo+HSr/61udatkZQ3iOA/J677UMpT/rBLtph3MQniAfcyYzmNpmjBhwvJCPqCXYBxs1XO+pMdVi6UzIjEY1HMyZdD3DheJCGL8Jf4uIfJVxpJev2wteq3khZSQ65XyBOfGygb9fmBxFvoV8USKo01z4pS3s3bHYcwEIlNHHnlkinZUi+0cdRjrB7OwOABDkplZ5Rnq57xciDXZaaedkjtnvqth5NnSD3mbDCH0SK0Ozs3SD61lI6X0Qo+0ppen5R7Qj9GWefvqA0ZLfvCunReKpFkFopDCsAht9sIXvjAtdmKF7BOOnISsRMkJUC41Xe0gooWH1s58dgJCmuOmYo2N6CN3vOMdi64T/fRLErqs1vpBulwzPHAe1I022miNole4jltGpL/99tun8quHOhH1U08vG/W2uQcrs+vIULqLkbzeSy1D+S9G4qNB+9kV0cMsPKAPjniuJkyYsDwQ41zpuYzz3uXGwpoeHUK/BNEfRFGwSCknUgTBMugLKYoISLOWJ0TZanWAGMdrxMH1LelFucbqSi/yrJUt8hzTy+uQ65n1NNsq3vVDH/rQQUt+Ls4hU8QHjP4QXs5s6lVXXbUq1T8hylcrW4AOA4k1TQxZiHlOnvuiPH7pCJHGVzuIs3rO0g9jepFeCVHPsbqGXr8fcuRla9WrlY1elK2vp73NuJup0Y55+7oXRDGzMD+PWLKmuAFpBoVUuJD4iuK/Y6WiBWd90pH/vxIlJz8lyXWDYIpf7aEQQcLDGxZZNwPLM2uzkEKbbrpp8hEOi2wQrLwMreJa5NiOUgcddFDaiY/VWd+w+ioXvbzsNYnyuE75WJk322yzVG7lDx8w9VI/VuY3vvGN6QXkXvDxMJHmP4k0LaC0Kj4Pbl96eUyYMGF5IcbAeJfXnt2WgR8QIutchhawIXDINMsYA4z0SlAWIt+xsrXUIU+rVgd60hqra+RZ05NWrtdSB78lvWuuuSb5OTMkhUU5b9+QIFTanx6ixcrP+szSL8TcF77whbTI3XqUGpQlb5O8bGZkbdXtI4g/dU6eh8qkDBYIctHx0TSGvE1KUB59WtOr1SFHrlfrB8ejbGP3XORZqwPU6iAdUTS46WjD6F/tqr2FeuQJYNHgvFAkzSEK6gZgXfQwszbf+973Xk3M1hcZIj99GbqODzGrIn+12DrTw8Yi69eLEnFitb3DHe6wOgLJmpBmwrf5bne7W3pJcHbnBuJm4T9dsmiXJMiyXwQ4rMymvsJX272gPtwNTEHZxtJ9wKoadSGz5FuTvK5LLUP5zyL9dPztY4I/uK/cCHmkDSdMmLD80TLw03Ge1Ab+GEeBL60BvmRtJvvuu++g1TOQ51sqm+POB9movXucHyMveXp+h0An9Gplg8izVa9WtgCyaUbcWMjyiETFx0mQqVyi3f2NZDM6+XgRFcvHDesz4ov79KHMyhRtUiof1w+8gAEliHrkm+dPfEwZd9/3vvcVCXvevqSEXE/ZSm0cdSAt/VDLE3K9UnpRtmi3IT3H8rL5uwRRxPg1a7+8X7W3/83CG4PnhSppjkKrnBuStdnGHdg7i2Z/0VmQh5UoeT1KMnQdwqgtNt988+Tj6yFjjdVuiJK246fGn41lmBU3LLJD6bWK6xEzLhm+ZMUk3GqrrRYVQSNIMwIs+oOXjfKKzBF1AJZz9WOBVhdxo/vlmiXfmgylu1QylP8s0k/HPaEdTReyNOh/00hDL4cJEyYsL7QO/HRIbUCnFwM/eJ9aiGZRWk6ggjghbyIxmD3sLw6DnEjU3ifORx1KcH2kV0sr6hB1LemG3lh6Le0LeXolhI70wN824OLHKqayNjWeaeto42jzIaGHPBNT+6zP9kFAZO0AzIAUaGk74BpgXZB0WLSH+p0geRFf2Fqlfrp5XVv7gV4Ji+mHsTzH0sv1amWjR2dMDxgqhfDTfvGRFMLCz03GjPm80EyaDfqsjoJ8s2wGaUKc19RquhwkCM+YDF1ntz7T8azNHlZTOx4u7QbajZV+9913T77NrLlDac0i2tyiPyTZFtrIM8szshazAHm5ayIt1/BNvutd75peFKzMFq/kNy8r8znnnJO+xFnN1btfrlnyrclQukslQ/nPInk62pFY+CmKhq9c7ixenNpywoQJyxctRMLx1oGfXj8tex8gdOGDmZMngz7izOLY3wY40uqn18csdSBjpITOYuvaR6TVqtdatn56xl9GPvGvWfZZIRFSbRttPiTRD4SuPtInCLQ+8zFjtmAWF4qA8L1cSBgdc1eCXKL/zTbEotCAOpLWfqjpRdn67dZH6NXSAumMpRdlG0uPHp0WPcL1QqAKH6J90qzfGRUvuOCC0Tq0osk9I8TAj9Wbno9oDfx0cwKyUqVPhEoydE0QTpZevsV26xNqLL5KTbXYXptP+CabbJK2XB5Kr1XyfBFwfSBNZWAtjnRDb0xC92/+5m9S+bwYlDeso6wjrB5eFj6YWNXlxTod1+eSp71Y6ae5lDKU/yySpxOk2QcFNxfuTELeiEIzr4d2woQJ80WMdfMc+Et6xlG+qxZ/xZRySBA3ZI3FkX+tNKClbHkdasjL1pJera55nq16NcyqV8vTGGYzEn6tjD0Iq7YNMpwTrLwfoi/iOOsw0s1YKNqFMfLiiy9evUg+R78f8vZF8Cze57uu75WhnyfSrJw2LTNrDS11lU/eryU4R69ftj7yOtSQ65XSay3brHp08KtTTjklWfH7faqfhQHU5njMPDBImgMKlosCWhRm2p6/j44XPQJxy0nISpQSESpJ6IWVHYFkRfYi9EJEOhGl6FyLKflb7bjjjim+M/3FWugj76FzJM7PIsrDysxHWjmRZP1N1INPkD7nKxZ+065Th3nk35d+mitBlFt7EB8vthU38Jmd0f/xEsifqQkTJqxbxDu6ZeCnEwN6TS/SK+mYtbOIu0+cYrD3N6ImQpGP7jDAtOQ5Vgdlp9Nah3hvDSHSGkvPuShbDZFeLc+oQ0s/RDqIVWyFLZ4y66P27btu9PshlzgXVmv8h6vixz/+8bQQMfLyi6Cpx1DZlDv4E4LcJ3rEcTPXCL/0QsbqOtYmodPaD6U6QJ5nLb1+2UqgR4f4u5RvnicdvyJo9F1foh1ZoO1qXfITnxUzkWaisOL0fv3rX0++WUK22FTD1tIsbENkYiXIYklb6CNKLL4PechDkjXWzc69IW4ULz3TLTrP1yrXCu01RDrHZKiMcWxWkb9ysBzz41I+04esIW5G5beY0R7uFliI3cyK6rq4PtJa07LkktdtpYhyaw9ioabIKj5CLrrootVhpPrP1YQJE9Yt4j0Xg/AQvMNDz98lPcfp1dIKsCJz2fPeHSJqQaaRPGtJamipQ5Qt6lBDEJNaXUMn8mzVK6ElT8jrUNJznA7JdRgv7NR67rnnpnU7rM+skWaJ8w+Yfl8EYQ7J+wcHOuSQQ1JIwQgZVys//PKXv0y7xrKCyr+fn7QRwMMOOyyNxTDWJq3tS8/fJcy7H6JsNb3IM9IrwfWhl6fFUGktQJDm6Cf/a8sDDzzwBjtBLhZV0jwEBfUVhRByQzj++ONTlIB73OMeyY8zJ845iVjuRCjIWsiQTkniGtZXvr4eIl8+FiSEL6sbQZvxbfaVyxUCscrzXFei3PzTTTspnxW/8aXs60w9fBmr121uc5vrEeWlkqF2Xu6i3NE2ngNhAc08sETkOwPG/ZA/9BMmTFj7iMHas1l6Hh13Pgb0kl6k1R/Q+3COLnjfDm0DHAN/WEFFczDDO4QoW60OEGWr1cFx6ZAo4xCci3xreUabjJWtRS/K1lIHOrWyud4Mqp0aDz/88GTV9a5GsPRFWICDfOUy1EeE5ZjbBqtzDeoAtk1H5oLY5ekS1mxGF26RJeT94O8Sou1q7Qst/QCRZ00v8oyylfQiT1LL07lSntaS+QDRltEvRLv6KHnpS1+aPpjmgUWR5ig8i/Nll12WvpgQKiHIEIUggwgE8hAW1eVMhpQtlyGdFhEdY8MNN0xWWTc7NwftFTeGFbgCsXNryRfS9fNfGxJ5C4OnPMos1BGiHDcnsqceXtrqlfuwD6U5L4k8VppE2f2y3ltAYlElC4Q2jWeo9hKZMGHC0qOVINAh9EtwfU4QSnAu9MAMlMVqfFhz4hSDfpAyv9w5LG4LVw1orUPozaMO9OiM6UWepFa2SK+1bH5LaK0DOE+fgeiHP/xhWuSOxAqnikALP4dw5QQ6+icXx50P8muzFNEakPI+ok2iPfhFc+HrW5sjTdZv4epwrT5a65rrRb5DaNFzPOoQ7TeEPK2WsumDFj0ylKe+M9bqK22Xizbca6+9VvuHrykWTZpV0MNr4wa7nnHEFtoDsbr1rW+d3DVE1gjSvNyJUJC1kCGdmsR1/Lv5/PpC9PVj4WR+Q7DiCtunM1l3I6+4fm2KfH3MCF3ngRdT2LRR3Oys5F4m733ve5N1XL30ab/OSyGRx0qTKLt29YFhFsbK3cnSPGHC8oJnsDQIQzynrQN/LS2ItPrpecdyFYjV//1BH4kKUsZVg3XUAjeQVku+YzpRh7H0Ii1Sa5O8ri35khqcHytbXodanqWy+VukK24zZ555ZjIUWYPEVzbIc/RHTm5z0Uf0dttttzSLkBO1aLu83fSjcddHk+v6afK5ZsHuW5ujrv30+sjbpKYXZSO1tmtJK8+zlt5i6lBKS0jAcHXJ2097stjrj5aIJy1YNGkOQQhZU/nButEEmVZw4c/4dCKRsWisTzCWk+SEbbFldZ0PBP7KW2yxRYrRK9wYXxqdDqYIfF0KKfP3f//313PRiDTy/9dU8vRyifPyVw7hdMSGjK9jH0RuMjMJtoO2o6F6xYzBUkteh5UkUf7waTYDY8ciz0jcA/nzM2HChHWD2jPouEF6FoJQe56lESRiKD27ye633343IM05QXPOr/BajBsQ75QSIt+WOkTZSvVwLtcrIfRmaZOSXpQt9EqgR6clz0ivVAfXMxhZ/G5tkl0CWYOf+MQnJlJMom/yvopj8YHD5eO888673gfOUJ7yYZ1G7vrpSQdpN5sfY3O0CSnVAfK2q7WJc3Rq7Quz9hf9kp5zuV4J/fRKGCLN8dxoVwtq17mlOSQqr0P5voq8wEfI9Ib4waypsehtiGQsF8kJGxnSGZO4DrH00WCRh/bwggtnfh8ZHpJTTz01hW5jjcxdV/zm/6+pSGdI4rz8EXwvBj5WEWZOeVnFPfTqIeJHzBisDeKc12ElibJrH9EzzLhYaFKKnjFhwoTlB8/mLAM6qT3PzrWQjU9/+tNpZionZbkgY/yfP/ShDzVFAlB2+Y6VLerqt4S8DrU2iTxraUHo1dKCKFtNL69Dix6ptQnkusbE73//+8kijAjn5Ln0keNvBM77X78a90uQl4WJFrLl7gXR537NMJiRAHVUrlpdnYt+qNW1Vc/50Csh2iz6oZSe43RCr4TQk2ZND8yG5+2X9wP3DCGSlw1pJnEccbaxh0gLbrB99tknTTs8+MEPTpt/hL/zENlY1zJv0uZjwQ2PHPuYQJqivfxtim3PPfdMsa5js5N5l6EkSJ1fxI4fOn8fxC6soW5Q1nFh87iSqIeFi2ujbOuL8FePjWIsmPVsxAsn7gMyYcKE5YMgES0Duud5bECn15qe6Xx+tEGUcnEMSWNl5hJZQ5SttQ5jes7RoeuaEmbVq+UJeXolRB3G8nRulrKRvh5DEvJ82mmnpfj7LMBI2lB/EecQZ+OriB01mKl/8YtfvNraHGn4W/os3ci3GWDlqrVd3m6lujruPL3WfiAl9NOr5RtprWkdwDnCyyFIc94H8dzYZCws9WuKmUlzDQqvssiXm4SV1UPOkd3LQLgyO9jlG2MsFwKWE8J5lAlp+od/+IcUMsaiAI780fl+7Q5kAQiLPIukxXhrq01YjBF1kTBYNrwExA2Nmz36kK+6zVrsbKd882yf9V349Gu3Aw44ILnosAxF++YyYcKE5YEYqMcGdM9ty4Ae6dGrpQcMK3xo+4M+QZwM/Gb8kKsxtJAh5W7Rc66l/M5HWq1tUtKLPFvqMJYWRJ6ktWy1fFksr7zyyrSOy6LBIGf9PiNIs//xoKGQZ1Gen/3sZ8mvvW8pJfremqIPfvCDq2esS4g6+G2ta4ueXzIE10tnrN3otbRv5EnGyhb5vvOd7yzGafarbddKnObFQmUUkFO9MDniF7rBEAhO7SzPtntGEsPqua4lJ4TzIIXq5QMhXDTsHKRz4ybw1eMFKNY1azx3jnDVGEpvnoLQc7ew2pSvlIgeHmhlixuRa4Zyc6C3AHBe7XJjEVFUIu61Z8AUn7bVxrlMmDBh3cOzGAO157QEejFQ155fabQM/GDq3hi5ww473GDQJ46xotmJt0aa5BPv75Y6KJvfEkIv3lslRF1raUGUjZTSczzaraVstbQgz7PWJq1li3N+GZYuvfTSFHUqLML6KwhziP5DrunmZZBG5IcviQCx7bbbXu8ecD3ix1+XNbXW/9KOdotyDqG1rnl6JUQd6OV16yPypFcrW6RHxtKLPI2tZvTxqH7b+Wjx7DifR51ZEywJaVbxkPCNRcwsiDLdL8qGqeuwXg6RjrUtQQrnSQ5tbe3rh6sKf2Evx2gXN4UtNSPWtf3xbWFt62XRLMS85gtOkNw1EWkg5BamIcA2YPGCRtg9yBb8xcNB9BnLh3Irv+vUZ7n01UqQv/3bv00fiOJ180XT9x7w/NkgEyZMWLeI9/HYwD+LHh1Se8bjHHcL2zwPEWZEjAhTajawhFnK5nxrXUkN0vBuo1era2ues5StRY8OqZUt9FrrkLcJfVZiY7j+Izlh1oeOIW64T/jVui7qEHnawMaCtXy2IUgzP2p5iMI0hDWpQx+uz/VK6TkedRhLjw6plS3SI7V+jbIR0KbiY2uj/oeL6COs9MK+1tKcBUtCmnNoCA+VrwEuCuJMsm4KTcdNY7kQsZwwz6tM6ocIc9EwRY+M6jht4le7eAhYIi0EOPTQQ9MGIzr6gQ98YHfPe94zxU9eU5EOVwG7HvmS9WUsHB4XGn0SN6lfZXITcilRns022yzVQ32WS18td+H+YpdMAdVZ6w2K2la/92XChAnrDvHeGxuoPautejGgl/Ti2ZcWeNdyYfTeD7IUAz/CxYVPdIAWK2NLHcb0Iq1Z9KRdAr1ot5peS9la60AvylbSo9Oq5xwdefu/D2u5jJfhkx6Emfjfca6O9CBPL2A8tuAvXDRC4mPKuC2EbY6oQ7TJUNkCoVeqQyDK5rekl+dZSy/Xq7Vv6LWWLa+rWXzuF9oq2j7+9kyx8nM1nReWnDTnUGG+vKxvyCQyxh1hOZCxnDDPqzws6dwuLBqwODJCz+nsuCH9ehl6GMRiPOuss9KUPsd1CwMsIlhTkY6QNkLH8f2x6M+uRfKNG0854uZGpIXa8dWLdKuH+iyHfloJwrLvo+f1r399elhjC+0hmTBhwrqB529sQIfQqw3ojksjBvRaevGujbRiV8CwkuWE2TGEurQbIIyVDaIOyua3hKgDnVId8rqO5Rt6pbQCLWWTD51aenTyutbyda5VL8pWq6sxPrbljn6MvvQrrKsZ98i3n57ZXZuruD6IX5A/YizPFxS6Ni9bSx381uoQ7eG3hLx9+3UIOJbrjZWNXimtgHPSIrmeZ8PHRr/d4vnBfSzgnBeW3D0jBJA0luZjjjlm9eKy9Zk02wjkVre6VbLusjgio9HhbpS4gf3yt3HeVD6rNGLLnYWv25rKhRdemNJD4Nw8rNvhYwvKEA+AX9t9n3/++elFbpFivqHJJMMS9wwrM192GxXwQRNesGYhmjBhwrpBDNbxHhyCd+MsA/qYXuRJgIveG9/4xhQWKydZJKbludENbcwQZZNvSx1Cr1Q+5+iQWh2cm6Wu8yobvbE8I71Wvci3BOfGyhZg+Hrd6153vY+f6E/HRMDgjmk2V1r99BiyWKORP/pxHxAE8LnPfe71FoJGHcbqGnWgV0OuV0ov8hxrk7xs9EpwLk+vhDzffp64jVCArMp5m3l+uJdyfbIj77ywVkmzxW++xiwItKEGMrY+k2YEShQFDwEnfwsj44Fxg8RNF+3jf2RWSDqLDJBbL9U1FelIT7o5WQ7IPx4W5eOjxX3DTci3Wj2G6jfJnyTuGWH8fBAKNXfRRRelDxBtO2HChOWFeAeX4L1YGqhzhB6p6cmrr4dEsU4OkWbjBn/M/gKyQJStpQ4tZYsxoJbeUB2GEOm1lK1Fjw6p5ZnrteTbUldp0ash0uDWaBbdgjT9l/cn0mujK2HjpDkEpJsrJ7KXk2ZpOOZ6rjyBqEOtTWapQ+iV0ot2a23fFr2xPCFPr6/H2Pjud787uTB5hqLNiDZj+LMIcF6RM2CtkmY3lc0yfBVYkBZkbF4kdU0kJ8zzKo8PAnXcaKON0qI6CznCJcLNFBLts64gfzckQapZo91o/M592CyH/lkJIhqMxZ+sQ29+85vTtBGXnNqLY8KECcsP3okGajI28Ide7T0ujSE9YcQQpLBOxoAfx7jW+fDuI9JrKdsYeSmVLYfj9FpITp5eDc6PlS3qQFr0Wuo6VofF1BWM7e95z3uSdVMf5qQZgbMwHGkulY/rap80Rxo5aY7ytdSBzjzq6nikVSo/zKLX2r70yFB6xlczNdrKh4nfaLdocxufyGdemCtpVvmSAPcDU9ZiA3NbWBvh1VplKUhziA1ETBF861vfWh3ajcTNFe2zLiDv/MY0GyAGJRca5V6K9lhfxawCH/ZYAGgnyJhZmDBhwspA67s5f2/SK+nSk5bfXMcxxomHPvShqwf7EAO+iAvWoPRDZUW+fkuIOozpRdmirqU6RFqhV0Jr2UJPeiXQo0Na8pxFr1Q+189SVzqRFn7z1re+NbnmBXHLSbOIVdYtlfLmmsk9g25+PUEIXc91M8pVK1vUoZQX9OtaQq5Xy9M5OmN6yjSLnrxL9bAIMLYgjw/PEJZnkdq0+TyxVkkzVwHxmt0QwqrdWEiz8Hq2FnfDs7a7CbQJQhV/ryu4GZUhHgouHELf8M1S7qH6THJDcS/zZfbg8kHku68ttW/+DEyYMGH5wnM6y4DeoheDfl/PegcDvnjuxsRcDPh8WGPr5EDkO5RewPF4p9f0Ii16Y3Vo1RvL0/FoN7ol0HOeXi3PVkTZonwlRJ5+x+pKL6+rsLJcT8Piibj5NSY4Zs8GHKCfbvxf2uAm0hAF4utf/3q1/BB1zcs2hJa6Oh56tXzp0WnRa0nPubGywYc//OHkwhSuGXmbaUcfIaUwfYvFWiXNpplMW3tJ2JaZ68JysWIuJWm+4x3vmB4mXzw6EFl2U/h1Y0T7rG3IN39wlIfvM8d6q3jvcIc7DNZnkuuL+yXCC4p68qlPfWq1lVk/58/AhAkTlic8o96FY+9kz3S8N8f04t06pGfAt8FUWBZzQbLEZs6tzC15QujJv4RZ6lqrQ8D5/H1XQl62Vr0S5GeBl48PUSX4BBu/XJujtQ6z1LVfNn9zteFCoe+CuEVf+h2K4iAfaYE66PM+aQ5XjX322ScR8xqUQ/n8ttRhlrqW9CJPerW0oq5jeUqP3lh6/JS16dZbb3299iLakG+5mRyopTMr1ippFq/WtP+WW26ZNsyIRYDzJqmLkSjHUpSH/7awQRdccEEiU16EbpyQaJ+lQL8f+hI3u1/l8mEjEDhfOttsD9VnkuvEfeLDz8Yxtkzfc88904LP7373u6t9mfO2njBhwvJEvAuJ57aEnCDU9PL0Ss++Ad1ivyBVxIDvf+sijJWIIcySZ4tevPPH6hp6pTpA6M1StlJ6ztGrlc05RNk4xe3R2Moq/7KXvSzN8ok6Zf1Q/4OjVr4831pdne/X1bGvfe1r3X777Xe9vgyJ/hSCVDCAQLQJAVZkC8jdEzkBdD2XDyFjbRRXgvRm6a+anuMtbRI6s/R/a9nG0vvCF76Q+p0RNm8vwl3DuYsvvjjp1vKcFWuVNOtwMYg33XTTtM1wkOYhQrK2JSfM8y6T3eH4I4lIITKFxXZxU+TtsxTI+6AvcYPGDe8lo4/Eit5xxx27W97yloP1meQ6cf+6jxFmi1v5H4rDmYcWnDBhwvKG53SWAT3elyVEeqSUHjJsky8WsbAkxoCPNMWGJvKC1jzp1fKVxljZIOo6i14JednG6kCHlPLUbqKJvOY1r0lbSyOURBtGOwrxesghh6T411wexiInzFrXvA7cLc3MsnjKO8qQi/JxIXj/+9+/OvxotEnkKU3rYPCE3NLsev/zbz/ttNOSMWYI/fRKyOtaQpRnLD3Ho7/yNukjyjaml5etVgfQ7kcddVTaNEb7RnuFIM1cXRgBx9KaFWvd0uxra+ONN06hzIaIyLqSpSTNN7vZzdLDZJFAbCriBum3z1Igz2NI8gcDmfeFbktKDytCOFSfSa4jzO5hm5jwVRP2hh8zv/0I66dNJ0yYsHzRfweWEAN6y8Dfkp4PawakIM35gC/UJ6OFcHSRTi2tqEMQjhJCb6xseV3H9KRVaw/Iy1ZKL69DLc8vfvGLaZMQ45OPiz5J9X+QTuTZphcf+MAHkm+4Re5DUP6xOvSBvLN2i4q18847p/yGCHOUiRU8380v6hr5GjeOO+641WlIL65XHx9R6pFbzwOt/eD8WL/m/UC/pBd55nUYQqQ3Vr5+viU4R+w5wVDVt8oTx7g9iWSyFFirpNnURFia//qv/3qQjKwrWUrSbIe4+93vfunLR2QKC8TydllK5H0wJG7A+Fu5WEr55cbmM0P1uTELsixKBj91LzNtxZdNeLnYNMbDH206YcKE5QnPZ+vATyee6xKk0aIHjCespQb4IEnE3475EOe/2pKWfJE4uiUspg41tNaVHp15lE1INm0WRDJvt1wQz7BA0+Hbuv3223fHHntsimBloxgE2rtauyljDdG+jF0svd7z5557blqYF/kNEWbnlJNFnJVYfqCe6pvnyyIeUSBcF2lIVxo+oriduC7HLP1Aj5T0HI+y1dJzfCwtyPVqbdxSNogy6bu3ve1tq9cDRL9Hu3HX4F5a20VzTbDWFwL6mtpqq61SPNt5k9M1kaUkzfxehdjbaaed0oYXPh7cAG6WvH2WAnkflASUhb81HyBTRBtssEEiiEP1uTGKtvjzP//z5LLiA8iXvw9A/cnlxoMcL4do0wkTJixfeFbHyIZznusxvUirpuc4PUDeYtFXEKwY9BElFlLEeqxs8mshJWNlA3qz1LWWZ142vyW01gF34OMtBvKQdTEkyGZIkE7Cr9gYrG0RaMTXZmtmCFmNkXIhzMyIk5/+9KeJzNqF73Of+1xylzFT/sIXvjARNqRcuiXC7Lw8RaJSfog27tfV4nFli4+oEGkTvs4MWjmi7UhLv7b2F71Seq395dwsZSNjeYbuZZddlrYUj3bP+15/cNkwqz/PDU1yrFXSbKWryriZhJyLzU2WgywlaSastuJxnnTSSekhRbLiKzfaZynQ74chUQZfwazgymc16l/8xV8M1uPGKOGKcfe73z1ZDV772td2H/rQh9LA52UYCzvzNp0wYcLyxtizGoN0y8Afg3pJz3E60gMLx7gZ9AlgDPo2uWDEKCFPT74lRB1ay9ZS17E8++mVEHpjeYqIcfLJJ6fd3bRPTpRyCaIZ0j+Pd2jvILPSY8FFgn3ACE/m3Y7kEn7RrL8IGj37S7hOGaIcQxJ5Wbx30EEHdVdddVWqR9S3X1euGW94wxtSmn0CHmVF1rVDYCn6YSw951r0pEeH9Ouao0Uvyhbl1wbHH3988vHWNtG30V5Cz+kvYXOXCmuVNJvWeNe73pVu1lvf+tZpB7UhkrIuZKlJs7raOlyEBat+PShBtkh+E/bbbU2Qp5WL/Ii/5e9mtHDCtKD4zMvpg2apRD8jxHl/5/fAf/7P/zlFxrjLXe6SXmgGOT5sFqJYMOlLVttFm06YMGH9gOfZYB7PdwneoaFXQrxj6cV7nr+yd61BPh/4vWe4E4gKUYovG+mRfNzoIy9brQ5RtjE96UW+Jb1+Xcf0xvJkXGLhtbNbWGGjvfJ2C4ts3/rY1wtd7aztg0Q7j+QiqH6Jj5fQpxe6kX6k1xc6rtl3331TXGbtEG03VNcLL7wwhaqLWMO5OGZWU+Qt10PerzU4P9av0Q/RXyW06uVla9GrpZfnCfRY/Fnk46Ml74foRzMSDLRLhbVKmi1+4P/JF+j2t799IiVBUHIysy4kJ0tLUR7kDAHjz+1LSbxG/lFuiNziPNRua4KhNIn84sbmq2V6ynaUtvxmVb0xuGaoo3swPhD0u2P+Z2nnovLgBz843a/CQyHLXDH4fg/12YQJE1Y+PMvejaT2XLfqOR9EImDw917pk2bEjAuCMSK3LAYizxrZAHqRZ61s0phFbyzPobr20VqHf//3/9V99rOfSbu6hRU22ipvsyCp/vZb0utLfi6uk5a8SJ5unlZck0sccx2ybV8GhFkdo75DdTXuWhcTO9r107ModJdddkmuIyCtlvZt6de8H8bSC71SWuDcWJ4QZaulN5SnsVdYv+irfj94lnbdddfqVuXzwFolzciG8CxuKNsN/5f/8l+WjKTOKlGOpSpPkDGxjz0EVsLyn3JT6OChNiNriqE0iTzdlMifcigPX2bh8ZRzOfTJUos6qmv+gYBE26jkvve9bwoTZNrs4x//ePJtY/XQdoF+m06YMGFlIx/QSwNvPO/en7XBOXTyd3zAwG4cCOtpiP+5gHFjFFYrR56e3xJmqUPo5WXrI9KTZ0mvtWy53ljbcRfkf6xdgiTlEscRJeHHWBi5U7BKI1BIb962If10Qlp1h/QiL1ZQsaJF64i2Ut+huupfxhgfSbmVOfJBwPlOm53XXtDSvnl/lTDP/qJD6JAacr1aepGnv4HlWFQvMwDaut8P7gNtaIbGQs8c0qjda7NirZJmfrOc2S0GjOgMS0VSZ5Uox1KVBzGTrsgLwpQJQWMRAuu7G0SnkmireaHfB/G3vBBmN6MXuPKIN2yx21D513fRNwizj4aHPOQhaeHFmWeemVawmxHQVv027MuECRNWJjy/3oljAzo4551Nas+9894bfvsI0pyTJRJE6ZRTTrkeaZaPdJStlG9eBzpjdailFYi6+i3p5WUb06NDanmC0Kd8iktxeIkPDOHeGHy4y1lfwn/Y/4cffnhqX+3JWpsT6H46efuXdEJyHURNGawBQtT5HVvQl7sGlPrBMdEwzDbkH055Po7bBTA2RBnrB4h+8FvrB+dr6TnmnLRiVrWE0CM1PWmGXqlsEHWItBir9Kk2Ln0IsdTzZbZWIEde13lhrZFmoiFi84zNN988uSssF6tmkOWQIZ01kUgTeVZvWy5zh+Cw7uUYN4l2mhf67R/H4mFBBsU7ZE1VHuXql/vGInzObe3uBetl7YUmrmaECcrRb9eQCRMmrEzEwO/dWHuW6cUgPKZXe6ebcWUh9b6JgR9ZCtJsQXZOmiPPUnoQeZKWss1ShxqkM6YnnxY9UO93vOMdVcIc7cSwkbcTeGeLfMFvnCUXmZKWqF3IlWuli/TmkvdDSBxz3jWuRWaFNZNWhLLjbmPGNuqW99cQ7P7HUCXNoTrKQ5xpG6JAtF8Jefv6LfVr6NV0QLmlNdZfzkV6JT35hJ70WvKNtPza+Y//f/RR3i9En7DWc/11bY7I0++8sFZJswbgouFrzA3PVYF1b4jErG1ZatLcF9uIm2owpSSkjYWBvujmibzd836QjykMVn++c248hHGonOu76Gv3oPqLbnLooYemAPoW4cSLoP/A5W2Zy4QJE1YePLuzDOh0S3p5Wv33Ro7Pf/7zyVc3SHOQJQRAZIDcpzny9VtCvKda9MbqAPRKVvIckW8tvbxNamWL642H2gZxjHbJBXnSTi0LvlgppWfxvdi+iCoyqo0RLWRaevLSF4iwX2IWQD7O07NI0HUsngceeGAi7GaL++4AY3VljBFvOgj4UP3cEyJv0JVOrd0g8pxXP4ReKS2QBr1anuCctGrpRZ4kL5u1X1x04iNH+wRZJo4RVv4I6weR3libLAZrlTQTlRByTYgXi6yWywYaa5s0s2yK3Yw484HyVSzEkIgabhpttaaINo+bW9v7CndzmcZgzfAiQBiXUySTtSlmOux8uOGGGyYLMwuQwSoe3qF+iHbty4QJE1YWPLee9XjeS4h3KCk965FWDNQ1mGFkAe2TJgTAO/nII49M7+lIs7VsY3otJKK1rqFXy5Ne5DmmR4xPwnkip/nHRN4+2ozvskV0Q8jL1ocNL0SiEJHjjDPOSFuZH3HEEWnjMa4QNsXQL9zz/I8cC0PnI+b0009P133iE59I7iN9yDfabShv51mYhRNUl3DN6ddR/Z773OembbVj9+AS8roS/w8hL9tYei16LXlCS3qh4z7JdbjaaKv4cNE2OWEmjgsZaMY8kKc3Vr7FYK2S5oCpk3CAXy4uAWubNBOuGre73e1SiCEuEgibKR5fxzp8qA3HJIf/3YSE1UC6VqD6Ojal5OtZ/v1yra36Lwfhw32ve90rTf94meZfq9qt36aQt/fQ+QkTJix/eL5jcK09x6FXeh+A4y0DdRy3yA0pGyLNfpE4ERNqeUKUrZYn0GshEXldS3A9Hem16LWWDRgshPXEDfqEMkgSKzAf1yHkZSO1fBmozPDGJibi7usXBiXWaTOx1rQgyCzaQ656gbyuQ22iLJdcckkyFrKaRr/36+i4ujNoyVO6pTrkdfVbwljZAtEPY+0WetKrla8lvSgbnSibY/rBM5B/WPjNRTsKX3zOOeckD4ZAP715Y62TZr8eDAshxL0Vr5m1b4jQrE1ZV6QZaWNxdgOwdIqV7OHl/I/kxhSZGyDaEPJ2zSWH67wY+C6zYvvKPv/885MLgpcPF5F+BJO13QbrUtRRG/ho4UPHchEuMkPtGcjbu6QzYcKE5Q3v1P57tQ/nh96/ORxvGahDD0RXKG2jjSiwdnof1crmnDyl6e+SrjLleiWE3lhdW9JzPNqkJU8CFsZbBOmdHO0SJIkYt1gebT6C0PYReY7V1bna+VkQdY08++mqE99kPuzGeRJ1yyXcNfCAIUt2Hy11jbLRq/Vr3g/+LsH1LXp5ei1ly3UQZmH4GPWG7gGiDd0LgkrYvRGkEfnWyramWOvuGQQxcVOY8njAAx6wLKzNOVlcW4Qx8gpXjY033rh7/vOfn0KrWIhmesLCSR8ZvnLdYG4G4u+aIMuuY1lGwgVQl+5uu+3WbbbZZikGcXys5PUO6Zd1fZQ/+7M/S6EPff1/5StfSb5pS/mwTZgwYfkgxqMSYgD2Pq3pOW9Mo9+SHlgzEbvABTEI4VcrdBlrZwkxBtRICbTWIfRqdXBcOmRMT1pjZRvS447Acpi7Z+RkKY4hTWL2XnTRRWl21niXo5ZvXtcSXB/tu1g9m18h9sIH+gjwMYTo5fUIcVyd+FyL7wwtdaj1q+N0omxjeu7hWp6hV8sTWsoG0W6ho+/VnUtM/jEZ7RWinbi1skTjR4G8H2r5rinWCWkG1k9WVVtTchHIY+WuC1kOpFE4OrsG+sLi/G7rUAsY+L+xOviiMp3kyxXBs2o4BEF23JQOPQ70rmNZNtXjBSNdW0H3Ny/p131d1X9tijqyMhu0TjvttNULMeOBi/t0woQJNz54/g3CtYE/dMYG6qG0kDxGjL7V0d/cDyxW4y4m3T6G0huCc60kJ3RKeo7TGUvPcTrRJiXk6fXTuuyyy9JHQ7RNLnk7eXebnmexP++885JxKFwaSpDnPOsabZfDDDGyzP+Zj7Sy5nWJOoQEYaYrCkcpv0Br2WbVa+mvWlrgnLRIS54BM+t82Rn1wnWFRJuFaCuEGbHOZxoiPb9LjbVGmnVICCAovipMRVgQyE1giNysLVmXpDHyY/m1Ex2rMz9bN4lpOoHbBTj3kXHxxRenECwsoxYVsEbwweIIL+qD84jyO9/5zrSi1PVuPpt1SFf6okXkdczrHRLn1lfR1ve4xz2SX6E2C8JM4p6dMGHCjQ/eAWMEwfEYqGNMK6GkJ5pDbmkOYhB+rYwmObGAvGy1fEPP9bV3Gb2xOvTrWtJtbZMxPcRXONaIXhHtEkQqxDFkk46tpl/60pemRfXGQe6IDHN91MoPedn81tquD0YrLpCiathC24ePspWsy0T5yd57752s5mN+08oeZSvVo7UOjtMp9UMgT29N9UInztM1o87rQFSSoechJD48zAzH9uTgN/Is1XWeWKukWWNFJ/rlOnDuueemG14Eh3VJ1tYlaeznx10DubXRBvIsprWXqEDu/MBNS1jRixSb4kOqBXN/9atfnb5WBXWnv+WWW6bruWKwYktXXqzMeZ5R51zy8qyPImqLEHM+RiwCifs0Hmh/T5gw4caFGIBjnCrB+dCrIR/Q+7Bfgdm/IAN9csCCmrsdRFql9AK5Xq0O9OJ9V0PUtaYX786xPHO9WnoMQbE5SU6kcon2CkutX5FH7GxrptaCQukg4ay/CGmtbBDlIzVd56WHmFs8LoTg0UcfnSyldnRUlpAoZ14HfyszMaYLAsBwU0O0W61s/fZt1SuBXuTZ0v+1soFzRFrajtsolxT9Fm2V921I9O8ee+yRPoqUCVrrUDs/K9YZaY5Gi1WS97vf/bq//Mu/HCQ4a0OWK2lEcFnh//qv/zrFtb7nPe+ZdqxDiPm++Rr3639h05Dk2972timMmkWGLKqluvWP55KXYX0R9dKePh5ucYtbdDvuuGMK9cdC4H7MxT06YcKEGw889y0DP70gEjU952sDutnCPffcM7lj9EmC9zqC4N0EeZ6l9CD0SGsdagi9Wp7yGasr0GspG9Axo2qmFKEK0qRthkhVSE5UTeNz/zSbiEBbJyTcrWgZ3Bn50EZ5iA8UUqsDzvKjH12T+k5IOP7KIi8pYyxcy8sQEmQ5J8z8nLlNSmusPVr6q98PpTRzvVq+rXpRtsi3BjrcSWNn6L41vkSYHWeNd09EG+R1LSHqENfMA+vEPSNERXyl2cnFdpJ3uctd0uKsIcKz1LLcSSOyp218WPBJvulNb9rd7GY3S365fv2PWLMo05slIkm/7sux/msq6hR+3NrIluEsOYLHD7lmkAkTJtw4EOMRKT37jjvfQg6cH9ND2oT+tA1zEIQgVlw0zMAiet5PkXftvRR5turVypbX1W8JoTeWp3PSGsvXucgPgTUN/6Y3vSntvKddcvLcb7OQOI6MaUf6CCr/5+222y5ZdrX72WefndYMibvM4smHHIG1gG8Iyibq18te9tKUFouydJUpJ359yctGhyiHzVn4YdfaA5yfpR/ol/oi+mGsvyLPsf7K+7We3n8sfAD+Nvmri48dH0PRbnm/5aJt6TGsuheiDVrrSifqOy+sk4WAIeDFwQ/IYjVfan/3d3+3TnYJXN9JY036dV/f6q8+CHOQ5tiNkfXBKnbo35cTJky4ccDAO+sAXHtP5OmVENdz0YioCn1yhTQgC9wLYCzPeZYt6tqi15pni16/Dn4Z1vj7ckFkmeyT1LzdQnLiRc81CDRxLEi09BBYpNz/QtlZlDYEHy/vec970m7GttGWlnTzMuT59o/TxXFsnCLOtKgftfZwTluMkb7QI7X+in5o6Vc6s+jV6qH/xKg+7rhjk1VeO0d7lNpNn2lfbqb6xAxBlKWlDs611GExWKekOcSUh0gP/HS5GbCk9onPUsv6TBrHpF/39a3+/Xrd/va3T9YG27m79/r37oQJE24ciMHVb+3ZbyUbQV5qaYUefPzjH08WZSQwCESQCKRBFInvfve7SbcEZULoIs0SWuoAoVdLL+pAr6WutbQg+oHeUHqOI7Oswt7d2qdv3S0RsLxd43xOokOsHeILnYcxA+Uh2thHTqm/aiI/ZNGCt6uvvjoZC8cQ7Vtru2jfsX6lR2dML++HFr1Seq73USCCiP56znOekwhwfMBok1Lb0dG+DFvWbYkGFvdES13HyramWBakWeU0sBeIVaeiaSDOa5O85cRqbea7HKRf9/Wt/lEfv9xW+M/zp7Jq18urfz9OWP/xb//2r91vf/ub9N655gc/6L5z9VXdt7/1ze4b37iy+8YVV3TfuPKK7lvf/EZ39VXf6r7/ve90P/nxj7pf/vIX3R//8Pv0vpqw8mFANQiTErwPYqBu1asN1Lke2K/goIMOSn7NfRKGOHAB4EZQiqoQBEGatXdXrldCv66l9BZT11rZQq+WZ0A7cKnjtnLAAQckAotcIWLIVk6iQ/J2zdu3L9xkbM+dk+YoW/y+973vXe2HW0sryuI8femytgptOgZ5tfRrlKm1H2ppgTRa9fpl88sAxSJsu3F9w19f/5hJIX2yPNR2dBxnkRYkImZZQH6RbwnKETq1NlkTLAvSrIJWt9o2VEOZvkCcY8e6PgmaZL6Sk+WQIb2VKlEfhPmv/uqv0gNshybTRh6w/v04Yf3Bv//Hvy+Q3Wu7S7/0he6c957VHXfsG7uDDzqwe+V+L+v2femLuhfvtXv3wt127XZ/3nO7F+y6U/f8XXbsnvfcHbrn7bzDwv87drstHN/jBbt0e+/5/O6lL9qz22+fF3cHvnLf7sjXHtqdespJ3Uc/cl4i2//0T39cspf0hKWB/qr1mXdBThBKoBcD+lh6oRfp+TXlj/gFoegTCC4aiGIfUTZSAz35zFq2IdCLPGvpRZ5jepEeXX8PwXFp0MtxzTXXJF/kE044IXEGHxjarGSBDonj/fN90hz5Rnv4u0+a+2nJl9Xar2hXRxxxRAoBawfIaAfp1uqat1urXgmz6pGannND/cUKH3GWbUwjOIHoVEOuRyH9dqPL9YXHgQgZ+Ydi5DuPuq4p5kqaFwMVjcpqJOG/NL6Yi5tsskla5NYnQGuT2OX53ZhkqC1WouR18QFmIx0vMyGCLDTJH/wJKxv68vvf/173yQs/3r3rnad1x77x9d0hCwT5pS/ao3vuDs/qnvyER3cP23qzbvONH9RtttEDM3nA6r83v97xkjyg22qzDbvHPOKh3TOf9qQO2X7Fvi/tjlgg0iedcHx37jnv7S699Ivdr3/zJyvJhOWHGHtKyAfqml4L2XB9PqDn6XkXWQiPiOVEIsgEF4180wu/UTZSK1tehxLy9Pply+H4WJ6OkxbykqdX04uySbOfr/9ZIy0Ss8HJW996YtpVF2HLSZu27BO1OBbSJ839OvitkWb58FkWQs2HkDByDIEIJSirNPp1CMT5aJMS6CkbibINIU+rpic9OmPphR7p1wF38/Gizc2a5G0+JHm7+chAsrWbPvSBkacf9WgtW01vHlg2pJmo7D/90z+l3e9E1HADc7gXQk3Eg1jIlROipSZ4kceNTYbaYiVKXh+RR2xVbmGBxaf5gzlh5UH//eynP+ku/dIXu/e/7+zumAWS/LKX7NVtv+3Tusc9apvuoVts3G36kPt3Gz/ofonsbrnpQ7qtN9+o22bLTa4nD9tq0ybJr5E24rzFJg/qNlmVxxabPLh7xEM3757yhMd0z9tlh+6gA1/ZnfTWt3Tnf+RD3ZVXXtH94fe/X1XyCcsdfcI0BPffPPRYTG3yFRbKIBPIhf9ZoW32YWYMpBE+zLV3GL2WsjnfQpha6hp5jqUXedb0+nnW6graRIi+K664Mm0EZqE3Kz1fYqQMlyi5CRCEz8YZ9o+QV7+u/g7SrK+in4h+IvZKEE4tj68N0SY1SD/0SnWNNol2q+lJq1+HPiLPFr3IdyhPEUeE39O2/Xu4L47T04b6hL+zQBB896Wfw//RJiVEm4zVYV5Y56Q5oOJReb4xvjb4OCM4TPbiDwurJrJGkOe1QfAijxubDLXFSpWojw107DpkcQJf1rjvJqws/HqBPHz+c5/tTjv15O7VB76i22Wn7bsnPvaRiRSzIm+5QF4RWsR2FlK8piIvpHyrzR6SCPTmGz8wleHpT35ct9cez+/ecORruw+8/5zkztGyEGjCukEQidpADS0DdT6gl9JjpTvnnHMSuRsidI4hFsJ1ySvKV3t30ZFfax1qenkdWupKanpR/rE6ODdWNpDeUH6IKx4h8oYdcn14WDMV0RvyNiZIs7jJ4jjLu182eSDN/HRz0hx95PeUU05ZpX0d8jrU6irtaLuSnuPOt/bDmF5LnkBPWqSk52NFCL1wjcnbNRfnw3/fjMCRRx6ZduSNBfmBvA618s1S13lh2ZFmUEGDCmIjmLUvRjvd+UoUy5nVuU+Mlkr6ZPLGIkNtsVJFfcSu9uFl0Y2pPAHWofQwTlhe+Lf/8W8L/XZ5d/Z73t0dfuhB3Y7bLwxcD91iNTlFkhNBXkOSvM2Wf5Kh87NIWKSDzG+9+YbdEx/3yG7vPV/QHX/sG7sLPvqR7sc/umZVDSesa+QDcMtAXdOBPL2xQfvrX/968ssNMpYTjbDcIRi5v20JQXLkXYLr6Y3VI+pQ04HQk2+LHim1CZ2WssFYWgFpCC+KoFmgNvRxwj0jSPMQ5FEizUEUuSjEB3FrHei19FdLXUNv7J6jF3m2lq2mp834IpdIs/ZGlrUd11txsrmvxOxJjtY6OEeP1PRCZ15YNqQZNFaIRvCl6AuGn7NQM4Kc21rTFPsd7nCH5O+MQPNVnQfRs1OcXfTynfQcDyJ5Y5J+26xkUZ9b3vKWKTbnu9/97hTCJvzMJixv/OqXv+gu/eIXulNOPqHb/fm7dI9+2FbJp3iLBRLaaklGgB/KCsylYnMkdqNu80027Dbb+CHdphs9uNtkwwVZ+N1s4wUCvskCwV04d/3zD0rn/e3YFptu2G252UYLJHjjhTK0u3jQQ+433fD+C+V/cPfUJz62e9X++3UfOPec7pvfuDIthp6wbpAP1GMDbAzCtYF6loGfrnHu1FNPXe3XnBMO/yMdNnmwUL727pJelE+6Q+iXrabXQphCb6yuke9YeqEzpievljzzOnIB4Ds7RJq32mqr1e4ZQ5BOnzTHtX3SnNe1hCjbWBtHWvRKOhBpzdIPY3qRXq1sIBLV/vvvnwyb0Sa5aLMDDzwwRYKxC/QQWYYomzz9ltDSbpDrzQvLijSDBohGUGEvCKZ7N/Lll1+egoKL3ffCF74w+XqJsiHurt3wYie82MiiVVzz3//7f1+9TfU97nGPboMNNkg+sIh0n1DeGGSIfK5U4dJjB0D+ZrbNRk7cW/m9NmE54f9011778+7CT1zQHXXEYd2zn/GU7qGbb5QstojyECHNZZsFuc7Cixw/JP0itw/ferPusY/Yqnva4x/ePefpj+123e6J3e47PaXbe9endy/d/Vndfi98drf/3tt3B7zoOd3+C/KKF27XvXyPZ3cvecEzuxfu8rTuBTs8udvpWY/vnvWUR3VPesw23aO22SLlhzxvsYpob7VAptuIPFeOhWsWyPMjF9LZc7ddu9Pefkr39a99deF990+r2mHC2kIM1GMkwnm6Y3p0Qkqglw/odoczZY2Q5YQDOUPKEGpWUlbpofdWS9mAzhiRiDrQG8orkNe1lq9z0hpLL/TG6tCil5ct8rSWhaUzJ81+CdJsHdUvf/nLpDsEpC9Ic95HOWmO8WWsDtG+fkuIOkRdS23neKRVy9e50CulBbleKb0oG3Adwsn6pFm7WBzpY4SvtzRLiDqQljq06o3VdVYsO9I8hGhMiwS5bHhp2Pf95JNPTkRo1113TV/hplc23HDD7v73v39373vfu7v73e/e/f3f/31317veNbl1hDiGHIvX+5CHPKTbYost0vWiKgjEbY9zvq+Cnd/pTncquoMMkc2VKkP1I875sBg6txLELISFpHZ9EmbO/RMPUciE5QML+z7+sfO7Qw9+Vfe0Jy8MZJshoqtcLwbIZwhSzPp7nZX4IYkgP/XxD+ue+6wndC9+/jO7g162U/fG1+zRve0NL+vOfuuB3cfPPLz7wgeP7r56wXHdVRef2P3g82/rrvniqd2Pv/j27sdfenv3I7Lw/zVfeFv3vc+e3H3zk2/pvnz+sd0l7zuqO+8dB3dnHP+K7i2v3bt73f7P6165QLR33+mp3XZPe3T3+EdtvVDejVdbpFm2x8vOD3rD7hEL5HmXnZ7TnXLSCd1XLr8sve8mLC08/y2Dq+POx0Bd06MTeiVEniTSQraQMsYgZCPIXEgcM+PaJ3aRXq1sEHqz1LWEvK4tebbqjZUt9PzW9Ibq0CfNufBp5iIj1rBZbr7mIazH3DvMBoTveZ8c+n3LW96Snlv5l8oGrXXN61DTo0NqebbqRdnG9KJsYKOw5z73uTf4mPChh1sdffTR14u5PIRZ65r3ax8t7btYrBjSrBE0gJuZP6opdm4b9ornpyRM3bve9a7uzW9+c1o8KLi2aRgPARLsKyiEf7Qvn0MPPTT51rjuwx/+cFowID7gZz/72fQ/x3Y3wn3uc58U35dFOidkfeK5kkV9WNVZ120so74IpzrnriorSZD9W93qVmkQcl94GVrlGw9lyIR1j9//7ncLz92nU4i4Jz/+0YlERqSLIaJ5nTV5gShvulEipw/fetPuCY9+aPecpz8mWY6P2P/53bvf8sruM+ce1X3zUycsEOHTut9/86zuX79zTvcv3zm7++erF+Sq93b/RL793u6P335PRVbpLcg/X3V29y8L1/7rd89ZSOO93a++9q4FUn1Kd/lHj+0+9q5Du5OOekl34It36Hbb8cndtk9+VPfYR2yZ3EKuI9B1K7RzEeFjl+du1532tlPSpiv9lfgT5gPPfgzAtcHV8RiE490xhNb0Yiyj19cxo2psQjaGiB1ytsMOO6ToUnFfRHpjZaMT5arpRR2kV0Kk16oX+Q4hT6umB/Jq0Sull5Pm/oeJNmcsQ/CM/ziFdiZmuPEE1yKB9HNyGH2FNPcXteWYpa6hN9a+dEgtrdAby7M1vSgbHd4A3Iae/exnpzbM2wWJFrdZdIxYR9SHNPK6lvLN9Wpli3tkTG+xWBGkOYdG0Cg6ytefjvAFw4L4/e9/PxGjSy+9NO2+ww+aRZp89KMfTUHGhaK54IIL0peRRYZXXHFFCnHneun8/ve/T7v2iK9oa+8zzzwzkW4xo222kltd+8RzJQsXhjvf+c7ppnfzI5rcVBDo/sfC2pKhctYkXG3iWv1lW3YB5sVCtQ1r/mDWHtAJawf/tvAR880rr+jefPwx3dOe/LhEGKtkeeE46y0Ciig/cYEoc5k48CU7dKe84aXdRWcfkazDv//GWd0fv0VWEd+F3z9cT87q/rBAohHpWSRdl+RPaV2PYC+c+82VZ3bfvvjEZJF+08F7di963jMWCPQju0c/fItE9LlwINJD9SPqqA0ettVm3Qt3f173oQ++v7t24f3kfp0wP8TgWnsPOG6gJrX2D72W9GJAH0rPuGbc2n777dO7OIhdkBB/O8ZNQ+xmeUqzVjbIy1bCrHUd03Mu9ErtAc6PtRvkeZb0+mXr6/G9RXzztg2J9rX2hQuG0HJ+yTOe8YxE/oyL0Rd5nyDN3BCEXYuFgEOIuvptrUMJodfar2N6zo3pDaXFsi5qiG2ycwu8dkGaRT8744wzksW+D+lJZ551oEO3prcmWJGkmeTIG97Xty+9P/zhD2k6pS8IsV/ndTbLoxdVNHKIYwg5a7avTnvSc+VAItcnP2cEE2Hmw23aiU+W+p522mlp0eV973vf5C++Llw0hspbEuUL0sxCrswWjFoNbSbCB5GXWd7P/u7fSxPWDrT7z3760+69Z52Zdt8T37hGli3kQ5aRzsc8fMtu+6c/pnvli7bv3nncft2l570xuVL85sp3/4nEZqR2MeR4VgkinZP033/zPd0vv/qu7upLTuo+8e7Du2MO2bPba9end0974iMS4Vcf5HkoUod24JdNnvS4R3YHv3r/7nOf/UzVijVhNsR7oIaWgdq9PE89YxSLJYKWk5A+GeFKaKZ17B0mr1nKVksv9MiYnrTG8o2ySa+GWetQ0rOzojEhSHO/baN9neuL46SvG/2BWNvURP5DiDqQUtvldai1seOtbRJ51vTystX0htrXor6jjjpqdRvl7cLH2Qcgg+VQumP9BXmb1PSco1Nrt3lgxZHmGuJG0mhIb98vyf+OE40bf9MnrpVGiHMszyzYsUsh4hwkcoi8rSRBTJFMhNlX4oknnphWtpoitCiFD/A+++zTbbrppilSSf6x0Ce4SyF5WVtFGblkmBngomOWwayBvo+HqS8T1i58vHzxC59LkSMe/+iHrSaHQ4Q5Rb1Alhd++QvvttOTuzcftld3yTlHJt/j339zFVFeRVb9PURq17asJtGrCfRZ3W+uODMR6A+9/aDuNfs8t3v20x7dPfphCx8LC3VXxxp59rvdtk/rTj3lrat2zCoPHhPmA++LpRjQa3pg3LGwaq+99lrtRtAnao7ZsMPmHVdffXXxPdZaBzrzrCu9sbpGWn5r72FpjOUJLXr8xsVr1o59V4JcgvTlUtMRTo31n3vnEKJstbq2tm+uN9Zu9Frbd0yvVLbvfOc7yajofszbxD3q/uUmyy0mR16HWr65Xq1NWuswD6xYS3Nf8nMaMEQjhvg/vyaOR2PH+YD/vcBYd1icfUVa3SzeL5/fIdK2UiRIKRcGCyj5b4tfrK7agxX+Rz/6UfpCtKLYoshb3OIWySrdJ7dLJf0y14Q+CzPC7OFVZm44CLMPprgv8v6dsPbBKvGu00/rnv3Mp3TbbPEnQlgkiwt/P/6RW3d7PPcp3enH7ttddfFbu99e+e5EQhMhXUZEuSQINOIcvtO/+8ZZyRf6Cx86ujvywBckq/kjt9l8ob7qLITd9duCxIfFwxf+3ucle6ePDu+mCUuDGDtq74sYQ2JAL+lGWjHGlOCctMAMKEMN14Cc3OWkxHHWaGt4EOccedn8lhB6pFbXKFtrHaJNhiCfPL2xfMfyzOtKbyy92LYc0dWOORHut/HQ+b6OfvCLjA9F3sjLVkJrHZyjM5aec9Iba7s8vVq71erA5dVCe9b2vF3CZYV7ZO7P3K9rCfSibC11kGatDvPCiiXNGipuiGioOJfrxPlZpJ+WNHS6kClve9vb0otMnOhwWRgicctdlPu//tf/2j3oQQ9K8RVZNrisRJu6CVkEWZ0/+clPJouGKCOI89paGNgvc0n0AzKPMNuW8/DDD+8+/elPJz91dYh7IH4nrH1o929ceUX32kNf0z3hsQ9PC/2EkeuTwxRTORFHluWtuj13eVp3zkkHdlcvkOV//PoZiXhawBfW25UmiUCrw9Vnp79/etk7usvOe1P35tfunaJvBHkufUhoN3/vuP223XvOfFf329/+ZlULT5gH3KetAzq9eF+WEO9SerV3T64XMMtp8dlTn/rU1cQsF+QNMbEwDXFm2Am01GGWsrWkJw06Nb28fVvybckzT6+EKJu0GFG0K3eKnOj1yXAc60ucC0sq8r3bbrulAAL9+kQdSKmueR3ol/Scy/VKiLq26tX6IS/bkI70BVPQjuGeEeKeNYNtEWBejtY6tOg511KHWhqzYkVbmjVE/N1Hrtc/XzqeI9chOoYvtDi//Hf46nBZCMvrEJlbDtInogTJZCkXFYR/l4edH120p1/iRvSCQT7t3mNVsReNcH1D0UTWtqif9r/JTW6SfK997R5//PGrF/1xycjvkZAJaxfuoQsuOL/bc7ddUii4rTYfDiEX1mXEcffnPrV7zwn7p3BwFtZFpAtEc4iMrkRB/FO9Fkj0tZefnkLgvengPbpnPumRqT24pJSszsjzEx/7iO6I1x7aXfXtb61q6QlrinkO6PRiQK9BGuEm2AfLpShPLHYIWhCSnMQ57lf4VW518pVmax1q78Sow5ievKKuLXq1skFr+85Sh7xsZlTtNBzEGeEbkpwEkv55xFCELW6AxpscUbZam8xaB1Jrk1n7obVspTwZ1bhmCNeXt5P7EUcyJgvCEBhLD/K6rmkdwHkyL6xXPs3zhE7IBXSQUHcf//jH0yIM8aAjukSfrC4X6RPNIMziWL/gBS9IdQn3hRz+d1P69UJnaefv/I53vCNd98AHPrC79a1v3f3FX/xF8iMOq/vaEPWSp3rYkMaCP6EERTrhO8ViHg9mv14T1i5+//vfdaef9rbuWU9/ciJ6YSkdIoIsrM9+yqO7E494UXflJ97c/fqKM1J4N8RyfSLLfUnkeaGe//Tt93Q/+/Lp3ec+8IbugBfv0D32kVuu9ufut5cPDOHp/P2SvffsvvD5z65q8QmLgfdEDOi1ATbXqw38zsVgXXsHxcBPSnoiPCEmyEgQ5L4gfs7tu+++ycBRWzAadSC1OrTqRR1qdXU81ythFj3n6S22DhaHW7djpnXHHXdMUTNy4jckiLL2tmh+9913TwY0s7TG0EC/Dv4fQl4HvyW01tU5erU8obVseXol4AOsyUMWexZ468BwJsjzLSHP098ltNQBWvKcFRNpLkBHDImvSb6+/JuRRxuoII45oVtOkpNNwiUDYRZGT1i+2naWIfG/RRTqLp71G97whhSaTlr8omM3xn5+8xZ1Yl2Wp4+W5zznOSkGs7qEO0aU2wNDog4T1i5++Ytru2PedFT3+Mc8vNtik+u2vb4h+ds0bUrCunzQS3dKhJHVNcjyEMlcXwV5Fkcagf7Op0/qzj3lVd2O2z5uVdSQ4RB1iLMQdrvsuF33kfM+tKrlJ8wC7weD6hgpyfVqg3Dokdq7JwZ0UtNjtPB+s54m3DRywhwkBXFx3oK0973vfWn2sI/F1LVWtha9XKfWJrne2uoH44WIGiIsvfOd70wbpnEn8NsXx4WUE17tnHPOSZFL+uNnv2ylfPOytdZ1TG8sT2jRa83TeiF7XlgT1b8nfcD5CNFmkOdbQuiQUtlAmVrqkOvV6jErJtJcgEYvia94VlfTO744xTf+8z//82Rt7ZPWdSk52bRIjhuD7aS9VAVs5zNXuomH6k3chF7GFg3yC2PZ4FPH8ny7290u5YGYI7a5BT4vyyziWlZlpNxW53/3d3+XdnKUp00A3v3udydfc64zyjdU9glrH9+5+uru8ENe0z3qYVsuEOYHD7pjsKIihHbts8Pedy45KW08gjAPkcobiyTy/N1zut99493d5xc+Il77yud1T3jUVmkjlyF3DaH6tLHtxs95z7vTIrIJbfB+MKCODaz0YkBv0aulF3lGerV3FD3n9al1Goizae/copcLskIYE17/+tencSqHcrXUtUUv6kCvVIe8rvRKyPXGyjaL3lgdAj5MLH43JvYlwtca9373u9+l/4eeMXnKr6VNQm+sDnRa9OaVXp5WrQ5gwxexrFmUc8JMLMa3U/Pll1++Os1ani1lA+da6hB6Y3VYDCbSXEB05JDoDA/P1772tbSlqekJhPEv//IvF+2q0SeK+f+59K9rEYT5b//2b1MYNm4lokpce+216YYaQtTTjUfyuvs/XjD8mTwUrO4HHXRQWiApD9uUI7eswbYgDyu0j4pWQbpZ8Lm/3PKWt+zueMc7JmKurU2nIcs2n1EGHzHKlJczlwlrF1deeUW3374vSdExwoWgL6zLj9pm8+5VL9mh+9z7j07h2FhZl3skjLUpfLj/baFNfvj5t3VnnfDK9HFhi24fG/32ZInecoE4P+nxj+pOeutbuj8uDOwT6vBu8A5sGVjpjA3okd6YnnMtA3rohY7/rT/ZY489BhdekSDSMV1uR1zkpjSj2EdrmzinbPOuay0taGnfvA6tZZsHIj1SqmuULfJt0SvpQF6HMb2W9EKHfk1P2EshXcO3OyfM4ev92te+No3NkfcQ5JGXzd8lhI7febTJYjGR5gI09pDokOgUxNmuglwVWD7vcpe7JGso0jcrye0T4/z/XPrX9SXXRVRZwPn9uokPOeSQtNtUjTBD1JFO3Hi55DC99dOf/jTtwmhKUNgdfky+QC0OYBWWPws0H2QfFoi0X6Q4F8fo0EW6LTgU6s7qcT7LQtcg6GJhmhriLhJlijLn/8ffE9YeLrv0S91LXrTnKv/lGxJmltKNH/Kg7qmPe1j3tte/tLv6krcmsowgDhHHJZEFYo6c/+FbfKV78u1Mhs4nWSD2a4nc8+XWPsLsffb9b+hesdf2qQ232HQo8sgm3eYLxPnRD9+6O+HNx6Rnc0IZ3hFjA7X3h3fgmJ5z8b4c02sd+Etp2c3WbCGLcrhr5KQ5xHlWQFtDe3eyVFsgXUJe11rZWtqETtRhTeoaaMkTWvVayxbpkRqkN9av/bK16pUQdaBXSguibDW91jyBgerDH/5Qms3wcZbfc8RMiHOxAHBedaVDt6WuY3prgok0F6DBh0SnhLh5fMHbzlTUBjvfCOEm9BkCGC4KSHSQ2vg7J8A50V2sRNryY1lGPhFPfr8ILDIr8odppgjDVkLUz40XN19Joh1MV0n7u9/9blqIctZZZ6U8ReewyMLqby9w21ojwjZMsYCPsE4T5+j4AHGNoOgWWnAD4UctFqnFG/KSp7LJPy/L0N8T1g4u//Kl3V57vCBZl6/bBvr6pC7tgLcgOz/r8SmM3K+/dkb3b9973yBZXHPpE2Mh3s5OMZJ/e8W7ut98/fTu1199e/ePX3nbgpzS/eryk7tfffmkVfLWVeLvk7t/XDhH5x+/emr3m6+dlq797ZVnLBDnBVL77YV0yRKTaR8V/3Ohrb7xybd0r3/V7t2THrPNAkEWheT6bUy4anCLOeWkE7vf/u63q3pnQh/eEaQE7w7vmJYBPd6VY3qzDPyltCw6M+bEzna5u0ZfHHceubEGRzx+M43WpuSIurbUIfRKdYi04h09VtexPCO9sX6YpQ7SIq1lK+nlZfM7pjdWtjy9Mb3Is6bn3Fhd8zz91kD3mmuu6Q466NVpTO9bmd1v7skDDzyw++EPf7DqqmEoW0tdow50W+tQ0psHJtJcgEYfEh0YAjoJkeNXK3oDosfCyuosJB0LKhKLzJLYVS+I7jxJM5KOrIulzErrBjaF8t73vrf7+te/nvyzoh41RD3dfDXpp+VvhBx55jYhbigXFotYBOrnUnHqqaemLWLFduTaQrzIjzvuuLTAQhvaxptVxLVIOEu2NC3CbCl76OR/T1hafO2rX+le9MIXJLI8tGiNO4bfl+2+bXfJ+47s/vjts+a/0C8jyfyBf3slcnxaIsa/uuyk7hdfekv38y8c2/3sc0d3P/3MUd2PL3ld9+OLD+9+dNFh3TWfOnRBDumu+SQ5+Drx/4L8aOEcHbo/+fQRC9e+YSGNN3XXfum47heXvSWRawT8t1ec3v0OmV4oS5RjniQ6rM52QnzHG/fpnvWUR6V2HfIXZ+l/5DZbdie+5fjuN79um5qf8Cd4b3jHzWNAh1a9yNNvDc4bc/gtW3AlPn2fOPs/BLkJqyCDhFnH008/PRlSWn3gZ6krnZpetC+ptW/ojfVDa3p5Hcb0Ir0anB9rk1nL1lrXFr2x9PK0xuoQOO2007qnPOUpiRzn9xtxjzHSmRGu3VetdQ29WtmgpQ7zwkSaC9DwQ6ITQwL+doPYTtIOeqbCxG5Enu9xj3skf2JbbyPQ3CWQ5yHiW5MSuWZdRsq5hdgOW+xllgXTd6zfyCcCq3zK34KoZ7++ubg5h4738/A/ywjCLuaor1TtJDSclz4RW9T//KS4jlho0Y95OWF5Qm9f8fWvdfu8ZK9E1IYIs+gOj3zY5t2rX7ZT95WPHZespmITDxHD2eRPJNnfCCvy+qvL3tpd+8Xjup8ukOOffOaIRHh/eOFruh984lXdDz5+4IIckH6/n8l1x4cl1/v+J+L4q9Lf319I84cLBPtHF7+u++lnX9/9/PPHJHLOQv2br72j+/0Cef/DQtl+P0cCbaGkHQXff+qru52f/fhui00W2r1HnBFpHzCPecTW3clvfUv3h4Xnb0IbvLO83+IdV4Jz+UDdf/cFcr0a+ukNwXF6US7uFiI7iGSExASRyQkzCVLjbzrIDaJtnGKsED3CokEzp8qwJqiVP0BHPlGPIUiDHhnTk1akV8rbuWjfGhajV8oz6hBlKyFPq6bX2iYt6bWWDegShqyddtopcYy4p/J7y0yx8IjG+BKibLO0ibxLaNWbFybSXEDcJH3RQcTfAZ2F5FkcJyahl895552X3BNMiXlJcdtgfRbbmM9uWKAJCzGJv1mjSVinc72wVotQgSjni+TctHvvvXciy3bxY6Xld22arHZzDoF+PFBEGiFxLNqiL/02k47rtBFLNF9kJN5viLZzDMGOtCcsf3xv4R57xb4vTf7LJQvzYx6+ZXfEAc/vvnXRiSk6xpot9vuT2wVCyrrLkvzLS09YIKxvWiCvhy8Q5IMSQb4eIUZ2keYlkevy+D4y7u8LX50s1T/59FHdtV84Plm5kfnfXfmuVeVf5coxWL82+aerroswcsGZh3fP2/5Jqe3Fuc7b/jrivGH3xMc9sjvzjHcuPF//sqrXJpQQ76uxd5BzoeeaEujRoduiV8uzVDazcKIhWeRtoTRCw585CDMZIjhhfUZ0bMfN0GLMEk6N37SF1gwaxpEf/OAHaR2JsJ6MH8TfZgHDEGI2k9sIQ4gyDkEd8rqW2qRU1z5a9SJPUsoT6Emv1l+OR3r0SpilDnSMkWNlG8sTWuraL1tNL8Q9IGJV3Dv9+8l9J5oYK3MetzqHdKJstTbJ61orW17XEkJvXphIcwEaekwC/ta50YFWjLLuiuPILUEc4Ve+8pXpq97LiT+vHeyQ6Nvf/vZpoRwrMQL8N3/zNynqBOHeQbhbsFYj3HTvdKc7dfe61726jTZaICQLN6/pNhElTjzxxLQPvK9BLzU3bpQzL+8Y6KoHEhvhdlggWDX8+t9mJwiwB129XeM3/g7xv7aJ9snP5RI6Q3oTlieuXbjHj3rdYYmwDbsIbNw97pFbda9/1W7ddz990qroGMMkcFSQTJKI8rsSCf3FpW9J1l3uE8hrIq2JIA8R27UtqyzTyrNA4n98yWu7axdIfbJAf/0d3e++EW4cyPPiCDRr/R+//Z7uknOO7PZ87lNTH/T7wf9mAJ765Md1H/nwB7v/MS0OrML7x7sv3kFDyN9ptfcTPWm16OXvvSE4HmUbSs+7WBhQBpMddthhtTV5iDAHyQkxhhBEOyyI1ucg0UKKcvF7zWte0x1++OHdkUcemVxCrDUxo+qYc8YfMXt32WWX9P83vvGNVSW7PpQ9yl9rk6jrWJtE29XSmmc/QJStlp7jdMbqEGULvRJyvbE6jOk5HnWolc3xOG/sF3PZR5n7pH8vuX/MXBx88MGJ+wxBWpFvKU+IOtTaFyKtsfTokXlhIs0F6ISa1BA6CCXSye3A1s52HxIc3baoXjBItDBtfNK85AQJt0hus802S4Jc+7VATtxDN6dIElamiiYhzBv/YFErRJSwuCNcG+KG60tevhz+d/MhylwpuEmwMLAe8HuzuM8Unl952aWKzzI91mzXqW9+o0c+cXP79UCE+D8kbv5cL66fsPzwm9/8ujvh+GO6R26zxQ0szNssyFabb5QI8zGH7Nl977Mnd/989WKtq9dZlvkoI5u/vOzE5JPM5YJF9zoL8nIhyjVZKOPHuXK8pvvRJUck9xEWcn7XUc8b1n1ckGa/n3nfUYk4J5/yQeK8Ubfjdtt2n7zwE+kZm3B9xHuK1N45uZ53VAn5+62WHj39Ee+7IUSeoVeD9TUW+jHS8DtlRTa2GDtyktOX/jkkyHWzSvhNG+MYbnK01KHfvmNtEnolOBd6pbSAXow9NTgfeqV8+/01VofWNqE3Vocxvda0nIsyGduFLcQ73BdD94v7bOedd04hEYfQmq886dCt6UVas+jNCxNpLkBH1KQVOstNx0Jr5yERIFgE+BqzQp9xxhnJp8xCOF/vhx12WHrhEIs1/L7uda/rjj766O6EE05IizfOPffc5H5h+uyqq65K02YCr8snbo6hMpP8XMA1XCRMt5laQ4yVzaI903XKwNrgRexXuSzgsyCAHn3TeK5ngUba42VB4sbNj/m7L/RC/B+6E5YXzGC8+4x3dk949MPT9H9O0IgoGY95+BbdG169W/edT5+cfJhnJsyrLLCiVPAN5if8kwWyudo3eYXLD7lwXHRo99PPH50WEorI8ftvnLkoy3Mizt84q7vo7CO6523/xG7rLYYtzqJq7LXn89OizQl/QryP4h1VQryjWvTokBpa8oSWPNWBXrwvjQne39wDGVoQmyC2QXxy8tMX5+iFhH4u+flcRx4MQRZ7x66EytVah3npOUeHRLsMIfT8tujl7dxHXrZWvVod6EVaNb0o21h6rXnGefrCye62226r+zi/RwjLs0gaFvrT76O1rq11CD1pltoXWvVmxUSaC9DIQ7JY6EAiDZ0YRJp1mEXXdJaNQlh1WXJD/G9vey4XsViO3zRyWvKBystbkoBpPemxHHPt4OIhXIydp8JSwfr9kIc8JPll+2X9ZlHgv+SlzOJtMcrHPvaxZJlGnpFw9cwlz7dfHhJtlLcVmbB8oF8u+tSF3Q7PfsbgxiVCyj1qmy26w1+xS9oKWoSM2VwyriOMv1sgkL/+2tu7a79wXPejiw9bIJqsysMEdGXLgckHm//zLy97a/e7K96VCPCsxPmfFogz8vzZ97++22nbx6d+eOgW1+8bMwIs0YcdclD305/+ZFWP3rjh/eLdNO8BndTeXaEn7xpyvVJ6eR1yOMaoYudaUZ2e8YxnJLIT5DknQLkEGQpp0enrSf9pT3taMgiZjVTGWnvkdai1b+gReqU08/RqOrP2w1h6eR1a9UrI9UppQV62WnrSIi15+pUew5x9F0qEOT6YuGWYee5DOlG+Wr6hE3mXMKue35reYjCR5go0dl8Wg6HrHNPxiC/LHRLNF9qCuCFBQhFcVtyxmyHKWpK4Vr5IuEUf3DwsIvTF+IAHPCD5WvOrttgwNiUhNiYhdurja20RIiKNYHu4kG5WcOkGsR+6wfPyhChXSH58wvLBt7/1jRQpA2HuWzMtRHvE1pt2r9z7Od23PnVCsjCH+0C7cMM4rfvFl47vkeWV4IKxGPmTewnXjZ98+sgF8nxS8tsebp+y/PNVZ6dNUM477TUpHB3i3I/jjDQ/9pEP60479ZT0vrkxw7vFu2nsfeocPb81OD+vgb9fthJCr5aWscUMotj5Zgm5BbIEIz3IbX/RYC45Ee4Tpr70daTNN/od73hHMhCV0K/rWJuQWptE+5JSWuBc9EMN0os88/SMn/x3jc+Q65WQ5zmmRyfapATnWuraklbkCcZtG7fxadeXiPFQ/zOeMbAJK9tP2//zrEOkR8b0Is+a3mIxkeb1HG6aXOLG44fMui0u8j777JMeAIsTbYiCKIvWMRZD2nlbZIsGgmQj2xYKWGHrBc06bnquZBGHfvlymbC88Nvf/qY79o1v6B6+9WY38GMOl4C9d316d9lH3pTcDP44Y1i531xxelrc9+OLX5fcF/5EKvtEc32VIM8Hdz/97Bu6X11+yuoFg63Csi8c3RnH79c99XHbJFeZvJ/Ilptu2D37GU/pLvjY+Tfq5ywfXEvQPnRaB+oWPTpjedIZKxtEemP9SAe5M6vovcy1jpHDboEWpyNFyHMuYV3MJSyLIXE8J8xBrJyXjnB4XEWMOX1EXVvbZKyu0liKfvCbw3X8d82ynn322Qtt+8d03DWlfB2X1li/Rr4t5Yv0anmW6pCDXuRlvLYGy/2hL/Vj3q8h+ta9MxSTWVotdQ09ZSvVAXK9GqKu9GvprQkm0ryew42TixvKYkFh8bw4fSUiu6zKOVEeI8y5iBUtHJ4weki3BYx77LFH8r+Wj/zkO3QT98uXy4TlAy+j9551Zvfkxz960C1DaLlnPvlR3cXnHJnI2yyEmSvGr75ycvfjzxy5QBivCxe3fKJgrAtR9+t8nn/+xWOui/c80G5DwhXmn68+u/vpZad1xx2yZ/eYh291A+Kc/Js3fnDa7vyb37hyVQ/f+DD2njHwuu9nGdBb9PzWkA/8NUT5alCeobSQHFGQhIrjviFShqgbSDS3CmQoJ0gkJ8ukf36IWNFDrvhVW5fTj6zQUteowyz9UEOu15IeyWG2F2G2GJ+l1ews90QL6EuIOpDWOrSWraTneGv7Ok8QZlZjPszRfyXCrN4CG4TfeqClbBBlW2w/9BF6fpcSE2lez5E/EIDA8pEWBs/LUeg6rhZiP+dEGGmuEec4H4I4E5ZnYfPud7/7pSDowtTwc2blGLqZla8kE5YPbJH9gl2e22220QNv4JaBMD/tCY/o3nfygd1vrjhzpo1LEEIbglxz0cHXEcYbNVnORTtc5+/8o4tf2/3y0hNX7TY47u7Cys9V43ufObnb/0XP6R6x9Wbd1v2Zgc2v20nwjW9Y+Mj5/Q0tgDd2xADcOqDTq4EenaF3YCB0SgM/oougWDNioR8RCqxv5Qsod5Stlq93s7U1XDhYGEVjsjBd6DiLv81Ect3bfffd0xoWhhbif8QR4Ua2EamcWJEgW8glFz4h66yfQc5grGzqEG0y1g/0SIue35Z+7etpb5Zl9ed+ol5CrT3taU9PY6r1SX24vqUfomwtdWhJz/moQw1RPrMQ6rbrrrumupUIs+NmlPWlON05omxj+eZ1aK1rSc/xXG+pMZHm9RxuqHgo+EVzyfBwWxTCH5krBrIb5DcnxH2inEtfP0izv1mdEXHuHmJIszhbxOjlHOUhefmGZMLywK9//Y/dka89pNtmi+vIVk6+hJZ79MO26F7/6t26X37lnddFyhggctcXUTHO7H755ZOSDy9XjNUbgwwSyLr8kFxYk1dfT64Zk0+ukqFzq6Sf5nC+q2RVGYfKPiqrYj3b3vvnn3tj9+uvnjbQnjcUvuT/vPDx8uXzj0mh6IY2P9l84wd22z7tid35H/nwqp6eAPMc0CH0/Jbgejp9PeQSEfvwhz+cDBCstWIji2jk1/+Oi2JEL7/W32NlG4K1M1wpkHMbWoiMZM8Bi9L5ucYCdeI4EmzBH2syEhnkKghXSJAtfrKf+MQn0pqXGpRb+UlL282rH6QT6eXQDqJGcTdRz/hIULdY+Che9UUXXbT6WulFvrWytdahRc/xUh2GQMcH0zHHHLN6Z8kgzNGXIXH8Va96VWqPHHnZam0c7TFWh1n06NT05omJNK+HcOPkAqwRFucJCxOEmVXYDoNBgHPpk+Qx6V+PQFtAeM973jNZJ+wyxZphEPAg9Ms3YfniA+e+r3vakx+fpvRz0iUeMCK2z+7P6q666MRVsZiHSdxq+dYCYb7i9O7nXzy2u+ZTh6wih8Nk+U/E8zpiupq0BqldJT8inzpo1W/2/4L8eOF/Okjr9y44sLv6o/t33/7I/t23zntld+WH9uu+/sHry1ffv1/3lXNfnuRrH7j+uSsW9L/xoVd031q4XjrfueCA7nsI7UKZUr4L8uMs3+vKsqpcq2R1+VfV5Qaku9cGIYgzvR9fckQKUfe7b565KizfQBuvEi4yrM5mAJ7xpEd2W27Kupz13wKRtvHJvi990QLhKm97e2NCDNTxjhpCvLfGBnSIAd1vLT06eZ70EVQbidjpz4I6ltonPvGJaVocceFCYUGf487TEyJUOFOL1MYQdajVNZCTklwCXD24eShbEGdl7AuiiXiZhRSS7vvf//6qFK4PaUebaIshRBla+2FMz/FcL+CYjxIRSJB+9VOHIJJ53fwvXjEfbjMBgVrZog61ukKUraYnrbF2y0FH1KsXvehF6T5CmPM6RR2J+jmvHcweRxvJs7UOUbbWfiAterU8Q29emEjzeoi4SfzG36ZehJTba6+9EpG1DfcQ2Q3pk+IW6V/vlyVbqDrWBb5SLBhe6MoUZZywfPG9BTL1kr33GIyWsfkmD+me8/THdp86+4juXxYI83ikjPd0v/7qqWkXv2vSVteI4KuuI76rCOdPLz6o+9nFr0nyk4Vj13wSaTyw++7HDuiuOv+AVWT3Fd3l73t595kzXtJ97G17de87/gXdu96wa3fKa3fq3vya53RH779d99p9tu0OetHTu1fs9uRun+c/sXvZ857YvXTXJ3Yv3uUJ3Yt2fkK3986P7/Z67uO6F+50fdlzx8d1e+zw2CR79s6RvZ77+IXrH7+QzuO7l+z6hO6lC+lKf98XPKk7YI+ndIe89OndEftt2x3zqu27Ew/esXv7ETt3Z73ped2HTtyju/C0F3WfP+tlC2T85d03F+qBvF/90QXivUDmtQOi/ZOLFup/yar6L/ydSPgqkv3DVR8XP1r42LA5io1R0nbig219nSDOv/jKO7s3HbxHmhGwS2Peh0jzox6+VXfySSes6vEbJ+I9GQO1v0sIvdrAD6FXS8v1QSQCiCQCygUAURH20059yBrS4liQzyAyztHzv+l1pI2VeKh8juX5tpRvKJ0+bKwi32233TaVIydfOQFzTlkRbJZZ0Zv6iwTHyqY80b6kVj7n6LT2V8A4ZU0Ov93ttttudftHPfr1I/pE3XzMCMNmzOMSOQRlIcrVWrZaXSMtOrU+BUY0xFfdbFoS905el7yeUe/99tsv7TMRZfCbl62Wb+jV6pqn19omY+k5T+aFiTSvZ3CTxI1H/C20lGk0U3oW6fE5LlmYQ/qEuEWG0uGqYZGhl75wdNw0TMu5iaN8E5Yn9M9JJ765e8wjtrrB4j9+zI9dOP7WI1/c/ebKMwcX/l0XQeM6/9p/Xvj93ddO6a793JGJDCLEP73oNckSe/UCGb7snH26T53+4u6DJ+zRnXn0rt1bD92xO3aBeB69/7O71738md0hL3l696q9nta9Yvcndy9bIKl7LxDf3Z7z2G7nbR/VbffUh3fPeMJDuyc9ZqvucY/YsnvUNpsni+qWm27cbbLRht3GGz7kT7LRQxaOkQ3XSDYmeboLstnGG6Ywbw/fetNEUJ/wyC27pzxu627bJ23T7fD0R3S7PvvRiZQj2y/f7Und/ns+ZYHYP6077GXP7I7a71ndmw7crjv+oO27kw7bqTvrjc/rznvrHt3FC21y+fv2TeQ6Pip+vPAh8dNLDul+dekx3R+ufOfCB8s51Q1kbF9+5YVv7vba5emp33Jrsw8hfuq77LRd95XLv7yq5298mGUAnmVA91uD8+HfGwvMkC2kyzszt2iSnNT0JcgNAsQiLd4+0pb7PCuzPJU/3sElRB1a6hrp8LnmjmdRofJHmfM6xLH4AODCxzWAhVxM5xbkdWjth5JetEnAeIkYigDFqhrW8yHr8pA4T1/dbCvOHZKvOH/oHFG21jqQ1rqWwEVT3d75znem6BjK6n7p1ynqSfST+8l96SMih7yUfyzfKFtrXcf0nA8p6TnufKQ3L0ykeT2DGyVu5Lih+KZx8Ldl9wYbbJCiXCDNJPdnzmWIFI/JUDpEPne9613TgpHzzz8/vTxqN/uE5YGvXH5Zt/OOz+423/hB17My+3uLTTfs9tlju7Tj379cfXYizYjbv37n7O5/fO993f/6/rnp1/bXP/7iqd3XP3pUd8kZ+yYi+J5jnted+rqdEylmET7whU/tXrpAJF+wQIKf87RHdE97/NYLhHyL7pEP3SwRUPmJAIHwbbbJRom0brogSOrmC/9vselGC+c2Tjpbb75JCn/HdaQfo3ipxfbhysplRRmuK/PG3RYLsvlCGZV904Uyp/KvKrvzdB+2UNZHLNT3Udtslur+jCds0+34jEekDwNW8lft9dTudftu2x130HMW2u653XsX2vCjp7yw++I5r+quvuj47heXn54+Tv79h+9Pbf9v3z0nRdGwKDPJQt+8/5RXJzcNfZeXO/zUX3vYwWlQvbGh/74swfnWgT/SK8H1uQ4/4o9//ONpcV0QlSAyOYHJiU0uuQ5B2pBWUYw++tGPribOke88SQ6dPC2uGu9///u75z3veastmHnZ+uV+2MMelv6m/4Y3vCFtA86VsIS8fcfKNgthUm6L5Fn5uSsYL4esy/065JLrqLc+QLr1qw8DVnVuijla61DSiz4leT/kYMm3UYmIWS9+8YtX+5/3rct5HcJqzg2I24+NcnJEP7TeS2RN6wp5ni1tMpberJhI83oGN0fczCGmYQS133DDDdMGJULLiZZB1gZpdu6mN71pt/XWW6eHz4IVVpUJyxfI0xGHH7xA5Da/weI/5NWuc7Zt/j8/+mCyZFr8xw2ARfNT731dd/ZbD+hOOuol3dEH7d4dsu9O3cte8JRu9+c8utvpGY/snvnEbbrHP3LLRGyRX9bfIJEIcCK/iG/IKgK8tknwUst1JHsV0V5FtoNwJ7KdEe1oI9c8/lFbdts+8WHdLts+MrmYvPKFz+xet//zuuMO3at7x5v27T582sHdFz/0xu57nzul+8evn9n98Vvv6f7te+ckq/9bXrt396iH6dPru2lssfBh9OxnPrX79CUXr7oDbhyYdaBu0SPSLSEG9CAR3oXIFHeMsC73CVhIn+CEDOlJB+GzpkT6ecSKpa4rkv6Zz3wmRd5QhtzqPCTIW1g8WakPOOCAtIcAoofMzooYA2v9AD5Wrr766rTQkv84cstvWXmHyHKIMkf7xkeBY32dqFuQZ77cFtGdccYZaQfgWpg6iDau9UPpnP4WUpBb5lFHHZXCyKmbdlbuKF9flF2ZH/rQh6bFjYh2P1SgPN0jpNbGzoXeWB1a77mxPF3fordYTKR5PYMbJsRNg/z4cvciyhf/IctrkzT/+Z//eXeHO9whvZSsvuaiEeWcsPxw6Re/0G2/QKK22ORB1yNXSB2L6Cv33r477/SDuw+celB35ptf0Z1y1Eu7N7x6927fPZ7d7fCMx3aP3GaLbuMNH9Rt9OAHdpts+ODrrMK5RXghndx6PUmbINdhxd5i043Th8amC4RaW2+40NabbfyQ7smP3abbbcendAft89wFIv3C7m1Hv6x791te2V1wxmHd29+4T/echf7p7xYYH0avedX+3e9+e+MIQefd00JKYuCnV0PojQ3U/QFdRCPkMieWOfmKY0G+WGZDggCVXAccZ1EUMi6iHbTWtUVvrK4iazDYIF/Krg55+UheT+eVF2Gj70NChJBzzz03kcwf//jHyQWECwVSOJZ/QFkRZOMO32tkUgQP8ZWtt+F+wKgjz/ho6ZeNxDFtzgIr1F6JZEcaIdKlp27qiMSyPltkaMMZ6474Pxuz+VOr39j4qJ/US3v06yaiyctf/vLVdXO/RBn7ZSOORxn9bWZY2aSfI56bsf7P76VWvRpCr5ZWa9nWBBNpXk/gZumLm51rhukmD8zNbnaz1b7MyHL8PSR9QrwmIj15iabhRfPBD35wte+ack5YXvDCPuqIwxbIsYVj15/KR3Qf+4gtu+2f/pjuWU99VLJaIl+sopts9OAFErfhwjUbJXKdXzdPUYYbWme5ZlwnCKUysIhzRSDKlWSBVCKWZFOyUOZ2+dO1xEJIaW5BFvIQnUKe8k4fBiSFersu3BuJsi+V1Vy68lWe68r54FSmh221WdroZIdnPr57xpMWiNcq3fxafuvPevqTu4s+eeGqO2H9hkGV1N5BMVAbiFv0agO16/P0AMnh8+q9WCJrQZZFN2CpRLa4XSCU/IGRNmRoiJASx51HPuU3hH7ZSnUNPTpjdY00uFrwoWUwYW3NiVtez5Aot7+DQIuFbIHjYYcd1p1wwgnJb5oLCAs6lwofHt/73vfSIkq/iKP1M/x3WbxZW0WOQiQRVURZuwWZLLVdv2xB6i0MZL1VBmt1uJZEef2OpRUfM/L3azZA3GPhA9XNR8KFF16Y6iYcnNlZ7UjUUd18RFx88cWJ2LLKW4QpIgmirG7abcw9Ji+bctC3kPP/Z+884KPIrnTv3bc5ePOu99ne/Dy2d22vPYmkgKRu5YQSIASIjMhJ5Jxzzjkjcs4555wZhjjDDDBMAIaBGfje/W71lUqtqu6S1ALB3I/f+bXoOn1DVXXVv06fey+nM2Td3lLniL9zvTjnkvn7YCfl56tOlsdy/PmVVhqa3xCpixRPFhr/5lMrn/QHDhwoV/1jLrOCWJpdlJnmDb6lMVUm00IqV66MCRMmyJ/EtMqXnj79Bnc//QSbNm5AVo20IsCsjCkCBrAaMKhA0Mq3JMayCJuET8I4wVRCrgBXvhIIuY0+ql5Gv6MiguUAvPjIqkiMCUO1eBfSktyoXi1KAH4MaqXFyChr3RrxqFczAQ1qJaJhVlIha1w7GU3qVJPWKCu50LYGtZJQPzNRpqYwms4Hh0xRbo2UaAmiqQluJMdGICE6TACqMSDRyMsOkm2UcC+AlhDLPiloV32SwC22y31q2h+lNXV8FLjz2Fn5MdrMB6We3ToL8LiCr8T1oyxvPq9a6pppJ/bd342fUn7qumsl5eN9Q+ecvoxWEiQVvJiNcMVXQjKjosx75vzIBCYOLuN0YXyfsyLRzxv+VBl8n3msTEOwmo5OwYa/vpqhxImf8mH0lO1lCgSBk3CmIppmM7fduw+EOpraV+np6XJ6N0ZEOaiNMztwMRbOyMFXwmOrVq0k0HL+YT6YcD+ouhVMetdHM7eJRl/WTehnXVwARi3swRQLHkcOtGebFKj6Ks97G/uk2sT3GJmvV6+eXDyGgxE7d+4sU1ZoasEZHnMONCTkcuAoy1H7SJ033mauV9Wt9gn7xro4PSwj+t4yn8NOvg+BOpe4nb6+/Pg+ffzVGQhpaH5DxBOFZj7BGFXg6Gk+VXOaOaZmmCHWl3mDb2lMlcl0kF//+tcyp+vw4cN+vyxaZSv+EvHRrVs4feokdu7YJpfJHjSgD7IyxYVfgB6h2AquSmoK3GQ0WACiigQXQLEBkXyfEJwQFSZA1IWaAkrrVo8XEJskF+po27i6TAPhane92mejX6cGGNK9CYb3ysGYfs0xeXBrzBzRHvPHd8aSKd2wemZvrJ/bF5vn95f51ruXDcW+lcNxaO1IHNswppCd2jQOZ7ZOwOktE3Bi49hC246sGyVzhfeuGIadiwdj66KB2Di/H9bM7osV03sib1JXzBnTEVOHtcP4Aa3kNG/DejbBwK6N0Ce3Pnq0rYvOLbPQPqcGWjXMkCkUhHDCN6GbaRWEbe4nRrEVUNNkRNsE1jKCTRi22M+lMR7z2MgwucT2lInjsG7NKhw6sF9OPfiZTZTyTRSvS05u/E5u6BR9vMvj4CxGKxlF9YYbBTMEm169esnrJcHTWyyLEMztBCp+hsCkgEgZ36MRirznRrZqm5WUH/tqJ36efjQrPw4CX7lypYQ+QixhTUGeGeaUmfvgbfwM+0vgpClgpKn3uF3tE7OpMnzVST9VLssgoDOSyygv+0ep404jaDKaTVDn51U7zPXR7Oo0t0+1W5nqj3cflb9V+eb3zO+rbSyXoM5ymL7JYBYH+1mdA+q48vhbbVdSPnx9mX70ofk6NwMlDc1vmHjSqBOMOVJMheCT9n/913/JSK8ZjH2ZFfyW1BjRVvaf//mf8mc6tWrSyzjJtQzx5vr5gwf46KPbOHfuLBbnLUDHDq1RIz0Z8dEREsAYbSwNLEswNsGxAmMZHRb/J4wzGkwgJiSmJ0bKSC3BsW5GvIzmtm1SXYLwpEFtsHhiV5mLS8C9sGMiru6dhusHZuDWoVn46OhsfHJ8Hu6dmo8HZxfK6dU42I0zRUhTM0eYjLN8GGZMh1dyM8opUoeqWxgH4H0u2sSlxe+enIc7x+bi9pFZuHFwJq7tn44re6bi1Jbx2L18qAD7XpgzKhejBWh3b1MHzeqlyGg4I9qMZldPjpKR7KTYcJkew6g69zVTQhRQy+i7ilQTqEuYAiKPoTgPeC4wN71aYgwa1K2F4UMGYufO7bh+7ZqAn0/x8OFXb+T3V11D/d2o6adu1HZ+fJ/lWN34+bM6I4qEFm/IIdAw8seoqXm2BXN53nXy1ztGJFWqh7k8Gt/jnLwMpKjjpvpQnL7aybuvvsSFPwhpvDcxOsv2cT+w32aw8za1zdvHCh5pVr5W28zGNigoZT4wgVKt9KcGU1Lso1XeMdND+Osu+8boPtvF8sx98zbvtpnbp/6v+mjuq7kMs6nPKDO/r/az6hsj19u2bbMdnK+OK83X8S/uuRQIP76v/Hy1LZDS0PyGSZ1EFEe88smXP01xEB7nTLYCZCuzgt+SmiqPrz/96U/lF5WDE9lOX18ardKJe5bRZC6DferUCSxfmodhg/ujWeMGSEmMRbQrVEKSkWZhmAFbzlItJFwJQCMMe6cWRAo4jnWHyDQJwh5TI5pmp6BLq9oY0r2xnN950YSuMgK8R0Dj8Y1jcWnXZNwSUPnpCQOE7wvYfHBGwPDZRXJ2DkKoBFa++jHOWezfOJd0ScyqrAKzak8RU/At/ibsfy76Sbi+L/p99+R83Dk+Vz4cnNs2EYfFA8O2xYPkoEtGsjm4r1/H+mjXtAbqZSbK9BNG5BOjw+QDiZqmTz205MO0PLbWx9LbjGNbcF7Q+MATFxWOrBrp6NKxnZzDe8f2rQKiP8SXX3whb1yvu9QNmObvhu4PIij6WN34CVvMzSXAKABSpqCI056Zlyo2t82uXubyMi1BlcNXMzAx13X69On5i4lYtc1bTvrKz6u+0s+uPL6vjJFzzvs7e/ZsmVrB/GyCnIqkEuzUPjH3w9wfb/P2UebPj++xPhV5JcgzJYZT4DG3mAEo1Se+mvtqJQ7MY04wc5QZ3WdKCh+CFIyb22BulzJz25z6KLPyVQ8CfOWKwExpYQ41030+/fRTT6uLyklfKW5zei4Fyk+1jearbfTztb240tD8hognhjo5eBJRzLmaN2+ezHn613/9V5keYQZjX+YNvqUxVR4jzT/+8Y8lxDMXT7VZK3Di8X/48CFu3LiOgwcPYP7cWejUoS0yM1KQEOMGp5AzgMqIKPNvmhU4mc2AKAPEaAqQmUYRGxkqI6CMGDP3t03j6ujRpo6Mms4f1xlbFg3AyU1jcWX3VAmCt4/OkpFXCcQCGAnEEjY9EVwjIlwAlQVAaviqRTtedzP6bfQ9H7a994FnG/0/Fw8PBGtO7Xfr8Ex8uG86Lu6cjKPrR2Pj/P6YM6ojhvdoik4taqFZ/TSZ0pKa6JZRfcI0j6M6dvI4ShguzvEX/qbzhg9dqUmxaJhdG4MH9MX6dWtw/txZ3Lt377WbUpLXIV43i3tD9yVVntUNmxDGwVYEGTM0E3r4HucIZm6p+qy6rtuVp8RfkxjBJqSxXG+Y4nu9e/eWqwVSTvpKH191mvcd/ezKU37edRIwOcCNg/oIctnZdfMjtApivQHaysx9NffZzli+AmXuc0boud+Zs8yFTThVK9NJzH3n3+ynv+NAsZ/Md+YvALzfcXEQDuTkgE7VNwWy/D+N7fLXB+/tyrhNlcMyud9YPl+Z88z7bqtWrWQgjYudEZbZRjuxf+bjaie1T7yPq7eK40cfvvo7l/y1jX6qzkBJQ/MbIp4cNHXC8W9Gmjmqll+Wf/u3fysUafaGWm8zby+tqfIIzT/5yU+QlZUlI82qzU7MSiXxMdubohcvnsuI8p07H2PXzu0YOWwwWuQ0Qnq1BMS4q0roIeiYQdkbiszG7QYkGZDMz/B9GT0W8EVATk+KlKkUPdtnY+rQtlgzs7eMGJ/cPA5X903DnWNzJBgT8rjAiYRCBcJepqCRAOkNlt9nUw8Tct/52X/cx4zMc58TqC/smIwj60ZjW95gLJrYVeZXt21aQ6bBqKh0tCcqzQi0N0T7ikgb54ZxXiiIZhQ6MdaNulnV0a1zByxaMA8Xzp8T0PCg0E/a5VXmG7ovmW/oduK1xd8N3XuaObMRchhl5s/8Sqo8X9ctdV3j4O+2bdvml2eGKpZNKCQQ+pPaJ0766mSfqP1r1wdu45zM58V5s3z5MjkWh1FRRscJtOyDAkKzKVC0Mjtf7gtGfgmTLJ9Rbq4hwMGKnNnJarCk6quT4+C9P/gZjjHiTBi8JxNemZrDyDrbodqq2qfMu/1WPt5+/D/3FftGQOeAQs7QwqleOZsWH1LYHl9Sx57m67iq/eHruFLm8nz5OSlP7V9/bTP78TVQ0tD8hogniDKeSHzll59T4vBLw1xildNsBbXe5u0TCOO0c4R3DqhgVMHcZm9jH3iiq74oM8v8vvc2JW8flqfKfN3F/fOJAGUO4ps0YRxatWiC1GRxY3QZg8k4+wXNHygTkBQkmyOPBKHo8GCkJbjRrF4q+uTWw6TBrbFyRk+ZY8yc3FuHZ8nIJ+GYoEe4Yz4vV6N75MkrVmCnoTiwZo5Ucx/L/e4xRqsNmF6Eeyfn4+Ojs2WUn3nhe5YNxdLJ3TG6b3N0bJGJutUFQERWhTvcmOVDngvqfBCvvs4dGrfzgYznGl953iTEuFCrRiq6d8lF3sJ5AhLP4PHXj8vl947XA383akr58dVO/LyTG/WBAwfk1HEcCGcGW0IPQYqzTHA+YorlOGmbqo8D0jh40AqaWT7HlHAGDl9SffDVV8qJn9pv/vpAcTuDAM+ePZX958MFI+ccgMcUDk6zxyg6I9GEQu4rAjXBUxn7ql5p3E5ffoYzlfD+Q2jl9HWc3o1LlzNvnDBp1z6+zz7QnBwHX30lkDOCzWgvf01gCggfEJgDzb4Rpgm7CqhVP5SpfrJf9FHgzyg5I9mcVYO/YvBXZj4E8BdnpsKoY2TsY999UH0NxHE1+/kSt/urk/X4278UtznpQ0mkofkNE08WdTLxi8mcJX6J3nrrLbnACKO93jD7sqCZdbMdjILwpkGp9nobT3R+Mfhqfl99hu8zgkXjT8HK+H/1BVWfN5dh/v/rKLadN5OjRw5h6qQJaN2iqRzIFxsVLuGYc+0SXJyATj4cef4m7CTHRcgp2To0y5QzUayc3hN7Vw6XM0pcOzA9H5AJaVw+myYHvRGOJRgL84I7bS/fCsG0ODYEaXW8+D5zp28LkL68ewqObxiNbYsGYvaYjjJXOic7VabaMO0m/zwxAbSTKDQBmuciz6mkuEjUr1sLfXt3x5pVK3D1gyt48sRY1vlVi98ndb3wdU3gdqc3dFWeL3F+XQYzvKGZkWDCHXNh+dM+6/PXNuWj6uTP7oQmlquijupvQjPnBGbU0U6qD0776sSP5q8PdvuN13Qu3MH7GSGav1IyWsvcbOaFE6gZJSZ88mGDM5IwzYN/jxo1Sg445PzMnCuaAM5cY/4Ky7xuprKxXl9SbaM56YM/PyX6E6A5NSz7xig00zhU3xgdZr84v7bqF4395Pucb3rcuHFynmiuxcBB/5xFhQ9NPHe4KqO5HepY+Dpexe2rv+PK7crPTvw8y/PXNtV+lufUz1fbSioNzW+YeJKoE4UXBX6JunfvLqd6+9M//dNXDs2//e1v5QWdPyFSqr2+jF8Q9cqLDC90/BmPkXReIJifx2mU+Hr9+nV5QeRFSF04+AXyLpP2OokPBJcvXpQ/e3ft3AF1MtPloCwCMuGEkBIhYMUKZJQViiiH8if1KoiPCpO5rz3a1sGUIW2wdlZvHFozUsLUR0dm47MzBiDLCCajx4RkTxTTCta0lW/jA03hXwOMhx5CNgdgMhp9Vjwg7VjMtI4uchq/1o0ykJboys+LdgrQNPUgV7VKBQnQHIDavGlDjBk1DHt27cT9e3fxwscNsCzF64mTGz/9inND91Weep/QzMU6mJ6hgJlGqCU0EwZ5jaO/v7Z518l8aUZRFSjz1RuarSLN/Ly5PDvRj9uV2UntN1px+2Anbuc9gFFhwibvcUx7YB49r/nsO1MQeA/g33yfQQb68r5hlXbhS6ptNP5tJ7ZL9cGXn7mvVuIDAvvGY8+28wGI/eKr2fieMvaf/WPf7PYf6/PXB3PbnPrZ1cf3nfo5aVtx/Wi+/EojDc1voNQJyp9kuJIQn0grVqyIv/iLv7AEY/N73tsCaUzPCAoKkk/RaiAK22plPOFpPPl5IeEFgRdIwvG+ffuwePFi+ZTNmwPnJ+WUQHw44GCLsWPHysEO/NmNeYH8HMtgeapsvr4O+uLzL3Bw/16MGjEUjerVQXJ8tATekErvChB5X4KLFawoI9QQcJizymnJ+B6nL2vTOAOjejfD2tl9cGLTGHywZ6r8Cf+BgGQC8teXlxpRZA8g69SKN9dURFoddxrfu3dqHm4eYn70JBxcMwKLJ3dFv84N5HzZXECGM3PQVEqPrzmjuZ0PeCGV3xMPeO8jJjJM/kLSqX0bLF40Hx9e/aDMbnJ2UtcXX9cC+hTnhs5XOyk/ipFezmDAgVpmaCbY8qd3XtcIfb6k2ubdB6Ya9OzZ0xaa+csjF0cxy9wHp33156fa5sSPZu6Dt1SdvnyKo+L0wV+93MbyaL787I5XWUq1TdVrJ/o5aZuTPnjX6dTPTmY/f8fLiV9ppaH5DRFPGG8jKPIpNC8vT+Y//dM//ZMEYkZ8vSHZ26ygtzRGYP7rv/5rma+1fv16+RRN8eSmsb3qbxpPfrafkWL6Ev53796NWbNmyXklOUCkSpUq+OUvfynzpDk7CKfV+/nPfy7fZz0Eaf5sxc8R0vk0ruC5PIv74s6dj7By+TL06t4F9WrXkLNeVKnwtoQORu+swESZBBRG+Ag0ApY5ry/n/B3QuSEWT+qGXUuH4NSWcbh5cKaE4W+uLsOTK0tl5FHlwlrBlbbvj6kc6ceXl+CbD5ZJ468OH+ydikNrRmHDvP6YMbI9OjbPlHNt8/zk1HZyVhUCtJ8UDv4ywvOZUWhGn5lmNHHcGBw9fAiPHj/yfBPKVvye+ZK6DtF8+dLP341a+bAsiotIcE5lpmMQaBU0829GnxkN5s/1VmJbaCzPql4O8mPOrjc00wjNnJLOPJUdy1L99NUHc52qH1by1TYl7z7wbzuZ950Tv+L0wa48s5+/PrCc4tTrqzxu83ccKG5nWfyMnVR59LM7XvShOemDv7IoJ3VSJfGza5vqA318+QVKGprfEKkTx2w8efizPtfeZ3SBQMkZNAiwBGf1+jKgmakhBFxesE+ePJmfb8U20tTf/AKpLzBnhOBPa0zl4BRAHAjCiz5XN/zRj34kI+cc3Kj6wFf2j+/zAeEXv/iFzBnkKPUlS5bIqX/401dZf6lKKgL9+XNnsGDeHDkPLmGCUBFU8R2ECciwAhBlRiSPuaTGDAhcOKR1o+oY0StHgHJX7Fs5TC6o8cW5PBlJJCQTiAhHVtCkTZu38VcHFYl+LIxzaZ/bNgFbFgzArJG56NWhnkz14cIr8lwMFg9t4ry0Ol+V8bwNrfKePMe5kEqj+nUwctgQ7Ni+JX8g3KsQrxHqBsxrk5X4vrpe+bqm0E/d0FVZ7BvzU83QrMCW0WcO7uL8xd518//m66T3dv66yF/ZOM+wNzDT+B4X3lBLQFPmvtqJ9ajrspN94s9P1emkXqd10gLRNm8/O3GbuV47mf381emvLPqZy7OTd3l29ZrL8lUvt6njZVcWZS6vtH58X/n5axt9/B2vQElD8xsinmB2xhQFDobgcq1/9Vd/lQ+aZQXN5jLU3//8z/8sRwQzUszVoNQXQRnbyVf1xeTFnznLzL2bPHmyHDTz9ttv4+///u/lfNPedVoZ62V0m3nUHDHNtBACOCPOrL+8iG3hNEvTp05Gi6aN5NRdhIiQyu9KqLCCDWUEZLUiXHJsOFrUT8WYfi2wfk5fnNw0DjcPzZLA882VZRJ2CMk61UJbaY2/RjAS/UScV0/EecWBhVf2TJFLjC+a0AW9BUDXzoiVefNcBpy/evg7l/lgGFzpHeFXRc680adXd2zeuAH3Pb9KvSyp6xBf7cTrlbpR+7qWKD8a/1bi/3ldIyBbgS2DAw0aNJALa5jFNql6zeUp8frGKDU/r6DZHMVmvjQHmjF4QKnynPaVflb1Uua++ipP1UmzK4ty0jaKPsU5Dk7b5svPe5/YiX70sTteVHHKUn58tSuPclKe6qsTPyd1OvXjdhr97fxUX5WfnZSfvz74ak9xpaH5DRRPELMxp5dTvPFi+h//8R8yEktYtgNmmhWEOjVVhgJzRpkJrr169ZKzZrA9PMHVF0J9efh/RluZv8wBDhzEyPxkRk24DPif/dmf5S/QYlWvlbH+P//zP5dT7jFlY+rUqbhw4UL+TeNV6vnzFzh18jgmTxyH1i1z5JzK6idrX4BBUCYkB1V+X0b1cuqmYPyAlnLFOA7i+/jYnPyf1I2UCx1N1lZ2xocwGYW+shTPri6XudGXdk3BtrxBmDe2kwRoTlsYypQMCdCcAtH63KYx/YgPjbSa6Sno37sH1q1ZJa4bDzzfnLKTugHz1U7qWuUPEJSfnQ8HA3J+YO+5mhXgEnw5xRp/KWRdSlZl8T3mKauUD3OUWUEz3+NqrJyGjP7ma7Avqb5a1avEbaqvvspTZfHVV3ksw99xoMx+duWpttHPV9voRx+av7axPJq/8lS9pW0bpfz4WtrynPbBSZ0Uyyiun52c9kH50Xz5cZuv+oorDc1voHgymY0nH3N6OTUNL6JclU+laSjA9TYrAC2usRxOc8d8Y84huWzZsvyJ49WJzFfVTv6f0MwoM6cWYmSYqxmqOabN5ZrrMb/vbWrbH//xH0vw5jyY/NmTAwq5X1jvyxb7fPnSRSycPw/NmzSQA/pkCkZwRUuIoBGi+XM3o3b8f52MeLmwyIzh7XFo9Qi5uMU3AlieCFBmBNAKbrRpexnGKDRTf55+IM7HK8tkWtCqGT0xvFdTtG1SA0kx4fm/jvAB0PtcV8Zznjn8VSr8TqYqjRw+GHt378IX4qG7LMTvZXFu6E797K4x/MWLQQGXy2ULuQRnDhhcuXKlvGaZfyVjubxWcuDfunXrZB5zWFhYobJUeXyPMN23b9/81AyWwz7bieWrfeLPj2X5K8+8f+32CWUuz5cfy1N+dlJlOe2DvzEv5rb58lN1+vIrbtuU2clcni8/1uXkOJSFH/evLz/VB5qTfeJk3/nbH8WVhuY3UDxRzEZxnkumOnC6Nw6UY5oDQbIs0jOUEcyZlsGfIDnPJH86ZI61+kKoV7ZR/Z95zIwycz5NRsaZl8x2qjJ9tc/cfitjhP1nP/uZTNXgfJgcYBjIL5MT3fn4YyxfthhtWzVDVEQogiv5T8EgXNC4HHIzT/rF1kUDcf3gTM9P5EbahRXAaNP2Ko1RaEae+avH/dPz5XzfeZO6onvbOqiVGo0IAc1VKvkf3MrUDf4CUyMtGaNHDsfJE8fFNSNw313z9chOvE7Rx99N2OznqzyK12Rej1S0WQGzMr5HcGbQoUePHnKu4S1btsjo87Zt22SqBWcM4qIdvM5aATONwMyVYfk5tk1dc+2k+lAciOTfdmIZZrCy86UfffjqtDw7mdvmrw8sy9/xMtfpq22qPF9+qm3+6gy0n+qDUz9/fTX72Ymfpx99/PkpH191cpvTPqjyfPkVVxqa30DxpDIbxYsfIZEX2jZt2qBChQr4u7/7OwmkVoBpBaVOjZ9XwPzS6JwAAP/0SURBVBwaGorevXvLnyI5hZL6QtDUyayMbWTqBuGak9NXrlxZ5iSr9vhrm9puZ4xWM1XjnXfeweDBg+XPmYT0lyFGhPbs3one3bsiTsAvI8u+QIEROEaVCRRcsppR5bljOuHYhrEykscInjG/roZlba+H8cGO6ULPri7DrUMzsX5uX4wVD4DN66WIcz4IlSu8J8CYuc/W3wn5a0vQ+zL63KSh+D7MmYnr1655vmElF6896gasrpfeUtcrfyDB99UN3c6H4jYagxlcuY0runlPP0dT8EvoJVhzXAhTLJjvzNXf+H9+zjs32lwGoZsDC/nLHSPVlL8+OO0rt/vyodT+dern7zg4KY/vc7u/8lRZys9O5vLsyqJYBv181em0bXxftS8Q5amylJ+VzHWyTF91OvUzt81OgfZz0raSSkPz90TqxGF6BJfu5E957777rpyFgoDrDZ5mGC2O8bNMySAwV61aVc54wRWcWC8BlScz20Lj3zypafybaRtcrIRLf/OGwDSS4rRFtd1sapvK4ebfjLIz7YMzcpgXEFAWSLFv1z68itkzpyEtOR6V3/utLSxznlvOOsCfrjmAigOp2ufUwNKpPfDpibl49qGRL6pBWdvrbgRoDkx99uEKGX0e0r0JmtSthpQEl/xVJVSY3S8wfJ9R5wrv/AYd2rXG8aNH5MN2cWW+Bvn77vMGrG7Udn58X/n5Kst83aOYXsFfAFU6hjcwm0GYr8pPmXd0WfkqYOYrx5OotAx/fVBto5+duM28T+yk/NQ+tpPy46svP5bjrzy+b26br/KUny8fVZ7TPvgrT/XBV9v4Pv1o9LOTapsqz05mv9K2jVJ+fC1teXzf7Gcn+tGH5qtOluHEr6TS0Pw9E8GUuXFccrNdu3YyB+7//t//mz/ITuU5K9h0avwMP/+Xf/mXcr5kTvXGRUeYa8dV+hQwK+PJ7P1/RmMZZeaUSATuH/7wh5Z12ZkZlpWpbWZoVtHmfv36yRsWI9ysX1mg9NWXX2Lr1k1o1qQBwoMryp+YI6pag4CaVzk6Ihg1U6PRN7c+di8fKldpY0SZkKFnvdD2JhnPZzULB18v756MBRO6oFm9VDkTDH9t8TXrBh8+Q4PeR3JCDCaMG41b4oG7OCkbvO7wxsobtp14PTADgp1YFrfTfF1DzOWZ/U6cOCGn4yTg+kqzUGbeZjbzdkanuVBKbm6uXDqa1zlfMreN/bGTUz+n+8Spn6rTl5+5bb78VJ3ex8Fb5vL8+dGH5mufqLJ8+Zjr5KudzH5Oy/PVB5ah6vTlZ25bacvj+8rPaR+c+PlrW2mkofl7Jp5M/Enw2rVrMgJMcExKSsJvfvMbGR1m3i/BWcGmEyMsE3B/+tOfyug18+8GDRqEDRs2yHoIwzzReRKbje+ZT24ue82FSLi87FtvvVUol9mJWUGzt9GP7WUUmyPTebPi8qrmdpVWLOPK5UuYNH4s0qolyJ+U7Za4Nm78FWVkuU71eBlx27F0MO4Sli8oWNaRZW1vruUv7S3O9c/PLcSlXZPlrBucZzwxJkwOgOXCKVZpGwRqDqDlEt2tmjfBzp3b5PXGifg9VdclK/F9843alx99aHY+lHd5ZhFomd/Mlfy4EBVTMRQ4m2HZDMXeprbxcwRvpmRwISiuPsixJL5kbpv5muwt5Ufz7oNZ3OZknyg/X3VSTvxU2+hHfzs/c9v4t528y7OTUz9Vr9OynPSVxvL8+Tltm686qeL4qfb5axvNV9uc9sFcnq+2lVYamr9H4onEk44XaF5EOcE+B4aMGTNGAmR4eLhcAOUf//EfJTxzqjiCK9M3VBSafzM3mCkY3M55nwnbv/rVr+SFmouocP5RLnXNnwO5iAnrZN1Wpr4w/Js511wtkDeAf/iHf5B1eoOx2byBuDjG/vGmwnlQuZY/61f7qDT65skTHD50EM1zGsmoMiPMVpEyRtGYikFYTkt0o3vbujiweiTunpwnIVnDslPjPvIY95eXcR/amZV/ofICUaZ3eZZ90EZT8Ez7/OwiXN07DbNGdUCj2kmIdYfK1Qb5nfH+LhnfJ/HwWeV9VE9LwrzZs+RgYn9S1yAr8X11o+arncx+vq4dvMbRT13v7MSVTzmjBgf2MVJMM0edrYCZ25Wpz3DQ36hRo+Sqgk6BWbXN3z7x1wfVV3/7RJXnqyxKlcVXO5Wkbb78VHmB8lM+fLXbJ3yfZTjxC2TbVJ1O/Xy1jaIffV5mH5SfrzoDJQ3N3yPxZKLx5KPxYkpQPXPmjJytYuTIkTLXmTDJGTYIwpym7V/+5V9kCgfh+Cc/+YlctpqRYM69zIF+nEe5bdu28mJP6OV0cSyXwMyTmHWpur3NvP3jjz+WK/exbqZQEG6tYFmZNwg7NX6WDwOc6on1MX2E9at9VFJxKqz5c2fJhRl4E2cEzBuYGS1jKgahOTE6DF1b18aOJYNx+4ixCIlextpsHtAsAqBmn4WGnV0op937/OyCwnaGNt/C5uHB6bl4cGoOPjs1O9/un5iZb5+dnJX//gNpc8Rn5lmUpcyrbk+b8ttYqN00f337fhrTNvjQ+PBiHj4T+/X89omYNrQdMlNi5PeJ3x2rlQb5aw6X546PjkDf3t1x9eoVnzdaX+LnFCD4krqO+RK3O4ENits5WI/XUQYgONBPgTKhmDnKCowVUNMUQPPazWs40+L4C5q6ttqJ29guJ1Ci+uDLz7zffNWr6vTnp8qj2fl598GXn7+yKOXnr6/men2VZ26bncxl8dWXzH529ao++KtX7V9fZVFmP19Sfnz11TbVB19tc9oHc3m++hAoaWj+HoknlNl4IvJk48WVA/CY90Z45uqBnN4oJycHWVlZEoqZwsGfDXlRzsjIkAP1eHHmdEeMLK9ZswZHjx6Vq/2xPHWiK/OuWxnrV+1gG+bPny9TPMzzMtuZFRB7m9Vn+MoodnBwsJyzmdEdtoUyt7U4uiHAe9SIoXI+Wd64rQb7GTf8SnJBEuZt5k3qhit7pgqwWvQ9ngnDDIxW/fcAsQDSB6fnC4AVkHuSUDsD945Nw6dHJuOTwxPxyaHxuHNwLO4cGI2P9o/ER3uH4/aeobi1Zwhu7h6MG7sG4frOgbi+o7+wfva2vW+BWW0vZANwY+cg3Nw1GLd2DxF1DRV1DsNH+0bg4/2jRFvG4M6hcaJ9E0Q7J+Lu0Sm4d3x6PpA/ODVXwjX7J80SrGl2++bNNrVoCtM27hybg73Lh2Fg10ZIjXfLiDPh2eo7xrED/I61aZmDA/v3+c3lNUtdk/zdqCluVzd1fkZdy7yvHcrHV3mqLOXDvzl4mvMz81pMgOaqqLz2EqR5Pea1mAOa+T7ncu7atasMAqi58P1dx5z21amfuQ++6lV+LNOpn52K0wenddKH5qs8J31w2jbKiZ+5PL7aSbXNX3lO+kCZ/XzJSdtYT3HqpPnqgyrPiV+gpKH5ey6eTDzZGHUm7PJnzcuXL8s8OEYr8vLyMGfOHDld0bRp0zBjxgw5VygXKtm8ebNctY/+nE6On2c5LI/lqrLN//c2fnm4na8clMfpl0oKzVY+dkZoDgoKkv25dOlSfnvM7XWqC+fPoXePboiNDDMG+1lEwRgZCw+ujOpJURjbvwVObR6He6fmG3nL3ytYLtpXGZGVUDxPQvH9k7MlEH9yeBI+FtD58b5REoBvCvC9uWsgbgr4vSHhl3DbB9e29ca1rb081hMf0rbQehSyq1u64+rmAvuwhFaoDK86pIn62Y78Nm2j9ckHcbb9pgBu9uWWAHoC/scC9u8QrgVY84FAPhwIqH5wZp4B1l777PsE0nyY5PeErzcOzsSKaT3RLDtFpjbxIdTq+6Z+5WlUvw42b1ovf/XyJ3U9Ujd1X2LeNB/ymYfMqDCvhzReM/kegwesU11XfF1PeL1RdfJvs3g95bWVaRactnP58uVybmZeJ/lKqN61a5f8tVDBMsX6vMsyy9xXJ340J32gOfELdNsCUZ5qm9M++PN7E/pAP9U+Oz++r/x8tY1+rM9XWZTyC0TbKOUTKGlo/p6LJ5vZeHLxYs+p2JiTzJUEGYm9ePFivvH/TGngRZpTPfEG4j0DhTKe2DSrbcoo+jA9Y/HixTI9g7N5qNku7Kwk0Kz8mJ/N1BLefNgf9cUzt9eJzp45jfatWyAyPERGmC2BOaQyQoIqomXDdGxeMAAfHZ0tI8tGdNkaFN4sU4BnQB5TGe6fnIm7Rybj44Pj8NG+kTJCe3P3ENyQ0eB+EjAJmhI4JQQTSAmpHlCVwGpAbBHL96OZYLbMzatuU5vyId38vvTj5zyATfj3wPWNnQKsxUOCjF7vG46P9o+WEeu7x6ZKoOaAucL71di3b7IxZYNTLn52egFObx6PEb2aydUFjUGCVt87I0Wqds00LF+y2OcAQX7feQ3gjdrf959BgokTJ8pZKZo1aybnTWbEl8Zf5po2bYoOHTrIdDdeW3yJ9TgBCbaJQMw+8PqsXvkeP28Wy6K/ncx95audVNto/trmtA/0C1TbuJ3mqzxVp5N6VZ2lLc/cB391Kj++2km1zUl5qiwnfaAfP2Mlvu/Ej1J9cNI2mq+yuI3lOe2Dv/Lop8oLlDQ0a8mTztvMJ6XZCMc0/k0fq8+azdvHTvS7f/++jNQwb49zKRdnIKDVditTvoxkMyeQaSWMCvFLpdqr2uxPx44ekT8B84bNCLP3TZvzLnOxhmpxLozq21xGl/kz/ONLS97QVAzRJ/aLdnYRHgg4ZhrCvaNT8akAPkZTb+8VcLxrsIRCCcZbe3siwwZ4GhHcbh4zw6UCzDfRPP2UfS/of6E+S6juY0SpxYMF006YhnJHPHQwRYVpHzL3WuxzeSzk+aXM+zi93kZwfnRxCW4fnoVl03qgce1k+WBqla5BcObDbPXUJCxbkoeHD7/yfHsLxO86v/+8pvm6ufKXNP7yxrQ1pqqpeZLNOcZmYy4yoZopZ7y2eYvXGXVD93W94Xb6+hN92AdfZZn76us6p9qm/OzEz6v95qte1Tb62cncNl/lmf2c1OnEj+X5qpNy4mdum7/9Zt4nTsrjq52Un6+yKHNZTuv05Wfug53M5fnbJ/TzVSfFbSzLV3nebfNVXnGloVkrIOJJ6cvspLbzBOcAGE45V7duXfzHf/xHfoqGHRSXFJoZweasH4wMHThwQEbVWb+T9iodO3oYbVo0lZEsq/zl8NAqcrR//cxEuWzwLXGDf3x5qczPtAKB189EPwSYGfDP9Aoj3/gu0yoOjS+IHu8ahBvb++E6o8YSjlXU9fsExaU1Yz+p/ZX/QCG2MUJ9fVtfAdP9cHP3IPlQ8vH+0QKkJ8nc6c9Pe/KmxTEzjtWbcf7xF5qvLy8RDwkLsXfFMLksN/OYOcjW+7vIh1rOrFEzPRlLFy+S8Kukrj3+bvxMHePYDeYUR0REFFqBT031Zh6wR6MPBxtzTAgHSfNXOyXWW9wbv53op2DDrixK+Tktz1/baE76oMorbZ2U2a+05Xm3jX/biWWoOu38nNRJmf34aif6qXr99YE+/uo198FO5jqd9FWZnVR59AlEH5Sfk7YpP1/llUQamrUCInXi25mdzD78ufHUqVNyrtKKFSvKFA0Fut7wq94vLjTTOF3ez372M/kTKn8+5cIrrJ9fLidfsHNnz6Bj+9b2wCze4406t3mmnBnj/ukFb0B0mZCswKsgxYJRzjsHxgpYGyEjyEytkNFjD+wVRE4N4CsMg9pKZ2aIViBN6ylzvW/uHCAHKMqItHiQuXtsioxGywGH5xfLhx4jIm11vF8PY8SZaU4Xdk7C2AEtkRQbLgcJes/prMA5MyMF69etxdNvjGnYzDdXu+sU54+fNGmSXOqaizZ5g7IZmM2m3lNzJg8dOjR/KjxeZ3wBgroeOQEE+vmDA/qxLCflcbuv8lSd/sqilB9fnfjRfLVN+diVx/do3O5vn6g6/fWB29Q+8eXH7aptdlJl+auX75vbZyWzj796lR9fndZp50fRjz7+ylN9pZ+dVJ3+/Fie8vNVp2qbvz6UVBqatQIinpy+zE7cpr54TPtgrjTzjBmd+bu/+ztL6FVWUmhmufxZlZEj3sTUF4xfRr6qdlnpxo3r6NWji7wRE5oL35iNZbC5ql+f3Gwc2zBG/pRMYLa64Zd7E0D1pQeuGK0kcBG8Pj4wJj+KbKRY9JIQd3WTAW8F0WMr0Hu5do22VZkxQO+6t21zaKbPqLIKyrau/9WY+WGFaR6ifdt6ywcaziTCXwEkRB+fLqfdUxD9ukaimevMJblvH5mFuWNyUT05ClWDig4QNMD5PdSrWwv79+0Bv+G89qjrj5U4EI8z7HDBJqZcKBj2NjMsW/kocCZ8q1QNX9dFtklBhD8/XrP4aid+Xl3ffJXH99U10Fd5qk5aINvmqzyzn5Py/NVr7oNTv0C1zclxUHX68lNt81cvt9GHZlcWpfxYpi8/VacvP+8+2En5+euD2c9X21iGqteXX2mkoVkrIOIJ6svsxJOcRh+e6FxwZf/+/XIlq//5n/8ptCqgGY7NwFwcaGZqBueYZvlc2OXRo0f5dasLgWqPt+7fu4fx40bBHR4s8yS9b8hMx4hxh2BIt8Y4v2MiHglY5qh/qxt9+bSCBTo4DR5nbrh3Yoac0u2j/aNkHi3BixCmALkgumkFb2VrCoRvCKC9uV3Yjl64Jez2zt74SNht8ffN7b3k9uvbCsCWbf5A2JVNBXZ5YzdcEcZXs6n3zL5XaWyDKI8wfYN1CytUtzD+v6B+D2Cb2v/yTBwfE0Sz/3zQubFzgHz4uXNwjJHOcXKWnMWE54I6D4qeI+XXnlxZinsn52HB+M7ISos1fgmyAOcQAc7t27bA+XNnPd9sa/E6cPz4cTm4jxFmbxBWplIxaHwYt/IhSHN7amqqnAWDZduJ29S1yJfop65XvkQfmq/rsLoG+itP1emvPKd94HblZ1eeahv9fLWNfvSh+Wqb8nPaB1/l8X2nbQukH7c59aOP077681N1+vILdB/M5QWiD6WVhmatgIgnqS+zE0909YXhK0eFM3+Q09pxVax///d/l+BM2OWMFwqQSwLMXM3wRz/6kfyZlfOZfvTRRzKSxPaxbn7ZlHm3mT/nLslbhOT4aHHTfb/QjZjGpX7j3KEY0SsHV3ZPxePLS+RCJVY39/JmBCQJSWcXevKSp8oBZrf3DpezWTDd4upmwqaCZCswKxsjaEowFXZzhwLTXhJMaYTVSxu64fSqzji6LBf7F7XHzrltsGl6S6ye2AxLxzbBwpENMXdYA8wYVA+T+9fF+N61Map7LQzvmiltWOdMDOlUA4M71sCADtXzbVCueE+8P6RTTQzrYviO7FYLY3tkYVLfOpg2MBuzhtTH/BENkTe6MZaPb4q1U5pj66xW2DO/LQ4t7oATKzrh3Noucr/d3mEGatF2CdVG34zotfU+KBszINr4VYBQ30f+csDp/fiQxIclpuAYD1KeVA6Lc6d8WR4eX1osV9VcNrWHAc6eVCnzd5XpU7TBA/ri008+8XzDi4oR4YEDB0rgtYJhBcKEZo6P4PUqISFBLoHtHW3m/+nHbYMGDZLXHm95X4d8XTeVj7p2Womfp49TKHFSpxMoKY6fMjs/1TZ/wKT8+Gvlq+ir0+PAVzsVx48+/uo1l+WrDyyjOH5O++rLT5XltDx/beM2J30IhDQ0awVEPFF9mZ34hVFfGvVF4kAdLpTCwTO82fz4xz+WS3arpbwJ0MUFZvpyRg7e5LhsOOc9ZS4zv2SqDTS7L+ihg/vRoG4Wgiu+W+gGTOOUV4wwj+iZgw/3TpcR5vI+97IBygbU8yd6gjLTLjjFGWdo4IwW+ekWLyGSLOGYUePtRrT24919hBGKe0ngvLC+qwDQjtizoC02TGuBJWOaYqaA4HE9swTs1kSfNuno0jwF7RoloXndeDSsGY3aaZGoWS0CGYnhSI0LQ2J0VcRFhiA6IsgDT8aMC0yp4c/5IVUqIbhyhQKrUhEh4n1uC/P4EsAiw4IQ6wpGQlQokmOrIjU+HBlJEaiV4kZ2RiQa14pFq3oJyG2SjB4tU9G/fYYE7sl962LesIZYMSEHW2a2xsHF7QXsd8LF9cY+ZmT841198NEuI0ptRKdfEkyLfawgWs7SsWugXKSF09zdPy4AWg4mZPSZ50z5Pbc5QJB5zhxHsGJ6T9RMiZa/AHmDc0jl95AY60beovnywdlbvA5xsafatWvnz4ThbbyWMAo9fPhwLF26VM6hPHr0aDRo0EACsgJnviojfHMxkn379hW6xvBvXnf8QR+lrpO+/FR5xYUSc5vMUnXS7Hwo5Wd1DVXi+4Hug2qbLz/vttm1z9vPTsrPX9uc+jnpK7c59XPaB/o49fNVZ3H6QB9/fizPaR+c+AVKGpq1Xql4kivjyU/jyc9cY6Zp9O/fX0ZnfvrTn8qIswJlBc00QjTNG5SVKWAOCwuTUR4uyMLBPeY6vdvAv5U+++w++vXtIW+03jdfAldUOHOY6+Pq3mkSmGXU1uKG/spNgbJ45dRkhCFCEeGIuclGJFlFHy3AKoBGQCYQE5AZOVaQeGFdVxxe0gHbZ7fGmknNsHBUIxnRZYS3twDjtg0TUa9GNFIEBPNYVKlYAVUqVUBQ5YoCdAXkekA3lLBLGA4mFAvzQK808Tl+ljnohcx0XJUV8ZFmlCGBW5moQ9bnqZvtIHSzXUGifZWF8f/RArZrJEegSVYsOuVUQ/8OGRjdIwvTxQPA4tGNsX5qCxml5gPCB5u6y0i0SvvgK6PSZQ/RBGgPRIv/c4o7PlBx0CdTOPiLBM8j4zwvn+c6f+nh66xRuUhNcMnvKY+d+dgGV3wHTRvXw5nTpzzfdON6RPEXLy5Wwlxmqygz0zU4yw9BmdcqddNmdHrjxo1o3LixBGcFz8pUVJqfUwuRUAo2+GondX2iD1/tRD/6FMfPfL3zFstQbbMrT7WNfk7qdNJX1TZ/5bEsf/Wqtjn1Y712+8TcVyd9KI5fafvg3TYnfeCrnR/F7SzLrk7KaR/o568PFLcpPyd98NdXu20lkYZmrVcqdULT+AWg8W9Ggbl4Cle7GjJkiLxRcRq6v/zLv5QRZwXKNBWBVkCtQJnvcQYORqoZFeLodUZ4eJMzp2WoOr3/r7R61XKkVYuXo+/NN13jRlwZ7XNq4sSmccbqfuVxSjkJy2own5F+wRxlGVHe0lMCUllHkwtyj5laYQDy+XVdcHRprkynWDO5OeYNbyjTJjrnJKOBAGNGh+MjQ8RDSZBcTZEgqmDYiPoWhqDybmwvYZuQzT5IuA6qKPvCwaPxUaGonhQhI+V92qZjcr+6WDK2CTZOa4l9C9vh5IpOMqea8HxLQDT3pcqVttrngTJ1fjAPmikcnxwaJx64OIhwnjy/yiM8s01Mj7p9eDbG9GuBOLFvuc/NxyM8xBjIO27MyPz5m3nzpTjWgSugcslqb2hWMMztvE55i8DNVVSZv8zPKmDmZ/nKFI4pU6bIhaEoXm8URJivO94yQ4mdH99XsEE/O5n9fNXJMlivLyihVB/8+ak++PIzt81XX1Xb/PVBlReIPvB9Vaevtqk6VXm+VNzy7HwoVZbTPvjzU/vEadvoZyezn11ZlKrTX3mqD/7K43b6BkoamrVeuXjCexu/LIzEEHC5LC1vMo0aNZJT0TEv2d/CJ4Tpf/iHf8B7770nfy7lTBmMMN+7d0/+BGpVp7dRN2/eQKcObYtGmQUAhQrgqZMRh22LBsp0jHIHzIQZDyzfPzkDnxwcJ6cgk1PCbSYQlTUo95BgR8Aj3HFQ3fHlHWUUmTnAowUgd22WItMZ0hMjECngWEGxOR0iPyqs9v0bZOyTVfRaRq3Fg0J8VAiyUt0y3aNf2wxMG5CN1eIBY9+i9ji7povcz0bE3ohCex+DgBsj0OK8ub69Hz7aO0Ku6sgHMc7AUd7gme3hvOgXd05G5xa1xP7mvi0MzvxeZ9VIw7atm+X3Xd2kmSLGNC7OeGGGZkIvH8AZSeYvYVbitYPXmiZNmuQDtvnzTPcYNWqUvBZR6qaurjlWUoDgD0oC7eekbSyDPr78zHU69fPVNlUn/Xy1TZXnq06K5TlpG338tY0yl2cn1TZVnq96lZ+dD+WkD5TyC0R5TttWXD9/fVBlFccvUNLQrPXKxZPezvjF5Q3s6tWrWL16NXr06CEjNb/61a/wk5/8RILx3/7t3+Jv/uZv5CvTMPj+L3/5S3mz69y5M9auXYtr167hq6++yv+S+TOleXNmIT7GXWS2DK70lxAdhmnD2wkgnVeucpgVvDASyJXi7hwc64kql31EmXDMAW5MJ+CsEhwEt3t+O6ycmCMH4vVqk46ayS5ESDA0IFGaGY6Fmfd1ca0AQAnfhM+K0viQEyqOYwitSilNlMGyQj1lG6CvIuCFU3iKawUgbe6LYXyoiHWHoFmdeJmysmhUY2yc1gKHlnTAJfFQItNdOMhQgPTLSOPgLxV8EDPPviHPv3LyfZAPs+cXYefiwfIBl8fOfH7xHOF3e8TQwXj69JnnW29AM/OTk5KS8qFXRYyZLtamTRs5p7ydzpw5g1atWsnP8jNmaObnmQf9iWcQotMbP6+FduLnzYBgV57yozkpz5+fAiu+OukDX/21zYkffVS9djKX56QP9LXzc1oW/bidvv764LQ8J37cpvpgVydlbpu/8pSfvz74K6u4ffVVJ8UyVF/99cGJX3GloVnrlYtfEG/jSa6+aIw4c7XA27dv4+TJk9iwYQNmzpwpR7a3b99eRn3q168vX9u1ayfzlrmduYUnTpyQI9X5cytTMtQXyGxW9VNffvkFunfJRVDFdwqBkAEvFdGxeRauHZhRjiLMRjtkvvKJWXI+Xs6KYA08gTOZesGIsoBl5uFyJovDS3KxaUZLjOiSKQfkEfTcYUEeIDRAkK/FgWTzZ3kMFBArEA6u8r40Hhv6sL7oiBBRdyjiIzkQMBzJMRGoFutCSpwbqYUsUlqalxnvF/blZ1lGUnQEEqLCEOeuilhXqMxtZzvZLsIZ25IP2Gawzu+7M7guEo2WnzW2Ma0jOSZUQHScfCjZt6CdjOYzN1zmjYtj8jJSOAjPN3YMwJ3D4+V83nLgoOfhreh5+nKN30+uHDi2fwvERRZO0+A+rVLhd2jcoI64thyX33uK0Dx+/HgZaVbgq4yRYuYzb9261eNdWLxm7dixQw74U5+xijR/+umn0l9db6zE65MT2FB+voCD76trqr/ylJ+TttHXl0rSNjs/bituH5z4+Wobpcry5WOu02l5gegDtzmps7h+fLXzc9q2QPuptvnqA9934ldSaWjWKjfiya2MJz1NfZGUEaCZC8hFUDiHKm9Oa9aswcqVK+Xr9u3bJSjfvHlTDvYjKKsvjzJVNs1cpzKlPbt3onbNdAnN6iZLIwjVTI3G2tm98eiSGhBlfcN+OWbUzyjfvWPTcHvfcFzbrmC57KLLxmwXBpAx1/b4ik7IG9VYzhhRLyMKCZEEZQ/seSKlEvhM+9KX8XMFYGxEdFkG3ycQE1IJrIRhQmxafCSqJ8WgQfVqaFc/E71bNsKITq0xsWcuZvXvhkXD+mDVmEHYOGkYtk0bhe3Tx+TbjhmG7ZoxFjvFqzL1vtl3q/js+onDsGzUAMwb0hPT+nbGuG7iYa19M3TNqYcWtTNQJzUe6QlRErIJ6gkC2mMEWDMFxdw3wjShv6Bv1vvC2+iXv0+F8T3mfqfEhqF53TiZG751Vuv86e4IzmU7iFCdY6Kenf1x59BYPFCrD75icOaMGgTn05vHoVWjDAnN3P/yYUSYzG0W/x87anj+95+rk6q8ZLWoidmYosGxFh9//HGhawb/vnXrFkaMGFEoSq2M/+f7M2bMkNcnX+L1idcuvvqSukb68mO71HXQl5+qk37mfnmrJH524ued9sGpn6rTlx+30Yfmqw9O6qS43V9fKSflqbY58VN1lvY4UE7KK85xKK6f0z4Ewq+k0tCs9dqJXwR+MZibTIjmYBze5PjK/6svqfkLw7/tzEp8f9TwoQJygmFe+U9G+gSk9GyXjesHpuPhxVcJBKzbk7N8YiY+2jdawFFfE8SUESwTwDywzCnTts5shQm9a8tp3hKjBBgyokwo9KRf+ANB+nK/EiLl9G9if9P4Pvc/I8UEz1rV4tEkMw1t62WiW7P6GNGxFeYO7olNk4fj6MKp+GDNAny6bQUe7FqDL/esw8N9G/D1gY14cmAznh7ajGeHt+C7I9vw/KiwY9st7YXFe1b2nSjj2ZGteCrKfCLKZj2P9m/EV3vX44s9a0UbVuP2pqU4t2I29s4ZjxWjB2BK747o36YJOjaugxZ1q6Ne9WSkJ0bJKHiMy3jAUA8JNBmVFsb9YLXfzCb3t9jX3Of8PyPQKfHh6JSTjEWjGuHAovZy2r4bngGZ/HXA6tiW3oxzjuVz1o1PjkzEZ6e46qA6X73P4ZdjfLD9UtQ/eUhbxEdVleBs3ndVKryN9m1a4u5dI/rLawh/qeJMF2ZoVvDL1C9u47SYTNPgrBk0/hLG8ROZmZmF/Gn8Pz/H+Zz5gM/rl514/eJNn6924jXKDCW+rmX081cet/mDDb6v/HyVRZnLs1Nx++CvXm6jn68+UKptNCd+vuosSR/4aidz23zVy23F6auvOilVHl+d9MFf25z0geWptjntgy8/c9t8+ZVGGpq1Xjs5/TLQz4lZ6c6dj9GmZTOEVHq3ELQw4pkS78KiiV3kEtmMYlndpF+OCWA+M0/OZsAp4zi3sjFdXNnAsjFnMGGLg/q6Y/WkZmhVLx6p8WEy/UKCrwNQ5v6kqZxjfo7vE7YZPabFu6siJysdo7u2xcZJw3FhxRzcEhD6ydbluL9zlYTixwJSvxHASoDF8R3AyV3A6d3C9hivp8wmtnF7WRjLNtcl6xfGv0/slCD+7PBWPDm4SYL85wLq7+5YiY+3LMP1DXk4ljcdC4f2Qc8WDVErRQCZAOiocFpwfkqLeV/J/Wfan97G7WowIUE8MToUmdVccpEWwrM6nmW6oIo8D3nOcOXBgfIXECPqbHUel719KYzzNx9eOwqNspJRpdJ7hfYZf02qV6cmjh455LkCAJcuXZKDjwnN3hFjBcFM32jevLmMOtNatmwpZ9ywAmYaI9RNmzaV89DbyQmU8LpVHD9/sOEUSpSfrzop1TZf5Xm3zc6Pdany/PWVPjS7sihVnpO2OakzkH7c5rQP9PHVB0rV6c+P5dEnEH2gn9M+sDx/bTPXaefntG2BkIZmrddO/IIE0qx0/NhReRMNFtBsvrlWqfgemmWn4vjGMXJOZqsbdJnbecLyAnx6dLIxG8a2XmUMyypvuafMl505uB7aNkxCekK43CfGjBf+QVlG6c0mIJA5x9kZiejTqjFmD+yODZOG4fD8ybiyegHuCED+Yu86fCuAU8KpglGzEUy5TcCpNMJzebETNNEmM1gX6YMB1k8ObML9Hatwc+MSnF0+G7tnjZXR6fHd26N9wywwt5oztnCfmfch96vV/lbGBxjCM+ePjnEFi30dJWfhWD+luZzNpGyjzsI88HxjW1+ZY//ZSaZsvJqIMwcF3j4yW86pbkTxC/YdZ9FITY7DimVLPFcAI6+Z08oRjAnOZghWIMz3GT1OTEyUxvf4fzM0K2AmeNOfkWg13ZxZvBY5hRIFG07ghX521zmKZTjxK07bVHl2Um1zUp4TP3MffPmZ22bX1+K0TZUXyD7Q7NpGKT9ffaDMfbVTcfpQ3L466YM/P3MfnPqVtTQ0a7124pcnkGalDevXIiM1Ud5MzQBCaOnfqQE+OjLrlQ0A5ECrj/ePNqLLJjApCyMwX9/WA6dXd8bCkY3RrnESqsVVlfuCsExwU/vH22TOqAfuVKpBQlQ46mcko3uzBpg5oCt2zhyLCyvnyKgro7AyakzIPLsXOCOMYKmg2ApMX3dTsK+Amv3mq9j29NAWfL57La6vz8OJvGlYO34IRnVpgzb1M1EjKVamrhCIuV9l9NkPQMsFWMQx44qItVLdcpnwbbNb44NNhOdeuGZx/ANm8hxlysYgfHJ4Eh6Ihz6rc7ssTY09mDmiAxJjwsS+KEi7CguugGhXKCaMGy2//+q6wLETrVu3LhJtViBshmFvWLYC5oYNG1rOusH6nNz4zX521y6KUEI/mj8/J1Bi9rOTdx/syvP2s5Pqg5O+FrcPpW2b8mOKjS8/cx/8+Skf/m0np30oi77Sz1fblB/NSR/8lee0D/RTx8HOL5DS0Kz12olfjECalebMmoHE2EgBhgULmhBQ4qOrYtqwdnhw2jO1lteNuayNC5NwgQlGB41FJywAJUB2fbtRx7opzdGtZSrSEsIFmBmRZXOUzsoIcMwFJywzmszBcTP6dZGD6xhJ/XjzMjzav8EARhVxNUeNveHy+2Tsv4xOE6Q9MC3+5gPFAwHRH65fJHO4144bgsHtm6NmcoxnfxspHFbHQxkfZJi6wWPIvOcGNaMxrncWjizNLeOBgjRjpUEu083FdeT8zi/xO8QUDa4UuG5OH2SmxogH4oJpJLn/+IDcs1unQtcFvu7evVvOzKPAWYGw2cygbDZu42eYlsE85/Xr1xdZtpt1FAdKFEjYyWl5TqCEUuX5q9Ncnl29TttGP/r48qOPuW2+ygt025QfX+3kxE/1wV/bKHMf+Bkr8X2nfv7aRqnyfLWNPubyfPWBfsXtg696zX52Un6BkoZmrddO/BIE0qzEiFNsZBjCggpurMxnzkiKwtIpPeSiCS8tn1mmY8yXS15f39HfgOUyBGZGljnP7+GlHTCuZ23UTY+U/Q+p4gCWaQKs4yKryrSCaX07yZkqOEjv0T4ByScFEJ5REVUNyY5NgTSj75599/zodtzdvgon8qZjxeiBGJrbAg1qJOcPxLQ6PmZj5JnwzAVU2jVKxLJxTWXUmUt3W50XgTIJznJ+56FyZcGX+fBJaN63chgaZiUhqFLhFT4rv/dbtG/TXNyAv/VcBQwRcletWiWnmSP8eoOzHSybgTkrKwsLFy6UU196izd0X3BA8TqloMQfIHC7r/LUdY9l0eyugdSraBu3qbb5qlf5OWmfKs9XX4vTByd+bJOvtpW0r3Yyl+ekXvo4Lc+uLEr5+PNjecrPTk77QJn9fMmJT3GkoVnrtRO/WIE0K40YNlgOxDLPnMGp5mqlxWL93L74Wtx8rW7KATcBFIzIMR2DK/mVeXR5mxFd3jC1Bbo0S5HLWAdXqSgBywwYdsZUDA5e69WyIc4snYVHBzYZkdJz+w1IJvxpSC69KYgmQIt9+0K8d3fXamyZMhIZCdHy4cYJOPMhx8hJryRXHhzbMwuHl3TAzR0vIddZ2M2dA3D36CR8fvblTE3Hwbscj9CsXqocn2DeF5UENLdu3gRPnnztuQoUiPnNe/fulXMvBwUFyQVKFDxbATNTNegTHh4uYXvTpk1yrnmzeO1R4OIPNujDmz/97K5ZTsszw4ZdWZSqk6++5KQ877bZ+amyaL7aRj/VPv5tJyflqbapskrrRyk/vlqJn3XaB3NZvup00ldK+fkqj+9zO81X25z2QZXnz684bVNl2flRyo+vgZKGZi0tCw0Z2E/Cnzc0186Iw+aFA/DkylLLm3IgjVNkMX/59r4RAjQ4M0a3ovARQGNeKxcnWTiqEZpkxUroIkzZzdRg9T7TA6IiguWgvmeHtgig26ch+WUYAfriQXy0ZRnqpSdZQrP8FcD0f7PxYSeEUWfxkNSrdRp2z28r0zU4w4bVuRIYM8D5+o6+uHNoghzcWtbgTGg+vXk8WjRILwLNjDS3zGmEr7zg1qx9+/bJRZUIz5xvWcGx2+2Gy+WSfzONg6uWMrpM3127dlnetM03fjs5hY3iQAn9aL5gg34KNkrrV5774LROyomfd3mlrddJH6hA+hW3bf78At1XJ2Xx807LK640NGtpWWjo4AFF5mgOqVIRWWmx2DivH55cXipzJK1uzIExAcxc1W/vcAkYZR1h5spxlzZ0w7SB9eQgMUaWmftqhgplYaFGXiz/5pRmhbZ5oJmLich0DOblWkGetsDbmb1yCrvs9ERLaI4ON6avq8ptpveVMa2Gs6BwkZT2jZOwdVYrA5yFWZ0zgTKe21y58pND48s84sxp505sGovm9dMsI82tmjXGo0cPPVeBAvEGrG7SnI+ZiypNnToVAwYMQLdu3dCxY0fk5uaiS5cu6NevHyZNmoQtW7bkL5XtLd7Iaf5u/E4BwUl53OYEIpz4mdvm1C8QfS1uH2iBaJsqz5/fq+orfZz4+StPtY3mpG1O+/oy26b8VNt81VsSaWjW0rLQuDEjEeOuWgiajZzmSCyb2gMPOUezxU05MJaH+yfn4PYeAcybyx6YOZXcRQHMMwfVR0p8mOyn1U/74cLCxPvR4VVQLz4UDRKqIsoGmmdqaH755gOaCcm1Y0ORk1wV6VHBcgU8PvyYj50yNdd2mwaJcnaNlwHOMuK8va8A5wnGEtxlBM6PLy3B/lXD0ah2sk1Ocwtxwy2cc8mbrgIE8w34q6++kqv/Xb16FRcvXsSFCxfkK2fc8LXanwKE4tz47aT8aL7gQNXpDzjMfr7KU23jq53MbXNSp7++FtfPV71O26b8/NVJOfFTbStOH5weV39+TvvqtE5/fWAZgeqDapu/OimnfiWVhmYtLQvNmTUdibFuhFYpuLFydoKEqKqYOrwdPjuzsMwGMHEFtY88KRllHmGWM2T0kNPJZSRFSOi1BGYBWASvjOgQdEyPwJRGsehfK1JAsxG9VH4aml+h2UAzjw+PX4tq4ZjcMBrD6kaiSVJVxLuCxfGyTtlQn+/QOBkH8trnrwBpdQ4FzCQ498GnR1SOs/X3o6QmZ88Q0MwxCbVSY2W6lepvRGgluZBRr+5dPFcAQ7zx8iZMK+1NmDd+BQhObvz+6vSGEjvgUHUqPzs5aZu5DyzPTvTjdn/lqbKc+LE8mpPyfPXVadso5cdXO5n3idO2OfWz6wPlxM9p25zuE/q9ij6otvHVTvRT5flqW2mloVlLy0Lr165GRkoCgk0rhxEiCM79OjXA7TKap5mzZHx8gIP+yh6YWQcjiJtntkLDmjEyr9UamCsjNjwIjQVoDa8bhQXN4rGsZQL6aWguX+YDmhlVbiageUaTWCwVx46v3Wu4UT061HOMCx9zGn9ViBTHfXDHGji3tgtu7+xteR4F1rrjxo7++FSuIGj9HSmp5c/TPLIDkmLCZb5+fl+DK4jzNgRjR4/wXAFKduO3k/cN3RcgcDvL4qud6KdAwpefqtNXH8xt8+en6uSrnehHH9U2X+WZ/eyk/HyVRak+0HzVad5vvvy4nb7F6audzH52dVKqD/7qdOrntK9mPzvRjz40u7Io1TZffnzf3AenfnaiH7fTfPU1ENLQrKVloeNHj6BenUzLFQFz6qXg2IYxMmrlfWMurd09Mknmd5bV6n5mu72jN44t64huLVIlYHkDsxGhrIwkdzDap0VgemMCVzwWN4/HkhbxGprLmzmAZh7DJS0S5PHLE8dxRHYU6iWEIrJqUBFwlp8T5SREhWL5uBw5KLBsBwbSjPP+5u4h+OzkHPGdCNyDqVwR8PBs9OlQX+yfwr+oqBUBly9dLL//vOnyRu3vBuz0Rq386GPnp+DAKUj4q1eV56ssSvn5Kovvsxwn5Sk/J21TfnYy+znpgy8/vq98fNVJPyd9NfuxPDs/blN+dj6U076qspz6+Wob31f18tVOxe0DfQPVB5qvtvHzqjx/9QZCGpq1tCz0yZ07aNuqmfzJ1nxzZb5vtXgXFk7oIkfiB26uZuYxz5IrphngULbQzLmYmau6ZExjxLlDJByrPiojRCW7g9CjhhtzcwxQXiRAi7ClobkcWjGg2XwcJzaIRpOkMDmo03ws5WdFGTymLbMTsHd+O9za0cvyfAqobeY8zr3w8cExActvZmoGBwEeXD0SDWolFhkEGFTxbdQXD8lHDx+S338FCU5u/Hz1JeXn9MZPP7t6lR/NSXk0X31QfoGAEnOdTttWnH1iJ27zV553Wf76UFZ+duI2+vjqA6XKKo6fv7b5K8tpH8x+dnVSysdfvWY/f31QbfNVb6CkoVlLy0IvXjzHyGGDi0w7RxghYPZqVxfX9k/HwwuLLW/SxbLzeRIOVFoGocESJgJot3f2wtFluejSvJqMJnLmBDNEEJ4SXMHoUdOFuU3jsNgDzBqay7EVE5rVseQvBxMbxMj0G7fHXx1P+XmCs7BZg+vLc6fso82GcSGfeyemW39nimlMzWCe9JShbRAfVbXQEto0QnO71i1w55M78ubr7wbM7f5u6JTy46ud1I2f5sTPaXn089c2f3VSqiy+2pXn3TYnfv7apur01T7lp+q1E8vxV5a5bXy1k3df7eTUj9voR3O6T0rrV9y2Baqv9HPSB1WWUz9/dfraXlxpaNbSstG+PbtROzNd3FDfKXSD5QCiGtWisXJGTzy6tCQAAwLzcO/4TAEJ/QQslD0w0z7a2RvLxjVBjABjcySdRmjirBgdM1yY7QXM+aAl3uubGYloC2jmstnzBvfE4/0bNTS/TBPQfGPDYtTLSJYPdubjyl8NGE2e2qgwNJuP57j60agVGyqPp/mYGkunV0afNuk4sbyTTOshOJf1ktscCPvR3hF4cHpe/nLb/K4xzYLjCZx+7/hrEFfw5FRzrRqmy3EJ5n3Dh2J3eDDGjRklb67KfInbfd3MKfr4u6FTxYUNX37cpsrz1T7VNn9Qovx8lcf3zX3w5eevLMqpn5O2UU72L8Xtz549k/52Yj2qPF/7jmU5qVf1wVdZlNnPl5QfX+3KM/fBV9voRx8nfsUpz0lf/R0Hylynr/Lo56+s4khDs5aWjbgKWI+uHSU0m2+y/JtpGh2bZ+LGoZmljDbn4YFn8J9cwOQlQDMH/32wuTsm9q0rHgAIECZA8rzWjgvBZAJWy8KAJSHLA9E9a7iKRCarCgCJcYVg1bhBeHpos7HohhXgaQu8CWi+vWkJmmSmyXPUG5qzBBATjJe0LHw8aerBqH9WJGIjDFBWn+XxZeS6fvVoOXezGhBIaGaKT9ktgsL5m/vi/okZ8jvGdCjz4FtCM6d+pPkalEtgvn9mAcYNbGlEmU0DAGlVKryNRvXr4MSJY/J77+sGTKkbvy/xRl5c2LCr19vPTvSjj9N6aXZ1UqoP/vqq2ubLz2nbzHU6bVsg+0B/u/L4vvLzVZ7Z72X21UnbKCd+rIf10sefH8uiOemDEz8FzHZ+fN9JHyinfsWRhmYtLR+aO3sG4qMjUDWoYHoqGn/eTYwOw+QhbfDpiXnyxmx1w/Zr4sZv5DIPtICGsrGb23vhzOrOGNSxhoD/wtBMuIoMq4KeNV1Y0KxolFkB1tycODk4kD/bF9ovAprj3VVxcN4kz1LPejXAl2YCmj/dthLtGtTyHEvTg56wuPAgDBJQvNQr0qyMKTdTG8WgXnzV/M/kf16UFR8Ziqn9s7FNgPPqSc2wfXZrHF+eiwvru8ppCwMffRbQvLUXPjk0DvdOzsVHR+fg3PaJ2LNsKHYsGYyjG8bgw/0zcPfkPHx+bqFl9Jn/Zz7ztsUD5Wqe5mnmaBwQyO/2iKGD8ezpM8+3vqh4I+cy2DeuX8PRI4dw8MA+XDh/Fvfu3sWTJ0/kzd4s3th9wQGlfJz4snx/PpSTsrjdSXmqLH9+LKs45fkStzstS9XrS6pOX+WZffz5OWkbpXx9SdXnrzynfmp/OC3Pn5z4cbuq15dUWf7Ko5z4OeknRR9/bSuuNDRrafnQ7du30bVTBzm63hy5ozHanJkWI+d95Q26+FPQGf53j04VsMHo3ctJzeBgruPLO6JX63RLaI6NCJJTy/Fne5oVXI1vEI26Aq7MC2Rw/zA9IzM5DlfWLDBSM/QS2i/PTu/BV3vXYVSXNsZqluJYqGNDY+56h/QIzLd5GGLaBtNxWqWEG78gmI6tsqSYqkiLD0NKXBhS48NRNz0KXZunYuHIRji9srOE5kCBMwercln3vXmdMWlQC7RqlIHMlGikJriEuZGW6Eb9zET061gf6+b0we0js8V3kINzje8VX/n/s9smoH1OTXl+EpLN/QkV3+usmunYsW2r5xtfWIxQnT9/HtOnTUKbljnIrJGC9GrxSBNWPTURDbOz0K93D2zasB6ffXbf8yktLa03VRqatbT8aO3qlUhLjpfgbL7h8gZM4838xMaxlpEunyZ8OQCQkTQDFF4eNB9emotuzVMMaDb3SYBSgisII7KjZRqGNzTL94R1Z2qG12wLMo9WvLbOrok7W5dLiLOEO21lYyd34buj27Bp8gjEuENl1F8dGxofcIwUjZgiec00vjdHQHO7VAHN4tjyXDB/nsbUBqb08LzhsvJ85WDZZAHTnXKqYcecNri2pfQRZ6Z8nF3TGVP610V2RhRiRX/4EBBcuYL4HgqrUkH8/T5CxWtkWDCSY8PRs102Tm8ZL75XBakbHwmQHt4rB7Eu8Xmv/aG+v+PHjMKTr7/2fNsLxPSsRQvmoUF2LcREhsnPB1V6R05DyVl1giu+Y1wT2P+EaPTq0QVnz572fFpLS+tNlIZmLS0/un//Hvr37SlXB/SOVPFGTmjo0bYuru6bZiyv7RCcvzy/WA5y+mjfcEtwKCtT0Ny1BNDMeZonNIhGnbhQhIYUjrxzgBUjnKM6t8bDfesFNOtBgC/dxD6/vj5PRvsJzd6/jkQK44qO85sV5DErcwLN3sZzhxHsYObGi79bZMdj7eTmApxLNssGYZs596dXdcKwzjVRLTbMA+fWS7vL+sV5R4BmO9o1rYH9q0bgyeWlcraM6cPbo1p8hPTx/iyhN6dRfZw+edLzTS8QUy4mTRiLlKRYCcn87lvWL96TMO0Z99C6ZVPs3rXTU4qWltabJg3NWloOdOzIITRtlC1uoIUHBdIYfeOMEYO6NsKH+6Y7nlHDgOa5uLV7iCVAlJWVFJqZCzuraSxaC6hi3rP5czSCTVJMBPbPnYDnx7brQYCvwk7vwaP9GzEstyWiwgtPl0gjWKZGBmNgVqSRfmMC55JAs9mqirJZfqt68dgzv60AYEaciwfOzLe/tKErJvWtg+Ro8WAmB6oWhVUr4/lHOO7SqjaOrBuFJVO6yVlu+P30LoMQnBwXhaV5C/Hs6VPPt9zQw6++wvy5s5EYF2mZlmVnYUGMgr+HNi2b4YPLVzylaWlpvUnS0Kyl5UAcCLRy+RKkJsXKG673DZM3Zk7fRnC+tHsKHl5c4jfH2YDmOQKaB1sCRFlZSaCZQDVLAFVuegTiIgSMeYEEI/CMuHdrXh8Pdq0GTmlgfiUmHlSeH9uBfXMmoFqsSxzfwgPfaMxVzogOwQABzgvlsS0MzW0IzR4/78/6M34PCOv92mfg9JrOMs2CUWer89DbDMDujvVTm6N2qlsCcHHbwPrjIkPRokEqaqZES+D1hl7+n+friKEDi+Qhc+DQ4UMHkVYtQXzPnQOzMg4qjBTfg6GDBuDRo0eeUrW0tN4UaWjW0nKozz9/gEnjx8ElbuSMKhW9YRoLe/TpWB+XBTg/ubLMJzjnR5r3DC0CEGVpTqB5pIBmTk22vGWCTMngVGXNq4VJYLaKQAZVek/ASlXsnj0Ozz3wZgl12srexL7/cs86DOvYSj7IeOc2E0SZ35wSGYKOGRFyxozlrRKwQtisJrFomlR09gxlMppa8W0EV/wdQiu/iwivdCV+huCanhiOdQJ+eb45TdNglPnEio7o2zbdE+kuCqxhQe/7rJ/Gz3F2G5o3dBOCmUqR264Vrly+5PlmF+jzBw8wbPBACb/eqVgu8Vnv+ov4CGM6R0ZKIvbt3R3wkftaWlqvVhqatbSKoY9u35Kj5Qkj4SFeMCKM0THe8Pt0qIej60fj4cU8PL60xAaa8zw5zSM94PByBwLaQXOijDRHYaYAqDH1otG9uksOIGP0sWpIga8yCWXic4PaN/esAqiB+ZUaZywRx+DyqvloWKOaOMZF83El3IZURnR4FTRMrIo+mW75YDS0TiSqRwdbAnO4OM6pqSnIadMerTv1QHaDRoiNchX5HvA7EC0erkZ0y8TF9V1xQ8Cw1XnobTwvt81ujZrV3KLMotFhAnJaehqatemA1h27I7u+qD+yaP2Gf+H/G+9Vlr8SNayXhUMH93u+0YV19sxppFdLKALDav+lZ6SjWdtctBH9r9eoCWKjXUUeoAncHIg5dvRwPPVK/dDS0nq9paFZS6uYunLlMrp1yZU3a6tIE9/jTb9V4wxsmt8f90/Nx+PLRfOc5f/PLsCdQ+M94PDqoZnwGxMehGbJYTKyXDMmRK76R8CyAikOhGREr0ODLFxbn2dEmE9YgJy2l2syTWM71owbjJpJMTJNwxucaXxIYqoNFzSpFRuC2nGhEqS9jzWBtXpGBvqPmY75m49h8a5zmLJsG1q274KoiNBCZRNY+fkW9RJwelVneb5ZnYdmu+6ZbWPxmCYCuIPl98dcP6O8GdUzMGDsTCzYchyLd57FtOU70KJtp/zthfy9TAJz5fdRt1Z1bNm8UaZbeYtRYU4dV/R7baR41KxVC4MmzsGCrcexRPR/2vLtEt5jIsMLRbz5N/07tG2Frx8/9pSupaX1JkhDs5ZWCXTm1Em0b9NC3oitwdlYNbBORhzmju2EW4dn4ZsPlnktgsK/83D32DRc20qweDnQfHunMU9zjxapRaE534IQLl45sMsqHYPGQWYhAsZystJxeP5kA5h1Wkb5MLmwzC48ObQZ8wf3RHJsBIJ95OgqeOYxLwLMfF+cyx17DUTejrNYffg6Vhz4AGuO3sS4eWtQvUYNhAcXRFsJzTz/a6dF4siSDo6g+ea2nri4vhsm9a1rpGaYoJn1E8y79B0m6j+TX/+64x9h5IylSKmWJEC1aLRZGT/PAXo106th9Ypl+NpiejmKM2bMmztbfp/N3+mIUAOCuw8cLWD5AlYfMupffeQGJuVtQO3sbFQV+zbfXxjra1A3C48ePvSUrqWl9SZIQ7OWVkn0Ajh14rgA55byJuk9S4EyTpeVHOfC8J45OLZhjIDkhfj68lJT1JkrAs7GjV0DLGEi0HZje0+5DPL2Wa3RMjte5p9aQbM1SBsmoUDAMqOXzWpnYPescZ4IcwAWMmEZZrPyeZMtkP3n58VxebB7DWYN6Ia0+EgEcWo2m3PVzgiMTEHoO3Iylu+7jBX7r2DZ3ktYdegaZq7ag0Y5LWSub4G/Ab2ZKS7sWdAGN8U5528wIPOZOS/zyG61iuQzE1oZzR06ZYGo+wMs99RPeJ68ZDPq1m9QCNrNRvitWuV91KqRipXLF+Phw688X+CievjwS0ydMrEINPNv7oPhUxdh5YGrYh8Y9a88+CHmrD+InNbtUbXyu4XqZV5zVo10fPH5557StbS03gRpaNbSKoUuXjyPLp3aIyoiROZL8uZqvnnSmONJeG6enYp1s/vg5uGZeHhhMR5dXIIvL+ThwZl5+Gi/ymsuO+P8tx9u7SHzRru3SEV8ZIhle30Z0zEYQY9xhaJj4zo4NN+zXHZpAI+f5eqBZ/Yarx7Yk4uj8L03PXrN/sq+CmM+uLn/tNL2X5T55MAmLB81AA1rpMjcdD7wmMHQlxnQ/D76jZwioVlBq4Tm1XvQuHmrwpFWBc3VXNg1t40xg4afxU4UNA/vUlO2zwqah03PkxFetkHVzxSReo2aFoL2gs8ZcyjXq11TLlD09Ok3nm+ttb788gs5N7MdNI+YlidAmdBs1E+AnrP+EJq1yRXf/aLQTFD/7L5eJVBL602ShmYtrVLqyqWLcvGT+OgIGdWyAlGCRJiAzYykSIzo3QyH147EvVPz5ZzOnGHj7rGp+HBb2S2lrebLXTO5GXLqxMk22qVdeJucjcCTisHVz7LTkzCpV0djqWwCHs0K1pwYgVBA3TeHNuOjLctwdvksHFk4RdhUXFg1F59uXylXuZMwfbIU9ZRXk/3ahUf7N+D6hsU4uWQGDi2YjON503F59Xx8tnO1Med1aZckF5/lfjyyYAoGtM1B9cRoCYOEZx5bq5kqlJUbaJ62yAaamxSBZvaNg3VzmtTH5s0b8M03voGZ0tCspaXlTxqatbQCoFs3r2PiuNHISEkQIGL9E7iRxlFJzuOak52CBeM74+LOSXhwdhEeXliI23uHWQJFaU0By4ZpLdAkK1ZGvQk23u1TJiFJApUA5SoVJMAkRIWhTloCBrZvhr1zJuDx/o2lAzkOFhSf//bIVlxaNQ+Lh/dFzxYN0CQzFXXTE6Ux9aN/26ZYN2Eobm1aghdv0oIp3G+iL4wAnxKgPKt/Vxm552wX3M/1MpLRMrsmhndsie3TR+OueHhQn7Esz4l5Pn9/xyqsHT8E3ZrVR61qcYh3V5XHmMeax93yfHjNoJm/+iTEurF9+1Y8e+ZsBgsNzVpaWv6koVlLK0DioJ+lSxahblYNCR8EZ95szTdTGt+TizC4Q9GlZRY2zu+Pmwdn4u6xybi1s1/+TAKBMuaU7l3QFm0aJAoQJhAUbo8yORMGo47iNTI8CEnR4RKqOjSqjSm9O+Howql4dEDAMuFLmRWcOTGmDBzcjG1TR0s4jhCQRdDiviEw0dTfhKiuOdk4vmgavj3qibpalfk6mejDF3vWYunIfhKSVX9Vn9XftKQoAYwCni+vmY/nx0u539VxO7kTX+xei72zx2Nizw7IFcdYAnRkWJHzgm143aCZ0JqSGIubN294vp3+paFZS0vLnzQ0a2kFUFySd++eXWjbujmi3VUlOJtvwMokiAiw4BRvqQlu9MltgF1LBuLi5gEylYL5x8VdgtjKWAbnyh0mYIRTeVUNtoZ4A5SDkZYQiaa10tCvTWMsG90fF1bMwf2dq2X6hIQuRjpLA200AYxPD23BmnFDBFjFGQ8YwrxhUbZLmLGtkpyl48C8iXh+QrThdY44i/5/uXc9ZvbvhsTosPz+e/dd9l+cIzyH3OIhhg8OF1bOwws+NJR2Wj+munj2IR9eCNBnl83GwHY58pwoDK0vB5rPre2MEV01NGtpaZVfaWjW0gqwXrx4jmsfXsWEcaNRIy1ZLgqhbrzmGyvNgKLKMrKbmRqDgR3rYN3Ulji9qpOECcKz0xXVvI0zFtzY1gsrxjdFVqobIVWs4Z1tS4uPksDEVIDrG/Jkju23zCWWUUkPpJYWlmmiDELfvjkTkZ2W6Fm1reh+8TZCFKPguY3q4PyKucYAOavyy7ux/8JWjx2E5JgImQLjpP8GVFfB0NwWMvcbpwMUbVfH98xefHNwE+YN7plfn6qb7StLaOY2zuhybm0X+XAXSGi+ceO651vpXxqatbS0/ElDs5ZWGYkLG2zdtAktcxrJ2TXso84GZHAbl+FOTwhH7zbpWDu5Gc6s7izhV8Gzv4id2RhlvryxG7q3TJVg7p2WIaO4wZVQNzUBq8cNxhe71+E7lTfMaGagQNlsAnZvC+hjrrLdght2xnmECZlMJ3hyaIvRPqs6yrOJ/Xp59QLkNqyNKgKseOyt+mplTOlJjA7HKgHcL1hWII+NaNcTAc3zh/SSdb0MaOZ76ry+urkHdsxpg9zGyfllFJSnoVlLS6t8SEOzllYZ6ttvv8Xt2zcxeeI4pCbF5YOzFSwSFAi3hCOmUhCeW9dPwLKxTXF+bRcBGgqc/cOzBBLht3VWa2RXj0JQ5aIDE4Mrv48G1ZPlwiRPDwsIVdObBRqUlbFcAWdbpo6UszeEin3h3SZ/VlnASPPaGTizdNbrF232RHWn9+sio+ZmMHVqVSq/h94tGuHjzYw2B7D/4rh8fWDjS4k082/jHDZ+QTmwqD1GdctCVmok4twh+eUUlKehWUtLq3xIQ7OW1kvQV199iUMH96Nf7x6Ii44QN3lGWe2hifnOIVytT9ysCc8cxDe+dx3smd9WgsYNARy+Is8Ekg82dcfkfnWRHFNVDgA0l8/p49ITogqiloH6ud+XCWDktGfT+naWwFycKKsyfi41zi3bLSG0rAC/LEyA6YNda9GzeQO8//7vLPvnz3jc+MvAwXmTgHP7respiZUxNHNwK89JGVkWxlSMFROaol+7DDSsEY14Acs8R2Wev6ecgvI0NGtpaZUPaWjW0nqJuvvpp1izaiVaNW8Cd0SIgA3reZ2VcRtzkQkxCVGhMmo8KLc61k9pLlM3CCRWP38TqM+v64IuzVIMiDHVIcsU8MUUiceMMAtgsgSpQJuoh7nSQzu2QKWK7xTqp1NjP7hiHMH7ucq5tqqrPNrpPbi6diHaNaglI+ZW/fNnPA+qxbiwYeJw4Oy+wPW/jKB5t4BmDvLjUtpXN3fHoSW5mDO0Ado3TkJ6YjiiwoMEcHLWFvsHSA3NWlpa5UUamrW0XrKYsnH1gw+wbu1q5DSqj9DK7yGkMvNbfcFzFVQNqiTTLKIjguRP2c2z4+XAqd3z20owub2zl3y9vs2A5uPLc9G4VkyR1AzmBScL8FoxegBwYf/LA08BZp/tXIV+AtYrVSwZNHIfcfDguO7tCgYqWtVVHk1A8/kVc9AyuwaqVCqAzOIYYVbmNY8ZZDzslEdoFkZorpXiwr5F7WSEedn4pujSvBoaZcYgNSFc5tLzvGRk2deS7TQNzVpaWuVFGpq1tF6hzpw5jbmzZ6B1i6YyzzWo4juFbthWRtAgcFSuWEFG6prWjsWADtUxfWA2ts9uJaPOn+zpg4OL2qNuRpQAtAqFPs9c5kY1UuTqcC8lLUPZyV34au86DOnQHBUrlCLSLF6n9nkNI80CTD9YuxBtG9RClRI+NBBmOX82F3yRS4xb1VMSCyA0G5+pItOCerdNR8/WaaiZwtlbxDlb4X2ZhsHtZn9fpqFZS0urvEhDs5bWKxYjzxfOn8PsmdMlPMe4w1Clwtt+UzdoBOjgylwKmTAViqZZsRjcsQYWjWqMecMaIjPFhZCgwpHmoErvoW39Wvhw3UIBSy9xBgoBuDKnWQCvMXNG4b44MeY0p8S5sWLMwNcLmGkCTB/sWoPuzGl+723L/vkz/kpQJzVBzlddXnOalTGNhhYsYNnfKpQ0b1hVpqFZS0urvEhDs5ZWOdHz588lPC/JW4iunTogOT5K3nxpVjBhNpm+Ecz854oykpcaH456GVGIjwwplM9MY2pAh4a1cWNj3suFZtrp3dgyeaQchMjIurldTozTtHEFwdNLZ0rQs6yjvJqA/OfCOHsG0xe8j4sTq1zxXfRq2Qh3ti6X6R6W9ZTEygCaaeyjP1iuKh6g+JDIeuKiwots19CspaVVXqShWUurHOrWrZtYvXI5hgzsj3p1MgVgVkCl9/5X3Jz9R58NgK7k+Rm8qG9Q5ffk6nqnlswQsPSSp20T0PzJ1hXo16aJZ55i5+BIkGOkeUKPDnh0cPPrOU+z6P/FlXPRul7NYg8GZHQ+1hWKVWMH4jlX9AtkpL2MoNnOOPVicMV35DkdH+1C59x2GDdmpHhYbC9XpiQoK18NzVpaWuVFGpq1tMqxHn71EPv27sHIEUPQrHF9CQIqMsfX4kCnMs6cUSMxBhsmDjPyYku7JHNx7cwe7J87AVkp8QgRDwFOIq6EOPq2qV8L55bPBs4GMJ/3ZZsAXi4mkxAdLh5gxEOQRX+9jVF5whvzwY0VAQP8sFPm0Gws3hMiHth47hKMs2qkoVOHtlg4fx5uCrj94vPPMXvmNLnNDK0amrW0tMqLNDRrab0GevbsGS5dOI+leQvRp1c3ZNeuidiocJn3zBt0WHDhwX6+TAHRpF65Bny+7NzgU7vw9cHNWDt+iARnRlBljrNXO2mEleAqFWRksllWOg7MnWi092W3OZAmAPXeztVy2rykGJfo3/u2qSpM4+BDjjs8CF1z6uHSKs8S4oHufxlBMz/LX0d4jhI+CbItmzXG2FEjsH3bFty9+6nnDAcePXqEaVMmwh0WVAhaNTRraWmVF2lo1tJ6zcSb+5FDBzFl0nh0bN8GdTIzEOOuKmfe4M3aSQSaubG5jWrjyz1rJTBZglRZGsFZQNrmKSPloMRE8QBAeGS+NWf3oPFvwjQH/vVo3gCHF0yRAwlfy7QMbzu1B5/tWoO84X3QJDMVMREhsr9MnWHf+cr/c6BnZrU4jOjUGpdWzzNguSz6XwbQHCHK4MNOUnwUGjfIlgv7LFuShw+vfoBvxUOgt7766isNzVpaWuVaGpq1tF5bvcCnn36C/fv2YMzIYWjSMBvpKQmIFYBBWOFP4VUFTJgBQBmjl1xZb9nIfnjugaaXHr31wN/19XmYM6g7WtWtgdqp8chMjpWgWDctUQ5Y5HzSd7evkmkNr3WE2dtO7sZ3R7bh7LJZGNetPRoLeGbkPbMa+x+LehnJ6NmiIbZNG4Wv9q439ldZ9T/A0MzPxLhC0apZE8ybOwvnzp7G40ePPOettTQ0a2lplXdpaNbSegP09Ok3uHXrBrZs3oSxo0egdYsc1EhPlrMR8IbvDc58j1HcRjVT5JLMz45slYPUDDCzgKqyMkKgsG9F/fd3rsLZ5bNlCsYh0abLq+fjyz3r8PzY9nw/yzJeZ/P06ZtDm3Fnywo5OJPTyXEO7Q/XL8LDfRvwIr//Fp8PlAUQmqW/eGhjzvKpEyfw/Pl3nrPUtzQ0a2lplXdpaNbSesP0+PFj3L59S0agpwsIaZnTSKZvhIcUzpslCNAa10zFxknD8dnO1QVR53wTEF2WEU6aAmLvSLJ8r4zrLg9m7nuR/nu9VxbG8s/sxdPDW7BgSC95bgQCmpk2dPWDK56z0r80NGtpaZV3aWjW0npD9eLFCzmA8PKlC+ic29YyVUOBc3p8FAa3b47ds8bjo83L8MWetTIl4NG+DRKmigBdWZmq52XVV56MkeSX2X9PHVxZ8emhLfh020o5hzTPi8LQWnJovnL5kuds9C8NzVpaWuVdGpq1tL4H2rp5o7yJh4ibOQHAfIPn/wkGUeHBSI2LlCkbPZrXx9AOLTC6axssHz0A1zcsxovjnjQBKwDT9vrZyV0y/WXv7PFyJo9B7Zqhaa20/HPCfH5oaNbQrKWlpaFZS+t7oa8fP8b8ubNRLTFG3OALD9qicbo3/iTPxUPCgitJcImOCEa0K0TObNG5aTbOr5hjzOtsBWDaXi87tRtfCGCeP6QnaiTHyEF70REhiBTHvci5oaFZQ7OWlpaUhmYtre+JvvziCzlNXXw0Z9ewn5aO7xMUCNFcWZCLihBcZvTrgkcHNhp5xlYgpu31sXP75ADQuukJcoo7zhPN42210IyGZg3NWlpahjQ0a2l9j8RV1xYtmIfUpFg5JZ0dOHsbwblj49r4YM0CHW1+3Y0pNgKal4zoK6ceNAOilWlo1tCspaVlSEOzltb3TJxdY+f2beiU2xZhIRVluoYCA/ON32xM26ifkYTDC6cI4NpvDWPaXg87uQvfidcpfTqjUsXCsGdlGpo1NGtpaRnS0Kyl9T3VjevXsHjhfHRs1xpJcVHixv++NDMwKAsNroQaSTHYOWMscHafNYz5Ms9MDbb/1+bAPPvMPF9zSfbhqd1yAOCwji3lyoPex9rbNDRraNbS0jKkoVlL63us5989x9UPPsDOHdswc9oUdM5th7RqCfLGT1BQEMB816SYCKwdN8SYv9kxrHn8uHjKoU3AgfWGHdpovKcW7ijyOW1F7Ng24PBm4KBnHx7YYPy/uIu/nN6DGxsWo1tOfbl0uTrGdqahWUOzlpaWIQ3NWlpaUnJOZwE5o4YPkUtxVw2qkA8BBBe+zh/cy4AzLrphBWTeRrjbuRTYmgdsWQBsnmcY/+Z7O5YA+9ZoeLYz7hM+bOxeDmxfLPbZQrH/5nv2o3jl//n+npUCoD3zaVuVY7az+3Aibzqa1EqTOc3qGNuZhmYNzVpaWoY0NGtpaRXS9q2bkV4tQaZqmEGgigCB8T3a4xnhzO8MGgKC96424G7tNGDNVON17XSP8W++L2zDLGCXgEJGni3L+r6a2Id86Ni6CFgn9hn3VaF96NmPfH/dDGCbgOeDGyzK8bLTe7Bl6iiZbsOl1M3H2Mo0NGto1tLSMqShWUtLq5COHT2Celk1ZKSZsKBAgIPGerZoiDtbBeAK8LIEMmX71wEb5xhQR6DzZYS/9eKV4MyIs1V530c7vMmIyHP/EJqt9p0yBdEE7CPiocaqPNqJnXgu9vHCob0RHxkm027MsGdlGpo1NGtpaRnS0KylpVVIt2/dRIumjST4mKE5uEoFNKxRDUcXTbWfQYPpAQRfGR0l0PmBPWWE603zPMCn0zSkMW1l/SwPNFvsM2+j34bZRnTaqjzayV14vH8jRnVpi9CgwsfXzjQ0a2jW0tIypKFZS0urkL558gS9e3QtAi+MSiZGh2P1uEHAWZu5mhU0b8sTEOcBOSvA8zb6MarqK0r6fTNCM1NXnETraSrVxVeKxuk9uLVxKTo3qYfKDqabo2lo1tCspaVlSEOzlpZWIT1//hxzZs1AQoyrUF4zV4sjPEzo2QHfcHCar0FnjHYyckwY9gXO3CZhb7YxmE2mZ+hIszTOjLFtkdhHnv1ktf+kmfYxI/xHfTx4nN2HfXMmoG5aklywxgx6NB5fq/c0NGto1tLS0tCspaXlrRcvsH/fXtRIS5Y3fwUCEYQBAVrdmtbHzY2LjannrMCMRvjlQEBGjxn9JNApgFZG2Fs/U8D1XGD3CgF7eiBgYRP78NAGI2rPhwqrfSj3o9iH3M6ZSA4J0LYsS9iJHXghjtnCoX0Q764ql842g15keLCA07BC79E0NGto1tLSMqShWUtLq4hu3bqJnMb1iyy1TWiul56Eg/Mm+V/khODMaCkjyJwajZFnDg6kEZQJ1LuWGXM2ywizRRnFMS76UR7Nqq3FMUaO968x4Jn7cJNpH26aD2wXsLx/rf+HjpO78MXutRjaoYUBhqbjSshNjI1EvbqZElrNx1xDs4ZmLS0tQxqatbS0iujhw6/Qr08PA2BMEUnmNUdHhMjZF4q1MqBcmEPAH9M6aITpo+I9RlOt/J0Y00M49d0pYXwtz8aoPF99pbT4s6NiXzHnm7NqqH0oF4jhfrTw97Yze3Fm6Uw0r52B4MqFIZNpOJkZKejds6uMOBeGVg3NGpq1tLQoDc1aWlpF9OLFcyycP1eAR4wAogIgITyEVKmAvq0a496OVQYIWgGat0lY9AJGq/ecmgc+OWc0l4S+u30lPt22olza/Z2r8fWBjXjOhwS2u8TgbLW/rN6zMEa8xUPOyjEDUY256qYHIUIhQbVNyxyMHzNKQ7Oo21w//9bQrKWlRWlo1tLSstS5s2fRuH4dCQCEBgUEXEUuKyUe26aOKuaS2gEyAepPDm7CqSUzMb1fZ/RoXh8dm9RFx8bl0zhTxaB2OVgzbgg+3rI8vw9F+lWWJo7RY7HPBrVvVmSqOc7HnRwfjVHDh2L2zOkGNJugWkOzhmYtLS1DGpq1tLQs9c03T9GvVw8BUIQIU2RSQIxbvI7v3h7PmRrwMqFZQDrzchcN643sjCTEuqvKtpiBpTxalABRRng7Nc6WS1i/1IcN1iPq2zdnothnyTIv3dw25q03rFcbWzdvwsL5cyQ0E3rVdg3NGpq1tLQMaWjW0tKy1YqlS5CWHC+goACKaFUqvYe29TJxfX2eJ1fXAtYCbYwwH9qMvGF9BIBGyDQRphlIyBFQU56NueCM0PO1ee3qODR/MnD6JYGzqOPbo9vEQ04HCe/mVQAJg8xn7tu7B+7du4eF8+ZIaNXQrKFZS0urqDQ0a2lp2eryxYto3bIpQiq/L8FBQQF/4k+MCsP8IT0N8Ctr+GP5App3zhiDOqkJCPKa1eN1MQIr2z64fXOZ6ywjzlb9DZR59tuNDXlonV1T1F0YLqsK2EyMi8SSvIX47rtvsWDebLiramjW0KylpWUlDc1aWlq2evr0KcaMGl70J3uCQZX3kduothyEV+bgLMDv0YENGNGplQD2CjJ6a4aU18m436onxWD79NH2y5EHyjzHhdH55JgIAXcFx5DGXxCaNW6A82fP4tmzp1gwV0OzhmYtLS07aWjW0tLyqT27diKrZjqCKr5TCAyYbpCRGI0NE4cZEdOTZQjNovwbGxYLSK+DygJIzO2gEeJDQwWslDOrKqxIW0Mqy7SSqX06y2Wty+xhwwPMtzctRfuGWXIxE8KfagfBloA6ZuQwuXT6N988wfy5szQ0a2jW0tKykYZmLS0tn3rw4DP07d1dzrJghi6Vq9ujRQN8sXdd2UKzgMuLK+aiZZ0ahaCZsExLDKuCRpFBaBFVvizLVQVRom1sY36bxX5jtHlM17bGoi5lBc3MNRe2fPQApMRFyocc1QYaH4KyaqZh9y7hK/T1119raNbQrKWl5UMamrW0tPzoBdauWoGMlASEVC4MByEC/tLi3VgzfrABfwQ1K4ArrQlo/nDtQrRvkCUHIar6CaNVhdVxBWFtWgjO1awq7ewrNqMNoRgaH4w4Ac1hpogzAYwAO6lXbtnOoiGOxd3tK9CxcR35cGNOaWEbQiu/Jxew+eyzz+RR1tCsoVlLS8u3NDRraWn51Sd37qBzbltUeu9/C8GBhK+gihJmH+5bX3YD20S593euQr/WjYusZhcigDRTQPPejFCgQZhh9V+9fZddFcMENDPSbIZmAmysOxRLR/Yru5xmAcwvjm3HgqG9kRgdLo9RoX0mgDldPAStW7fGc4Q1NGto1tLS8icNzVpaWo60fNkSJMVGCkDwgtYqFZAUHYFlo/rhO656VxbRZlHm08NbMLFnB5kTbI6aMm84RoDp+IRgPK/ngVa+vmK7klkVzSIFgIr2mdMzmJrRsEYKji6cCpzda93f0hgj1+Ihg9MBNs5MlfnTEV6R7ioVf4fePbrik08+8RxdQvNjDc0amrW0tHxIQ7OWlpYjfSoAq2+v7p4BgYVnryAI1kyOweXV8wWwcd7mAKccsLzTe7Bq7CAkx7jkoDZVt0zREFDIHOKPaoeWG2hemRKClPAgOUDRvK+Yk92Hy5BvX1U2kXlR5uP9GzGue3vEuEPEvioAQBqXRU+rFodNG9d7jqwhDc0amrW0tHxLQ7OWlpZjbdqw3nKxk6oCLKIigjGqSxt8xUGBZQGDZ/bi8qr5aFM/E1Uqe9UvwLRaeBUsTgnGd9nWEFvEsqsCdQVk1w0B6tCCrY3b6Ud/q3K8TUD7Z7WroktMkGxbuKmdhC/mgU/t2xnP+SAQ6IcLRvlFmbtmjUNybIScnk/VreoPE++NGDYI9+/f8xxVQxKa9TzNJYDmDrbQ/MCTL66lpfVmSEOzlpaWY927+ymGDuovIKHwTBo0pgEkRIVhy5SRBsAx4uwNdaWxE7vw3bHtmNqnkxxIZ07RIJjSWkUF4WaWgFuraLOCZAnIwvj/hm6gSQyQEwc0TyhqzeKBpmJ7o0ijDAXXBGkbiGYu86rUEKQJiCfMm1MzGCFPjXdj8+QRgU/NkNH43bi9eQlyG2bBJfaPGf5ozGWuLWB2/749niNaoG+efIMlixZKaLWC5t4jJktY1NDsgWbx9+x1+5HTsi2qej3EBVd6B7VrpuOrL7/0lK6lpfUmSEOzlpZWsXRw/15kZ9WUYGIGBUIs4aJF7er4YM2CsknTOLsPe2ePR1ZKfJEoKgE1NqwKZiSH4HFdAbAKnLMZTRbGvwm/hOAWiUBuTaBPDjA8FxjbHZjcT1h/k4n/j+sJjOgIDGgJdK4NtEwSn48FGkcBDSIKQFwBtKjzw1pV0VzAO2G5UJRZGNs8pENzfLp9ZeCj8af34OsDmzCtb5ciy2XTJPwJmzJ5Ah4+fOg5mgV69uwZ1qxcYQPNFdBz6Dgs3X0BK/Z/oKFZQvOHmCH636hZS9H/gu8CfTnLTP26mXj0qOh+1tLSen2loVlLS6tY+vrxYwk33nChACNSQM/AdjkGGJ4ONBjuxifbVmJobksBZgbM5MMK6xeW6aqCXemheCEjvwJmCbdNBOh2zAQGtQbG9wJmDAHmjgbmCZs/1rAF44GFJuP/F3i2zRtj+M8aDkzqCwzrAHSvLyA6WZTvNoBZ1PVZ7TCMSQhGtNeMGTSmsFSLdWP7NK4EuM+6fyW1k7vw/NgO7Js9QS44I/eNqW5aiADJ1i1ycO7sWc+RLKznz59jy6aNttDcdcAILN55VoKrhFYBjTPX7kMTRlotoJmR1osXznlK969XDc2ff/45xo0ZWeS85t/usGCMmL5EpmSY65+6dCvqNWxcpP+hoj05TeoLaH7kKV1LS+tNkIZmLS2tYuvy5UvonNsOnEnDDK40wiGnVFsyoh++PrAx4BHVF6f3YNfMsaiRHFNoQCCNoEhrHRWEC1kCZFsJqO3dWIByTwN4Cb8LxnnAeIIXIIv3vU1tNxt9CdJzRwFT+htR6LZpeCzgeUlKMFLCBTCb2qTaxcgvBwDe3rw0sKkZzGMW+/jUkhloUKOaqMeI+JvrJ8QmxLiwauUyCcd2OrBvD+KjI4pCc3AFtO/RDwu2npDgqCKtczYcRvN2nSyhuUZaEg4d3I8XL154SvetVw3NnEmkf99esu3m/cfofGy0G6NnLy8SaR47dxUya9UqVD/bzs/ktmsl88S1tLTeHGlo1tLSKraev3iOHdu3IjU5thBgKSMgVk+Mxo7po/Gcq94FEpzP7MGDXWswuksbASiFp5+jhYdWgVu816VaJD4a1kVArgBlCbxmSLYAZMfmKSO/vHF4MrEf1rWohUx3MMJE3d5RXs5gwQjwzhlj8Zz7IpBpK+Ih4uamJejTupHc70X2ByFOvDd+7Ch89pnv2RxOnzwhl0xXn+Hn+RoujnFOm1zMWrtfwiKhkWkaeTvOILdHf4TKRW8K6uU5kRjrxtK8BXj6zTee0n3rVUPzlSuX0bxpw0J9Z144/05LT8PERevzoVma6P/giXNRrVqS2D8FqULse1RECAb27y2XJtfS0npzpKFZS0urRHr0+DFmz5ouACG0EOTQCI2MODfPSsepxdPzZ3WwhL7i2glhnshq89rVZZ6wN6Qy0hsZHoxOtdNwamQvA24XCci1hOASGsvMm4iHs0dhWZeWqJUQaeR1e7WF0EUQnNyrI77cs05CrmW/SmKirPviAWJiz1w5e0mR4yDqJsS1zGmEC+f9p0pcvfIBWrVoYnzWDK7i7xo1MzF+wToJq4TW5fuuSHjsPdwA3XzQFMZ28L1e3Tvj8wcPPKX71quG5l07tsooe+G6jT41bNoC01fvltCs+r50z0V06TcMbnGemfvO5eZjo8IwecJYPHv21FO6lpbWmyANzVpaWiXWjRs30L1rJ+MnbRNs0FTEs3OTuri4ap4RbQ4UOAsI//boVqweOxgpse4ig95U/RFVK6NFRgK29m6PJwJusWiiAbtWEFwcI4AvGo/bEwdieutGyIh1GWkRXm2Q0CraltuoNi5xHwQSmMX+fLh/AxYN642UuMJzV6u6w0OYJpGMzZs24LvvvvUcNXvd+/RT9O/b0wJcK8uHo0HjZxWkKAjj3yOmL0ZKtWRZl7l+fj49JRG7d+0QdX/nqcFerxKar12/hm5dcsV5XHhWGJ7ThOKOvQdj/pYTsn7WveLAVczfdBQ5bdojpBLnLS+omylLKUmxMhXGyT7X0tJ6faShWUtLq8RifuyRI4fRILu2Ac4m4KARJN1hVdC/bVNcW59nQGOgwPn0bnyxe52cLSI6IkSmRZjrphGc+X5mnBvjm9XDB2P7FUSdSwLPns8+mTMaewZ0RLfaaUh0h8qounnVPZoE5uBKqJeRjH1zJuA7tpkRd+9+lMREOd8c2iIXe8lIjCoCzDSmVLjEvp85YwoeCiB1Ii6lPXfWDJlewOOZX57oS1UBpu269saCLccL5TVPX7lLzqBB0C0EnOJvPkS0yGmESxcveGqw16uCZs4kMnsmfzEJKVQvjf+PjYrA8Kl5WC4jzKru6xg7bzWqZ9YslM/NFBU5rV/NDJw+dVKU7iyfW0tL6/WQhmYtLa1S6dmzb7Fx/VrER7sEvBSdv5mR1sjwIAzp0MIYBHcmQODMMgSE39myHENym8tZO+wiziECAGPCg9E8PQFz2zfB5TF98B0HBS6eBOQxaqzyk71sEU1sy5so7Yvpw7FvQCcMbZyFmgLE2VfOT+1dJ98nyNZMisWGicPx9Mi2wOV1i3K+FeWtGz8ENavFyjmri+xzUTej7AP69cLHH9/2HCn/4qC9Pbt2INpVVUJy4TIryEFvExasx6rD142Iq2fO5r6jpshINAHX/BkJ0sK6d+noF5xfBTQ/fPgVFsyfi1RxnLyXh5fQLyy7YWPMNuVys36mZ/QYMg4xUS5EmI4/28r91qpFU3yp52jW0nrjpKFZS0ur1OIsAXNnz0CcZ+YFb4gj2MW4QjGyc2sDnE/vDQw4M3Ir7MN1CzGgbY7MYyY4e6dJ0BgNDhLtSHCHom2NZIxtlo013VvhzPAe+GTyIHw5YzgezxqJr2ePEjYSD2eNwINpw3BtfH/sH9gZCzrkoF/9mqiXFCPLr1Kl8AIryvge86wzk+OwbFR/fH1wU+DSMgQwPzm8BRsnDUfd9ES5fLn3viZw0ji93MUL5z1HyLmufXgVDbOzRBles0gIIIwSMN1nxGQsN8OrAOhpK3aiboOGEpCt2sPjktu+FbZu2Yj79+56aiqsb775BjOnTwkgNMeJB4aPPKUXFus6c/qUHByZlpyAYLk0fMHn2Qf2PyE2CgPHz8bSPQXzU68UbZi1Zh8aN28tHxJdpl8YCN7Mi54xbbLjWUO0tLReH2lo1tLSCoi++OJzDB822PPTfuGFRyRQCJiOdVfF8E4tcWPD4sClauSD8yIMzW2BaFeIrMs7XUIZ4ZmRZ/6dGh2OnLR4dK2TjiGNa2GcAOnJLRtgYot6GJ1TR0ByDbTPrCZAORpxAvpDg8VngypapoLQCOyMMNdOTcDKMQPxaP+GAEaYjZSMdROGSmAOFe2wAlSCXOP6dXDowAGf08vZ6dHDrzBt8gTEiGNVKEVDGKOoclDcyl0CWgtm0eCiJwPGzURiXHQR2KbJdomyMqunyFklVixbgoMH9uPsmdNygCLh/uiRwxg0oK/094b14kIzUySS4qKwfdsWWTbrOH/uLI4fO4otmzZg8sRxcnBkjHgI8I4w02RqS9XKaNa6PeZuOCzrZZ2sm/X2HzsDiQmxFrD+Dupm1ZBArqWl9eZJQ7OWllbAdPPGdfTt3V2CjhWMEPQI1f1aN8HFlXMNoCT0WkFicYxliLI+3rIMM/t3RXUBuUGV3y8CfcoYKZYRYQHBjBhXFkaYdlcNQnR4MKLCgmQEMVi0t7LoB1+NvGVrWGZ5jC4TmlvXq4ntM8bg64Objf4F4sFAPGA83LcBS4b3Ra1qcbIuTrdXqA3sT5X3JJhu37qlxJHOFy+e4/jRw5YpCwTiaHcYeg4e64FIIz2DOc7zNh2VOc9cCMQYFFi0fYwAh4ltTJ2oX7eWzHdu3bwp2rTMkdO9VU9LLvQZ43PFh2ZCOs+zJg2z0bplU1lHy+ZN5P8zM1LkNraFM12YP0djfZxCrkbNmhg3bw2W7zXSMVgn65+5Zi8a5rSQD4bm84F1sryO7dvItA8tLa03TxqatbS0AqpLFy+iS247CRRWUGLk4BqzahxbNM2AwkBEYz05zkyHWDt+CFpl15D1BVV+zzLX2dvYXoK02azSPMwmYVmAOQE9OSYCQ9o3x8nFMwyID8RqiJ5yPt2+ArMHdEdKnBtVKr1XCNZkO8T/Q8T7qclxWLF8qaPZKnzpwWf30aWTcQyLRJurvIus2nXl9HMqz5czaRAoGYFu2rKt8VAif20o+pChzgtCa1DFdxBU4W1UEca/7SC2uNBsfM6AdFm2x5iGwQcLc/pHoc8QfMX2akmJGCTTMi7mp2Us3++ZZq7/MMRGuSQ0mz/L6HZacjxWiv2vUzO0tN5MaWjW0tIKuPhzeG771vnRNzNc0AixnFmiWVY6dkwfgycy7zdAUVkPgJ9dPhuju7ZF3bRECcDBhGcBgP5A2IkRyBg1Z05xjDsUberXwtKR/XFvx+rARZdPGdHzD9YswMgurZEQGSYfOIq2hVH991A9NQl5C+fLfN3S6rkcELgTGSkJRaLNrI+vLTt0wdyNR+S0cxIqBcwSLKcKkG3cso3MfybMcl+ZP19cM6A5DMOmWkDz0q1yoJ4VNBfXCPnhYv+mZ6Sj78gpWLLrvOyP6hvhefScFaheo4bXjBmeKLPYT90658o0JS0trTdTGpq1tLTKRCdPHJcRZ0IFgcIMGQZoGDNMZKXEY8GQXnIWDAnOAUnXYNR5N77cuw57507AiM6tkZ2eJGfYqCLgmQBN0CHQ2eU+KyNkG35GeytXek/Ca3KMC23rZ2L2wO64tHq+UW8AI+ZPD2/BgXkT0aVpthxIZzmtnOhDqOhLzfRqWLY0D0+fPvPs/dLr0aNH6NOrm6zHO9ocFvQe4mOj0GPQGCzedU7AbMGiHyuETV+1S6ZqJCXGydUCJdSWEJ4JzUwJGTFjiYxsm6F52oodqN+4aRGILY4xlYT7kAMQsxs0xPCpCz2QXADMfDBgXQ2bNhefCSoyJzkfWtKT47F6pTiHtbS03lhpaNbS0ioznTt3Bj26dhRgYfxUbgYNZSGM1rpCMaRDS5xeMlNAo4DmQE1LRwA/uxdPDm7G/rkTMaFnB3RqXBe1qsVKgGbdjBYHV35fpljQCv7/Xv7/6cc84oSoMDTOTEO/1k2RN7wPPli7IB9yAxYlF32/u20llo8egDppCTL9g1F57/3GwWrcpwRmDqx79jSwq88xxYCD9WpmVJOpB97180EoNTUVgyfOkXCZn8ZA4BQQvXDbSfQdOVlGgmOiwqU/4ZQArR5YrNI3zEZgrioAPSUlBZMWb8Zqz1R3sj5RxyJRB+E8tNI7nsF71uUokw8/om5GlQnaBHo+FHGZ7Pbd+mCyqIMDHFUOswHMH2LOhoNoldvViJ57pWXIXy9EuQP69sLdTz/x7D0tLa03URqatbS0ylRXLl9C7x5dZbSUP/UbsFQYZgiFTNloWisNu2eNw4Nda4z0hEDBKMs4KYBUlPlw73rsmjkWIzq1Qm7j2mhRpzoa1qgmAZWD7GomxyJTGCPg2RlJok2paJ1dE92a1ZN5xZdXzceLo9sNIKcFCu5FX58d3YYLK+diWG5LxLmryuiyVToJQY1pL3UyM7BqxVJ8W8ocZjt9++23GDN6eP6xM7eBx5EAzAFzw6flyRk0mD7B/OZ8eN5/BfM2HkHnvkORVaceUqpVQ1yM2xgsaAJXO+NMIPFx0ejUZ6hckU+lgihbc+Qmxs5dJVMm2CarMsymIt7R7nAkJcSJz1VHTusOGD17hQRlFV022n9FDnCcu/Ew2gmgjomKsARz5mLXr5OJQwf3e/aalpbWmyoNzVpaWmWuW7duYszIYUgUwERQYqTRGz6Yd0xwTooOx/COLXF2+Sw5J7FM2QhU2oMyTwrI4/0b5LzRXOb7RN40HJw3CXtmjZcr+B1dOBWnl87C1bULcG/7SjxjWyQom8rxrqO4xjI8udyfbF0hlwVvnJkqwc5qH9GqCtjkwiUtmzXBzh3b5GwXZambN26gXevmEpq920RwJkhWr14dgyfMRd6OMzICTGA2wFPNPHEZc9YfknDaY9BotGjXSQ7gq1WnLjKzaltYFjJrZQmfpug5dLwEV1mOp9x8sBWQu2T3eYyesxLN23ZEZu06FmUpq4O69RqgSYs2yO0xAIMmzMbU5duxeOdZGSVXbTbaLQBa9GPWmr1o26WXAcxyRpDCx4L7JDHWjTmzZ+BpgCP9Wlpa5U8amrW0tF6KPn/wmVwAhQPWCBveebI0Gb0UYMbX7PRELBjaC9c25OHbY9uNqLMHdkttCpxpCoD9mdnXqsziGMtgf8TDwFd71mHf3Ano2aKhXA68IHWh6L5hmkSUKwTdu+a+1LmAD+zfKxc8Can8btG2hXIxlYoyitxz6DjM3WAMDlTpGgpCDTPAlLNQcMEQabt9mPAzPl8YlguZBPPLRplWZZhN1mmUSVNQr8rn60qmZwgYn5i3Ec1atZcpGVYRZp6/PFbDhw7CZ5995tlTWlpab7I0NGtpab00cSq0jRvWIbt2DQOQBXhYASIHCTLyHBUeLBfy2DBxGL7YvRbfMS1CzirhAVgrIC2uKRD2ZVafK4kRvBk1F2V+fXALrqxegFGdW8tUDAliNsBMOOO+4kwdIwSk3b5907NHX46Y37x86WKkpySCecnebeT/CZaxkRFo0b4zZq7eIyPABOf8KK4EVGOGDfn+AWemZrDwZSzXcZlsjyizIHJtgDO38ZXRcs7PXL2mkfJhFfHnQ0JYUEU5J/P5c+c8e0lLS+tNl4ZmLS2tlyqC86kTx9Cze2dEuULzI3beYGJAtQGL1WIi0KFRbQnPzHf+7pgAUMKsiv5aAWp5MdVOYS+ObcfTo9twbsVsActtUDslQT4YMHfZbh/wfb7WqpGKJYsXvbIpzZh+sGDeHKQkxcqItx04R4aHoGZmLfQaNgHzNh3B0nyoNYOqNfy+TFMAbwD0ZQH5FzB58RaZOsLV/uSS4JbAbCzcwwVTjh87oudk1tL6HklDs5aW1ivRR7dvYeb0qXL2BwOcraPOfE8NiKsWG4H2DbKwaFgfXFk9H08PbfFAqTC+lheAVm3xtOuFeO/ujlXYMWMMBnVohtqp8TIVg/1idNm7z6rf3C+xkWHo0a0zDh86+MrzZr/66itxzKYgJTFGDkS0Ol4G5FdEXGwkshs0EvA8HlOX78DinecMUJXpEN7miUJbmBXwWprFZwubVZ2XsGDLcYyetQJtu/RGenq6gH4+yFn3TZ6LQe+jedNGMmWlJMuUa2lpvb7S0KylpfXK9PjxY+zdswu57Vsh2hN1toIVGtM15FLV4jUpJgINa6TIGTAOzZ+Ez2XqxrYCWDWbN9CWhZ2gede9A18f2Iiraxdi4dBeaN8wC9UTowWUBcmFUWQqhkU/2X8VXa6RlowFc2fj449uo7wENL96+BDzRZvSkhNswVn2wXMs42IiUb1mTbRs3xmDJ83DzNX7sGDrSQnRhN2iMOttBvQWgWSTWUNxYWMaBqPJedtPY/6mo3IKOw5KrN+oKVKqJefnLltF/GnqmHRo2xJHjxzCd99969kjWlpa3xdpaNbS0nqlevH8OW7cuI55c2ahVo00CWKEZ7s5fCU8i+0ET6Y2cGq4jo3rYFKvjtg9a6xnurrdBQMHVQqHMivoLa6Zy2M0mXV45lgmvJ9fMUfO49y/TVM0yUyTM4IQurgoil1kmUYo40//0RGh6Nu7Ow4dPICvxYNFeRMXPlmzagWys2pYpmqY+8OoLS0yIgSJCXGoWSsLDXNaoGWHrsjtOQBdB4yU0eh+o6YUsSECsmev2y+g1x6cl+83Bhwymj1g7Az0Gzm5UBl9RkxCj8Fj0bnvELTr0hvNWrdH3QYN5cp/nP5OtpFzR9ucc0YfKsrFT3r16ILzZ8/qCLOW1vdUGpq1tLTKhRh15ly3Qwb1R2pynM+oM43bmN7AxUf4ysF0nGu5U5O6GNu9HdaMH4ITi6fj1qYleHxgozG129l9+bNWyMGECqrN6R1WQKxMwTgXXzmzF8+Pbce97atwccVcmXrB1QH7tWmCnKx0pMS5ZTvZPkbICfvefTAb01OiBFi2at4UK5Yvxe1bL3ewX3HF5br37tmNDu1awRVWxTbqLE28z/5xukEac4WZ+xwdGY7YaDcS4mLk6oHeVq1aMuo3boYR05cUWtZamVxEZesJCcacVi45KaFIGQT1+NhoxEZFyGgy4ZcQr+ZtVsuCWxkfdPgQw/Nx0sRxuH7tmqf3Wlpa30dpaNbS0ipXuvvpXezauR2d2rdBjABhu5/LzaYAmpFcQirBKD0hCo1qpqCzgOihuS0wvV8XrBozEHtnj8e55bPl/Myf714jFzt5fGATnhzchG8ObsY3hwzjKoJMr3i4b4NcjvvT7StxZc18HF04BZsmj8D8wb0wtls79G7ZCC3rVJcR7/jIMBkFD6kioCzI/qd+s6lIZkZKAqZPnYTLly7KRUVeB3EQ3JUrlzB18kRk1UiT/fBeMc/KCKqEaC5wwgVM7IyrAbK82vXqy2WsuXQ20yxkhHnfJawW/x8xbTESBRwrCC5SDuvwmEwZEcfE18MYjdtlxF+cf7nioWDj+nX4/PNXMwBTS0ur/EhDs5aWVrnTtQ8/ROfcdnIlOifgaTYJoeIzBGguhc0oL99jKkdKrAt10hJlJJg5xt1y6qFv6yYY0qEFRnRujdFd2kgQHt21LUZ2biNX5hvQNkfOocwUkJZ1a8jVA2skxRRMEydATC69LUwOWBR1WeUq+zKWkRTnxvixI/Hll68fnHGAIKPOgwb0Ef2IQuX3fyeg0z5tw7kxQl1BwuuQSXM9aRpGtJlTxzEvukOP/gip9E4A6jIiy0EV3par/DWqVwfz587C1SuX8eK5niFDS0tLQ7OWllY506WLF9C7ZzfERRl5wFZw4wqlBRlmtd1khCmmRhCkGf0Nrvw+qlR6D5UEGFWs8I4HrI2osEqhUJ9R6R+VK76LSsK3cqV3pT8jydzGzziGNT/tJTjHR0dg2OABuHH99UwDuHPnY2xYtwb9+/aSU+Rx/1QREEqALta+Mhk/ExURit7DJ2HxrnMSlgnNaonrFu07oWqVdy0/68/YJvnQw+Na8W35y0aThtmYOH4Mjh05jCdPnnh6pqWlpaWhWUtLqxzpwvlz6NqpvYAZTu1l8zN/sADPEGFhBDBhDsDZlzEqrCBZmmdhFRrfLwnoFTFCfrgoh20ODjbab+HHQXUEuYED+uDatQ89e+X10717d7F962aMHzsK7Vo1R3q1BJmvzWPKKC6N6Q9q0GcYUzVsoFpCs6uqgOaJPqD5vSKfU59VYExjfdzHrD9EgHKEONZ8OONiO316dsWCebNx4vgxma+tpaWl5S0NzVpaWuVCt2/dQq8eXSXkWAIzwbNKCFwRleCq+0u4OvwLXI3egiuy6BLHr8J8pmSk/Bau9v8OV+6/wlXj1wZABwl4tvAl3BEw5fLM9+979s7rKc78ceXSRWzeuB4zpk5C317d0LJZY9TNqoG0avEysh7tCoHb028ee+/9URpoNso0Zr6IcYchKT4KNTOqoXH9Osht11ru40UL5sk5lz/55I5eqERLS8unNDRraWm9cnEKsykTx8uf4Qk6RSKOjC4zopzyO7g6/gvcU/8c7lU/gGvMXxvvWUSbGSmuwtSKyu8jWEB4Va4u6B1F9vqMnRnRaE/k0mMyb1q0tUqVCqgi6mC6RpHPyjQSYa3+A+5FfwDXStHm8T+Eq60A6IR3LaPOrIP7ICHGJYBu7huTIsCVID+58zHOnT2DfXv3YN2aVchbOA9zZ8/AzGlTMGnCWAmyBFzz8effxYVm7j9Ccr/ePTB18gTMmjFVzi29bGketm7ZiGNHD+PqB1fwxWuYP66lpfXqpKFZS0vrler5d8+xf98ezzRzFtOWEZgZma39P3CN+hu4BCy71wpbJwB04l/AVf1/LdMd0uIi0LJmMppkJKBmQiQSIo3pxgzgZb5yJWOmiyDPrBuWZmynH/2rClBWwB0TEYy02AjUrRaLVpnJaFEjSa7yVwjEJTSLtnX4N7jz/iC/3e6lvw/3wH+Aq8ZvDD8bcK6Rnowjhw9+b+YF3rh+bZHBnyWBZqZgVEuIxsUL5zwla2lpaZVeGpq1tLReqT66fRs9unaScFTk53kCJ/OAm/4MLkaXVwvgJDSvFCYA1DXhL+HKKAzNCrpz66Th/NRBuDhjCDYP6YI5XVtiZOv66NOkFrpkV0frWiloUj0R9VPiUDs5GpmJkagh4Lp6vBs14iMlaGclRSFbQHGj9Hi0EADeoU46ejbMxOBmdTC5QxOs7Nseh8b2wc25I7BtWFdUiwmXUF3Qfk8f2gtoXiSgeY2n7Z5+uCb8EK7sXwhf8RmvaDn3BfsydHB/fPrpJ5699eaKkejVK5cHDJqT46Nw6uRxT+laWlpapZeGZi0trVeqjRvWwx1mN7WcgMlGb8E9488M4FTA7AOaFbR2rVcd9/PGAVvnAhtmSXuxdgYeLZ+EOwtG48rMoTg1eQAOj+uLPaN6YueI7hJ8Cdhbh3bFDvH37pHdcXBsbxyf0A/npw3GzTkj8WDJBHy3Zpoob6ZR7sbZ8vXwuD5IdQrNNE/E3DXtz+GqJ8DZC5qNh4iKSEuOx+5dOzx7680V56YONDSfPHHMU7qWlpZW6aWhWUtL65WJeaW9e3aVA/9UhDjfCMI1fw3XlL8wUhoUbCrzA81dBDTfXTQW2DIHWC8At6yM4CxeDwm4LhY00wjO64VN/gvL3GzCI/fN8CGD5EC1N1kamrW0tMq7NDRraWm9VHGGgi+//AKHDh5Arx5d5Ny4RYCZ8OiuBPfgvzfgkukMZtikOYXmzQKa180oautpFhDsyyzLMbaVCJppfG/Z78PV/cfGzCBFIs6VUC0xGhMnjMWVK5ff2OnQNDRraWmVd2lo1tLSeml6+NWX2L9/L/r364WM1AQDirzTMhQ01v8F3HP+RMJxEdCklRaaA2WlhWZPX9zT/1T05Teez3g+7zEJjhGhaFS/DmbNmIbLly7h2bNnnr36ZkhDs5aWVnmXhmYtLa0y1+PHj3H2zGkMG9wfKUkxchYLzpQRHmwxTRsBmLNldP+xMcuEVZTZA5o+oblhLdzNGw9sKmtoFrZxNg5NHozUWJcAvhJAM99f8vtwdf4pXGECGE39UWbMOVwJ0a5Q1KuTKaeju/vpJ2/MzBoamrW0tMq7NDRraWmVqW7evIHBA/vJAW1ctCNUAA0B0Duamm8ExohKcI/8WyPn1zz4z2z+oLlpXdzdsAjYkQesnW4NvIEwRpq35+HQ3PFIjXMXAj7H0Ozpo2vE38HlrmAJzTQCpFpJLz7GhQZ1a0l4fvr09U/Z0NCspaVV3qWhWUtLq0z0+edfYMWyJWjZvAkiw4JQpcLbBiyb4MbSCIwuAc2T/tI+NYPmBJq3rwSObAY2zisDcGZ5BOYlso5D8yeXDppXi/5w4ZNYAYA20KxMwTOXg05OiMaAvr1w7NgRz55/PaWhWUtLq7xLQ7OWllbAdeH8ObkaW7WEmPzIqBlqfJqC5ml/Zj1rhjKn0HxmL3BgPbBlgQBnK/gtga2dZkSYdywFjm4FTu7CoQWTSg3NbvYn/l2/0KxMwTNf69WuiWlTJuHe3bueo/B6SUOzlpZWeZeGZi0trYDpm6dPsWDubDRtVE8O8Aup9K6EHjPQ+DUFzZP/3Ig0lyY9g9B8dh9wfAdweBOwcxmwYTbAeZZlpNgCiH0Zo9UEZgL4vjX5wIyTOwMCzTLSHOc/0uxtjOAHV3xHzkTSo2tHHDp0wHNEXh9paNbS0irv0tCspaUVEJ0+dRKjRwxDclyU81QMLl7i/Z6CZgGQEjJLCM1d86F5rwHNJ3YKyN0mYHetkVKxcW4BBMtXQrTJ1HvKh6kYhOVdArwPbRRlivJYJk1A8+GFpUzPEOYa89dwxbxfbGimqahzaOX30ah+bSzJW4Qvv/zSc3TKvzQ0a2lplXdpaNbS0iqVnj19il07t6NVs8YSdlS6gBlibI1LZHu/p6B51N8YKQu+oHmigOYav7GE5o6N6xSONCtwlvC8Fdi/TgDwcmBbHrB5voDoOUYUWq4eKF650t8mAdYE5R0CsveuFrC8CTi23SjDq8z9cycgRc6eYQHNuf8Cd56DgYAj/wauSPuBgE6M9QdXelfmOo8YNhgfXv3Ac6TKtzQ0a2lplXdpaNbS0iqxHnx2HwvmzkF2VnUJKs6iy8oE3HJ6Ne/3CYzh4v0hPhY2oTF1Y+qfw1X7f4zPEFA9ZRC6sjOScWujgN1z+42osIJcMzzz78NbgIMbDYhmygXheB9tLXBAvMeoMiPU+Z/xKuv0Hjw9uBkLhvZGnLuqFzSLdrFtnD5v2e/5h+ahf2cscFIEmh0+hHhMRZ3DgyuhS8f22L9vj4TS8iwNzVpaWuVdGpq1tLRKpJs3r2Pk8MFIiHHLfFrL6LJ4zx1KALKCPr5nAkxlCpr7/sgATV/QPOeP4cr5WVFoFvVGR4Rgap9O+HyPgF8OBlSQ7G0Khk/sKoBi7/fk+xafPSW2n96LM0tnoVntDFl3hOoHjdDMfg78BwOM7frC95f/Hlx9fmRE34sBze78fVx0G+GT8Fy/bi2sWL4UD7/6ynP0yp++++47rFm1whaa+42aihUHPsDao7ew+vB1rDt2Gwu3nUSr3K4amrW0tF6KNDRraWkVSy/Ev7NnT6Nn9y4ysmw3M4Y7pKK08PAQRIQFi/e8wU/8P6KiEVk1vy+hWWzr8lO4l/wf36DJBUG6/dgATRM0E1zDBGzFukIxs39XfL53nYwI28JvSYzAfGo3Lq+aj14tG8t6VWpIvrEviW/LAX4S8u1STRiBzvsDuDr8W7GhWe3fyOD35UOK93ZCJwdkpiTFYu7sGbh/r3zOrsFFWmwjzRGhyO05AJMWb8K05dsxZelWTFuxA2PmrkSjZi0RFiT6buqzAc3ROHP6pKd0LS0trdJLQ7OWlpZjPX36FAf270XrljkSTAqlIuRbZQHLFQTMheKd6vXx28zGCImMkgBdyI9wGPeuMcWa+X1GZ8PEa6v/gHvhH/pOaRDbXGP/Cq5kAaZeoCnBObgSkqLDMUOA8xd7BDgz4mwFwMU1OWPGLlxcORc9WzQUYFepaKRd5TPn/D+45/2RAc1W/aBx2/w/gqvhzz2ftYLmokDMKHOlxDT8KrsNqsQleR5UrKPOjDgnxroxfsxI3L5103NEy48++ug2hg7qL9taaF+Kv7mCZFpaCurWr4/sBg3Fa0NkN2yErLrZSEyIEz6F+8y+JsS4sGXT+nKflqKlpfX6SEOzlpaWIz158gSbN21A4/p1UDWoYlFIFMY0gciQ9xEa5cYvG3XGD4dtwk86TURQbLwRCVW+BEqmYKT8Dq703xYqIx8Y6/8c7jl/4hs2CdQL/wCutipCayrHY4yGJ0SFY2b/bvhSgXNpIs4E5tO7cXHVXHRvVl/WUSTCTAsW/RAPBO7hfyva+nv2UWYa56Oe+SdwpYl9IWHbqyzuK/bP/J6A6MjgCuKhpCl+OHQjftR9Ft7JqCu38aHFCrL5q0BsZBgG9uuNy5cueY7sq9fDhw9lFDxRgK7VeUXjAxqXXs830Zdw8coHFitfgnanDm1w9YMrePHihacmLS0trZJLQ7OWlpZfMcK8bu1qZNVMlxFmqzQAAjMjnVXiE/HvbYbhjyYdww/m3cCPO09DcEysFzQLoGRaRs1fwZX935731DaPpf4W7mmeuZqtQJNGEKVN/gu4sjwDAoukNghYFODMQXqMOH+5d72E3hKBM4GZKRmr56FH8/oSziyBOSTYSD1p9+/GVHO++kAT2+X0eVE2M2cwGs/ltQvBNKH5ffyuZmP86bh9+MGcD+RDym/qtECYK0xuYyS6UDnC+BDBdnfv2glXLpcPcL5w4Twa1MuSUG8HzcU1gnWMOwyrVyyT56+WlpZWaaWhWUtLy6eePXuGrVs2oV6dmnIqM8sIM1MvBNC9m1YbP+o+E/9nymkBcVeFfSigeYoNNIvP1PsFXC3+qwCUzdsjK8A97q/8AyeheYVnurbU3xmfVdFqkxGcE6MjML2fAGdGnCU4W4CxnZ3ciRfCrqxZgO4CmEMFlNkCM3OyG78F18w/NXKvfUWZVfsH/YPxIGEFzTV/LcD5Ha9tBdD8Z2N24wezxf6e/QH+RAD0z5v2RHB0jJGuYRGJJVAyEtuvTw/cuHbNc6RfnY4cPoSk2EibdJ+SGR8OmB89ddIEPHr0yFOTlpaWVsmloVlLS8tWnNFg5/ataNyAKRkCEi2ghjm0EWEh+N/MxvirwWvxgxkXBbxdwQ9mXZYgZw/NoqymP4Or808NYDaDLuGQ7/X7JwmUtoMBlRE8l/0+XMP/Fq70/zXKMkO4x0KDKqJaTARmDvCkapwS4GwFyN7GqPSpXbjgScmIEMBqCXhsd4QA5oY/h3vqXxjt8gXMNDkI8P/A1fFfjBQM835QDxNNxH5K/S1cQRxQ6dnmDc2zuM+FiX3/h5OO4aedJqFSYqoRbbaAex5PRmIHDeiLa9c+9BzxV6Mjhw4g0XuO61KaAc0hmDRhHB4+LL+zhmhpab0+0tCspaVlqRfPn2Pfnt3IaVTPHphDKyHMFY7/rt8BfzJmjwHKBLeZl/xDMwGx1X/ANeCfPJBshkXP/1v8J9wL/tB/tJkmI7a/B/cIAc5cJZCw6ZXjzMGBoaIvyQLQZhGcmapx0k+aBoFZ2OU189GjeQNjgKEtMIv3G7wF14w/cwbMNPZt7h/B1ViAsYRk834Q5q4IV4d/havGr+Gq4geaud9ncr9/gN+ffg4/6jEX76fUEm3m/rQG52h3VQwZ1B+f3PnYc+RfvnxBM/d3uNgPvixCmPfnNDRraWkFWhqatbS0iojjpg4LkMlp7AFmASDeUKJ+9v91nVb4owlHBLR9YICyBDcH0MxXAYPucT8UAC3K8oZF/r/6b+QCJnKgnBVwepua75jgzEGG3jAujOklMlUjKhxT+3TGV/sIzrvsgVm8Xlu3CN2a1RcgJh4S7ICZDwENfg7X9D81YNlfdFzZemHT/8wD+myvqVz+nSre7/3PRoqGI2guAOffm3EB/9RjDqokJBfe/x6T+0IcXw4OHDZ4AO7fu+c5A16ufEFzrCsIqdGhSI8JRZqF8f1Et3m/GKahWUtLK9DS0KylpVVInGngxPHjaNmssQQPmjeQ0Jgvy2nlfpbTW8KxhOZ8aHMIze0FNM/6EwHHAgglKHu2K5/Y9+Aa48lrdhK1pUlwZqrG38FV7W24gosCFWExtEoFJMe4MK1fF3yxe21RcPZEmDmtXPdm9UR7DNj2LksCM3OYG70F17RiRJiVEZoniAcHLp9tBny1LzgN3TDRl8xfwVU5pGC7T2hW+/8DObPG+6m1hK/1jBo0TtEWHx2BcWNG4rPP7nvOhJcnK2hm9NgtXpulRWB6q0Qsyk3G/PaFbYGwPPF+n7pRMiJNU5/X0KylpRVoaWjW0tIqJM6o0Cm3rQRLO2CmFUBzHwPYLKHNDzS3/Te5QIlbwLMEukLQKP5m9HbgPxYfRD0RZ5mqwRxnm4gzc5xTYt1yOjo5j7MnsixfT+7EpdXzBDA3kPBmC8zMYW78FtwzPBHmErTT1ev/GpBs1X/mOhOqM8WDRXGhWdgPh/iHZuMh4n25IMisGVPx5MnXnrPh5cgKmpl2wf3eMdOFDT1Ssa9/Bnb1TS9ku4Xx/bE5sRqatbS0ylwamrW0tPL1+eefo1+fnnCHB8l5cBWAWFmhSHNJoJmQ2ObfjSjykL8X8CmglBCa7yOM/2/tZ5ETO1PpEaP+2hhEV8UMnIYZ4GxEnJmq8eTAZmOlv5O7cGPDYnTLqS8jnrbAzDY2EsDM+aRZX3GAmca+C9h21fnvwn1X5YdXhnuw2DfT/9zIaS4RNG/wC800Bc7VUxOxbOnil7ooiC9ozhXQvL57Kvb2y8DOPumFbJcwvj+2qYZmLS2tspeGZi0tLakvvvgCo0YMQ3RkmMxztRo4ZraAQHNrAc0bBDhO+ku4Et4x3qOZ/RLeNaaec5rXbDYPyLpG/Q1c1X4noDO0oGyPERZDqlRAUkwEZnA6ur3r5MIlXXPqGSBpB8xctVBOK+dZgKW4wEx/0ScXoT6ac1+LMlX5cj+I/3NxlCkCmGczheU3ZQrNNAXOtTMzsGfXDrm09cuQP2heJ6B5j4DjHQKSzUZw5vtjNDRraWm9BGlo1tLSwjdPniBv4QLERUVIaFLg4csCA83/AfdGAY9z/9iItqpt+X7COM1az38uAE1v+PRnBGdhcjo6Dg5keWYwF8ZospyOToDbkA7N0aFRbfk+3zP7SVMRYTUPc0mAmaba1Y+zh4jyzG2SdQTB3eRncvYQl8z7LntophFc+dCU07g+zp474zlDylYamrW0tF4HaWjW0vqe6/l3z7Fn105k1UgTsGSxPDZhzhvqhAUMmhlpXvr7cHf5idgm6vZOUyDkNvt/cM8vQYqGMk/E2T3ib+BK+19jFgqv/rDfCtr4WmQ/0Ng2GmF2jgBmtqckwEzjZ+f9kejbfxlLbnvX46oE94B/NHKeZ/xZ2UAzj4P3/hZG4KT16NYJ9+6X/YwaGpq1tLReB2lo1tL6nuvypYto1ayxjC5aAjMHo3EWi8iKhUAzYNDMtAtC7Zi/gitG+HhDHFfYS/0d3GP/umQpGso84OyS4PxbA0C9wJkWHlLZHpi5L7jQyOw/MWDfqh6nxgj1sL+FK1r02bsdrCvpbbk8OOFa5jQHGpp5DFh33LuWM4wY0BmMaZMn4uuvy3ZgoIZmLS2t10EamrW0vsf67MF9DBrQR8KKGVikEeQYYc7+JVwt/wuuxMJwFTBoFvDoEmAYMesPEVFb1KXqVr7SguDu9hNj8RLCrxWEOjGmQxCcOYUbBwdawKKlFQLmP4aL08RZle/UGGVmdL39v8FVySvP2tP38PpvwTXPWNilTKCZAyNr/Y+xcEo8j63oY37ZhhE8k+OisG3LpjIdGKihWUtL63WQhmYtre+pnnz9NZYuXogYd1UJK0Wiq4QogiUjwAP/UQ7ICzg0t/p3CcyRwuJW/SkS+gg45xRu3gAXJACv3i+Nad0YobUCUacmoduzAEoNAaJFAN3COA8zU0Rm/UnpUjKUMWLOAX5ZvyoK7uy7qzLiBv4bolf9ofFAMa0M0jMI6w1+IeeWdnX6qdFHr33Bc4K/QDRuUBdnz5z2nDmBl4ZmLS2t10EamrW0vqc6dGA/alVPtU7LCBbGlIy+/yQgTwDmoH/wRCMDC83uNv+BhC1/hOp7/gb1jv4E2St+iag4AfBBXtDMiHfM+3CLdpR44J0yfpaDDxf8EdwChCUo+gJnttVVEe7ePzKAuTQpIjTWT3Dv8yNZriw/vy5hIUGIrVkRddf8DFkH/wkpO/4CMbPFg0tZQLN4EHEt+gO4OBCTUXSZu1543/PcCKr4Lgb26417JVwxkOkdXDTlwWef4cmTJ553C3RUQ7OWltZrIA3NWlrfQ9258zH69OyGoApvFwVmghPnTM79F7jz/kCuWOca8I+BhWYBhqw3ofN/o8HJH6PFhbfQ6srPkXP4F0hu/Y4xnRvbofwJk8FBcLf4L7gXijaVNNpMWCX4CmB2df6p8WDgC5jNVv3Xcj5prjZYqmg3Pzv7j+Hmkttec0dHiIcVd0QVpPd5G82O/gKtLot9cu4/UWv1vyG6ljhWlcxR6QBAc/Z/w8UBlnwQmOyZC5qpKPl1GEaY5VLby5ctwTffFIVeK30mAPn8ubPYumUzZs2YhtGjhmOssLlzZmLb1i04ffoUbt+6ie+++w4njh9FUpxbQ7OWlla5loZmLa3vmb755hssWjAvPy1DQYY0AiSt/i8LUhEE5AUemo3X9F5vo9UHP5PQ3PLiW2hx9i1kL/oVouIrIiLI45v/GVE320BwLUm01wPMrll/ClfL/4TLLR4MLADR1pg2kfQO3L3+Ge7FAty5b0oS8Wbb+/8TXFECYr3qj6gShMjYymIf/Botzol9csnYL422/Tfi61ZAeEWzf4Cged4fGSDPWTqG/r0xXzbbZXqY4AMOpyJs0qAuTp447jmTrMXc57MCiMeOHok6mRmyHAIsz7VwnjPib+aoZ6QkolunDti0cT2WL12sI81aWlrlXhqatbS+Zzp27AgaZNcqOh8zIYmwlPJbueCGBDwFmmUIzS2vGNAswVlAYpO9v0BC9nuIkKkCHn9ljMwypWKRB1q9gdTO2A8BuK4pfwFXk7fgihBwVhxgVsbPcMaJDv8K93wBm55yLeu0MraZqxuyD97zRYv+ss+JjQWc7vuF3BfqYaLR1jKGZvaDxlQNLtttsX8IzhEhlTFm1HB8/vkDz9lUWE+fPsXO7dvQrElDAazB+bAsP2syCdBiG7enJMWiVo1UREUUjrpraNbS0ipv0tCspfU90udffI5RI4dKYCa8mCFFQpJbgFWP/wv3kt8vAMKXBc3nDWhufvrnqDnyt4iMFoDlHW0maCa9bUSbnUKz6Idrxe/BNeav4ar9P56HA69yi2OMOHPQXI4A3+l/WpCjbFW3t7Etff/JSAsx7Usa87ij4iuh9uxfo/kZsT8YeS8ONM8U+9t7/xcHmlU/Zv4JXHV/Yfh4gTNBNDk+CmtWryyyWiD/v2/vbtSrk+mJKtvMdW0yBdBWfhqatbS0yps0NGtpfU/04sUL+TN4XFS4HPxnBhQ5+ItTqjV6C+65HohSoFcaaJ5/HT/uORPBcfGOoFmCs4DEpvt/gfhsAfaEZnM0ln8TWjlobcEf+oZVBYHLfx+uoZ4p5mR0tzAIlsgIk2xL3V/CNf4vjanw/EWcRVvkgDtO4UdgNZcnymI+c2Kj99DkwM+NVBXuDyfQnNUUfzbhgHhA+aDo/i8ONLONnj64Rv+VZ7aUovsqpPK76NKxPT68+oHnzDJ0/dqH6NShTT4we3+OZobaQu9raNbS0noNpKFZS+t7ops3b6Br5w6o/L6ARxNcSCMEVntbAOBfCQAsgCdpJYXmBdfxg9Wf4ccDFyA4XkBz0Hum+oxXO2hmPm/1Ib9FZFRlAZNe4EbwZd7twH+0B1UFzIv/D1y9/hmuZNE3CbpFIVDCL837fWV222UUVljNX8M9/G+NeZftIF7BaO8fGVFm9sFUlowyx1ZGzbH/i+ZnRf+dQLMATe7T39VrgT+bexo/WHYHP5h7tXTQTJP7TTxocP5mi7xvwijz4efMnoFvv30mzy2mZaxeuRwJMW653exPI0SHBQvjK6HaTwSapqFZS0urvElDs5bW90Dfffct5s+fg/gYV9EoM6E0UrzX6V8E+FksHlJcaJ4tYC3vFn6w5jP8YPMj/HjwomJBs/xbWMPNv0R8nffl4LhC0CohVrxX/xfGYEXv9hJQaYzqdvg3TyoEyxCmyjCXFV4Z7kjryCi3RUZVgptReKuUDpZJS/kdXH1+BPei/2MNzuI911TOy/w/hfahUYaAPVF2YpP30GTfLwuAuTjQvPACfrDxS/xg1V38YP41DziXEJo97XXP/hO46ojtan+rzwkLqvg2cpo0wMmTxqDATz/5BP379JSg6h01JsjGR4YhLSEa6YnRSIwOR2RYkABpI7/Z7Gs2Dc1aWlrlTRqatbS+Bzp39jRaNGssYOedQmBiQJ94rfvfcM/5Y2vgKw40M9K54g5+sP5z/GCTgLgthOaFxYNmBc7n3kLNkf+LyBgBVwRn9VkaIZizT3T7sVzhLz/i7PnbNfNP4Wr+/zyRUtFmC2Bm6odbAHFizrtIaiH6xve5L5SP+JtzRqd1exsJ2e8b2+zAme2JE/3r+K9we6eNsE2cmSJXALxLwLkXNEdUNnKZa03+34K+m/aDM2g+Lx5QvjL2+dr74qHlpuchphTQzNfBf28sbe4VGTeANBiTBZBSly9fQr26mUWgmRHlOAHM04f0wdkNy3Fm4zKsmzEBfTu0Qmp8lCVkF3y2AJrXC2jeK+CYkGy2XcL4/lif0Dwejx49lO3U0tLSKo00NGtpveF6/t13mD1jmpxnt8iMGYQhRmIFFOcDnhmeaP6guakHmhcyHeMufrDBA8ylgWaagMXGu36BhIbvCWgW/magpbHtGb+Ba9wPjXYr0OMMGQ1/bswAwfZ6f44mIJepH+l9fof6a/9Hzoss/cy+4u+ohMqoM+/XaLDuvyVYR3A7F34xlyV9PeBMkG/+X3DP8gwQ9LTLNepv4Er9XRH4ZB0RlYJEH99Hk4O/KBxlphUHmjd5oHnjF/jBus/wg+Xi4WXOVQOaU4oJzTS2nbNpNHrLyHf3StMIFg9gTRrWxZUrl+R8zMkJMYVymSUMhwWhXeNs3NizCbh9Cbh2Fs8uHcf9o7uxbf40tKxfC6FcXMdUrjIFzR0FNG/okYp9/TOwq68AZZPtFsb3x+bYQ/PkiePx9dePPd8GLS0trZJLQ7OW1huuSxfOo1XzJhJyzFAiQY+LiDR+y5gGzQqYaT6hOQQ/a97HSMdY+8AANmWlhWa+J6zWxN8IeK1ogLP6vCyDECfArMn/g4sLnnCGjJECTpkCYQF5ylhOdHIl1BzxW+Qc/TmaHfuFPTTHV0Z23q/Q8vLP0GjbL5Ha+W24Iy3yrD3+Epy5MAyXp57wl3KfEkpdDcX/ub+92hReJQjRKRVRZ/Zv0NLTX+99UCxoZopG/jEQDy8rP8UPR2/zRJr5wFRMaGb7OSgwUewf72izgN2o8GDMnTMD+/ftQXx0RCFoZvoFtw/p0h5fnNwH3LoIXD0twRk3z+O5+PvwivkSnK0izgqAGyRXxZBGsRiTE4dRTYsa329f01XoszS2xR0WjB5dOuHA/n345M4dOUe5lpaWVkmloVlL6w3W8xcvZKSNc+BWDfKKMlcREFTtd3CN/StraFLmL9LcdpAnHeOhCdgCAM00AYzNTvwcqZ244IYAKe/0CBUp7/JTuPr9E1xpvzXA1AqYBdQyFSImraJMhWh24i20uv7/kHNEQHNve2iuu1BA86WfodUVzurxc2QM/C3csZWKpowoU3XX+pWcGs+V+69wRVcoAp3sC2fMSOn4DpqfNOC4SP9LA82eaP8Pp+3H+xl1hG8xoZlGcF72e3A3/ZmnzsJ95oNYh7YtMW3yBMQJaC6UmuGB5uHdc/Hg+B7gxnngg1MFdv0cngvbMm9KfqqGuWxlMRFBSI4MQbWoopbseY13Fd63NNWWpLgoOQ0eHxz79e6JJXkLcUE8SHLwopaWllZxpKFZS+sN1o3r19AipxEqvy/g2AwVKurJKPNyP9Ol+YLmiKr4WYeh+MFmAcwS2gIMzcJaf/gz1FvyK8TWENAooDe/DJqC3FgBhIkCrBnp9QI75UfgZG5y3YW/RrNTP5f10poe9g/NLS4IX67O98HPkHPs53KWC0ari7RHGfct28E5pZkTzPfMZQsLr1QF8bXfR/11/y2h3KrvAYHmmYfxfo1sI9JsjuY6gWYat037c7gy/rdotFmAbrWEGNStVQNRLlGeaZuC5mHdOlhDM+2jy/jk0A70ad9c5j9b5TczTaOqKMuXhVl8TllYcAU5cLHiu/+LkMrvISUxFs2aNsSQgf1wYP9e4IXny6KlpaXlRxqatbTeUD1/8RwL589Fcny0hIVCMFFZwA+jzKP/2jcw0fxBc3sBzTKftmygmduan34L1Qf/Dm63AKsgC1Blu0xtK2SirvD/395bwMeVXvf7SZs2bX9t2v7TppCmadJ0s9lkMbvetb1mMbNsS5Ys27LMzLZkZmZ7zQxrZmZmZmZmXMP3/37PzJVHo5E0siRbcJ7P56ylgTt37r2zet4z5z1vKa60VwzV5/8J9Sm/J2zbzo40W/XGXPabi4/Ejf/ESO83tl7Szhlw+/NFMl2UcvA9ePmURMygz0TEM3z/uSHNY3MozRxQLTHXQLP/sS3q4vReKbpcKdDxNoZb0swa52O7MXNoH3msK2nOzeD2WdfPQWTp4l+hWnxljBk1EqdPn7Z/ahRFUTJGpVlRCilXrlxGk0b1ZDGKNDLCDCiFrsFvbbKUWZaZ8b6l2QQfk7T2I4TULSYlFmnkNpNg+YNXhW8R1uwr1Fz+kU2WHcog3kaaredRZqvN+ROC69iX/HYlzi6Ckwkp2twnWS77hNm2fbvpIj9IM8Pc7znsZ/CMSp9tZrjMELsjzZeOy6TA3u2awat8+sFFXgZrnq1uMi2bNcaWzZvSrXKoKIriiEqzohRSlixaiMjQgPQTAFnLzLKBPj+H1yIjRAVAmhksYeCkPP+KRh5LZCFYFNNvzT6WL4nIlC9R28gpM8TO3SneVprluZKx/gCJqz5CeCvzfPNakgV33IaLqFD8WwRU+RrV5/3JvH7abaaL/CLNJjzn/RieTX5jmzzqqmbcKbKU5rMH8fjobnw/rB+C/Txk0RNX22FINvstw9X2HIMTGkt982dUqRSJpYsXysqZiqIorlBpVpRCyMNHD9G1c3vJ3qWZYEWhY6Yw6QN4zcikY4ZjGGn26Pav71+aRVo/QOWBn8HL04iUq9ZvDPMeKcx+ocUR3fULkeKGp12/Rk6kWcJsk9uute1DRKT82Ty+RKaZcO4XF0uJGfqZvB/pmOG8Tcd4B9LsMSmL5citMAMsz0H/ZF+OvMyb7WQQaaR57ybgwlFb9wwrLh7FjjlTUTU6LH0rRD7f7GvpksVQwghtqRLFUMY8JrtRyjy/+Nd/Tt1GORddOhi87duvv0DFyBCsW7PK/ilSFEVJi0qzohRCDuzfhxoJVYyMONUyU3q5CEe3X8BrsQsxchVGmr26/xu8As3z3qM0M/jYWhv/gIjWtux5um4a5ne2g/OP/gZVRnyK+gdtz3G1LUaOpZlBsT3xe9Te9SEq9f8cfhFGzIzQO++bB7Oz5Usiqv2fUXtrFmUZVuSxNHtV+xO8p/zUtkCMq3PvGCzR4LLkdf7PXAfZyDS3bYY7O9cBZ/YDx3eZ2C2Z5hfm39E9O4nYOousrXVdScRFhaB1vUT0aNUYvcx2erVpmq3o0boJkhvVQZOaVZFQMQyBPhXMZ+IbkWfH12NwH1j7nxBXGTt3bMdrLdVQFMUJlWZFKWSwLnPs6O8QJEtmO2XwSpaR5ac9J/3UJsOu5MghPOf+CIEr/gohA34D3xAjgw6T8N6HNPNxDc3jE5f8EcE1v0aFb43slKIoG9FiCziz3aDqXyN+0ieod8gI53EX23CIXJFmBuXWvBa7csSN/UTKL6SlnNknEWhz3Bih9b4yAvyRLfPtajvOkYfS7FG8DAKSPkf4vJ/DZ9FfyLl2dQ2kBsWapTps7SdLk78ZQLkKZopFmls1wp2NS4DDm4F9Rp73bQSO7cDZlfPQqk4NI81fpX2eEWbvCrZFUTbMGI+HB7cZ4T5g4mDaTLU7YZ738vheXN+xFtvmTsXY3l3QoFqs7Bcz0a5kncvM105MwOlTJ+2fKEVRFBsqzYpSyLh58yaaNKwnZRm2jJ1dCiiElNXmv7YJUBbZRUqU3+KfIG7XvyF29MfwCyuZpjfxe5FmE1KmcehDVJ36CQITvoa3dwl4eRiB9C+BECOl1Rf+UZbgzlRy7ZFr0mwPijNlverMjxFSpxh8zD55VSgJL9+SCKrxNarNtnXvyM4gIa+kucI3pY3EF0P19f+LyPU/c3kNpAtK88S/MQOvD2218da+uIhUaW7RAHfWLwQOGlnes9YWR7Zg9agBCPf3TlPLzEmSzFAnxkRi1/wZNvHlYijOMpzdoHCb7bw6sQ/HVi7AgJSWCPP3EkF2Fmfe5udVFkMHD8TDh7r8tqIob1BpVpRCBCcxbd60EbEVI6RONI0QsJaZ9agD/smt0gzvBX+BmC3/inrHfof4MZ9KX+I8kebMWq5lEFILfPBD6XFcsdcXiGz3JWKHfYpaG/5g25YbgsvIbWmW4OPMPiSt/ggxgz9DZJsvUanP50hc9hHquSnzqWFJ8+q8kGZmvotJqUjN/b9GyMq/c3kdpAkz0PJkmUbbX8KzgpFdVz2x7ZGVNE/v3TGdtJYvXQJ+nmUxuFNrPD28UxZAwSkjvY4TCN8mHAWaExAPbceMIX0RHeKftubfHvzsRIcHY8f2rToxUFGUVFSaFaUQ8eTJY4waMVRWZ0tXmmGk2avZr1PlJ50QOYSPEeaKG36OOgd/JyvhxeVAmv+z9/dGmoPSS7ORUtb3ZjfTnBr259Tbb1s1sJ6RaLktG9vKE2lmWPt2wOzbHrNvZh8db3c7zOOZvU5cYaQ5PiNpboC/nX7U9fHPQpqZmZf6avPequ/+FYKX/63L6yFNcEKgGXh5Rn6WaW1zhtK8dx2wfz3Gdm2L0k4Du7JGokP9PTF/1CC8OrHXJrzH99jqoN86zPNPmm2d3PdGoM8ewtMjuzBreD9ZjZDy7rjvFGlvs+99e/fAvXv37J8uRVGKOirNilKIuHrlMhrWS5KyDA/H0gxOQvP+Bl7dfwGvpS5EyCki1vwMtfb/Fg2OfoiGJz54e2le8Qj/OngpSoZFwudbh9pVI6ScsBfa0Ejbtg/f9E+2pNedMI+n7DU4bl+tj8FtZGM7DU4baeYy2p0ykebpRpqPGWnmPrrYhstI3TeHyOa+yTbsz42f/LFMMEyzAiGlucw3+DSpOf561hnXx98dad5ijr95jXpHPkDVHf+JgCV/7fKaSA2WaEz9a3jW+z/bdWXtj1NkLs0bMM5Ic6mSrqTZC/OGD8CrQ1uBQ1uAfRtMrM9BmOfvN699YDNwZDtwzIg0BfrcYdzduxlDO7eTfXDcD/7Mz1BCXAyOHz9q/3QpilLUUWlWlEICv0beunUzIkIC0q8AyIxgxU/hNfRnWZZmMNuYuOfXIsyUt7eWZpYKrHiIf5iwC19XrgrfkmmX8ubEON+QEogZ9hnqHzKS6CrTmseRZ5nm3IrDv0fSxj8gvOmX9v7Ib/bPq2wJEyXxx4Yd8BeLrudMmino5nzXO/wBqmz5Bbzn/zjziYG8hjr/Ozw9My7RyLw8Yyum9+kokuwoq7byjDIY2LYZnm5fYUTXPGev/Tm5ERR2SvRBI+Ps5HH+iNQ4c9Ih98Vx/5l99veugAXz5uCH58/tnzJFUYoyKs2KUkh49uwpxo4eaf7Ql0/7dbPIYCl4NfotvKb/JMOevJ4m/Bf9FRJ2/PKNtOVImiluD/CT+Vfwca1W8Gam2UGQLEn1Cy+OqE5fIH7yJ0iY+fE7jWqzP0bchE8Q2oD7Zt8nh/3z9i2Jij0/R8L35vEMF9vIs5jxMWJHfipi6+VtjpuDMDMowWV9fPDrzmMloy+SnObYZ0+aeb4pzrUP/C+i1/1z5uK8xIQZgHlGu14hULafhTSvHTMIUSyNcKgplgyvGQzUqBiKHVNG4vVu89j9RnIpu9kNR1l2FXvXA0d34uWx3Zg6uJcIu6PAW5NoOyS3xd07d+yfMkVRijIqzYpSSLh+7RratW4Orwql0nbN4FfoXt/AK5PezJQj1jHHbv4F6h76v1yUZorbA/y6wxgjeN42cbP2i0FJNTLo5VVSWtqxBOGdh5F2H1+H4+UY5b+Fb1AJ18/L6+B+BZj9MvuQrh+1CZ+Sf8aXVWrh7yfuldpx18c+e9JsiXPNvf+DkBV/l7E0s13h5L+GZ92MezZnKs2HNuHM4ulomVRVSjScn8d64ibVY7Fh3BBcWz0X9zctxqMty/A4i3iydTle7FztnjhTyCnOJ/Zg26wJiAz2TfO5oUCztjkuJhrnz52zf8oURSnKqDQrSiGAE/z379uHanGVUd7IrGPGTPrpRn0Kr2H/YMsQOgmQJUbhq/5BsoxSlpFb0sxY8RB/N+UQPqvRWMSNJQWp+8Yw4iy9jNlz2Wz/nUcpsw8upNQK2765eN47Clf75lX6G5T38sBvUkbix9IxwynLzHhLabai2q7/QsDiDOqbOZF0zo/h1Y5dNMw2XZRoZCrN+9bjByO3Y7q0QZlv07d94+9czTI2LADNE6uga5Pa6N+6MQa2yTgGmPsHtGmCiT1ScHDWeLzabZdnR1F2FYc24+KqOUhuUBPlSqX97FCaw4L9sG/fHvsnTVGUooxKs6IUAl68eIElixci2N87XScAkeY6H0hmkJ0PnAWI0hy09G9sdcxHHISZkRvSTHlb+Qi/GLgEJcOi4FMq7WIWGtkLrzIl5Nj/qW5b/M2ME+bYPs74uOdAmhkxm/5VvoFwmXHmtxZ9/j94Bpjz6WJCYKbSbJfV7ZNHID4iSGTV1fO5AAnLN7yY8fcoA79MgvczAr3LoVFCZeyePgqvdrkhzvvX4+m2FRjfPTmdwFOagwO8sXHjem09pyiKSrOiFAYeP3qEEcOGwMdIQ9p6ZrvMtP0VvGb/OF09M2XId+FfosqWfxNJyhNpZqx4hL9ceAP/3XUiSgUF29rPlc2gJEIjw/Au/Y057iXxefUG+Nm47XZhdpFlZuSCNPObh7BVf2+uFRf1zZTm0f8PnlX+ZBuYOeynbD8raTay+mj7Sszq3wXh/l7pss1W8HaWTXARFHeidMmvUdbIbnLd6ri1br6tJtrxdZ2DqxQasV4wuGe6FniUZq6suWrlcllpU1GUoo1Ks6IUAu7evo3WLZvKH/o09cyUZh8jWj3/Nd2y2ZQgTvZiezn2Y3YlTbkmzYyVj/BXCy7jP3vNRDEjcRQ4yjO3w04QInTvM8pZYT92/NnV495hsJRFumQYWfYu9RXKeXvij/WS8Y9jjTBndcxzQZpZqsMyDU4Q9ZiT9vqR62nGX8Kz8W9sqwM6TqLk9s1rZSrNe9bIhMCrK+egY4Oa8viMxDm7UfrbbxDm74nTi6aKnGeabeZ9BzZg6Yg+Is3cD2s7ljQvX7YEL16+sH/aFEUpqqg0K0oh4OyZ01LPTGFOIx782jzic3gN+1m6emZKUODSn6LGnl+7FCaJ3JRmxqrH+Islt/FPY7bid20GoVjlqijn5WkTRCN1FMP3Ft9+JZPrfIt/Dt8Sn5vfv3T9uHcUPhxQGGmrUL40SgUE4pOazfDLHtPxtyzJWPHQFq6OsRW5IM0MtqGrtOHn8FlgBNkx22xfit2zw3/YtulU15y1NJs4sgUnF05Bo2q8dnNXmiuG+OH80pm2TLMb0rwsQ2n2UmlWFEVQaVaUAg6/Nt60cQOiwgKNeDhNAmQ7sNofwGtS2npmyg8lqPLmf3EpSqmR29LMWG5kb81z/MXim/jnURvxX10n47dth+H/WvXD71v0eX/RvDd+37Q7/tCoCz5s3BW/b9bT9ePeUXxg4netB+J/2n+Hf+8zF3/LpbJXPsGPVj8zxzGDkgzHyCVpZlhlGulKNLjQSd+fwzOQLfuyKc3m92tr5qFvqwbwMI93Jcy8jSUX7KHMeuOsgtJborgZcHiUxogOLfBo81LbAieOr+scKs2KoriJSrOiFHDYn/n7mdPka2RKc6p08OtySnO7X9o6HTjUM1N+wlf/fcZlGVbkhTRbscI8ftVTE0YEKXjL7uLHS++831hyGz9efMsWS83Prh7zjuJHDDlOj2yivOqx/Tg5HceMIhelmWUa8dv/A36LfpK2TINLag83Ml3pk3STATOVZoqq+X3x0F7w9Sxr5DR9fXs5cxtFmIudRAX5ICYsIIvwR0yoP2pWCseQdk1xdeVs8zoOcpxRqDQriuImKs2KUsC5f/8ehg4eIJMA00kz63J7/kua/syUHr/FP0HVHf+BRsc+cilJqZGX0myFXe5St6HhFNkQZcewH9dckWYT7N8dte6fzDVkBmAO0uw14afwTPoge9K8fwMeblyM/q0boVSJtJPvmHVmdjnQuzxS6tXA5B7tsWR4H6wePTDTWDVqANaYf/dMH417GxalTvBLI8iuQqVZURQ3UWlWlALOjevX0L5daxGPdJMA/YvBc6ARHQdp9pz7Y0Su/UeRoDQ9mV3Fu5BmjbyJXJRmBq+VGrv/W+rgPa1ss0wG/Ak8W/zafs3Zrz1uPzNpPrwZ+2aORe3YSMkmW89hlDfPY9u4AW0a49ba+cChLdKeDgc3uRdcejurkgzHUGlWFMVNVJoVpYBz4fw51EuqIdKcpi6U0hz5GTxH/H1qPTPLMgKX/BTVdv5X1sLMUGkuuJHL0szgpEAusZ2abeZkQP7c5d/gWd5s211pProVC4f2gp9n2TQDPUtYWybF4fKK2VlP4suNUGlWFMVNVJoVpYBz6uRxxESHiXykSjPlhV+XV/0InmP/9k2m2Ugzv2Kve9iNLDNDpbngRh5IM6+Z6rv+G4HL/ubNpMClJvr/c7qVATOV5kObMalHCkqXLJZmoFfOSCrLMiZ0S7Yth812cY6Cmxeh0qwoipuoNCtKAefwoQMI9PWQP/DWH/vUeuZ6v4PX5J/aJmwZyQla+lNU3/lfaHj0Dy6lKF2oNBfcyANptqLSxp/bs8wmlpkY9E/w9GCvbTekmZJqZHhsl7YiqY7SzC4Z7K+8aGgvvN69JntlFm8bKs2KoriJSrOiFHA2b9wgkwDTSTMzfy1/Da/pP5HaU04ApOy4lWG2QqW54EYeSbMt2/wrBFnZ5reR5gMbMaFbO5fSHGwGgDP6dsYrlWZFUfIZKs2KUoB5/vw55s2ZBW8jJ2k7Zxh58SwOr47/Aa/ZfwHP+T+C/+K/QsKOX6LhMTezzAyV5oIbeZhpZlTe+C9vyjOyI82Mo9swZ0BX2R9HSWWJkXf5UrJC4K11C7SmWVGUfIVKs6IUYB4+fIixo7+DlxGNdJ0zvI0097J9je5p5Ia1zLUP/q9mmotK5KE0c+DFbLN00uBKk9mV5sNbsGPKSCREh0h22XoOg+3mIgO9Mb1PR9zfvMSWbc5uZEe0VZoVRXETlWZFKcDcvXMHA/v1lj/w6aTZ9xsjM/8Iz0U/kkUpqu74z+xlmRkqzQU38lCaOfDiACx6/T9LeYZndqX5wEbJJHdvVhffliiW+hyGtTpgxWBfDGrbGLunj8L11XNxe91C3Fq7IPMw27y/aTFe7lrlvjirNCuK4iYqzYpSgLl+/Rq6dEwxosF2c07S7FcMXsP/QTKB4av+AbX2/9b9CYBWqDQX3MhDaZYwz+Eqgb4rjTQPNIOz7EizEdXX+9ZjZr/O8jhHUWVQmplx9vcqi9iwACRWCkPNyuGZRqKJpJgItKmdgPmDe+DxlmXuibNKs6IobqLSrCgFmEuXLqJls8YiGY4TqkRegr+E53f/D95Lf4TYzb9wLT5ZhUpzwY08luYGxz5E0r7fIGzj38BjQDalmXFwE84sno62daqhnBHkNNevCWacyxlpLVXya5Qs/pV7UeIrKfeIDQ/AQiPOT7ctz1qcVZoVRXETlWZFKcCcP38O9eskpZVmds6gvER+Ds9Rf4fAVT+RldyyXZrBUGkuuJHXmWYTXOwkZtc/w3OQiSyleVM6WX21fz22TRmBxErh5vEUZ9tzcxLMUJcx8svVBi+vdGOBFJVmRVHcRKVZUQowZ8+eQe3EhPQLm1Beoj810vy3qLjVtmS2SnMRi3cgzdJ+7uC/w3/kL+DhWdx27Vnbt0tzj+Z1cXv9gvTSzDi0GQ82LcGQ5GbmOU7fluQgSpf8GkHe5XFq4TS3pXm5SrOiKFmg0qwoBZizZ06jZkIVF9JsouIn8Bn390jY++/Z65jhGCrNBTfekTTXPv5rRE76b3j4cPu2bTN4PbKrS9u61XB9zVwR5HTCengLji+YjKY1Yu1Z5sylmY/JNMxjbJnmbyTTfMVaitv5dR2D0mwes2RYb5FmR3G3pHnliqV4qdKsKEUelWZFKcCcOnkC1eNjXEtzzMcInvZz1Dz0q+xPALRCpbngxjuQZkaD079D3NwP4BXyJTzL2LbNsLpgcJLe+aUz00vzgY1GpuejX6uG5vp1nWXm7WWNAFOCGWWNxGYapcxjShWXyYOLh/bCs+0rgH2ZZJkZ+9bjxa7VmNGnk0tpDgnwxrq1q/D69Wv7p05RlKKKSrOiFGBOnjiOanGVXUtz7CeInvdL1Dn+G5XmohjvSJobnvk9aqz4EL7xX6STZl6X7Ll8aM54p+4ZJszvy0f0RbBPBSOnDp1f+Fyzn7zNy/xcxQhwnSpRaFo9Fq1rV5XuGK7Cdl9V9GhWF8tH9sXjLUszL8uwwt7+jvJO6XaW5rAgP+zYvtX+iVMUpSij0qwoBZiTJ05kKM3ecZ+h6vLfocGpD7Q8oyjGu5LmU79HLbONsFafw6O0/fqzXsNcl36eZbBq1AC8pqBy4RH+u389nm9bgWEpze19mt/sl5RYGFkN9/fC0ORmWDtuMPbOHINj8yfjzKJpOLM4gzD3nV0y3baS4L4Nb14rqziyBYdmj0f1iqFS2uEszZFhgThx/Jj9E6coSlFGpVlRCjCZSbNfwhdIXPMHNDztWnbcCpXmghvvSJobmOuj7t4PUamPkWZmmh2kmdckr81uTerg5tp5wCH7ZMCDm3DaSG6LpHhpKWc9nlG+bAkE+ZTH8PYt8JzlFUe22rLUBxhGhjML1i9nZ0VAlm6YbbOe2aNM+iW9uf/169SUfuiKoigqzYpSgMlMmgOrf4WaIs0fuJQdt0KlueDGu5Lm479H3f0fImbYZ/DyMtt3kGZ5HfOagd7lsWJkP7y0T7qjCG8YPxiVQvykF7PjY7lQT5MaMbi47PvsCfDbhJH3G2vmoWfzulIL7ZhlLlfqG/h4lMG4Md/hyePH9k+coihFGZVmRSnAZCbNQTWLoebaj1Sai2q8K2k2z6136PeoMvZTePull2Zelyx7aFI9FicWTLFNCDy+HYuG9IafR1m5z3osf/bzLItB7Zrg+faVWXe+yEmYbb8w/84b1B2hfh7yGXLcb0pzVFggdu3cYf+0KYpS1FFpVpQCjEqzRobxjqU5zkizj396aWbw2mRGuX/rRri5Zj5wejfmD+ohtzuWRPAxgd7lMLZLG7zctVpqn10Kb06DMn5gA3ZO/U5a07FrhuP+WiLfukUTXLt61f5pUxSlqKPSrCgFGJVmjQwjH0mzvJ65RiuY+4YmN8eDLcuw4rt+kuF1zjSzJKJ3i3p4um1F7mea7eUhr/atx6HZE9AyqSrKlv5GJh867iuzzMF+Xpg/dzZ++OEH+6dNUZSijkqzohRgspTmdUaazxhpNvL7VmGEqOFJI81GiDKW5j740YqHtrCLmkY+iBVmEGPiZ+N2Zi7NW400H3dx7t0MPrfeYSPN4zKXZoa0liv/Lbo3qYPRnVojPjIoTU2zlXmuFRuBQ3Mm2DLNFGfK7tsG66Kt7Zifn2xbhvXjBqNRQuXUtnhp97E4PMxtLZo0xOXLl+2fNEVRFJVmRSnQuJVppjS7yBC6FUaKRJqzzDRTmE0sM7KmkT/Cnv13K9NMaXZ1/t0IkWY3Ms1WSDa5QmlEBHhJl4zU69YevJb9PEujS+PauLD8e7zcvcZ11tjNeG2e/2LnKlmu+8TCKRia0hTRwT6pgu742rytTMliqBgejPXr1uDVq1f2T5qiKIpKs6IUaDKT5oDYbxA34RPUWPYRqi/841tHjSUfoWKPL+ATaF6DfXjtguFlXrNChTL4uHYr/OOYrRL/NHqzRn6JMVskftlzOkpERJvz9Y05bw7SXKIUAhO+RtVpH6P6Ytfn3q3gc+f/Ua4Rb5+spZnB69U5w+sYFcra+jvXi4/GxO7J2DF1pPRSPjBrXLZi17RRWD6yH4altECLmnGS2fb3LCvZbVevT2EO9vfC5Inj8PTJE/unTFEUxYZKs6IUYI4cPoyqsRXTSrM92P7LL6I4/Ct+A//oHIR5vk9wCXh5pBUMK8r6+qBkeLRGPo1SwSGo4FnOnKu01wfl1stIrl9kDq8R+3N9g4tL6UWa18hBMCPNCPX1QFxEIBKiglE1mxEfEYSKwX4I8ConWeUypb6xlYi4eL2y334NP/O4AX174d7du/ZPmKIoyhtUmhUlX/NaviLmZKQnT57g4cOHuHv3Dm7dvon79+9j29YtiKsc5VKaKUUepUpJSUWOo/SbsgznYMbZu1Qxjfwapb+Gl/O1YUWuXiMutm8Pl9enG8HnMCvM5a0pvG8T7L9MUXYuxXAMS5j79uqBa1ev2D97iqIoaVFpVpR8BiX56dOnePDgvk2Qb93E9evXcdX8MefEpEuXLuLCxfO4ceMGNq5fj9iKEW8tJRoaeRnWNVk5Ogx+3uVFTvPTdcrPTanif0ZkSIAsYnL1igqzoigZo9KsKPkAZpIfP36Me/fu4ubNm7h27aoR5Eu4ePECLlw4ny54+82bN7Bl86YMyzM0NN538Lrkv4MG9MV3I4YisVoVVChdHKVLfJV63zsP8zmxyfKX5veSaFi/FpYsXogH9+/bP42KoiiuUWlWlPfIs2fPJaNMUb5y5YrI8PnzaeU4o7h27RoOHz6ALh1TpE0We8tSnDU08kNQTJlZDvCpgKVLF5nr+ixWrVyOXj26ykCP/ZjLfFsMZUp+ldrmzdV2ciO4L+XN54OyXrpkMfh6lkNSjXiMGjkMR44cwsuXL+2fSEVRlIxRaVaU98Dr16/x9OkT3LhxXcotLl7MWpKd49KlS/Lc9etWo36dmvAqb6vNpDznZbC+tBxfR6NAhlwjDKfzmqthf43QQB/0NpJ84OB+udb5Dcrx48ewfNlSjBg2GG1bN0P1qjEIDvCWjhl8btlv7c+3tlPKts/ZCXbBcPyd0hwS4INaiQno1rkDpk2djL17d+PRo0f2T6SiKErWqDQrynuAma3bt2/jwvlz2ZZlx7hy5bL59zzWrl2N4UMHoVuXDujaub0Rg7yJLp1SkNy2JVo2a2yikUYBDC4N3SG5jcvzm1vRtVN7keVpUybh0MEDUmpkGxxekNp81uhfOH9exHXFimVGYidhxPDB6NurOzq2b4u2rZqjU4dks50UpLRrhZbNG6FF04ZIbtMCHVPaZBmdOyajb58eGDKon5SFTJ08EUuXLMLePbtx/do1GbQqiqJkF5VmRXkPvHz1Ssoyrly+7FYpRmZBIbl+/ZoI9KlTJ3DixDGcPHE8T4JZwgMH9mHXrh0aBTF2bseePbtw+PAhl+c3N+Pc2bO4cfOGSHJG1y3vYwb61u1buHnrBi6az8HRI4exb98eHD16WK63gwf2Y8/unTh4cL/Z5hlcunwxy2BGm5+vZ8+e2T9xiqIoOUelWVHeE69evZQWcqxn5qx9ioQl0G8j0czkUUTyNi6LnFN2NApu8By6Pr+5G66u08zC+Rrmvt4yn4+HDx7o6nyKorx3VJoV5T3z4sULPHn8WNrL3bxhay1nfZWdE4nW0Mjv4Xh9W9c4Zfna1asiy+xFzmyxCrOiKPkBlWZFyUdQoB8/fiSt527duoUb16+JRDtm7ZxFw5INDY38GK6uVwbv4+CQWW+WU7BM486d23j48AGePX2qoqwoSr5DpVlR8imcrPTy5Qs8e/ZE6jPv3L4tvZkpF5zMxJIOyjTF49KltIKS9meVao28DS62Y3WAcQze96bk4rK5Zi+ba9cmyFy05+7duzJI/OGH53jFtm86QU9RlHyMSrOiFCCYfWM2mouhPH3yBI8ePcT9+/ckQ2dr6WXLTFt1qzahtpV6pJEcJ7mxwvlxGkU7XF0jDOfHWWJsq3e/KtcfB3Yc5LHsiIM+Lt7DlS5fvPhBBoPawUJRlIKGSrOiFAIoIAxK9fPnz/HkyWO7UN83Qn1H2ttRYNhlg2FJtRWu5NqVLGUWjs/VyC/h+lxlFtZzrWsiVYav2AZjVikFr6fbt2/JtXXXXGMPHjyQvsesQebAjteidV0qiqIUBlSaFaUQY0mLLV5Jf2grbBnr55KxZh3pvXv3bHJ944aIEUWJX6lbHTNsX7G/CUuqHCOtsKUNV4LmHFpK4hjmmNilNyP5df08W7Bkx/n8OJ9DxptzayufYB096+k52EoVYWaIf/hBrhleO+z84ijFViiKohRmVJoVRUmVHooQI61Y/yDZa2YQKU+MJ0a0+XX7YyNUbJvHjDbLRPhVPGuvbxvpsmW235SMpIqafSVDK1wJn0bacDxeDEfhZaeJG+Y483hb2V8KLyeT8pxY4svzxfPGlSifPTPn0QTPq3V+U4VYpNh2HagMK4qivEGlWVGUt8cuVbawiZbEy7Ti/SZ+EEmjgLO+lSHy/ZhS90jkjmUlFL0HFPF7FPG7uCdxR6Sc2XARcyOHnEzGsAkj/72JGzc4WdKK626FVbaSUbh6jut489rW/nDfuI8cSHC/KbR37O+FwffG9ylh3jMHIY8YFN00skvRNQMXEzyGjsfVOtYivdY5cJBeFV9FUZSco9KsKEq+wVHyJBwE0ApHQXwTb8TRUSbdDUpoZuHqOVmFq32zhXkPTu+J71PC6f2b/9iPjKIoivK+UWlWFEVRFEVRlCxQaVYURVEURVGULFBpVhRFURRFUZQsUGlWFEVRFEVRlCxQaVYURVEURVGULFBpVhRFURRFUZQsUGlWFEVRFEVRlCxQaVYURVEURVGULFBpVhRFURRFUZQsUGlWFEVRFEVRlCxQaVYURVEURVGULFBpVhTlrXn9+jWePn2Kx08e49WrV/ZbFXd5/sNz/PDDD/Izj6WS/3nx4gVu376Nh48e2W9RFKWooNKsKMpbQ3mYNXs2ho8ciWXLluP4iRO4e/cunj1/9l4kkAJ/5+4dEZr8LvHnL1zApKlTMWfuPNlvpWBw4sRJtE1uj3kLFtpvURSlqKDSrCjKW3PmzBnUqlMHxUqUhKeXDwKCQtCoWVOMmzgRO3buxPXrN/D8+XP7o99Aoc4tqeZ2Hjx4gAMHDmD02LGo17ARxpvXf/T4sf0R+Qvu78FDh9C4WTN89U1xePv7o9+AAbh565b9EW+fdX758iUemQEDJTyjQUNuHvuiyLZt2xESHomRo0bbb1EUpaig0qwoyltz8+ZNtElOgX9IKFasWIkBgwahemJNBIdFwCcgABVjYo0QDsS2HTtw685tkbrcgtu6eu0aFi1ZgoZNmoiwe/r44qviJZDSviPu3btvf2T+gaUYS5cuRXTlGASFhot4DRoyFKXKlkODRo1w/PiJHAnthYsX0S4lBd/Pnp1h9lqlOWds2boVweERGKHSrChFDpVmpUij8pAzKK5jxk1AcEQk7t69J1nO8+cvYO++fUbcZqF5q9YINff5BASiSnwCRo8eg7Nnz/HA27fwdly4cAGjzLYqxVSBl58/qiRUM/sxHnPnzoO3rx/69O0v+5KfuH//PoaNGIFyHh6oUbMWNm3ZasT2GR4+fISZ338PT28fkekVq1al1jlnl8tXrqBaUpIcjxtmQJMZPD737t+TjLR+Dtxn6/btCImIwghz/SmKUrRQaVaKNJzUc+rUKSxatAgLFy7EkiVLsHjxYvnZOfgY3sewHp9R8DGnT580UvnC/kqFlyXLlqOCEb7tO3bab7FBob527Tp2792LqdOmoX7DRvAxghseGYUBAwfjDOXZjrvSdu3aNYwcPQoRFSvC1y8AjZs2x7z5C3Dy1Gk8e/YcR48dE0GfMnX6W4tnbuCczT1prrHW7ZJRunx5JLdvj1OnT9vvscHrcP369YivXl3KNYYaub5rJNvC3ePzg9nOtBkzUapcBezavcd+a3pevnyFsRPGI6VjBxnkvAucj4n1u/Pt+Qnn/SWZZZrz83tRFCXnqDQrRZqHDx9ixowZqFq1GmJj4xAZGS3Bn+Pjq5lIMFFV7o+JiZX7KleOld/j4nhf+oiLq4qIiGj069dfpLGwQzljtrd3n75GXJ/Zb00Ls5kXL13EqtWrkdK+A7x9/VGpSpyUVrgjGXwEM7BVq1WHh48vmrdsjZUrV0lm1ZENmzbC09cPa9atN9u13/geePOeXmPtunWIq1bNyHAAvhszBrccapedOXrsqBHZjihTwRPNW7XBmTNn7fc4bjNzrly9Kq9z6dIl+y3p2bptO4JCw9CoaTOpB38Xsuf8Gq/NNeFYd33s+DGMGTsWp8+csd/y/uFg5uDBg9i0aTPu28t99u7fj4QaiZg4eYr8Tg4fPoyV5vrUCZ2KUrhRaVaKNJykdvLkSWzYsBGzZ8+Bj48/2hupW7VqNdav34B1Rr4Y/LmPkcKwsEj06tVbfne83/Fxq1evRbVqiRLHjh23v1Lh5cKFi0iqXQ9VzODi/v0H9lttkuRKIm7fuYOlS5eLeHgb2Z4zb579noyZ8f338PD2ReUq8Zg7b4FMMHSGgjNrzhz4BwYbiTlqv/Xd4iiFT8x7Hz9pEvyDQxATF4cly5a6lf2+des2xo2fKOUaVaomYOPGTfZ70ounhfNtrDU/d+4cTphr+8zZs1Ia4sjgIcNQsXKcGWRslt8z2m5esM58Rrbv2CE/W6/Jfa1Tvx7Kenhi1tysr4d3BQeBAwcPQZNmzY3M2wYwLGs5evSoDE4sxk+cgKQ6dXDp8mX7LYqiFEZUmhXFzq5dO40UR2D7dtsfdGdWr16DpKRaMuEtKwYMGIDo6ErYs2ef/ZbCC8WYE9r8g4Jx+/Yd+622AUm/gQPQs0+fNIJhcez4cSTWroOQiEgjuUfst6Zn/cYN8PT1NVJSH0ddDEIsMX/06DEGDx2GSHPcL79neWGWt1uPHvDy8UNySgccMZKVXZihZo1zWFQUJkye8qYvsJPcOsouy0A48bJO/QaIiU9AdEwVVIytgmqJiUhu3xFbtm2Txx09egw7du6Smup3JcvksXm9Js1boHrNJJw+bcsoU0wnTp6MP376Gb7+thTaprR32XHlfcBrK7ljR1Q2gx5er4RtFhcvW4aDhw/L72TgkCEIjYzEKft7UhSlcKLSrCiGe/fuoWPHTogxknH+/Hn7rWlZsmQpEhNrYuHCRfZbMmbq1Gki4Fu2bLXfUrhZu349ynt6YacZeFgw8zty1HcoWaYMGjRugrPn3tQwW2zctAkBwaHo0au3yxZprItm3XJ4VCUcPPhGUsiRI4eNkKaY1xglv1PYW7Zui8Sk2pmWQOQ1m7dsQZIZDPzqt/+L3/zuA1RPTEKHjp3Rpm2y2b82aNGqjUyQTO7QAZ26dkObdinmttZyO//lY9q2S0b7Tp2lPvvf/+tX+OSLL9HeyJurkgtKL48da20rVopBsZLfonGLFhg4dCiGj/wOQ4ePQIcuXczAIwBe/oEYNHiIXO/vgw2bN0uZyn//9ncYP3GS3Hb6zGnUbdgA4RUrGaFuibDIqPc+6LGgNHfq1g0J5nPPspFHjx+hT79++ONnnyM2vqrU0pOhw4fLAMexTl9RlMKHSrOiGC5evIhKlSqjT59+UuPpiuxI89q16xERESklG0WBw0eOoJynJzoY0Xvy5In9VuD5s2dSovBNyVJGJOtKqYAjd+/cNc/pIsJx586bLLUFJTE0PBIDBw/Dix9skyopiGvXr0OlmBiUKFUKE8z2yTkz2KlcJQ5tk1Nwz6kcIa9wzNJydb9pM2ZIrTBb7jVt0RKt2rSVCZC1zHuvVaeeCdu/7CVdzgwyfv/HjxEdE4vadevLfUlWmMczOGBo3bYdGjVtim/N4COxVi3s3rPX/opvXp/HhGUcTZo2w7SZM/HY4RxYsBSjWctW5piVkWN05YpT9v8dZJx79O4Nn8Ag/PnrbxBlJJkTItkJhWUozc1gYdnyFfD08cHipUvtz0h7jN81jtJ88tQZc2xnwMvXzwyEEuEbGIwGTZpKedKoMWNUmhWlCKDSrBR5Xr9+hU2bNiE0NBzbtu3I8I90dqT50KFDUp7ByWpFAdbQNm3eAr4BgS5LMWYakStdrjxq16ufJuPMYz3ViKaPfwAOOXzdbbFr1y65jzXNhLW5rPf1NeIVEV1RJgdacHIbhWbCpMnv5Ot9x+uEExIHDRsKbz8/mVy3Y9duPHzwEI8fP5YaWMd4/OixCHa/gQOl3nnbjp0y0Hjs9DiJh7Z/mRlm7+WQyCgRzAULF8t9jlCcM5qIafHMSKD0hTbnYsCgwSKFju/jxcsX0qruxYvc66ftCEszOKDga0caaU6qW1c+IzXNQKJq9RrYsmWLLJbD8g2uLmnxvsSZx6ezkeZqNWth1qy5ss8tW7fGNXONfz9rttRgM5M/avRYlWZFKQKoNCtFHopYz549UaVKnLQ0y4jsSDO/XmYHjgVFZKldChs7Y5QpX0FWArRwVJ3Zc+agbAUPNGjUxByfN10v5i1cKB0vtm7fRjuy32p77sFDB6VWevrM73H9+nX06tMH35YuJ2Jq1ZgSZrTZp5kt7Q4ePPROJWvf3v0yYPjtBx9Kicq+/Qfs92TOkGHDERQSbgYLGddzOzP8u1H46ONP8NXXxdF/4GCXAxSS2funyLfv1AlBoaHYsHGj3MZFUWYaKe/Vty86du6cZ23o2OaOnUG+nz0HK9esgV9goAyKKvj44pMvv0QP8zmcbh9EMRvP2mtneK2xt7XjNxp5BaW5a/fuRuhrIsFIfaXYKti2fbvcx2+kWrRqhfhq1dGidRvExMWrNCtKIUelWSnynD59WgSXXTGY1cuI7EgzRZxt6caPnyh/5IsCLL3w9Q9Etx49pZUfobxZAvf61WsjRDPh4ektZQvW4htTpk+X2t3DR408Osne3bt3REpamsezpMDDxxvde/VK7Z5hbfvixUtIrFUbterVy/PSDOs1KW1Lli6V/QsOCUPDxk1E8Dt07oKLl7KuyeWkxcDgMBwwkp81r7Fp82bJZlaMqYK6RijZ5q9Zi5Y44iCWqcfa6TgS3mbdvnPXLoRHRaN9x05SN75uwwb4BQcjMDQczc022bs8L7htzidLGpgt37FjB5YuW4ZGTZqhbv2G8DPHLi6hqgx6pk6fIb83aNQY587Z5hiwfIe18xw4dOvZywwaBsmk3LysXxdp7tFDJlOWLu+BLt174MaNN4vGTJoyRcpxKPnsse2qbl9RlMKDSrNSpKFDsAdrREQUtm7dlqngZkea+TV5jRo10bNn7zRt2AozDx48RNdu3aVWd/+BtNlWS9bYco0ZYZYHdDeDlNNGtFM6dERMlTjczWByWpfu3fHhx5/gT599LgubGPWz32ODx3r8hInw8PLGjO9nvZNFTShqXN3vi2JfoVT5CliwYBEeGYkea/bD08cP7c17YvY2M4aINIfi4IHMpZnHjhnh0MgoRFaqjJ279+C5eY+du3bDr/7ntyLSK1evyVbmlTXP7FJBeWVpCd8PV7rjzy/Mti3Bts5bbsHJoX36D8CvfvNbJJvXt87VyxcvceDAQcyZO1e6U/Bx8xYsgI9fAIYOGyGD0O9Gj4GnGShQpnm9fFu2nHRVWbJ0iWwjL6A0U5SjzDEuUbosevXrb+T9zXU6a/YcBIeFS5mGSrOiFH5UmpUiDYV24MAhiIuLx40b6Xv/OpIdaWb2rlGjRmjQgJmyovOHlFl7H39/aTP38GHans3WgOT+gwfSFi0kPEJqnMMjozFg4KDU+x1F7c69u9Jp4otiX8PbCNTEKVNw8dIl3DJiRdHjsR03YYIRVV+ZeJcXWUdneTx99gxat2uHsp6eRpY8ZAlxq5Xb48dPMGbMOOmx3C4lBecvvBFnZwHNTJqtx/LfjZu3IDy6IqKMMG93KH0ZNHQovvjqa5FI1kaPMAOKGw7v3/n1nGHHB25zx65d9lvSwudntQ13sLbB8z552jRZVp0Dq3Hjx2dag81vKyj20ZViMG7iBASHh6N1cntpq/fSSPWAwYOlhjxPpdnsX8cunKgaK1n4eo0b4/jJk3Ifr1eWC7HbR+W4qjKh03miq6IohQuVZqVIw0UKuMJfJ6euD67IjjRTFLp27SodOTiZrajABT1YA1quggdmzZqT4TG9dOmyLBjxy//5H9sEKof+tpZk2epJe4hgdenWHY2bNJfOClUSqsmS1CzZqGhEhYueNGveIs+ExdofCt66DRslo8ja7anTpstiKqFRUdi0ZYs8hrDEZ/SYMSLylL6M6oOzyjRTyrZs3YaoipWlltZ5mXLWH/PYLV+5Cp2M2JWuUB5NWrWULiI2MpfeMUZaKc0bN9sWOMkLrNfntxDcX2bl2RaQddxc8juz/eO11LffABQrXlLaFlJK9+x90/ec2+PEvEOH3SlveTtevHopE/2at2yF/oMGIigsHGPHTZAMOVcG5PFv37EzxoydgPoNGuKqw5yIzN6boigFE5VmpUizZs1ahIdHYv369ZmWZpDsSDOZNGkiQkJCsMqhw0NRgJMp6xmB8DLSOHjIEOlvy0lTnIDGBTr49TtrgSsZCfq/P3yEuKrVcOVq2gmYP7z4AePGT0DZCp5GVthX+AFu3byF2XPmSvu1MMm8xoiAsT3Z7TzIMDvCrOe4CRMl2105Lh6r166T62XJsmUIjojAps1vpJnwvY6dMAFefn7Sd5lt1ZzJKtPMHt+RlSohJr5qOmEmzHKybIAr1T14cB8TJk6UzDf7B2/fvj3LMpUh9kzzrt277bfkDZy013/AIJQ2wtyrbz/cuOFeNvzu3XtmoNRUWuTFV6smNd0W7CbCbykaNG4sg6vc5tnz5zh79hyOHj+GtVzt0wyWzptz2NoM1MIjo8yAaZr01GaWma3+Tp08hYWLFuPIsaM4dfqU1F+rNCtK4UOlWSmyMPs1fPgImbCXVWkGya40U8TDwyOKTAcNR5jtZM0tpZGZ0lZGblnf3bFzF9SomSSt4eoYse7UtSsCzcBiyLARUtJiwU4avgFBaN02OU2nDT6Gtc9crpgdSviVv+Pz8orpM2fCNzAQTewT7ywhWrh4CULMoIv18M48e27rUc02fMnt26cTZ9ZEB4WE4YjTkt+U8W3btqNSlTiZZLhrzx77PWnpw0xrVCUjbLYFNpgJX7FypfQ/rmhkmtLnjLXflPpWbdshLqGaywVTcor1Omz9N3L0aPm2oFefvjJgchdKP2vjN2zaJPXh/J21ztzmmLHjUKpsOYwaPUYem9uCyus30gzKfAICZGDSoHFTzDIDtnXrN0of7WLFi8PPXJ+Tp07Dzp275RsRHsuAkFBzPYdh6LDheda2T1GU94dKs1JkOXLkmEzW69ixs1vilV1pPnnyJGJiYjFzpq3HcFHBEph79+5j9bp16N6zl6yQF1ulKhKq15SyimnmmHDS2bXr141cG3EODZWJYOS6GcBwoleYkVH3OkvkPQcPHcLS5cvT1acvMtLMvsNcxIYT6Ch2lDpmKnlN3bl7V5YYL+/ljbYpKTh7/pyIH2PgoMHwDwzG7t17bbf98EJKEjZyYmp0RURUrCj1zJz0Z8kiw5LH7j16SnnCyZNvOl1QuI8cOSrLUrtaLMZi67ZtkiXlICarb1hyAuul2VGkTbvkDNvjZYZ1Lb00+7h0+QoMGjoMKZ06SekLv2W4du263J/b0nzsxAmU9fBC89at0d+cJy5LzraInLTKyabNW7WSloFc1ZDHkXXaPcx13rNXb/N+Q9CseUs5V4qiFC5UmpVCC/+QZvbHdNGixbLU9YoVq9wSB0ozJdtdaWZWrUaNRPTr10/E5tChw0YMD0gcPnwYJ8wfZi7ZzXIGfhXNTKE7f/yzel/vG8d948/8Kp01zMx8sr6XWX1Hodi6bauIFSWQX+VPnDwFJUuXNUK6OE+Fzl34HizRdYb1xCXLlJfFOJgV5+p9rdu0Qyt7tEtpj/qNG+Obb0vh0z9/iarVE2XZbLbPC42IQrES38oKgdZtzZq3Eun646efiYhRDNsmt5dtpoZ5nTbJyZLFZ+kGywGcYSaZ0m6dC8dzwsEMJylS9rZv3yFiz97auTGJkq9jvRZLctq0aycTPvfue9NNxXFf3IXfLrAUg8fwT59/gfqNmuD4CduEPFc47sfbcPLUSfgFBsnEUw4+KPyjx4yVbw169O4jk1GXLF2GMHOOWMu8b/9+uc737duPSjFV5H1nVR6jKErBQ6VZKZS4+qNJKb18+ZLUe06fPhP16jWAh4cXWrRohc6du6Bv374YN248Vq1aLVli557NS5YscVuaKViLFi1BSEgofH19ER+fgCpV4mUBFfaEZsTFVZXSkOpGpOoYceJ+9DDiOGH8RKm15sIOFJnM/vjmRAzyC/fu35P2cxEVK2Ht+o0ii22MGHIgkd9Zaa6V4qXKyISw2vXqpY269VDH/Fu/USPzb31UT6yJxKRacht/r1WXS2bXSX2c3FanLqqZx9WsXRsNzPPq1m8g9ztul49jlC5fHrHx8dJNwl3YLab/gIEo5+GJ4SNGyrW1YROPOTuZ1MO6DetdDg7cwfkzt3PXTvj6+cvrPH2a+UqFWcF92rZtGxo2aSpLcDNzn9KxI5atWGFvk5d+n3Py2WD9MjuWOC4Lz9rpbt17mkFAuLTDY9aZguxYk85vCbzNe2b9+7soG1IU5d2i0qwUerjwxezZs5GcnCKCSmGtWjUBNWsmoWHDxkZWW6Jp06aoX7++ZIZ5f7wR2iZNmmHMmLGpq5KtMH+g3ZHm27fvYNiwEbIsd5s2bTFlylTMmjUL8+bNw/z5882/883+zDHiPgPjx4/H0KHD0LNnL7Q1oli/fkPZx7i4BIlateogJaUDRo8egw0bNuLq1auFQpSd4WQq9rrlwh1ljAzu2bvXWI/9znzM4qXL4B8UKksqc8KjxOnT6YJZdtbJssMHH3PGxLnz56TO+az9NnnsGfPYc+axJvgY5+0weDujddu2iK5UOU15hoXzNfLo8WOZSMfFUMpU8EC3Hj3MgMxWX3z9+jWZRFgxNgZNW7bIdIGfzHB8TZazsCQnLCIKx469WbkxpzDju2btWvTo3RuVqlSBb2CwTGbkinzs1b1t+w7pYOGYZX8bmDXu3KUrAoJCcMC8F4vDR45KSUyIGdgxg84e0hYc4Ca374CQsHBtPacohRSVZqVQ4fiH8syZs/juu1FITEyStnJNmjTBkCFDRVw3G4HgymNc+Ywiwn+PHDmCHTt2Yvny5Rg3bhzatUuW7DCzxNzOgAEDRLRZ1pERx48fR/v27REcHGoeP1Dkx5ZxSv8HnKUHz58/E0lhKcfFixelBR6/Ml++fCUmT56Cvn37idRXq1bDvIcqUlPdsUMnzJgx08jI0TRZaL73nIjC+8DaX8ojW4p99MmniI2Lx927d+X2/A4nAoZGRGPHznffVrD/wAEyEdBZmlkDvXzFKnTo2AmdjPgld+iIxNq1pdyAwseuHjftqzFax5+Z3H3790nW+W3KChy3w7KFSrGxMslxwaJFZntvl7nODJaUsCRi1uy50o6Q5TH8hoKlLbHm8zph0uQc1RTzs7l//wHJGjdp0VwyzxbNWrSSri+8b83adXIbByVDR4xABS8vDB42TG5TFKXwodKsFDqePXsq2WCWPERHVzIS21HqkSnH7q6axj+a7M6wceNGWV6b8uzt7YuoqIpYtmy5/VFvoDRs2bIFdevyNSti5syZ0qYsp7AulPvNr6ZnzZqNHj16oU7tupINr169hnlvHcwgYIGRzvOp2TVLYAoSXPGNnTS+Kfktxo2fWGAmUVGag8Oj0rWcy4grV65g7rz58l6bNG8hvapbtGqFESNHYs++fdK72F3Ycs55IiBhGdK8eQtQM6kWKsdWka4OXI6a3TrYXi43a20dr7VHDx9JttcvMFh6aVMoc/O1MoKfkcNmwMvOId+NGSPLuM9fsDBXrqE58+bJMtk1zLGcNHmytP5r2KgpfvPB7+EdECCTAtet3yDdUfyCgqRH+QP7oj4F8XOoKErmqDQrhQpOMmM2mRP8mjZthuXLl2XY5opSe+XKZZw7d14mqF2/ft1lz1dmgjds2IDmRnIqVPCUUgrHTCglZe7cuYiPj0eS+eO6evUa+z02Mvrj+TZ/VB89eoxjx46Z97VC3medOnVRuXKMlIFQrHP6tfT7ghlKrhbHVnRHc/Hr/LzGXWlmN4158+dLTXNAcDAqxsSgdLny+PyrYrJAS1BoKMKiotHNXFvsu2yR2bnMSJp5Ddy8cROHDx/B7j27ceDgAbdaKuYETmqVFoM+vmjesiUOHj5sv+fdw88wP5M5mUT66NFDrFm3zkjzfCPEHREUwvMTJcuOs9/0Hz75FF8VLyGTKbnwDFvN1TUDk3GTJpvnrZdyHJVmRSl8qDQrhQbWIXbp0gX+/oEYMGCQlDs4c+XKVcyftwC9evWRGuLGjZuiQf1GaNSwsUhxSkp7DB40WCTZubbz0qWL6NOnLyIiojBixAj548zX5M+U9LZt2+KgERQLTjhkdwzCjhksvaAcHj9+TITGHaw/vBn9AWZZydChQ+Hn5y+Z6HeR2csrVq1ZI63E9h88WGCEIyNp5v5b7+HJ48cY8d13sopgtcREWRhj7969Uv8abeR5x67dMqGtc7fuUm/MCXkHDmUtnRlJsyv4elOmTJGa6dzkmLmWBw0ZIrXVHl7e6Ne/v2TTCzrnzp2ViYC2co+q8PYPgIevLzp06iLdXSZPnYpJ5ngOGDRIlvkuZQZAFWPjEBIZCZ/AIAweOtxelqUoSmFCpVkpNLA1FNu7TZ06LV0ZxpXLV2TiXZMmTRFuBLdaQg106NAJvXv3xYD+AyV69+6D1q3bIjoqWso6uLT2ypUrpX2XBTPMfFxERKRkenv06IHg4BAMHDgkjSww09WsWTN8//0sI8ovjaT3koVUrl+/IfvYr1//XBNDTqJjzTbrsfNDi7a35cD+A0a8fKReu6AIR2bSTHg++LX+t2XKoknz5g5LXAN9zDVAIbv/wFbGYzRbvu7n5Db2BWabvszIjjTPmPk9ypb3wLQZM+y35AxOVhw9bqzULrOOt0nT5lImxAFCYeDY8eNmkOOJhk2aod+ggUju2BE+AYFonZyCa+YzbMEuGlHRlRFXNQF9zYCBZTcU7AZNmhSYEiNFUdxHpVkpNFBUXP2h2rt3P5o3b4mgoBA0aNAIkyZNkgytK/h8ZogHDhws7eDCwsJlAiBb1VlwQQW2qCtevKSs+Ddp0hQRY0co7ezQMWzYSCPdT0TGe3TvKa9LcWc5RW6IIXvu9u8/QGqus5Ks/EBGAwXefvDgQfgHBoELYdy9V3AmAmZWnrHPDATYgaFx02a4ccM2+c6ip5Heyua83bR3sbCYt2Ahvi1bVlaVy6yTRXak+fylSwgMC5Mez6wBzimsjy5RuhRq1qotk/0cW77xXGZ0ngsKbOPH88b6c4vpZjBXsnQZtG3fHvfu38cyM6D28PaRtoCnTtsy+BcuXkJMfALaGLn+4QeVZkUpbKg0K4UWSunatWsRGxsvmePvv5+drcl558+fw6BBg+HnF4CWLVvJhDwLft1dsWJlaQdn4SgKlGZO1Bsx4jvz81Mkt2uP3r364MyZ07Ittr/LjawwO4Sw33TLlq3TZMTzG84ixd66m7dskQlbEyZOwqChQ9GydWt8WewbycqypRhrnOctXIgtW7dKG7GM4PvmUtucTPiuyUyaX7x8gW49eiEkNBx7XCyFbUmz1frNgu8nuX0K/IOD07Q7cyY70kwGDBmCgYOHppP37MLPFbPm1ROTpL1iYYSlXZzQy+Xfudy+BVvMcYGTCWbgzYmcMfHxqcJM2Lfbw9sPU6fPKNDf+iiK4hqVZqXQwr7GLFtgr+P9+21LNJPsZsG4SAlbyHFiobWMMss0mOFlKzhO+iHO0lytWnUMHz5SpLld2xT06tlbxJst5NjOLjf+qLItFvs5T5gwwWwv/5Y0WNJMWZ49Zw4aNW0qK9pV8PJGYGgYIitVRmxcVRGxajUSEVUpBgHBIfLVP1t7NW3ZUjoZXLhwEa8cjjP7FbMdIAcNffr0k3aAXHmR2VQe3+ye6+ySmTSzrVulmFjJnFst3hzJSJq5z+xy4eMfgPlm0JDRdWJJ86lT7tUpU3Dvm+OS00NCqa/XoKFkz3O6aEl+hddPn779UN7TG9u2b7ffCpwy1xs7knDCqn9IqCxiYsHl35uaATEnDL7NkuGKouR/VJqVQsnx4yekpzGzsCccltt1lCjKCOug2VqO9ciZZSrZu5mlGqxz5uQ/wlpiZrDHjBknvztCaY6PryrSTLFo3cpWnsGFLDjhkOUZuSHNnLAYa/6Is++0eXe2G/MxK1auQER0tCxI0a1XL6xZu0YmWPJ4vXr5pmUef2dv3JUrV6Nrtx7Sw7lE6TIYMfI7eRxhxwZm7VlTXr9+A1mYhi0Bueri2LFj8dDe+isvyUya9+7bC9+AIEyYOFkmgDqTkTQTZtY5kBg1ZoyU97ii34ABshIhO7+QjM4+j2duXGsWLGFq1KSptLGz9s3xc1VY4IIzEdEVUad+fXMu98k8BdI6ORm/Zcs5M6jZYP4fQFiy1ad/P5kQOGrMWLlNUZTCh0qzUuhgV4t27VJQqVIMtm17kyWyoMCwrGHRwsXo1q07GjVqJCsCMnO8bu06kWgLR9mYOHEiQkPDMHXqVPmdk/q4kEm9evXTfIVLKBZdu3aTLPWrV68xcuRIWRmQq4ZxdT/G69fcdsay8ezZc3k8vypmW7xLly6JsL+S59lgP+jY2Fhw2e/8wBNz7ClxR44cxT4jGixL4L/sHMJOIrydK8TxeLkrWnwca7fnzV+I9Rs2ym3sgsJzHBkZJW0FeU4p2hxEcJImBzOuuqfkNplJ8/oN6+HrH4iF5hpwRWbSzMU74qpWxcAhg/HULmvkpbkemem9cfMm2qW0l8lp8xcskvZoq1avwbUb1+V45bXEpnTshHBzjLlAEOHnpDCK89JlS0WcOcgbM248tu/ciboNG+K/f/u/Us88dfpMEWf22+bS3v0HDjKfT9tzC+PxUJSijkqzUuhYa8Q3MjIa48dPSM0OWfB3LnxSLaE6IiOiEWekpaH5I0jxjYmpIrfVrl0ntecxscSZS1i3bt1GFjChwBIujc3JgCtXrko3GZA9lSm+/ONJoaPM82f+y9/5s6s/rA8e3Jc6VdZgt2nTTpbuTjD7W6tWbVloZf369bhtRIulCp07d5X7M+pF/S6hLI8dM072lfXelSrFSlQ2g5eYmFhZkIULzXDFw5xMguQqiiNGjJRlyjlosOB54mqPvH306LEZZmhzk8ykeZ05T6x/XWQe44qeffoiJq4qbt9JP+mRg6XYuDh06tYVx04cx0Vzve3ZfwALly7DgMFDUK9hI3j6+uGbb0vBx4h5BSNwCTUSsXPXbvsW8pbZc+ehdLkKaNayVWq9uatr2dVtBQEOwviZ4uecA9/4hGryrUFQcCgqeHqjVJmyKFvBE37mNv/gEIRGRGGQOS8s3+Lz2Oe5oL53RVEyRqVZKVRQRlu1ao369Rumy74y+ztx4iTp48zHMAt6zfzBZ30ygyUaXAGQdcpBQcFYs2ZtmkwzYc0s5Zrt6wjLLZippkw7Z5vdxfrjyn+5vS5dOhvZrCzyV716opSEsF6XHUCYPQ8JDkf9eg2kLpqlCFyu29XX/+8KHqOdO3chLi4eoSERZn+7yAqMzPLzdq6UuGwZF2MZJkuSc0BD2WXdKEtimD23gr9bwUmbllzzXw547t69Jxn/sLAwmaTp2Jd63779cjw40MjpZDd3yYk09+rXD5XM/l43+8r3xvdL4eKS4gsXLoSPkeJyHp4INccrxAzMKGgePr4iy1GVY9C2fQdMmjIVq9euNdfyXpwxwvauaox53MeOGyf7xH7FhY1Lly+jRs1E6dUcX72G1KXznGzZshVr163DZnO+OWeCqxCuXLUK340egzp166OS+X9DjBmIj584OUcDQ0VR8icqzUqhgmUXrPGdaP5oObefW7x4sdS8du/eXVb/cwXFlW3hbJnnWOxyytwxu0t5bdGihWQyKSkU8YSEaqnZ57eB0ku5rFkzSUoLWL5BCWR2mzJJIWf9NTt6rFu3VjK2ZcqUE7lm5vZ9QTFYtWq1yDwnPm7atFmEl+/HcTBgK594KgMZtutjdr6ukYxGjRqjYcNGqcHfrdtatmxpZHuZSCRXQOTggQMadjPh8uGOx5s/czIg2wS6u3BMbpCVNLN8YsnSZfZbbHCQ8fyH5+jRq5e0NZs+83vp2VzfvOeYuDgEhoTCw9vXSLM/EsygqWv3Hpg6bbp0ZtixaxeOnzghA7wHRrKdB0syuDDX/YNHj3D5ymWZnJZXA6oDBw+KJHJCIM85z7Oca7MPz41UcyDAKIjyyI4YLLeIM9c0F5vhio3B4eEYO2E8bpvPIeF73bptG+o2aAhvf39Zrjypdl3JRLdu3c4MLArnJElFKcqoNCuFBsoIxZg1rSxhcIR1ylxshH2a3ZFb1uBSvtmv2TGDzNdgtwZKMksoWK88b958xMVVNXL3ZuGK7ECp4EQ+ThysZ/5Ab926VTLmGfNavr5nv2muTshFWvJqmWRLfClefE3Hln3c76VGCKOiokV0OfnSHVjGMXXqdPTt288c30HpYvDgwfJv8+bN7WUeMfIaLIvh6ovr129IM+hhxnrUqNGSweY3Ac7fDuQlIs1hkWawkF6aN2zcKB0wFi9ZKseRYrl7925MNOctpUN7+AUF4dMvvpQODWFm3xs1bY5+AwbJAiRr16031+AxXLl6TZ6X2UqPFPArV68YSd+A0WPGIsUMKKrVrCkTLtlmznHJ99yE+zTSHPeyHh5o0aoV5syfh0VLlxixnGAGBL3RNiUFHcxAZ/ykiTkaUL4PTp4+Bd+gYJnEyf937N+/D+07dpJOLhMmTZbHcAGU6rVqyYTN2eb/AeyYwU4brH/mOdA+zYpS+FBpVgoN/CPOhUgqV46RhTIcWbZsuXx1z8l47tKxY0dUrVpd2ro5smDBAlm4hFlVOuXcufMkw/m2E8/Yhq5+/fpISqqdbr8zg1k8rjjIJbw50ZC10sQS3ZziuB2ujFi3bl15HWtxDHYUocxyMMKykuzAfb1zx1YW41ie4RhcUIZdRsqVq2CkeIxk+V312V69eo2R60ro06ePy/vzEpZehIZHydf1zrBsgsuCt2jZGt2697TXxQbCPzAQcQkJaNehI8aNnyCZ+kOHD+PylatZCjJ5cP8hjhihnr9oEfr2H4B6ZiAYxuWbjaAHhYShavXqaNmmDQYPGYotW7fJdZLbWNeGTGwdOwZR5vj7+Pub92f2ISwcMXHxsvBJnPlcUDSrVk/EtOkzpObXuk5dkVvXbk45e/48QiOj0LffALywnw9O2GRWnW3+Nm3ZjP6DBsE3MEjOg5VN32kGRWyVyHKNgphhVxQlc1SalUID/xi3a9cOderUSSdxw4YNl8VGmOlzlzlz5oiQspbRkTVr1kitMScIkTlz3l6aKXkjR34nJRlsYecKZnnZMcHxj7AlF/fv3zMDhUFSSsL3xsx3brNq1SrJrAcGBst+Dh8+XI4NX5OrG1q9q/OCBQsWIjw8UurLXcFOHMxA16lTV0pX3jWU5rCI6NRevrdu38ZGM5gaOGQIKptB2mdffiWlFpTGdikdZFGM9Rs3yH5fu35dynuy4v69+zh46BBmzZ4tyzRzW8HmugwKC0PluDg0bNoU/QYMxJy5c6Vc4Ojx41LW8/Dho3cibo8fP8KBgwew3AyslpmB1OatW3Hw8CHpH33s2DEsXLQYterVE6kPjYhELXOuWCPcJjlZOoCMnzAxzcJB+QEKcrMWLRERVRFnHP5fwm+Bgs2goGbtOtIGsVPX7nj23HYOOdgZPXYsfMygaN/+gwWgAaSiKNlFpVkpNLCkgbXGzZo1Tfd1cM+evUSs3F0IguzYsVO+8rdazFlwAhA7VsyePVfklf9Smt/mK2j2kK5Vq5a0vmPNryMcBDCby/ILymnnzp2l7MTKRFrizMU8uIw2JwRmXtbhHo7ZPgozM/fNmjWXSVBjxow14lwRXl7eUpJx5ox7osptOm7XXVh2ER4ejk2bbAMKx+2wxpvnleUbzPq/C5zfA9u88Wv8Pv0HoEfvPlKDHBgSJllKrpo3Zvx4rFi1WqSXC5y4UzrCQRIXbZm3YAG6dO+OxKTaRsyjZLvsttGyTTuM+G4UFi9dit179kg/60dmUJUVL1/Zao3fZfmKBcVzgZHnvgP6o2mL5kgyA9vadesjIbEm/INDERMbh7lz5+eb7OxLcw5YBsSJmP0HDU49vszasz/1Hz/9TCZlckBgsX3nLjnvrE13bBOoKErhQaVZKTRQGPl1PifxOWc/WbaRlFQLR464P0mMbeSYaZ41a7b9FhvMejLTzCwoBYT3s83a20jzihUrpbTAOZPK98JFUzjRjwu0dOvWQ1Y25O8zZ35vxPnN5C6WOHTt2l0y6Y49pnPK6tVrEcuJXo2bpJaNsDRj3Ljx8PT0QoMGDWVRB3ewZJPiyF7K8+cvwGIjHMzWO8fixUvlPgozO4h07doVN27YXsfazqNHj6StHPs0jx077p3LFuVz+44dslLhR598ijLlPVHJiF/bdskYN2GC9O49f+Gi1Bu7A0tVOBgbPnKkkcoWiDYDAa6UWKVqVVnKmd+UUND27Nsvx9zdyX3sxrHZDCi44EbT5i1kQiFLX94Xj588xsVLF3H8+HGZ0Hj4yFGpC080n02/gEDMnTfvvUi9I6nXmBHlnr17y6qV7Tt1xtbt23H33n2pbf7t738Pn8AgGRBdNJ85TuZkLXNYRKRcFzbSDrAURSn4qDQrhQZmgXr37iNlA4cPH7bfamPmzBlS08yJaxnBP5aOmUROSGM5gvMkL042Y2aZ/aApa6wrZueI7AorSy5YmsH9chRuSsPatWvltdnpg19xU4yZUeYS3Mysbt26zf5o24Q8TkakQO7du9d+69vD7fH12Ve5YcPG6eqsKazTjHyxBzO7WFgr0rkD30NKSnvZNjthVK9ePV3wWCaY48uJkWxfZ00wtM4N634p1GFhkejZszdu3bK1l3M8d3kFSyrmmcESa4aDwyOk3KB5i1YYY8SdpRGulsvOCHbAWL16NQaY66xmnbrytX+YOYc1jEB26tIV02bMlO4tnPTo7ntj/S1XSqRgsyNHktluaLjZrtnPKuZ4TjfbtGrS8xOHzWC2elISKsbG4tz5t5tQm1s4/n+A56hPv35yboIjIqQsgy3//u8PH+HzYl9L6z92zWDpSU1z3lIHv+bp7+J6VBTl3aLSrBQabFlf1iG/+TrfghnmmjWNjBgJo6wSxz+OxPF3fvXP9m9cdY4r/1nwNZjZpDSzwwYzfsz8MsvLns/ZgVnAHj16SE2uo8hQ/rsYaeIy4BQgR3bu3CnS3M8IkSPsicx2evyjndM/1qwH50IqzNjv37/ffmtaCeAxZK9qlmq0bt1W2vS5A/sn82tvyTQvXpxhLFq0SDLSzl1BKMgczLBkgwu9cGVA4njucgvH7V24eBFTpk1DUt268A8MQWUj/ewQscYMnLJz3q9euyrP4QS+xFq1EBEVLVG7fj0MHjYMK41Es91Zdibv8drhMs9TZsyQjhVVqiZIf2EusV2/URMMHjoUS5ctw5GjR3Dv/r18k8kljj8vXb4cHr6+mDB5Sq6fy+zi+Po8vmvXr5Nly/ktQJWEBKlXr2WuhcZNm6Jd+/bSq/rUyTefAT7/Pb8FRVHyAJVmpVBBkaVUMvtrfWXPP2Ds2fzdd6yPjU5znysohFyIg6UB7LrhCLN+LAFhBpYTrV68+AEzZsyU7Cj7Cb969VJEOqvg465cuWzkuIssxMJtWXBiFWuYW7ZsZR6TVsgotOxvnJycYr/FBmWamWnWIOdUijihcdKkyThw4E3XEFcSQ7Fj5xBmuFnzfOJEWmnIbSinrGEOCQkVcbayujZByf3X4za52t2U6dNRs1YdqWFNSEzE2PETpNtFRjjvy8NHj7B9xy4MMVJc2wxEmKEOMO+hfqPG0iKOZRnXrmdvwPXg4QPs2r3bPH8cmrdoaSS+iqxMF2lEOaVjR0w2gr/VDKRu3rxlf0b+5+LFS2ZQUg9VzQA0Oxn7vMT5XLI39pRpU9GkaXPpv33n7h0p1VEUpWig0qwUKlg60LhxUzRv3kIkllh/+Pg7M8fs48wltq37LSjSlG72CPb19cegQYMkG+wI25uxtIAT4gh7sU43UuXt7SOLb/C5/fsPyDL4uK5du0nLNpYpOK5gx2WiKYfsWHHw4CH7rTYoWMwoczU8C0ryihUrpGczFzrJbYHk9py3af3OAQCzwiwxadSoqRFt91vmZYfz58+jffv2MjFz7NjxUqJBrH1z3r/cYueuXUZEK0m7uIlmIOFcgpPZa3MyH3suJ7fvIL18fQOCUbdBIyPPw6UP8/0HtvfgCM9lRtvkwGrHjh0YNWaMdJ5gKYOvfyBqJCahZ+8+mGkGg0eOHLU/Oj15dYxyCw7CZpj3wPKHlStX53jwlxuknguHQ8dBVER0RZmk60hG501RlMKDSrNSqOAfLdb3hoaGucwonzlzWvovU5yZHaU8z5w5S7LFrC+uU7uuiFn//v3TCTO/pmUnC3bOYNcLQmmkyLRq1UbKGerXb4AG9RtmGXwcJ9hRNrmAxy4jZxZ8D6xZZsac9b/MIjPDzH/5GnzO3r377I+2ta2jRFPmz57Nm7ZrmckA72Mbvri4OOkEwtZ3rjP5mQkF77PCJo6WNLH0g4Mglt3wnD5/nrZ7SF7BrbPWfP7CBTJ5zR3Y8WTX7l1S45xUp56sKleRrcm6dMGKlatSS4Pchdvbt38/Zsz8Hp26dUe4GTBV8PKROtpOZtC1YOGiApVNzgq2nosx13eK+Zxl1s/5fTLZSDNrmVnyoihK0UKlWSl0UExatWot3TJclRgwS8k+w82atZBaZEoogzXEzERzcpbV1s0SN/47a9YsEWpmmS1f4zYpzhRqbpf/uhvskLFt2zZZTZDdEV6+fJNZo3SyZpiTGrlvTZo0QeXKsdL+jTW/jrBTCOuvO3XqJNt9X2zdymXAE81xTJQ2fexvPWPG95g2bYasAMjJg9OmTTM/22PKVFlsxoqpU6dITJk8BZMleNs0OY+sneYETB5rYmVk3yWZvR6POycCDjSDF67Ex0Uv2JuYfZmdhZvbscIVXIb69JmzItkDBw+W0gsu01w5Pk7qZ6UswL6UsyPv+njkBezs0btPX4RERuDEyVP58j2x9EWlWVGKJirNSqGEEwHZnq1t23bpyjAsKMas32XHCcq1c5cCx59ty1zHS0b58uUr9ltzLiqUn+7de4o4u1qGeufOXTLpr02bNpJNZvcJR2xyPV1KM5jtdZ3hfXew00bNmjXx5ZfFULp0WcTGxkv5SXx8gkye5EqK7Iohv8ezQ4YteB/LUSTk5+rmtupyHwcEfG8WPOZW5DkOL+HqdTnwYYeLXkb0uNqfX0AQWrZqK0toW4teOOK4DcftEE7S44S+iWYAkcguDT6+CAmPkI4pCxcvws3bGWeUXW2voLLRfNa8/AMwety4bE2IfFeoNCtK0UWlWSm0zJs3D+FGOjp06Cj1pW8DxZoLZzAjze4be/bkvKWbM7t370FMTBURfKsbhDtQktgajqUmbP127176Gtl3haOwHTp0SMpPWK/Nshe2pOMKdY7BSX0cpFjBLhmc/OUqmMV934MBC+t9vnjxEidPncLAoUNEln2MLHfs3AUHzKAhO/vK7V0xx2Pdhg3o3L07/IKCpaa3WmJNjBs/Xrp2mAfZH1004ORLTpjkAig3zPnPb6g0K0rRRaVZKdSwHRzFmQtxMFvM+l93oMzcunVLns/aYgoza4rzAmbTWC7C5aK7dOlmBD/tEuCu4HMozCzdsK106F7Lt7yCx8tRnE+ePCnZc/ZyzmxyWnZ4HyUZrrhvJP57tjaMiEKpcuXQzgxYjhw9llrK4w4cjF24dBHzFy5EjaQklCxTFkFh4bKIxp49+2R57SLmyqnw2h5rBgzMtG/Zsi1bx/VdoNKsKEUXlWalUMOsH2uUWa8cEBCE3r17G4k7LP1+KdD8A83HMHP47NlT3L9/D1evXsHWrVulC4ePj59kcbmCWV5i63s8XQQ/Kam2LKhy69Zt6QZCweI+sqvGgwf3pTxkwoSJ8PMLQN26deX95AcsoeW/u3fvlfpr1iNToAsTS1esgH9QMKonJklNOtsZuguvN37jPzcBAAAD5ElEQVSbMHHSFIRFRqNE6TKIiKpozucEyapmZ1uFmQMHDyAoJAT9Bwx6r3X6rlBpVpSii0qzUuhhpoore40Y/h0iIyrK0tisqWUXDU5Y4yqBixcvkQl+7KjBbhbsvsE6W04+y+s/2pZsUtq3bNkq3Tn4+nFx8ejZs6eUmbCl3OTJk6WLRHh4lPQq5gIoVgs0buN9ZmEdX5slLKxNrlOnntQ455fSityA7/LOvbs4deaMlJRkeswd7vrhxQspwxg0eAj8gkJQokwZJNWtgzXr1+HW7dsqy07cf/gAM2bNwpy581WaFUXJN6g0K4UaR6lhNpcr7FGQWedcqVIlkU9KNBcyYVD2Bhux2bhxIy5cuJjarSEvcdxH/szJiZTk5ORkqQsOCQmTfQwODpGJdOy0sWfPHlla2yJTeXuHsBSDE/9q1KiRpi1eYcHVceZtzufQgj9fv3lDVuXjktulypRDi1atsXnLljS9uYmrbRdVeCzYco4Lw+S3QZdKs6IUXVSalSIH/wizXpllA/v27Ze+wpRQLiTCRTTcrXvOS5gd5z4eO3ZM9o0dGrik9blzZ6VkIz/CLiQUZpbC8Oeizt17dzFuwkRUiq2Ccp6eaJPcHhs2bkrX/1spWEyaNlUWq1FpVpSih0qzoig5hh0z2JKPJSVFXZi5tPqK1aukA0Q5Tx/Ub9wYy1eskBp1peAzccpkhEVFY/GSJfZbFEUpKqg0K4qSY5itb9mypbTPK2o4llVwRcZuPXvC2z8AsfFVMW3GTFy4dMl+r1IY2LVnN8aNn4DDR47Yb1EUpaig0qwoSo7haogsbSmqcJGTpctXIK5adXj7+qFnnz44cOiQ1ikXQp4+eyYL0ejkTUUpeqg0K4qi5JDTp0+jZu26iDfSPH/+gnxRF68oiqLkLirNiqIoOeTateuYN28+Dh3Wr+wVRVEKKyrNiqIouQhLMrQsQ1EUpfCh0qwoipJDHCVZpVlRFKVwotKsKIqSQ1SSFUVRCj8qzYqiKIqiKIqSBSrNiqIoiqIoipIFKs2KoiiKoiiKkgUqzYqiKIqiKIqSBSrNiqIoiqIoipIFKs2KoiiKoiiKkgUqzYqiKIqiKIqSBSrNiqIoiqIoipIFKs2KoiiKoiiKkgUqzYqiKIqiKIqSBSrNiqIoiqIoipIFKs2KoiiKoiiKkgUqzYqiKIqiKIqSBSrNiqIoiqIoipIFKs2KoiiKoiiKkgUqzYqiKIqiKIqSBSrNiqIoiqIoipIFKs2KoiiKoiiKkgUqzYqiKIqiKIqSBSrNiqIoiqIoipIFKs2KoiiKoiiKkgUqzYqiKIqiKIqSKcD/Dy7i1d+sJpVTAAAAAElFTkSuQmCC;" vertex="1" parent="1">
          <mxGeometry x="660" y="200" width="330.11" height="250" as="geometry" />
        </mxCell>
        <mxCell id="h-uWqXhC26z4cYvZZrTg-27" value="&lt;span style=&quot;color: rgb(51, 51, 51); font-family: Helvetica; font-size: 16px; font-style: normal; font-variant-ligatures: normal; font-variant-caps: normal; font-weight: 400; letter-spacing: normal; orphans: 2; text-align: center; text-indent: 0px; text-transform: none; widows: 2; word-spacing: 0px; -webkit-text-stroke-width: 0px; background-color: rgb(255, 255, 255); text-decoration-thickness: initial; text-decoration-style: initial; text-decoration-color: initial; float: none; display: inline !important;&quot;&gt;Red denote negative influences and green positive influences&lt;/span&gt;" style="shape=ext;double=1;rounded=0;whiteSpace=wrap;html=1;strokeWidth=0;dashed=1;" vertex="1" parent="1">
          <mxGeometry x="130" y="640" width="770" height="50" as="geometry" />
        </mxCell>
      </root>
    </mxGraphModel>
  </diagram>
</mxfile>
